<svg width="90" height="85" viewBox="0 0 90 85" fill="none" xmlns="http://www.w3.org/2000/svg">
<path d="M45 0C50.5785 7.42886 60.1083 10.7272 69.0855 8.33624L69.6154 8.19512L69.6257 8.34968C70.2421 17.585 76.2822 25.5732 85 28.6829C79.9691 36.8482 79.9691 47.1518 85 55.3171C76.2822 58.4268 70.2421 66.415 69.6257 75.6503L69.6154 75.8049L69.0855 75.6638C60.1083 73.2728 50.5785 76.5711 45 84C39.4216 76.5711 29.8917 73.2728 20.9145 75.6638L20.3846 75.8049L20.3743 75.6503C19.7579 66.415 13.7179 58.4268 5 55.3171C10.0309 47.1518 10.0309 36.8482 5 28.6829C13.7179 25.5732 19.7579 17.585 20.3743 8.34968L20.3846 8.19512L20.9145 8.33624C29.8917 10.7272 39.4216 7.42886 45 0Z" fill="#F9FFEA"/>
<path d="M22.129 10.6641C30.554 12.2758 39.2094 9.40458 45 3.12177C50.7906 9.40458 59.446 12.2758 67.871 10.6641C69.1576 18.9868 74.526 26.1268 82.1558 29.6763C78.2505 37.4228 78.2505 46.5772 82.1558 54.3237C74.526 57.8732 69.1576 65.0132 67.871 73.3359C59.446 71.7242 50.7906 74.5954 45 80.8782C39.2094 74.5954 30.554 71.7242 22.129 73.3359C20.8424 65.0132 15.474 57.8732 7.84421 54.3237C11.7495 46.5772 11.7495 37.4228 7.84421 29.6763C15.474 26.1268 20.8424 18.9868 22.129 10.6641Z" stroke="#26734E" stroke-width="4"/>
<circle cx="45" cy="42" r="23" fill="#F9FFEA" stroke="#26734E" stroke-width="4"/>
</svg>
