<svg width="1920" height="879" viewBox="0 0 1920 879" fill="none" xmlns="http://www.w3.org/2000/svg">
<mask id="path-1-inside-1_1578_200" fill="white">
<path fill-rule="evenodd" clip-rule="evenodd" d="M3.90393 41.9261L371.641 390.868H-415.689L-47.9512 41.9261C-33.4171 28.1348 -10.6302 28.1348 3.90393 41.9261ZM25.1174 19.57L416.415 390.868L448.894 421.687H404.12H208.552L416.426 619.001L448.895 649.82H404.129H208.552L416.426 847.135L448.895 877.954H404.129H-448.175H-492.941L-460.473 847.135L-252.598 649.82H-448.175H-492.941L-460.473 619.001L-252.598 421.687H-448.168H-492.941L-460.462 390.868L-69.1647 19.57C-42.739 -5.50509 -1.30829 -5.5051 25.1174 19.57ZM-210.533 424.251L-415.707 619.001H371.66L166.487 424.251H-210.533ZM-210.533 652.384L-415.707 847.135H371.66L166.487 652.384H-210.533Z"/>
</mask>
<path fill-rule="evenodd" clip-rule="evenodd" d="M3.90393 41.9261L371.641 390.868H-415.689L-47.9512 41.9261C-33.4171 28.1348 -10.6302 28.1348 3.90393 41.9261ZM25.1174 19.57L416.415 390.868L448.894 421.687H404.12H208.552L416.426 619.001L448.895 649.82H404.129H208.552L416.426 847.135L448.895 877.954H404.129H-448.175H-492.941L-460.473 847.135L-252.598 649.82H-448.175H-492.941L-460.473 619.001L-252.598 421.687H-448.168H-492.941L-460.462 390.868L-69.1647 19.57C-42.739 -5.50509 -1.30829 -5.5051 25.1174 19.57ZM-210.533 424.251L-415.707 619.001H371.66L166.487 424.251H-210.533ZM-210.533 652.384L-415.707 847.135H371.66L166.487 652.384H-210.533Z" fill="#FFFAB1"/>
<path d="M371.641 390.868V403.426H403.12L380.285 381.759L371.641 390.868ZM3.90393 41.9261L-4.73993 51.0355L-4.73993 51.0355L3.90393 41.9261ZM-415.689 390.868L-424.332 381.759L-447.167 403.426H-415.689V390.868ZM-47.9512 41.9261L-39.3074 51.0355L-39.3074 51.0355L-47.9512 41.9261ZM416.415 390.868L425.059 381.759L425.059 381.759L416.415 390.868ZM25.1174 19.57L33.7613 10.4605L33.7613 10.4605L25.1174 19.57ZM448.894 421.687V434.245H480.372L457.538 412.577L448.894 421.687ZM208.552 421.687V409.129H177.081L199.907 430.795L208.552 421.687ZM416.426 619.001L407.781 628.109L407.781 628.109L416.426 619.001ZM448.895 649.82V662.378H480.365L457.54 640.712L448.895 649.82ZM208.552 649.82V637.262H177.081L199.907 658.928L208.552 649.82ZM416.426 847.135L425.072 838.027L425.072 838.027L416.426 847.135ZM448.895 877.954V890.512H480.365L457.54 868.846L448.895 877.954ZM-492.941 877.954L-501.586 868.846L-524.412 890.512H-492.941V877.954ZM-460.473 847.135L-469.118 838.027L-469.118 838.027L-460.473 847.135ZM-252.598 649.82L-243.953 658.928L-221.127 637.262H-252.598V649.82ZM-492.941 649.82L-501.586 640.712L-524.412 662.378H-492.941V649.82ZM-460.473 619.001L-451.827 628.109L-451.827 628.109L-460.473 619.001ZM-252.598 421.687L-243.953 430.795L-221.128 409.129H-252.598V421.687ZM-492.941 421.687L-501.585 412.577L-524.42 434.245H-492.941V421.687ZM-460.462 390.868L-451.819 399.977L-460.462 390.868ZM-69.1647 19.57L-77.8086 10.4605L-77.8086 10.4605L-69.1647 19.57ZM-415.707 619.001L-424.352 609.893L-447.177 631.559H-415.707V619.001ZM-210.533 424.251V411.693H-215.544L-219.179 415.143L-210.533 424.251ZM371.66 619.001V631.559H403.131L380.306 609.893L371.66 619.001ZM166.487 424.251L175.132 415.143L171.498 411.693H166.487V424.251ZM-415.707 847.135L-424.352 838.027L-447.177 859.693H-415.707V847.135ZM-210.533 652.384V639.826H-215.544L-219.179 643.276L-210.533 652.384ZM371.66 847.135V859.693H403.131L380.306 838.027L371.66 847.135ZM166.487 652.384L175.132 643.276L171.498 639.826H166.487V652.384ZM380.285 381.759L12.5478 32.8166L-4.73993 51.0355L362.997 399.977L380.285 381.759ZM-415.689 403.426H371.641V378.31H-415.689V403.426ZM-56.5951 32.8166L-424.332 381.759L-407.045 399.977L-39.3074 51.0355L-56.5951 32.8166ZM12.5478 32.8166C-6.83178 14.4276 -37.2155 14.4275 -56.5951 32.8166L-39.3074 51.0355C-29.6187 41.8421 -14.4286 41.8421 -4.73993 51.0355L12.5478 32.8166ZM425.059 381.759L33.7613 10.4605L16.4736 28.6794L407.771 399.977L425.059 381.759ZM457.538 412.577L425.059 381.759L407.771 399.977L440.25 430.796L457.538 412.577ZM404.12 434.245H448.894V409.129H404.12V434.245ZM208.552 434.245H404.12V409.129H208.552V434.245ZM199.907 430.795L407.781 628.109L425.072 609.893L217.198 412.579L199.907 430.795ZM407.781 628.109L440.249 658.928L457.54 640.712L425.072 609.893L407.781 628.109ZM448.895 637.262H404.129V662.378H448.895V637.262ZM404.129 637.262H208.552V662.378H404.129V637.262ZM199.907 658.928L407.781 856.243L425.072 838.027L217.197 640.712L199.907 658.928ZM407.781 856.243L440.249 887.062L457.54 868.846L425.072 838.027L407.781 856.243ZM448.895 865.396H404.129V890.512H448.895V865.396ZM404.129 865.396H-448.175V890.512H404.129V865.396ZM-448.175 865.396H-492.941V890.512H-448.175V865.396ZM-484.296 887.062L-451.827 856.243L-469.118 838.027L-501.586 868.846L-484.296 887.062ZM-451.827 856.243L-243.953 658.928L-261.244 640.712L-469.118 838.027L-451.827 856.243ZM-252.598 637.262H-448.175V662.378H-252.598V637.262ZM-448.175 637.262H-492.941V662.378H-448.175V637.262ZM-484.296 658.928L-451.827 628.109L-469.118 609.893L-501.586 640.712L-484.296 658.928ZM-451.827 628.109L-243.953 430.795L-261.244 412.579L-469.118 609.893L-451.827 628.109ZM-448.168 434.245H-252.598V409.129H-448.168V434.245ZM-492.941 434.245H-448.168V409.129H-492.941V434.245ZM-469.106 381.759L-501.585 412.577L-484.298 430.796L-451.819 399.977L-469.106 381.759ZM-77.8086 10.4605L-469.106 381.759L-451.819 399.977L-60.5209 28.6794L-77.8086 10.4605ZM33.7613 10.4605C2.49011 -19.2124 -46.5374 -19.2123 -77.8086 10.4605L-60.5209 28.6794C-38.9406 8.20217 -5.10669 8.20216 16.4736 28.6794L33.7613 10.4605ZM-407.061 628.109L-201.888 433.359L-219.179 415.143L-424.352 609.893L-407.061 628.109ZM371.66 606.443H-415.707V631.559H371.66V606.443ZM157.842 433.359L363.015 628.109L380.306 609.893L175.132 415.143L157.842 433.359ZM-210.533 436.808H166.487V411.693H-210.533V436.808ZM-407.061 856.243L-201.888 661.492L-219.179 643.276L-424.352 838.027L-407.061 856.243ZM371.66 834.577H-415.707V859.693H371.66V834.577ZM157.842 661.492L363.015 856.243L380.306 838.027L175.132 643.276L157.842 661.492ZM-210.533 664.942H166.487V639.826H-210.533V664.942Z" fill="#FDFFDD" mask="url(#path-1-inside-1_1578_200)"/>
<mask id="path-3-inside-2_1578_200" fill="white">
<path fill-rule="evenodd" clip-rule="evenodd" d="M979.224 41.9261L1346.96 390.868H559.632L927.369 41.9261C941.903 28.1348 964.69 28.1348 979.224 41.9261ZM1000.44 19.57L1391.74 390.868L1424.21 421.687H1379.44H1183.87L1391.75 619.001L1424.22 649.82H1379.45H1183.87L1391.75 847.135L1424.22 877.954H1379.45H527.147H482.381L514.849 847.135L722.723 649.82H527.147H482.381L514.849 619.001L722.723 421.687H527.153H482.379L514.858 390.868L906.156 19.57C932.581 -5.50509 974.012 -5.5051 1000.44 19.57ZM764.788 424.251L559.615 619.001H1346.98L1141.81 424.251H764.788ZM764.788 652.384L559.615 847.135H1346.98L1141.81 652.384H764.788Z"/>
</mask>
<path fill-rule="evenodd" clip-rule="evenodd" d="M979.224 41.9261L1346.96 390.868H559.632L927.369 41.9261C941.903 28.1348 964.69 28.1348 979.224 41.9261ZM1000.44 19.57L1391.74 390.868L1424.21 421.687H1379.44H1183.87L1391.75 619.001L1424.22 649.82H1379.45H1183.87L1391.75 847.135L1424.22 877.954H1379.45H527.147H482.381L514.849 847.135L722.723 649.82H527.147H482.381L514.849 619.001L722.723 421.687H527.153H482.379L514.858 390.868L906.156 19.57C932.581 -5.50509 974.012 -5.5051 1000.44 19.57ZM764.788 424.251L559.615 619.001H1346.98L1141.81 424.251H764.788ZM764.788 652.384L559.615 847.135H1346.98L1141.81 652.384H764.788Z" fill="#FFFAB1"/>
<path d="M1346.96 390.868V403.426H1378.44L1355.61 381.759L1346.96 390.868ZM979.224 41.9261L970.58 51.0355L970.58 51.0355L979.224 41.9261ZM559.632 390.868L550.988 381.759L528.153 403.426H559.632V390.868ZM927.369 41.9261L936.013 51.0355L936.013 51.0355L927.369 41.9261ZM1391.74 390.868L1400.38 381.759L1400.38 381.759L1391.74 390.868ZM1000.44 19.57L1009.08 10.4605L1009.08 10.4605L1000.44 19.57ZM1424.21 421.687V434.245H1455.69L1432.86 412.577L1424.21 421.687ZM1183.87 421.687V409.129H1152.4L1175.23 430.795L1183.87 421.687ZM1391.75 619.001L1383.1 628.109L1383.1 628.109L1391.75 619.001ZM1424.22 649.82V662.378H1455.69L1432.86 640.712L1424.22 649.82ZM1183.87 649.82V637.262H1152.4L1175.23 658.928L1183.87 649.82ZM1391.75 847.135L1400.39 838.027L1400.39 838.027L1391.75 847.135ZM1424.22 877.954V890.512H1455.69L1432.86 868.846L1424.22 877.954ZM482.381 877.954L473.735 868.846L450.91 890.512H482.381V877.954ZM514.849 847.135L506.204 838.027L506.204 838.027L514.849 847.135ZM722.723 649.82L731.369 658.928L754.194 637.262H722.723V649.82ZM482.381 649.82L473.735 640.712L450.91 662.378H482.381V649.82ZM514.849 619.001L523.494 628.109L523.494 628.109L514.849 619.001ZM722.723 421.687L731.368 430.795L754.194 409.129H722.723V421.687ZM482.379 421.687L473.735 412.577L450.901 434.245H482.379V421.687ZM514.858 390.868L523.502 399.977L514.858 390.868ZM906.156 19.57L897.512 10.4605L897.512 10.4605L906.156 19.57ZM559.615 619.001L550.97 609.893L528.144 631.559H559.615V619.001ZM764.788 424.251V411.693H759.777L756.143 415.143L764.788 424.251ZM1346.98 619.001V631.559H1378.45L1355.63 609.893L1346.98 619.001ZM1141.81 424.251L1150.45 415.143L1146.82 411.693H1141.81V424.251ZM559.615 847.135L550.97 838.027L528.144 859.693H559.615V847.135ZM764.788 652.384V639.826H759.777L756.143 643.276L764.788 652.384ZM1346.98 847.135V859.693H1378.45L1355.63 838.027L1346.98 847.135ZM1141.81 652.384L1150.45 643.276L1146.82 639.826H1141.81V652.384ZM1355.61 381.759L987.868 32.8166L970.58 51.0355L1338.32 399.977L1355.61 381.759ZM559.632 403.426H1346.96V378.31H559.632V403.426ZM918.725 32.8166L550.988 381.759L568.276 399.977L936.013 51.0355L918.725 32.8166ZM987.868 32.8166C968.489 14.4276 938.105 14.4275 918.725 32.8166L936.013 51.0355C945.702 41.8421 960.892 41.8421 970.58 51.0355L987.868 32.8166ZM1400.38 381.759L1009.08 10.4605L991.794 28.6794L1383.09 399.977L1400.38 381.759ZM1432.86 412.577L1400.38 381.759L1383.09 399.977L1415.57 430.796L1432.86 412.577ZM1379.44 434.245H1424.21V409.129H1379.44V434.245ZM1183.87 434.245H1379.44V409.129H1183.87V434.245ZM1175.23 430.795L1383.1 628.109L1400.39 609.893L1192.52 412.579L1175.23 430.795ZM1383.1 628.109L1415.57 658.928L1432.86 640.712L1400.39 609.893L1383.1 628.109ZM1424.22 637.262H1379.45V662.378H1424.22V637.262ZM1379.45 637.262H1183.87V662.378H1379.45V637.262ZM1175.23 658.928L1383.1 856.243L1400.39 838.027L1192.52 640.712L1175.23 658.928ZM1383.1 856.243L1415.57 887.062L1432.86 868.846L1400.39 838.027L1383.1 856.243ZM1424.22 865.396H1379.45V890.512H1424.22V865.396ZM1379.45 865.396H527.147V890.512H1379.45V865.396ZM527.147 865.396H482.381V890.512H527.147V865.396ZM491.026 887.062L523.494 856.243L506.204 838.027L473.735 868.846L491.026 887.062ZM523.494 856.243L731.369 658.928L714.078 640.712L506.204 838.027L523.494 856.243ZM722.723 637.262H527.147V662.378H722.723V637.262ZM527.147 637.262H482.381V662.378H527.147V637.262ZM491.026 658.928L523.494 628.109L506.204 609.893L473.735 640.712L491.026 658.928ZM523.494 628.109L731.368 430.795L714.078 412.579L506.204 609.893L523.494 628.109ZM527.153 434.245H722.723V409.129H527.153V434.245ZM482.379 434.245H527.153V409.129H482.379V434.245ZM506.214 381.759L473.735 412.577L491.023 430.796L523.502 399.977L506.214 381.759ZM897.512 10.4605L506.214 381.759L523.502 399.977L914.799 28.6794L897.512 10.4605ZM1009.08 10.4605C977.81 -19.2124 928.783 -19.2123 897.512 10.4605L914.799 28.6794C936.38 8.20217 970.214 8.20216 991.794 28.6794L1009.08 10.4605ZM568.26 628.109L773.434 433.359L756.143 415.143L550.97 609.893L568.26 628.109ZM1346.98 606.443H559.615V631.559H1346.98V606.443ZM1133.16 433.359L1338.34 628.109L1355.63 609.893L1150.45 415.143L1133.16 433.359ZM764.788 436.808H1141.81V411.693H764.788V436.808ZM568.26 856.243L773.434 661.492L756.143 643.276L550.97 838.027L568.26 856.243ZM1346.98 834.577H559.615V859.693H1346.98V834.577ZM1133.16 661.492L1338.34 856.243L1355.63 838.027L1150.45 643.276L1133.16 661.492ZM764.788 664.942H1141.81V639.826H764.788V664.942Z" fill="#FDFFDD" mask="url(#path-3-inside-2_1578_200)"/>
<mask id="path-5-inside-3_1578_200" fill="white">
<path fill-rule="evenodd" clip-rule="evenodd" d="M1953.49 41.9261L2321.23 390.868H1533.9L1901.64 41.9261C1916.17 28.1348 1938.96 28.1348 1953.49 41.9261ZM1974.71 19.57L2366 390.868L2398.48 421.687H2353.71H2158.14L2366.02 619.001L2398.49 649.82H2353.72H2158.14L2366.02 847.135L2398.49 877.954H2353.72H1501.42H1456.65L1489.12 847.135L1696.99 649.82H1501.42H1456.65L1489.12 619.001L1696.99 421.687H1501.42H1456.65L1489.13 390.868L1880.43 19.57C1906.85 -5.50509 1948.28 -5.5051 1974.71 19.57ZM1739.06 424.251L1533.89 619.001H2321.25L2116.08 424.251H1739.06ZM1739.06 652.384L1533.89 847.135H2321.25L2116.08 652.384H1739.06Z"/>
</mask>
<path fill-rule="evenodd" clip-rule="evenodd" d="M1953.49 41.9261L2321.23 390.868H1533.9L1901.64 41.9261C1916.17 28.1348 1938.96 28.1348 1953.49 41.9261ZM1974.71 19.57L2366 390.868L2398.48 421.687H2353.71H2158.14L2366.02 619.001L2398.49 649.82H2353.72H2158.14L2366.02 847.135L2398.49 877.954H2353.72H1501.42H1456.65L1489.12 847.135L1696.99 649.82H1501.42H1456.65L1489.12 619.001L1696.99 421.687H1501.42H1456.65L1489.13 390.868L1880.43 19.57C1906.85 -5.50509 1948.28 -5.5051 1974.71 19.57ZM1739.06 424.251L1533.89 619.001H2321.25L2116.08 424.251H1739.06ZM1739.06 652.384L1533.89 847.135H2321.25L2116.08 652.384H1739.06Z" fill="#FFFAB1"/>
<path d="M2321.23 390.868V403.426H2352.71L2329.88 381.759L2321.23 390.868ZM1953.49 41.9261L1944.85 51.0355L1944.85 51.0355L1953.49 41.9261ZM1533.9 390.868L1525.26 381.759L1502.42 403.426H1533.9V390.868ZM1901.64 41.9261L1910.28 51.0355L1910.28 51.0355L1901.64 41.9261ZM2366 390.868L2374.65 381.759L2374.65 381.759L2366 390.868ZM1974.71 19.57L1983.35 10.4605L1983.35 10.4605L1974.71 19.57ZM2398.48 421.687V434.245H2429.96L2407.13 412.577L2398.48 421.687ZM2158.14 421.687V409.129H2126.67L2149.5 430.795L2158.14 421.687ZM2366.02 619.001L2357.37 628.109L2357.37 628.109L2366.02 619.001ZM2398.49 649.82V662.378H2429.96L2407.13 640.712L2398.49 649.82ZM2158.14 649.82V637.262H2126.67L2149.5 658.928L2158.14 649.82ZM2366.02 847.135L2374.66 838.027L2374.66 838.027L2366.02 847.135ZM2398.49 877.954V890.512H2429.96L2407.13 868.846L2398.49 877.954ZM1456.65 877.954L1448.01 868.846L1425.18 890.512H1456.65V877.954ZM1489.12 847.135L1480.47 838.027L1480.47 838.027L1489.12 847.135ZM1696.99 649.82L1705.64 658.928L1728.46 637.262H1696.99V649.82ZM1456.65 649.82L1448.01 640.712L1425.18 662.378H1456.65V649.82ZM1489.12 619.001L1497.76 628.109L1497.76 628.109L1489.12 619.001ZM1696.99 421.687L1705.64 430.795L1728.46 409.129H1696.99V421.687ZM1456.65 421.687L1448 412.577L1425.17 434.245H1456.65V421.687ZM1489.13 390.868L1497.77 399.977L1489.13 390.868ZM1880.43 19.57L1871.78 10.4605L1871.78 10.4605L1880.43 19.57ZM1533.89 619.001L1525.24 609.893L1502.41 631.559H1533.89V619.001ZM1739.06 424.251V411.693H1734.05L1730.41 415.143L1739.06 424.251ZM2321.25 619.001V631.559H2352.72L2329.9 609.893L2321.25 619.001ZM2116.08 424.251L2124.72 415.143L2121.09 411.693H2116.08V424.251ZM1533.89 847.135L1525.24 838.027L1502.41 859.693H1533.89V847.135ZM1739.06 652.384V639.826H1734.05L1730.41 643.276L1739.06 652.384ZM2321.25 847.135V859.693H2352.72L2329.9 838.027L2321.25 847.135ZM2116.08 652.384L2124.72 643.276L2121.09 639.826H2116.08V652.384ZM2329.88 381.759L1962.14 32.8166L1944.85 51.0355L2312.59 399.977L2329.88 381.759ZM1533.9 403.426H2321.23V378.31H1533.9V403.426ZM1892.99 32.8166L1525.26 381.759L1542.55 399.977L1910.28 51.0355L1892.99 32.8166ZM1962.14 32.8166C1942.76 14.4276 1912.37 14.4275 1892.99 32.8166L1910.28 51.0355C1919.97 41.8421 1935.16 41.8421 1944.85 51.0355L1962.14 32.8166ZM2374.65 381.759L1983.35 10.4605L1966.06 28.6794L2357.36 399.977L2374.65 381.759ZM2407.13 412.577L2374.65 381.759L2357.36 399.977L2389.84 430.796L2407.13 412.577ZM2353.71 434.245H2398.48V409.129H2353.71V434.245ZM2158.14 434.245H2353.71V409.129H2158.14V434.245ZM2149.5 430.795L2357.37 628.109L2374.66 609.893L2166.79 412.579L2149.5 430.795ZM2357.37 628.109L2389.84 658.928L2407.13 640.712L2374.66 609.893L2357.37 628.109ZM2398.49 637.262H2353.72V662.378H2398.49V637.262ZM2353.72 637.262H2158.14V662.378H2353.72V637.262ZM2149.5 658.928L2357.37 856.243L2374.66 838.027L2166.79 640.712L2149.5 658.928ZM2357.37 856.243L2389.84 887.062L2407.13 868.846L2374.66 838.027L2357.37 856.243ZM2398.49 865.396H2353.72V890.512H2398.49V865.396ZM2353.72 865.396H1501.42V890.512H2353.72V865.396ZM1501.42 865.396H1456.65V890.512H1501.42V865.396ZM1465.3 887.062L1497.76 856.243L1480.47 838.027L1448.01 868.846L1465.3 887.062ZM1497.76 856.243L1705.64 658.928L1688.35 640.712L1480.47 838.027L1497.76 856.243ZM1696.99 637.262H1501.42V662.378H1696.99V637.262ZM1501.42 637.262H1456.65V662.378H1501.42V637.262ZM1465.3 658.928L1497.76 628.109L1480.47 609.893L1448.01 640.712L1465.3 658.928ZM1497.76 628.109L1705.64 430.795L1688.35 412.579L1480.47 609.893L1497.76 628.109ZM1501.42 434.245H1696.99V409.129H1501.42V434.245ZM1456.65 434.245H1501.42V409.129H1456.65V434.245ZM1480.48 381.759L1448 412.577L1465.29 430.796L1497.77 399.977L1480.48 381.759ZM1871.78 10.4605L1480.48 381.759L1497.77 399.977L1889.07 28.6794L1871.78 10.4605ZM1983.35 10.4605C1952.08 -19.2124 1903.05 -19.2123 1871.78 10.4605L1889.07 28.6794C1910.65 8.20217 1944.48 8.20216 1966.06 28.6794L1983.35 10.4605ZM1542.53 628.109L1747.7 433.359L1730.41 415.143L1525.24 609.893L1542.53 628.109ZM2321.25 606.443H1533.89V631.559H2321.25V606.443ZM2107.43 433.359L2312.61 628.109L2329.9 609.893L2124.72 415.143L2107.43 433.359ZM1739.06 436.808H2116.08V411.693H1739.06V436.808ZM1542.53 856.243L1747.7 661.492L1730.41 643.276L1525.24 838.027L1542.53 856.243ZM2321.25 834.577H1533.89V859.693H2321.25V834.577ZM2107.43 661.492L2312.61 856.243L2329.9 838.027L2124.72 643.276L2107.43 661.492ZM1739.06 664.942H2116.08V639.826H1739.06V664.942Z" fill="#FDFFDD" mask="url(#path-5-inside-3_1578_200)"/>
</svg>
