<svg width="62" height="62" viewBox="0 0 62 62" fill="none" xmlns="http://www.w3.org/2000/svg">
<mask id="path-1-inside-1_805_186" fill="white">
<path fill-rule="evenodd" clip-rule="evenodd" d="M1.21782 27.6143C-0.405938 29.5838 -0.405937 32.4162 1.21782 34.3857L22.3587 60.0285C25.5648 63.9173 31.9158 61.6674 31.9158 56.6427L31.9158 52.2402L56.6123 52.2402C59.5877 52.2402 61.9997 49.8465 61.9997 46.8936L61.9997 15.3485C61.9997 12.3956 59.5877 10.0018 56.6123 10.0018L31.9158 10.0018L31.9158 5.35726C31.9158 0.332596 25.5648 -1.91731 22.3587 1.97155L1.21782 27.6143Z"/>
</mask>
<path fill-rule="evenodd" clip-rule="evenodd" d="M1.21782 27.6143C-0.405938 29.5838 -0.405937 32.4162 1.21782 34.3857L22.3587 60.0285C25.5648 63.9173 31.9158 61.6674 31.9158 56.6427L31.9158 52.2402L56.6123 52.2402C59.5877 52.2402 61.9997 49.8465 61.9997 46.8936L61.9997 15.3485C61.9997 12.3956 59.5877 10.0018 56.6123 10.0018L31.9158 10.0018L31.9158 5.35726C31.9158 0.332596 25.5648 -1.91731 22.3587 1.97155L1.21782 27.6143Z" fill="#FAFAFA"/>
<path d="M1.21782 34.3857L2.988 32.9263L1.21782 34.3857ZM1.21782 27.6143L2.988 29.0737L2.988 29.0737L1.21782 27.6143ZM22.3587 60.0285L20.5885 61.4879L22.3587 60.0285ZM31.9158 52.2402L31.9158 49.946L29.6216 49.946L29.6216 52.2402L31.9158 52.2402ZM31.9158 10.0018L29.6216 10.0018L29.6216 12.296L31.9158 12.296L31.9158 10.0018ZM31.9158 5.35726L34.21 5.35726L31.9158 5.35726ZM22.3587 1.97155L24.1289 3.43095L24.1289 3.43095L22.3587 1.97155ZM2.988 32.9263C2.06295 31.8043 2.06295 30.1957 2.988 29.0737L-0.552363 26.1549C-2.87483 28.9719 -2.87482 33.0281 -0.552363 35.8451L2.988 32.9263ZM24.1289 58.569L2.988 32.9263L-0.552363 35.8451L20.5885 61.4879L24.1289 58.569ZM29.6216 56.6427C29.6216 59.477 25.9908 60.8274 24.1289 58.569L20.5885 61.4879C25.1389 67.0072 34.21 63.8578 34.21 56.6427L29.6216 56.6427ZM29.6216 52.2402L29.6216 56.6427L34.21 56.6427L34.21 52.2402L29.6216 52.2402ZM56.6123 49.946L31.9158 49.946L31.9158 54.5344L56.6123 54.5344L56.6123 49.946ZM59.7055 46.8936C59.7055 48.563 58.3371 49.946 56.6123 49.946L56.6123 54.5344C60.8382 54.5344 64.2939 51.1299 64.2939 46.8936L59.7055 46.8936ZM59.7055 15.3485L59.7055 46.8936L64.2939 46.8936L64.2939 15.3485L59.7055 15.3485ZM56.6123 12.296C58.3371 12.296 59.7055 13.6791 59.7055 15.3485L64.2939 15.3485C64.2939 11.1121 60.8382 7.70762 56.6123 7.70762L56.6123 12.296ZM31.9158 12.296L56.6123 12.296L56.6123 7.70762L31.9158 7.70762L31.9158 12.296ZM29.6216 5.35726L29.6216 10.0018L34.21 10.0018L34.21 5.35726L29.6216 5.35726ZM24.1289 3.43095C25.9908 1.17256 29.6216 2.52297 29.6216 5.35726L34.21 5.35726C34.21 -1.85778 25.1389 -5.00719 20.5885 0.51214L24.1289 3.43095ZM2.988 29.0737L24.1289 3.43095L20.5885 0.51214L-0.552364 26.1549L2.988 29.0737Z" fill="#155335" mask="url(#path-1-inside-1_805_186)"/>
</svg>
