<svg width="62" height="63" viewBox="0 0 62 63" fill="none" xmlns="http://www.w3.org/2000/svg">
<mask id="path-1-inside-1_805_179" fill="white">
<path fill-rule="evenodd" clip-rule="evenodd" d="M1.20113 27.6792C-0.400375 29.6534 -0.400374 32.4925 1.20113 34.4667L22.0523 60.1703C25.2145 64.0683 31.4785 61.8131 31.4785 56.7765L31.4785 52.3633L55.8368 52.3633C58.7714 52.3633 61.1504 49.9638 61.1504 47.004L61.1504 15.384C61.1504 12.4242 58.7714 10.0247 55.8368 10.0247L31.4784 10.0247L31.4784 5.36945C31.4784 0.332866 25.2145 -1.92237 22.0523 1.9757L1.20113 27.6792Z"/>
</mask>
<path fill-rule="evenodd" clip-rule="evenodd" d="M1.20113 27.6792C-0.400375 29.6534 -0.400374 32.4925 1.20113 34.4667L22.0523 60.1703C25.2145 64.0683 31.4785 61.8131 31.4785 56.7765L31.4785 52.3633L55.8368 52.3633C58.7714 52.3633 61.1504 49.9638 61.1504 47.004L61.1504 15.384C61.1504 12.4242 58.7714 10.0247 55.8368 10.0247L31.4784 10.0247L31.4784 5.36945C31.4784 0.332866 25.2145 -1.92237 22.0523 1.9757L1.20113 27.6792Z" fill="#FAFAFA"/>
<path d="M1.20113 34.4667L2.98282 33.0214L2.98282 33.0214L1.20113 34.4667ZM1.20113 27.6792L-0.580558 26.2339L-0.580558 26.2339L1.20113 27.6792ZM22.0523 60.1703L20.2706 61.6156L22.0523 60.1703ZM31.4785 52.3633L31.4785 50.0691L29.1842 50.0691L29.1842 52.3633L31.4785 52.3633ZM61.1504 47.004L58.8562 47.004L61.1504 47.004ZM61.1504 15.384L63.4446 15.384L61.1504 15.384ZM31.4784 10.0247L29.1842 10.0247L29.1842 12.3189L31.4784 12.3189L31.4784 10.0247ZM31.4784 5.36945L29.1842 5.36945L31.4784 5.36945ZM22.0523 1.9757L20.2706 0.530363L20.2706 0.530364L22.0523 1.9757ZM2.98282 33.0214C2.06468 31.8896 2.06468 30.2564 2.98282 29.1246L-0.580558 26.2339C-2.86543 29.0505 -2.86543 33.0955 -0.580556 35.9121L2.98282 33.0214ZM23.834 58.7249L2.98282 33.0214L-0.580556 35.9121L20.2706 61.6156L23.834 58.7249ZM29.1842 56.7765C29.1842 59.6963 25.6071 60.9107 23.834 58.7249L20.2706 61.6156C24.8219 67.226 33.7727 63.9299 33.7727 56.7765L29.1842 56.7765ZM29.1842 52.3633L29.1842 56.7765L33.7727 56.7765L33.7727 52.3633L29.1842 52.3633ZM55.8368 50.0691L31.4785 50.0691L31.4785 54.6575L55.8368 54.6575L55.8368 50.0691ZM58.8562 47.004C58.8562 48.7153 57.4859 50.0691 55.8368 50.0691L55.8368 54.6575C60.0569 54.6575 63.4446 51.2123 63.4446 47.004L58.8562 47.004ZM58.8562 15.384L58.8562 47.004L63.4446 47.004L63.4446 15.384L58.8562 15.384ZM55.8368 12.3189C57.4859 12.3189 58.8562 13.6727 58.8562 15.384L63.4446 15.384C63.4446 11.1757 60.0569 7.73052 55.8368 7.73052L55.8368 12.3189ZM31.4784 12.3189L55.8368 12.3189L55.8368 7.73052L31.4784 7.73052L31.4784 12.3189ZM29.1842 5.36945L29.1842 10.0247L33.7727 10.0247L33.7727 5.36945L29.1842 5.36945ZM23.834 3.42104C25.6071 1.23528 29.1842 2.44962 29.1842 5.36945L33.7727 5.36945C33.7727 -1.78389 24.8219 -5.08003 20.2706 0.530363L23.834 3.42104ZM2.98282 29.1246L23.834 3.42104L20.2706 0.530364L-0.580558 26.2339L2.98282 29.1246Z" fill="#155335" mask="url(#path-1-inside-1_805_179)"/>
</svg>
