<svg width="747" height="673" viewBox="0 0 747 673" fill="none" xmlns="http://www.w3.org/2000/svg">
<mask id="path-1-inside-1_1604_96" fill="white">
<path fill-rule="evenodd" clip-rule="evenodd" d="M252.5 504C252.667 504 252.833 504 253 503.999L253 504C253 596.784 326.649 672 417.5 672C508.351 672 582 596.784 582 504C582 504 582 503.999 582 503.999C582.167 504 582.333 504 582.5 504C673.351 504 747 428.784 747 336C747 243.216 673.351 168 582.5 168C582.333 168 582.167 168 582 168.001C582 168 582 168 582 168C582 75.2161 508.351 -1.11511e-05 417.5 -7.18368e-06C326.649 -3.21624e-06 253 75.2162 253 168L253 168.001C252.833 168 252.667 168 252.5 168C161.649 168 88 243.216 88 336C88 428.784 161.649 504 252.5 504ZM418 335.999C418 335.999 418 336 418 336C418 336 418 336.001 418 336.001C417.833 336 417.667 336 417.5 336C417.333 336 417.167 336 417 336.001L417 336L417 335.999C417.167 336 417.333 336 417.5 336C417.667 336 417.833 336 418 335.999Z"/>
</mask>
<path fill-rule="evenodd" clip-rule="evenodd" d="M252.5 504C252.667 504 252.833 504 253 503.999L253 504C253 596.784 326.649 672 417.5 672C508.351 672 582 596.784 582 504C582 504 582 503.999 582 503.999C582.167 504 582.333 504 582.5 504C673.351 504 747 428.784 747 336C747 243.216 673.351 168 582.5 168C582.333 168 582.167 168 582 168.001C582 168 582 168 582 168C582 75.2161 508.351 -1.11511e-05 417.5 -7.18368e-06C326.649 -3.21624e-06 253 75.2162 253 168L253 168.001C252.833 168 252.667 168 252.5 168C161.649 168 88 243.216 88 336C88 428.784 161.649 504 252.5 504ZM418 335.999C418 335.999 418 336 418 336C418 336 418 336.001 418 336.001C417.833 336 417.667 336 417.5 336C417.333 336 417.167 336 417 336.001L417 336L417 335.999C417.167 336 417.333 336 417.5 336C417.667 336 417.833 336 418 335.999Z" fill="#A7EF9B"/>
<path d="M253 503.999L252.975 495.999L261 495.974L261 503.999L253 503.999ZM582 503.999L574 503.999L574 495.974L582.025 495.999L582 503.999ZM582 168.001L582.024 176.001L574 176.025L574 168.001L582 168.001ZM253 168L261 168L253 168ZM253 168.001L261 168.001L261 176.025L252.976 176.001L253 168.001ZM418 335.999L417.975 327.999L426 327.974L426 335.999L418 335.999ZM418 336.001L426 336.001L426 344.026L417.975 344.001L418 336.001ZM417 336.001L417.025 344.001L409 344.026L409 336.001L417 336.001ZM417 336L409 336V336L417 336ZM417 335.999L409 335.999L409 327.974L417.025 327.999L417 335.999ZM253.025 511.999C252.85 512 252.675 512 252.5 512L252.5 496C252.659 496 252.817 496 252.975 495.999L253.025 511.999ZM245 504L245 503.999L261 503.999L261 504L245 504ZM417.5 680C322.073 680 245 601.042 245 504L261 504C261 592.525 331.225 664 417.5 664L417.5 680ZM590 504C590 601.042 512.927 680 417.5 680L417.5 664C503.775 664 574 592.525 574 504L590 504ZM590 503.999C590 503.999 590 503.999 590 504C590 504 590 504 590 504L574 504C574 504 574 504 574 504C574 503.999 574 503.999 574 503.999L590 503.999ZM582.025 495.999C582.183 496 582.341 496 582.5 496L582.5 512C582.326 512 582.15 512 581.975 511.999L582.025 495.999ZM582.5 496C668.775 496 739 424.525 739 336L755 336C755 433.042 677.927 512 582.5 512L582.5 496ZM739 336C739 247.475 668.775 176 582.5 176L582.5 160C677.927 160 755 238.957 755 336L739 336ZM582.5 176C582.342 176 582.183 176 582.024 176.001L581.976 160.001C582.15 160 582.325 160 582.5 160L582.5 176ZM590 168C590 168 590 168 590 168C590 168 590 168.001 590 168.001L574 168.001C574 168.001 574 168 574 168C574 168 574 168 574 168L590 168ZM417.5 -8.00001C512.927 -8.00001 590 70.9575 590 168L574 168C574 79.4748 503.775 7.99999 417.5 7.99999L417.5 -8.00001ZM245 168C245 70.9575 322.073 -8 417.5 -8.00001L417.5 7.99999C331.225 8 261 79.4748 261 168L245 168ZM245 168.001L245 168L261 168L261 168.001L245 168.001ZM252.5 160C252.675 160 252.85 160 253.024 160.001L252.976 176.001C252.817 176 252.658 176 252.5 176L252.5 160ZM80 336C80 238.957 157.073 160 252.5 160L252.5 176C166.225 176 96 247.475 96 336L80 336ZM252.5 512C157.073 512 80 433.043 80 336L96 336C96 424.525 166.225 496 252.5 496L252.5 512ZM426 335.999C426 335.999 426 335.999 426 336C426 336 426 336 426 336L410 336C410 336 410 336 410 336C410 335.999 410 335.999 410 335.999L426 335.999ZM426 336C426 336 426 336 426 336C426 336 426 336.001 426 336.001L410 336.001C410 336.001 410 336 410 336C410 336 410 336 410 336L426 336ZM417.5 328C417.675 328 417.85 328 418.025 328.001L417.975 344.001C417.817 344 417.659 344 417.5 344L417.5 328ZM416.975 328.001C417.15 328 417.325 328 417.5 328L417.5 344C417.341 344 417.183 344 417.025 344.001L416.975 328.001ZM425 336L425 336.001L409 336.001L409 336L425 336ZM425 335.999L425 336L409 336L409 335.999L425 335.999ZM417.5 344C417.325 344 417.15 344 416.975 343.999L417.025 327.999C417.183 328 417.341 328 417.5 328L417.5 344ZM418.025 343.999C417.85 344 417.675 344 417.5 344L417.5 328C417.659 328 417.817 328 417.975 327.999L418.025 343.999Z" fill="#FFF897" mask="url(#path-1-inside-1_1604_96)"/>
<mask id="path-3-inside-2_1604_96" fill="white">
<path fill-rule="evenodd" clip-rule="evenodd" d="M279.999 396.001C280 395.834 280 395.667 280 395.5C280 344.414 238.139 303 186.5 303C134.861 303 93 344.414 93 395.5C93 395.667 93.0005 395.834 93.0013 396.001C41.5922 396.267 1.81919e-06 437.578 4.04717e-06 488.5C6.27515e-06 539.422 41.5922 580.733 93.0013 580.999C93.2727 631.856 135.03 673 186.5 673C237.97 673 279.727 631.856 279.999 580.999C280.166 581 280.333 581 280.5 581C332.139 581 374 539.586 374 488.5C374 437.414 332.139 396 280.5 396C280.333 396 280.166 396 279.999 396.001ZM187.001 488.001C187 488.001 187 488.001 186.999 488.001L186.999 487.999C187 487.999 187 487.999 187.001 487.999C187.001 488 187.001 488 187.001 488.001Z"/>
</mask>
<path fill-rule="evenodd" clip-rule="evenodd" d="M279.999 396.001C280 395.834 280 395.667 280 395.5C280 344.414 238.139 303 186.5 303C134.861 303 93 344.414 93 395.5C93 395.667 93.0005 395.834 93.0013 396.001C41.5922 396.267 1.81919e-06 437.578 4.04717e-06 488.5C6.27515e-06 539.422 41.5922 580.733 93.0013 580.999C93.2727 631.856 135.03 673 186.5 673C237.97 673 279.727 631.856 279.999 580.999C280.166 581 280.333 581 280.5 581C332.139 581 374 539.586 374 488.5C374 437.414 332.139 396 280.5 396C280.333 396 280.166 396 279.999 396.001ZM187.001 488.001C187 488.001 187 488.001 186.999 488.001L186.999 487.999C187 487.999 187 487.999 187.001 487.999C187.001 488 187.001 488 187.001 488.001Z" fill="#A7EF9B"/>
<path d="M279.999 396.001L280.04 404.001L271.956 404.043L271.999 395.959L279.999 396.001ZM93.0013 396.001L101.001 395.959L101.044 403.96L93.0427 404.001L93.0013 396.001ZM93.0013 580.999L93.0427 572.999L100.959 573.04L101.001 580.956L93.0013 580.999ZM279.999 580.999L271.999 580.956L272.041 572.958L280.04 572.999L279.999 580.999ZM187.001 488.001L195.001 488.001L195.001 496.001L187.001 496.001L187.001 488.001ZM186.999 488.001L186.999 496.001L179.046 496.001L178.999 488.049L186.999 488.001ZM186.999 487.999L178.999 488.046L178.951 479.999L186.999 479.999L186.999 487.999ZM187.001 487.999L187.001 479.999L195.001 479.999L195.001 487.999L187.001 487.999ZM271.999 395.959C272 395.806 272 395.653 272 395.5L288 395.5C288 395.682 288 395.863 287.999 396.044L271.999 395.959ZM272 395.5C272 348.913 233.802 311 186.5 311L186.5 295C242.476 295 288 339.914 288 395.5L272 395.5ZM186.5 311C139.198 311 101 348.913 101 395.5L85 395.5C85 339.915 130.524 295 186.5 295L186.5 311ZM101 395.5C101 395.653 101 395.806 101.001 395.959L85.0015 396.044C85.0005 395.863 85 395.682 85 395.5L101 395.5ZM93.0427 404.001C45.9526 404.244 8 442.063 8 488.5L-8 488.5C-8 433.094 37.2317 388.289 92.96 388.001L93.0427 404.001ZM8 488.5C8.00001 534.937 45.9526 572.756 93.0427 572.999L92.96 588.999C37.2317 588.711 -7.99999 543.906 -8 488.5L8 488.5ZM101.001 580.956C101.249 627.333 139.353 665 186.5 665L186.5 681C130.706 681 85.2967 636.378 85.0015 581.041L101.001 580.956ZM186.5 665C233.647 665 271.751 627.333 271.999 580.956L287.999 581.041C287.703 636.378 242.294 681 186.5 681L186.5 665ZM280.04 572.999C280.194 573 280.347 573 280.5 573L280.5 589C280.318 589 280.137 588.999 279.958 588.999L280.04 572.999ZM280.5 573C327.802 573 366 535.087 366 488.5L382 488.5C382 544.085 336.476 589 280.5 589L280.5 573ZM366 488.5C366 441.913 327.802 404 280.5 404L280.5 388C336.476 388 382 432.914 382 488.5L366 488.5ZM280.5 404C280.347 404 280.193 404 280.04 404.001L279.957 388.001C280.138 388 280.319 388 280.5 388L280.5 404ZM187.001 496.001C186.979 496.001 186.96 496.001 186.949 496.001C186.943 496.001 186.939 496.001 186.936 496.001C186.934 496.001 186.933 496.001 186.932 496.001C186.932 496.001 186.932 496.001 186.931 496.001C186.931 496.001 186.931 496.001 186.931 496.001C186.931 496.001 186.933 496.001 186.935 496.001C186.938 496.001 186.942 496.001 186.948 496.001C186.958 496.001 186.976 496.001 186.999 496.001L186.999 480.001C187.021 480.001 187.04 480.001 187.051 480.001C187.057 480.001 187.061 480.002 187.064 480.002C187.066 480.002 187.067 480.002 187.068 480.002C187.068 480.002 187.068 480.002 187.069 480.002C187.069 480.002 187.069 480.002 187.069 480.002C187.069 480.002 187.067 480.002 187.065 480.002C187.062 480.002 187.058 480.001 187.052 480.001C187.042 480.001 187.024 480.001 187.001 480.001L187.001 496.001ZM178.999 488.049L178.999 488.046L194.999 487.951L194.999 487.954L178.999 488.049ZM186.999 479.999C186.977 479.999 186.959 479.999 186.948 479.999C186.943 479.999 186.938 479.999 186.936 479.999C186.933 479.999 186.931 479.999 186.932 479.999C186.932 479.999 186.932 479.999 186.932 479.999C186.932 479.999 186.932 479.999 186.933 479.999C186.934 479.999 186.935 479.999 186.936 479.999C186.939 479.999 186.944 479.999 186.95 479.999C186.961 479.999 186.979 479.999 187.001 479.999L187.001 495.999C187.023 495.999 187.041 495.999 187.052 495.999C187.057 495.998 187.062 495.998 187.064 495.998C187.067 495.998 187.069 495.998 187.068 495.998C187.068 495.998 187.068 495.998 187.068 495.998C187.068 495.998 187.068 495.998 187.067 495.998C187.066 495.998 187.065 495.998 187.064 495.998C187.061 495.998 187.056 495.999 187.051 495.999C187.039 495.999 187.021 495.999 186.999 495.999L186.999 479.999ZM195.001 487.999C195.001 488.022 195.001 488.041 195.001 488.052C195.001 488.058 195.001 488.063 195.001 488.066C195.001 488.068 195.001 488.069 195.001 488.07C195.001 488.07 195.001 488.07 195.001 488.07C195.001 488.071 195.001 488.071 195.001 488.071C195.001 488.071 195.001 488.069 195.001 488.067C195.001 488.064 195.001 488.059 195.001 488.054C195.001 488.042 195.001 488.024 195.001 488.001L179.001 488.001C179.001 487.978 179.001 487.959 179.002 487.948C179.002 487.942 179.002 487.937 179.002 487.934C179.002 487.932 179.002 487.931 179.002 487.93C179.002 487.93 179.002 487.93 179.002 487.93C179.002 487.929 179.002 487.929 179.002 487.929C179.002 487.929 179.002 487.931 179.002 487.933C179.002 487.936 179.002 487.941 179.002 487.946C179.001 487.958 179.001 487.976 179.001 487.999L195.001 487.999Z" fill="#FFF897" mask="url(#path-3-inside-2_1604_96)"/>
<rect width="70" height="63" transform="matrix(-1 0 0 1 227 456)" fill="#A7EF9B"/>
</svg>
