<svg width="747" height="673" viewBox="0 0 747 673" fill="none" xmlns="http://www.w3.org/2000/svg">
<g clip-path="url(#clip0_1804_709)">
<path fill-rule="evenodd" clip-rule="evenodd" d="M252.5 504C252.667 504 252.833 504 253 503.999V504C253 596.784 326.649 672 417.5 672C508.351 672 582 596.784 582 504V503.999C582.167 504 582.333 504 582.5 504C673.351 504 747 428.784 747 336C747 243.216 673.351 168 582.5 168C582.333 168 582.167 168 582 168.001C582 168 582 168 582 168C582 75.2161 508.351 -3.96742e-06 417.5 0C326.649 3.96744e-06 253 75.2162 253 168V168.001C252.833 168 252.667 168 252.5 168C161.649 168 88 243.216 88 336C88 428.784 161.649 504 252.5 504ZM418 335.999V336V336.001C417.833 336 417.667 336 417.5 336C417.333 336 417.167 336 417 336.001V336V335.999C417.167 336 417.333 336 417.5 336C417.667 336 417.833 336 418 335.999Z" fill="#A7EF9B"/>
<mask id="mask0_1804_709" style="mask-type:luminance" maskUnits="userSpaceOnUse" x="88" y="0" width="659" height="672">
<path fill-rule="evenodd" clip-rule="evenodd" d="M252.5 504C252.667 504 252.833 504 253 503.999V504C253 596.784 326.649 672 417.5 672C508.351 672 582 596.784 582 504V503.999C582.167 504 582.333 504 582.5 504C673.351 504 747 428.784 747 336C747 243.216 673.351 168 582.5 168C582.333 168 582.167 168 582 168.001C582 168 582 168 582 168C582 75.2161 508.351 -3.96742e-06 417.5 0C326.649 3.96744e-06 253 75.2162 253 168V168.001C252.833 168 252.667 168 252.5 168C161.649 168 88 243.216 88 336C88 428.784 161.649 504 252.5 504ZM418 335.999V336V336.001C417.833 336 417.667 336 417.5 336C417.333 336 417.167 336 417 336.001V336V335.999C417.167 336 417.333 336 417.5 336C417.667 336 417.833 336 418 335.999Z" fill="white"/>
</mask>
<g mask="url(#mask0_1804_709)">
<path d="M253 503.999L252.975 495.999L261 495.974V503.999H253ZM582 503.999H574V495.974L582.025 495.999L582 503.999ZM582 168.001L582.024 176.001L574 176.025V168.001H582ZM253 168.001H261V176.025L252.976 176.001L253 168.001ZM418 335.999L417.975 327.999L426 327.974V335.999H418ZM418 336.001H426V344.026L417.975 344.001L418 336.001ZM417 336.001L417.025 344.001L409 344.026V336.001H417ZM417 335.999H409V327.974L417.025 327.999L417 335.999ZM253.025 511.999C252.85 512 252.675 512 252.5 512V496C252.659 496 252.817 496 252.975 495.999L253.025 511.999ZM245 504V503.999H261V504H245ZM417.5 680C322.073 680 245 601.042 245 504H261C261 592.525 331.225 664 417.5 664V680ZM590 504C590 601.042 512.927 680 417.5 680V664C503.775 664 574 592.525 574 504H590ZM590 503.999C590 503.999 590 503.999 590 504H574C574 503.999 574 503.999 574 503.999H590ZM582.025 495.999C582.183 496 582.341 496 582.5 496V512C582.326 512 582.15 512 581.975 511.999L582.025 495.999ZM582.5 496C668.775 496 739 424.525 739 336H755C755 433.042 677.927 512 582.5 512V496ZM739 336C739 247.475 668.775 176 582.5 176V160C677.927 160 755 238.957 755 336H739ZM582.5 176C582.342 176 582.183 176 582.024 176.001L581.976 160.001C582.15 160 582.325 160 582.5 160V176ZM590 168V168.001H574V168H590ZM417.5 -8C512.927 -8 590 70.9575 590 168H574C574 79.4748 503.775 8 417.5 8V-8ZM245 168C245 70.9575 322.073 -7.99999 417.5 -8V8C331.225 8.00001 261 79.4748 261 168H245ZM245 168.001V168H261V168.001H245ZM252.5 160C252.675 160 252.85 160 253.024 160.001L252.976 176.001C252.817 176 252.658 176 252.5 176V160ZM80 336C80 238.957 157.073 160 252.5 160V176C166.225 176 96 247.475 96 336H80ZM252.5 512C157.073 512 80 433.043 80 336H96C96 424.525 166.225 496 252.5 496V512ZM426 335.999C426 335.999 426 335.999 426 336H410C410 335.999 410 335.999 410 335.999H426ZM426 336V336.001H410V336H426ZM417.5 328C417.675 328 417.85 328 418.025 328.001L417.975 344.001C417.817 344 417.659 344 417.5 344V328ZM416.975 328.001C417.15 328 417.325 328 417.5 328V344C417.341 344 417.183 344 417.025 344.001L416.975 328.001ZM425 336V336.001H409V336H425ZM425 335.999V336H409V335.999H425ZM417.5 344C417.325 344 417.15 344 416.975 343.999L417.025 327.999C417.183 328 417.341 328 417.5 328V344ZM418.025 343.999C417.85 344 417.675 344 417.5 344V328C417.659 328 417.817 328 417.975 327.999L418.025 343.999Z" fill="#FFF897"/>
</g>
<ellipse cx="420.756" cy="336.603" rx="47.2559" ry="35.6006" fill="#A7EF9B"/>
<path fill-rule="evenodd" clip-rule="evenodd" d="M279.999 396.001C280 395.834 280 395.667 280 395.5C280 344.414 238.139 303 186.5 303C134.861 303 93 344.414 93 395.5C93 395.667 93.0005 395.834 93.0013 396.001C41.5922 396.267 -2.22798e-06 437.578 0 488.5C2.22798e-06 539.422 41.5922 580.733 93.0013 580.999C93.2727 631.856 135.03 673 186.5 673C237.97 673 279.727 631.856 279.999 580.999C280.166 581 280.333 581 280.5 581C332.139 581 374 539.586 374 488.5C374 437.414 332.139 396 280.5 396C280.333 396 280.166 396 279.999 396.001ZM187.001 488.001H186.999V487.999H187.001V488.001Z" fill="#A7EF9B"/>
<mask id="mask1_1804_709" style="mask-type:luminance" maskUnits="userSpaceOnUse" x="0" y="303" width="374" height="370">
<path fill-rule="evenodd" clip-rule="evenodd" d="M279.999 396.001C280 395.834 280 395.667 280 395.5C280 344.414 238.139 303 186.5 303C134.861 303 93 344.414 93 395.5C93 395.667 93.0005 395.834 93.0013 396.001C41.5922 396.267 -2.22798e-06 437.578 0 488.5C2.22798e-06 539.422 41.5922 580.733 93.0013 580.999C93.2727 631.856 135.03 673 186.5 673C237.97 673 279.727 631.856 279.999 580.999C280.166 581 280.333 581 280.5 581C332.139 581 374 539.586 374 488.5C374 437.414 332.139 396 280.5 396C280.333 396 280.166 396 279.999 396.001ZM187.001 488.001H186.999V487.999H187.001V488.001Z" fill="white"/>
</mask>
<g mask="url(#mask1_1804_709)">
<path d="M279.999 396.001L280.04 404.001L271.956 404.043L271.999 395.959L279.999 396.001ZM93.0013 396.001L101.001 395.959L101.044 403.96L93.0427 404.001L93.0013 396.001ZM93.0013 580.999L93.0427 572.999L100.959 573.04L101.001 580.956L93.0013 580.999ZM279.999 580.999L271.999 580.956L272.041 572.958L280.04 572.999L279.999 580.999ZM187.001 488.001H195.001V496.001H187.001V488.001ZM186.999 488.001V496.001H179.046L178.999 488.049L186.999 488.001ZM186.999 487.999L178.999 488.046L178.951 479.999H186.999V487.999ZM187.001 487.999V479.999H195.001V487.999H187.001ZM271.999 395.959C272 395.806 272 395.653 272 395.5H288C288 395.682 288 395.863 287.999 396.044L271.999 395.959ZM272 395.5C272 348.913 233.802 311 186.5 311V295C242.476 295 288 339.914 288 395.5H272ZM186.5 311C139.198 311 101 348.913 101 395.5H85C85 339.915 130.524 295 186.5 295V311ZM101 395.5C101 395.653 101 395.806 101.001 395.959L85.0015 396.044C85.0005 395.863 85 395.682 85 395.5H101ZM93.0427 404.001C45.9526 404.244 8 442.063 8 488.5H-8C-8 433.094 37.2317 388.289 92.96 388.001L93.0427 404.001ZM8 488.5C8.00001 534.937 45.9526 572.756 93.0427 572.999L92.96 588.999C37.2317 588.711 -7.99999 543.906 -8 488.5H8ZM101.001 580.956C101.249 627.333 139.353 665 186.5 665V681C130.706 681 85.2967 636.378 85.0015 581.041L101.001 580.956ZM186.5 665C233.647 665 271.751 627.333 271.999 580.956L287.999 581.041C287.703 636.378 242.294 681 186.5 681V665ZM280.04 572.999C280.194 573 280.347 573 280.5 573V589C280.318 589 280.137 588.999 279.958 588.999L280.04 572.999ZM280.5 573C327.802 573 366 535.087 366 488.5H382C382 544.085 336.476 589 280.5 589V573ZM366 488.5C366 441.913 327.802 404 280.5 404V388C336.476 388 382 432.914 382 488.5H366ZM280.5 404C280.347 404 280.193 404 280.04 404.001L279.957 388.001C280.138 388 280.319 388 280.5 388V404ZM187.001 496.001C186.979 496.001 186.96 496.001 186.949 496.001C186.943 496.001 186.939 496.001 186.936 496.001C186.934 496.001 186.933 496.001 186.932 496.001C186.932 496.001 186.932 496.001 186.931 496.001C186.931 496.001 186.933 496.001 186.935 496.001C186.938 496.001 186.942 496.001 186.948 496.001C186.958 496.001 186.976 496.001 186.999 496.001V480.001C187.021 480.001 187.04 480.001 187.051 480.001C187.057 480.001 187.061 480.002 187.064 480.002C187.066 480.002 187.067 480.002 187.068 480.002C187.068 480.002 187.068 480.002 187.069 480.002C187.069 480.002 187.067 480.002 187.065 480.002C187.062 480.002 187.058 480.001 187.052 480.001C187.042 480.001 187.024 480.001 187.001 480.001V496.001ZM178.999 488.049V488.046L194.999 487.951V487.954L178.999 488.049ZM186.999 479.999C186.977 479.999 186.959 479.999 186.948 479.999C186.943 479.999 186.938 479.999 186.936 479.999C186.933 479.999 186.931 479.999 186.932 479.999C186.933 479.999 186.935 479.999 186.936 479.999C186.939 479.999 186.944 479.999 186.95 479.999C186.961 479.999 186.979 479.999 187.001 479.999V495.999C187.023 495.999 187.041 495.999 187.052 495.999C187.057 495.998 187.062 495.998 187.064 495.998C187.067 495.998 187.069 495.998 187.068 495.998C187.067 495.998 187.065 495.998 187.064 495.998C187.061 495.998 187.056 495.999 187.051 495.999C187.039 495.999 187.021 495.999 186.999 495.999V479.999ZM195.001 487.999C195.001 488.022 195.001 488.041 195.001 488.052C195.001 488.058 195.001 488.063 195.001 488.066C195.001 488.068 195.001 488.069 195.001 488.07C195.001 488.071 195.001 488.071 195.001 488.071C195.001 488.071 195.001 488.068 195.001 488.066C195.001 488.063 195.001 488.059 195.001 488.054C195.001 488.042 195.001 488.024 195.001 488.001H179.001C179.001 487.978 179.001 487.959 179.002 487.948C179.002 487.942 179.002 487.937 179.002 487.934C179.002 487.932 179.002 487.931 179.002 487.93C179.002 487.929 179.002 487.929 179.002 487.929C179.002 487.929 179.002 487.932 179.002 487.934C179.002 487.937 179.002 487.941 179.002 487.946C179.001 487.958 179.001 487.976 179.001 487.999H195.001Z" fill="#FFF897"/>
</g>
<path d="M157 456H227V519H157V456Z" fill="#A7EF9B"/>
</g>
<defs>
<clipPath id="clip0_1804_709">
<rect width="747" height="673" fill="white"/>
</clipPath>
</defs>
</svg>
