<svg width="618" height="409" viewBox="0 0 618 409" fill="none" xmlns="http://www.w3.org/2000/svg">
<path d="M235.237 344.664C206.809 393.929 143.849 410.807 94.613 382.365C45.3769 353.923 28.5059 290.93 56.9337 241.666C85.3615 192.401 148.321 175.523 197.557 203.965C246.793 232.406 263.664 295.399 235.237 344.664Z" fill="#A7EF9B" stroke="#FFF897" stroke-width="8"/>
<path d="M561.065 344.664C532.637 393.929 469.677 410.807 420.441 382.365C371.205 353.923 354.334 290.93 382.762 241.666C411.19 192.401 474.149 175.523 523.385 203.965C572.622 232.406 589.493 295.399 561.065 344.664Z" fill="#A7EF9B" stroke="#FFF897" stroke-width="8"/>
<path d="M260.754 150.088L147.922 296L326.551 271.713M260.754 150.088L419.175 132.048M260.754 150.088L326.551 271.713M260.754 150.088L207.11 41.3715M419.175 132.048L476.746 296M419.175 132.048L326.551 271.713M419.175 132.048L387.963 41.3715L467.004 8M207.11 41.3715H263.644M207.11 41.3715H178.908" stroke="#FFF897" stroke-width="8"/>
</svg>
