<svg width="1558" height="707" viewBox="0 0 1558 707" fill="none" xmlns="http://www.w3.org/2000/svg">
<mask id="path-1-inside-1_1804_724" fill="white">
<path fill-rule="evenodd" clip-rule="evenodd" d="M164.5 539C164.667 539 164.833 539 165 538.999L165 539C165 631.784 238.649 707 329.5 707C420.351 707 494 631.784 494 539C494 538.948 494 538.896 494 538.844C585.79 535.02 659 461.337 659 371C659 280.663 585.79 206.98 494 203.156C494 203.104 494 203.052 494 203C494 110.216 420.351 35 329.5 35C238.649 35 165 110.216 165 203L165 203.001C164.833 203 164.667 203 164.5 203C73.6492 203 3.29093e-06 278.216 7.3505e-06 371C1.14101e-05 463.784 73.6492 539 164.5 539Z"/>
</mask>
<path fill-rule="evenodd" clip-rule="evenodd" d="M164.5 539C164.667 539 164.833 539 165 538.999L165 539C165 631.784 238.649 707 329.5 707C420.351 707 494 631.784 494 539C494 538.948 494 538.896 494 538.844C585.79 535.02 659 461.337 659 371C659 280.663 585.79 206.98 494 203.156C494 203.104 494 203.052 494 203C494 110.216 420.351 35 329.5 35C238.649 35 165 110.216 165 203L165 203.001C164.833 203 164.667 203 164.5 203C73.6492 203 3.29093e-06 278.216 7.3505e-06 371C1.14101e-05 463.784 73.6492 539 164.5 539Z" fill="#FFFAB1"/>
<path d="M165 538.999L164.975 530.999L173 530.974L173 538.999L165 538.999ZM494 538.844L486 538.853L485.991 531.171L493.667 530.851L494 538.844ZM494 203.156L493.667 211.149L485.991 210.829L486 203.147L494 203.156ZM165 203L173 203L165 203ZM165 203.001L173 203.001L173 211.025L164.976 211.001L165 203.001ZM165.025 546.999C164.85 547 164.675 547 164.5 547L164.5 531C164.659 531 164.817 531 164.975 530.999L165.025 546.999ZM157 539L157 538.999L173 538.999L173 539L157 539ZM329.5 715C234.073 715 157 636.042 157 539L173 539C173 627.525 243.225 699 329.5 699L329.5 715ZM502 539C502 636.042 424.927 715 329.5 715L329.5 699C415.775 699 486 627.525 486 539L502 539ZM502 538.835C502 538.892 502 538.949 502 539L486 539C486 538.947 486 538.9 486 538.853L502 538.835ZM493.667 530.851C581.378 527.197 651 456.844 651 371L667 371C667 465.829 590.201 542.843 494.333 546.837L493.667 530.851ZM651 371C651 285.156 581.378 214.803 493.667 211.149L494.333 195.163C590.201 199.157 667 276.171 667 371L651 371ZM502 203C502 203.051 502 203.108 502 203.165L486 203.147C486 203.1 486 203.053 486 203L502 203ZM329.5 27C424.927 27 502 105.957 502 203L486 203C486 114.475 415.775 43 329.5 43L329.5 27ZM157 203C157 105.958 234.073 27 329.5 27L329.5 43C243.225 43 173 114.475 173 203L157 203ZM157 203.001L157 203L173 203L173 203.001L157 203.001ZM164.5 195C164.675 195 164.85 195 165.024 195.001L164.976 211.001C164.817 211 164.658 211 164.5 211L164.5 195ZM-7.99999 371C-8 273.957 69.0729 195 164.5 195L164.5 211C78.2254 211 8 282.475 8.00001 371L-7.99999 371ZM164.5 547C69.073 547 -7.99999 468.043 -7.99999 371L8.00001 371C8.00001 459.525 78.2254 531 164.5 531L164.5 547Z" fill="#FDFFDD" mask="url(#path-1-inside-1_1804_724)"/>
<mask id="path-3-inside-2_1804_724" fill="white">
<path fill-rule="evenodd" clip-rule="evenodd" d="M1464 128.219C1464 127.979 1464 127.74 1464 127.5C1464 76.4136 1422.14 35 1370.5 35C1318.86 35 1277 76.4137 1277 127.5C1277 127.722 1277 127.945 1277 128.167C1225.12 131.064 1184 171.295 1184 220.5C1184 269.704 1225.12 309.935 1277 312.833C1277.18 363.766 1318.97 405 1370.5 405C1422.04 405 1463.85 363.738 1464 312.781C1516.52 309.489 1558 269.432 1558 220.5C1558 171.568 1516.51 131.51 1464 128.219Z"/>
</mask>
<path fill-rule="evenodd" clip-rule="evenodd" d="M1464 128.219C1464 127.979 1464 127.74 1464 127.5C1464 76.4136 1422.14 35 1370.5 35C1318.86 35 1277 76.4137 1277 127.5C1277 127.722 1277 127.945 1277 128.167C1225.12 131.064 1184 171.295 1184 220.5C1184 269.704 1225.12 309.935 1277 312.833C1277.18 363.766 1318.97 405 1370.5 405C1422.04 405 1463.85 363.738 1464 312.781C1516.52 309.489 1558 269.432 1558 220.5C1558 171.568 1516.51 131.51 1464 128.219Z" fill="#FFFAB1"/>
<path d="M1464 128.219L1463.5 136.203L1455.94 135.729L1456 128.157L1464 128.219ZM1277 128.167L1285 128.11L1285.06 135.73L1277.45 136.155L1277 128.167ZM1277 312.833L1277.45 304.845L1284.97 305.266L1285 312.804L1277 312.833ZM1464 312.781L1456 312.757L1456.02 305.266L1463.5 304.797L1464 312.781ZM1456 128.157C1456 127.938 1456 127.719 1456 127.5L1472 127.5C1472 127.761 1472 128.021 1472 128.28L1456 128.157ZM1456 127.5C1456 80.9128 1417.8 43 1370.5 43L1370.5 27C1426.48 27 1472 71.9145 1472 127.5L1456 127.5ZM1370.5 43C1323.2 43 1285 80.9128 1285 127.5L1269 127.5C1269 71.9145 1314.52 27 1370.5 27L1370.5 43ZM1285 127.5C1285 127.703 1285 127.907 1285 128.11L1269 128.224C1269 127.983 1269 127.742 1269 127.5L1285 127.5ZM1277.45 136.155C1229.3 138.843 1192 176.026 1192 220.5L1176 220.5C1176 166.564 1220.94 123.285 1276.56 120.179L1277.45 136.155ZM1192 220.5C1192 264.973 1229.3 302.156 1277.45 304.845L1276.55 320.82C1220.94 317.714 1176 274.435 1176 220.5L1192 220.5ZM1285 312.804C1285.17 359.252 1323.3 397 1370.5 397L1370.5 413C1314.65 413 1269.2 368.281 1269 312.861L1285 312.804ZM1370.5 397C1417.71 397 1455.86 359.226 1456 312.757L1472 312.805C1471.83 368.25 1426.37 413 1370.5 413L1370.5 397ZM1463.5 304.797C1512.44 301.729 1550 264.592 1550 220.5L1566 220.5C1566 274.271 1520.59 317.249 1464.5 320.766L1463.5 304.797ZM1550 220.5C1550 176.407 1512.44 139.27 1463.5 136.203L1464.5 120.234C1520.59 123.749 1566 166.728 1566 220.5L1550 220.5Z" fill="#FDFFDD" mask="url(#path-3-inside-2_1804_724)"/>
</svg>
