<svg width="87" height="80" viewBox="0 0 87 80" fill="none" xmlns="http://www.w3.org/2000/svg">
<mask id="path-1-inside-1_1574_131" fill="white">
<path fill-rule="evenodd" clip-rule="evenodd" d="M55.1144 19.7021C65.2586 19.7035 73.4816 28.0956 73.4816 38.4475C73.4816 40.259 73.2298 42.0106 72.7599 43.6677C72.0778 38.6177 67.7191 34.7231 62.4439 34.7231C56.6953 34.7231 52.0352 39.348 52.0352 45.0532V45.0535H52.0333C46.2847 45.0535 41.6245 49.6784 41.6245 55.3836C41.6245 61.0887 46.2847 65.7137 52.0333 65.7137H52.0352C52.0352 66.2799 52.0811 66.8354 52.1694 67.3768C48.8958 72.5292 43.2103 75.9379 36.7447 75.9379C26.5995 75.9379 18.3751 67.5454 18.375 57.1928L18.3697 57.1928C8.2244 57.1928 -4.52533e-07 48.8002 0 38.4475C4.52533e-07 28.0947 8.2244 19.7021 18.3697 19.7021L18.375 19.7022C18.3751 9.34949 26.5995 0.957029 36.7447 0.957031C46.89 0.957031 55.1143 9.34949 55.1144 19.7021Z"/>
</mask>
<path fill-rule="evenodd" clip-rule="evenodd" d="M55.1144 19.7021C65.2586 19.7035 73.4816 28.0956 73.4816 38.4475C73.4816 40.259 73.2298 42.0106 72.7599 43.6677C72.0778 38.6177 67.7191 34.7231 62.4439 34.7231C56.6953 34.7231 52.0352 39.348 52.0352 45.0532V45.0535H52.0333C46.2847 45.0535 41.6245 49.6784 41.6245 55.3836C41.6245 61.0887 46.2847 65.7137 52.0333 65.7137H52.0352C52.0352 66.2799 52.0811 66.8354 52.1694 67.3768C48.8958 72.5292 43.2103 75.9379 36.7447 75.9379C26.5995 75.9379 18.3751 67.5454 18.375 57.1928L18.3697 57.1928C8.2244 57.1928 -4.52533e-07 48.8002 0 38.4475C4.52533e-07 28.0947 8.2244 19.7021 18.3697 19.7021L18.375 19.7022C18.3751 9.34949 26.5995 0.957029 36.7447 0.957031C46.89 0.957031 55.1143 9.34949 55.1144 19.7021Z" fill="#FDFFDD"/>
<path d="M55.1144 19.7021L52.1144 19.7022L52.1145 22.7017L55.114 22.7021L55.1144 19.7021ZM72.7599 43.6677L69.7869 44.0692L75.6461 44.4861L72.7599 43.6677ZM52.0352 45.0535V48.0535H55.0352V45.0535H52.0352ZM52.0352 65.7137L55.0352 65.7135L55.035 62.7137H52.0352V65.7137ZM52.1694 67.3768L54.7016 68.9857L55.3142 68.0214L55.1303 66.8938L52.1694 67.3768ZM18.375 57.1928L21.375 57.1927L21.375 54.1906L18.3728 54.1928L18.375 57.1928ZM18.3697 57.1928L18.3697 60.1928L18.3719 60.1928L18.3697 57.1928ZM0 38.4475L3 38.4475L0 38.4475ZM18.3697 19.7021L18.3708 16.7021H18.3697V19.7021ZM18.375 19.7022L18.3739 22.7022L21.375 22.7032L21.375 19.7022L18.375 19.7022ZM36.7447 0.957031L36.7447 3.95703H36.7447V0.957031ZM76.4816 38.4475C76.4816 26.4964 66.9726 16.7038 55.1148 16.7021L55.114 22.7021C63.5446 22.7033 70.4816 29.6948 70.4816 38.4475H76.4816ZM75.6461 44.4861C76.1908 42.565 76.4816 40.5381 76.4816 38.4475H70.4816C70.4816 39.9799 70.2687 41.4561 69.8737 42.8492L75.6461 44.4861ZM62.4439 37.7231C66.2147 37.7231 69.3054 40.5047 69.7869 44.0692L75.7329 43.2661C74.8501 36.7307 69.2235 31.7231 62.4439 31.7231V37.7231ZM55.0352 45.0532C55.0352 41.0263 58.3307 37.7231 62.4439 37.7231V31.7231C55.06 31.7231 49.0352 37.6698 49.0352 45.0532H55.0352ZM55.0352 45.0535V45.0532H49.0352V45.0535H55.0352ZM52.0333 48.0535H52.0352V42.0535H52.0333V48.0535ZM44.6245 55.3836C44.6245 51.3567 47.9201 48.0535 52.0333 48.0535V42.0535C44.6494 42.0535 38.6245 48.0002 38.6245 55.3836H44.6245ZM52.0333 62.7137C47.9201 62.7137 44.6245 59.4105 44.6245 55.3836H38.6245C38.6245 62.767 44.6494 68.7137 52.0333 68.7137V62.7137ZM52.0352 62.7137H52.0333V68.7137H52.0352V62.7137ZM55.1303 66.8938C55.0679 66.5114 55.0352 66.1173 55.0352 65.7135L49.0352 65.7138C49.0352 66.4424 49.0943 67.1594 49.2086 67.8599L55.1303 66.8938ZM36.7447 78.9379C44.2973 78.9379 50.9107 74.9521 54.7016 68.9857L49.6373 65.768C46.8809 70.1063 42.1234 72.9379 36.7447 72.9379V78.9379ZM15.375 57.1928C15.3751 69.1448 24.8857 78.9379 36.7447 78.9379V72.9379C28.3133 72.9379 21.3751 65.9461 21.375 57.1927L15.375 57.1928ZM18.3719 60.1928L18.3772 60.1928L18.3728 54.1928L18.3676 54.1928L18.3719 60.1928ZM-3 38.4475C-3 50.3995 6.5106 60.1928 18.3697 60.1928V54.1928C9.93821 54.1928 3 47.2009 3 38.4475L-3 38.4475ZM18.3697 16.7021C6.5106 16.7021 -3 26.4954 -3 38.4475L3 38.4475C3 29.694 9.93821 22.7021 18.3697 22.7021V16.7021ZM18.3761 16.7022L18.3708 16.7021L18.3686 22.7021L18.3739 22.7022L18.3761 16.7022ZM36.7447 -2.04297C24.8857 -2.04297 15.3751 7.75015 15.375 19.7021L21.375 19.7022C21.3751 10.9488 28.3133 3.95703 36.7447 3.95703L36.7447 -2.04297ZM58.1144 19.7021C58.1143 7.75015 48.6038 -2.04297 36.7447 -2.04297V3.95703C45.1762 3.95703 52.1143 10.9488 52.1144 19.7022L58.1144 19.7021Z" fill="#26734E" mask="url(#path-1-inside-1_1574_131)"/>
<mask id="path-3-outside-2_1574_131" maskUnits="userSpaceOnUse" x="38.2656" y="31.7231" width="48" height="48" fill="black">
<rect fill="white" x="38.2656" y="31.7231" width="48" height="48"/>
<path fill-rule="evenodd" clip-rule="evenodd" d="M72.8581 45.0532L72.8581 45.0536C78.6061 45.0542 83.2656 49.6789 83.2656 55.3836C83.2656 61.0884 78.6061 65.713 72.8581 65.7137C72.8579 71.4186 68.1978 76.0433 62.4493 76.0433C56.7008 76.0433 52.0408 71.4186 52.0405 65.7137C52.0399 65.7137 52.0393 65.7137 52.0387 65.7137C46.2901 65.7137 41.6299 61.0888 41.6299 55.3836C41.6299 49.6785 46.2901 45.0536 52.0387 45.0536C52.0393 45.0536 52.0399 45.0536 52.0405 45.0536C52.0405 45.0534 52.0405 45.0533 52.0405 45.0532C52.0405 39.3481 56.7007 34.7231 62.4493 34.7231C68.1979 34.7231 72.8581 39.3481 72.8581 45.0532Z"/>
</mask>
<path d="M72.8581 45.0536L69.8581 45.0536L69.8581 48.0532L72.8577 48.0536L72.8581 45.0536ZM72.8581 65.7137L72.8577 62.7137L69.8582 62.7141L69.8581 65.7136L72.8581 65.7137ZM52.0405 65.7137L55.0405 65.7136L55.0404 62.7137L52.0405 62.7137L52.0405 65.7137ZM52.0405 45.0536L52.0405 48.0536L55.0405 48.0536L55.0405 45.0536L52.0405 45.0536ZM75.8581 45.0536L75.8581 45.0532L69.8581 45.0532L69.8581 45.0536L75.8581 45.0536ZM86.2656 55.3836C86.2656 48.0007 80.2417 42.0544 72.8584 42.0536L72.8577 48.0536C76.9706 48.054 80.2656 51.3571 80.2656 55.3836L86.2656 55.3836ZM72.8584 68.7137C80.2417 68.7128 86.2656 62.7665 86.2656 55.3836L80.2656 55.3836C80.2656 59.4102 76.9706 62.7132 72.8577 62.7137L72.8584 68.7137ZM62.4493 79.0433C69.8331 79.0433 75.8578 73.097 75.8581 65.7138L69.8581 65.7136C69.8579 69.7403 66.5625 73.0433 62.4493 73.0433L62.4493 79.0433ZM49.0405 65.7138C49.0408 73.097 55.0655 79.0433 62.4493 79.0433L62.4493 73.0433C58.3362 73.0433 55.0407 69.7403 55.0405 65.7136L49.0405 65.7138ZM52.0405 62.7137C52.0389 62.7137 52.0375 62.7137 52.0366 62.7137C52.0357 62.7137 52.035 62.7137 52.0349 62.7137C52.0342 62.7137 52.0363 62.7137 52.0387 62.7137L52.0387 68.7137C52.0404 68.7137 52.0418 68.7137 52.0427 68.7137C52.0435 68.7137 52.0443 68.7137 52.0443 68.7137C52.045 68.7137 52.043 68.7137 52.0405 68.7137L52.0405 62.7137ZM52.0387 62.7137C47.9254 62.7137 44.6299 59.4105 44.6299 55.3836L38.6299 55.3836C38.6299 62.7671 44.6547 68.7137 52.0387 68.7137L52.0387 62.7137ZM44.6299 55.3836C44.6299 51.3568 47.9254 48.0536 52.0387 48.0536L52.0387 42.0536C44.6548 42.0536 38.6299 48.0002 38.6299 55.3836L44.6299 55.3836ZM52.0387 48.0536C52.0363 48.0536 52.0342 48.0536 52.0349 48.0536C52.035 48.0536 52.0357 48.0536 52.0366 48.0536C52.0375 48.0536 52.0388 48.0536 52.0405 48.0536L52.0405 42.0536C52.043 42.0536 52.045 42.0536 52.0443 42.0536C52.0443 42.0536 52.0435 42.0536 52.0427 42.0536C52.0418 42.0536 52.0404 42.0536 52.0387 42.0536L52.0387 48.0536ZM49.0405 45.0532C49.0405 45.0532 49.0405 45.0532 49.0405 45.0532C49.0405 45.0532 49.0405 45.0532 49.0405 45.0532C49.0405 45.0532 49.0405 45.0532 49.0405 45.0532C49.0405 45.0532 49.0405 45.0532 49.0405 45.0532C49.0405 45.0532 49.0405 45.0532 49.0405 45.0532C49.0405 45.0532 49.0405 45.0532 49.0405 45.0532C49.0405 45.0532 49.0405 45.0532 49.0405 45.0532C49.0405 45.0532 49.0405 45.0532 49.0405 45.0532C49.0405 45.0532 49.0405 45.0532 49.0405 45.0532C49.0405 45.0532 49.0405 45.0532 49.0405 45.0532C49.0405 45.0532 49.0405 45.0532 49.0405 45.0532C49.0405 45.0532 49.0405 45.0532 49.0405 45.0532C49.0405 45.0532 49.0405 45.0532 49.0405 45.0532C49.0405 45.0532 49.0405 45.0532 49.0405 45.0532C49.0405 45.0532 49.0405 45.0532 49.0405 45.0532C49.0405 45.0532 49.0405 45.0532 49.0405 45.0532C49.0405 45.0532 49.0405 45.0532 49.0405 45.0532C49.0405 45.0532 49.0405 45.0532 49.0405 45.0532C49.0405 45.0532 49.0405 45.0532 49.0405 45.0532C49.0405 45.0532 49.0405 45.0532 49.0405 45.0532C49.0405 45.0532 49.0405 45.0532 49.0405 45.0532C49.0405 45.0532 49.0405 45.0532 49.0405 45.0532C49.0405 45.0532 49.0405 45.0532 49.0405 45.0532C49.0405 45.0532 49.0405 45.0532 49.0405 45.0532C49.0405 45.0532 49.0405 45.0532 49.0405 45.0532C49.0405 45.0532 49.0405 45.0532 49.0405 45.0532C49.0405 45.0532 49.0405 45.0532 49.0405 45.0532C49.0405 45.0532 49.0405 45.0532 49.0405 45.0532C49.0405 45.0532 49.0405 45.0532 49.0405 45.0532C49.0405 45.0532 49.0405 45.0532 49.0405 45.0532C49.0405 45.0532 49.0405 45.0532 49.0405 45.0532C49.0405 45.0532 49.0405 45.0532 49.0405 45.0532C49.0405 45.0532 49.0405 45.0532 49.0405 45.0532C49.0405 45.0532 49.0405 45.0532 49.0405 45.0532C49.0405 45.0532 49.0405 45.0532 49.0405 45.0532C49.0405 45.0532 49.0405 45.0532 49.0405 45.0532C49.0405 45.0532 49.0405 45.0532 49.0405 45.0532C49.0405 45.0532 49.0405 45.0532 49.0405 45.0532C49.0405 45.0532 49.0405 45.0532 49.0405 45.0532C49.0405 45.0532 49.0405 45.0532 49.0405 45.0532C49.0405 45.0532 49.0405 45.0532 49.0405 45.0532C49.0405 45.0532 49.0405 45.0532 49.0405 45.0532C49.0405 45.0532 49.0405 45.0532 49.0405 45.0532C49.0405 45.0532 49.0405 45.0532 49.0405 45.0532C49.0405 45.0532 49.0405 45.0532 49.0405 45.0532C49.0405 45.0532 49.0405 45.0532 49.0405 45.0532C49.0405 45.0532 49.0405 45.0532 49.0405 45.0532C49.0405 45.0532 49.0405 45.0532 49.0405 45.0532C49.0405 45.0532 49.0405 45.0532 49.0405 45.0532C49.0405 45.0532 49.0405 45.0533 49.0405 45.0533C49.0405 45.0533 49.0405 45.0533 49.0405 45.0533C49.0405 45.0533 49.0405 45.0533 49.0405 45.0533C49.0405 45.0533 49.0405 45.0533 49.0405 45.0533C49.0405 45.0533 49.0405 45.0533 49.0405 45.0533C49.0405 45.0533 49.0405 45.0533 49.0405 45.0533C49.0405 45.0533 49.0405 45.0533 49.0405 45.0533C49.0405 45.0533 49.0405 45.0533 49.0405 45.0533C49.0405 45.0533 49.0405 45.0533 49.0405 45.0533C49.0405 45.0533 49.0405 45.0533 49.0405 45.0533C49.0405 45.0533 49.0405 45.0533 49.0405 45.0533C49.0405 45.0533 49.0405 45.0533 49.0405 45.0533C49.0405 45.0533 49.0405 45.0533 49.0405 45.0533C49.0405 45.0533 49.0405 45.0533 49.0405 45.0533C49.0405 45.0533 49.0405 45.0533 49.0405 45.0533C49.0405 45.0533 49.0405 45.0533 49.0405 45.0533C49.0405 45.0533 49.0405 45.0533 49.0405 45.0533C49.0405 45.0533 49.0405 45.0533 49.0405 45.0533C49.0405 45.0533 49.0405 45.0533 49.0405 45.0533C49.0405 45.0533 49.0405 45.0533 49.0405 45.0533C49.0405 45.0533 49.0405 45.0533 49.0405 45.0533C49.0405 45.0533 49.0405 45.0533 49.0405 45.0533C49.0405 45.0533 49.0405 45.0533 49.0405 45.0533C49.0405 45.0533 49.0405 45.0533 49.0405 45.0533C49.0405 45.0533 49.0405 45.0533 49.0405 45.0533C49.0405 45.0533 49.0405 45.0533 49.0405 45.0533C49.0405 45.0533 49.0405 45.0533 49.0405 45.0533C49.0405 45.0533 49.0405 45.0533 49.0405 45.0533C49.0405 45.0533 49.0405 45.0533 49.0405 45.0533C49.0405 45.0533 49.0405 45.0533 49.0405 45.0533C49.0405 45.0533 49.0405 45.0533 49.0405 45.0533C49.0405 45.0533 49.0405 45.0533 49.0405 45.0533C49.0405 45.0533 49.0405 45.0533 49.0405 45.0533C49.0405 45.0533 49.0405 45.0533 49.0405 45.0533C49.0405 45.0533 49.0405 45.0533 49.0405 45.0533C49.0405 45.0533 49.0405 45.0533 49.0405 45.0533C49.0405 45.0533 49.0405 45.0533 49.0405 45.0533C49.0405 45.0533 49.0405 45.0533 49.0405 45.0533C49.0405 45.0533 49.0405 45.0533 49.0405 45.0533C49.0405 45.0533 49.0405 45.0533 49.0405 45.0533C49.0405 45.0533 49.0405 45.0533 49.0405 45.0533C49.0405 45.0533 49.0405 45.0533 49.0405 45.0533C49.0405 45.0533 49.0405 45.0533 49.0405 45.0533C49.0405 45.0533 49.0405 45.0533 49.0405 45.0533C49.0405 45.0533 49.0405 45.0533 49.0405 45.0533C49.0405 45.0533 49.0405 45.0533 49.0405 45.0533C49.0405 45.0533 49.0405 45.0533 49.0405 45.0533C49.0405 45.0533 49.0405 45.0533 49.0405 45.0533C49.0405 45.0533 49.0405 45.0533 49.0405 45.0533C49.0405 45.0533 49.0405 45.0533 49.0405 45.0533C49.0405 45.0533 49.0405 45.0533 49.0405 45.0533C49.0405 45.0533 49.0405 45.0533 49.0405 45.0533C49.0405 45.0533 49.0405 45.0533 49.0405 45.0533C49.0405 45.0533 49.0405 45.0533 49.0405 45.0533C49.0405 45.0533 49.0405 45.0533 49.0405 45.0533C49.0405 45.0533 49.0405 45.0533 49.0405 45.0533C49.0405 45.0533 49.0405 45.0533 49.0405 45.0533C49.0405 45.0533 49.0405 45.0533 49.0405 45.0533C49.0405 45.0533 49.0405 45.0533 49.0405 45.0533C49.0405 45.0533 49.0405 45.0533 49.0405 45.0533C49.0405 45.0533 49.0405 45.0533 49.0405 45.0533C49.0405 45.0533 49.0405 45.0533 49.0405 45.0533C49.0405 45.0533 49.0405 45.0533 49.0405 45.0533C49.0405 45.0533 49.0405 45.0533 49.0405 45.0533C49.0405 45.0533 49.0405 45.0533 49.0405 45.0533C49.0405 45.0533 49.0405 45.0533 49.0405 45.0533C49.0405 45.0533 49.0405 45.0533 49.0405 45.0533C49.0405 45.0533 49.0405 45.0533 49.0405 45.0533C49.0405 45.0533 49.0405 45.0533 49.0405 45.0533C49.0405 45.0533 49.0405 45.0533 49.0405 45.0533C49.0405 45.0533 49.0405 45.0533 49.0405 45.0533C49.0405 45.0533 49.0405 45.0533 49.0405 45.0533C49.0405 45.0533 49.0405 45.0533 49.0405 45.0533C49.0405 45.0533 49.0405 45.0533 49.0405 45.0533C49.0405 45.0533 49.0405 45.0533 49.0405 45.0533C49.0405 45.0533 49.0405 45.0533 49.0405 45.0533C49.0405 45.0533 49.0405 45.0533 49.0405 45.0533C49.0405 45.0533 49.0405 45.0533 49.0405 45.0533C49.0405 45.0533 49.0405 45.0533 49.0405 45.0533C49.0405 45.0533 49.0405 45.0533 49.0405 45.0533C49.0405 45.0533 49.0405 45.0533 49.0405 45.0533C49.0405 45.0533 49.0405 45.0533 49.0405 45.0533C49.0405 45.0533 49.0405 45.0533 49.0405 45.0533C49.0405 45.0533 49.0405 45.0533 49.0405 45.0533C49.0405 45.0533 49.0405 45.0533 49.0405 45.0533C49.0405 45.0533 49.0405 45.0533 49.0405 45.0533C49.0405 45.0533 49.0405 45.0533 49.0405 45.0533C49.0405 45.0533 49.0405 45.0533 49.0405 45.0533C49.0405 45.0533 49.0405 45.0533 49.0405 45.0533C49.0405 45.0533 49.0405 45.0533 49.0405 45.0533C49.0405 45.0533 49.0405 45.0533 49.0405 45.0533C49.0405 45.0533 49.0405 45.0533 49.0405 45.0533C49.0405 45.0533 49.0405 45.0533 49.0405 45.0533C49.0405 45.0533 49.0405 45.0533 49.0405 45.0533C49.0405 45.0533 49.0405 45.0533 49.0405 45.0533C49.0405 45.0533 49.0405 45.0533 49.0405 45.0533C49.0405 45.0533 49.0405 45.0533 49.0405 45.0533C49.0405 45.0533 49.0405 45.0533 49.0405 45.0533C49.0405 45.0533 49.0405 45.0533 49.0405 45.0533C49.0405 45.0533 49.0405 45.0533 49.0405 45.0533C49.0405 45.0533 49.0405 45.0533 49.0405 45.0533C49.0405 45.0533 49.0405 45.0533 49.0405 45.0533C49.0405 45.0533 49.0405 45.0533 49.0405 45.0533C49.0405 45.0533 49.0405 45.0533 49.0405 45.0533C49.0405 45.0533 49.0405 45.0533 49.0405 45.0533C49.0405 45.0533 49.0405 45.0533 49.0405 45.0533C49.0405 45.0533 49.0405 45.0533 49.0405 45.0533C49.0405 45.0533 49.0405 45.0533 49.0405 45.0533C49.0405 45.0533 49.0405 45.0533 49.0405 45.0533C49.0405 45.0533 49.0405 45.0533 49.0405 45.0533C49.0405 45.0533 49.0405 45.0533 49.0405 45.0533C49.0405 45.0533 49.0405 45.0533 49.0405 45.0533C49.0405 45.0533 49.0405 45.0533 49.0405 45.0533C49.0405 45.0533 49.0405 45.0533 49.0405 45.0533C49.0405 45.0533 49.0405 45.0533 49.0405 45.0533C49.0405 45.0533 49.0405 45.0533 49.0405 45.0533C49.0405 45.0533 49.0405 45.0533 49.0405 45.0533C49.0405 45.0533 49.0405 45.0533 49.0405 45.0533C49.0405 45.0533 49.0405 45.0533 49.0405 45.0533C49.0405 45.0533 49.0405 45.0533 49.0405 45.0533C49.0405 45.0533 49.0405 45.0533 49.0405 45.0533C49.0405 45.0533 49.0405 45.0533 49.0405 45.0533C49.0405 45.0533 49.0405 45.0533 49.0405 45.0533C49.0405 45.0533 49.0405 45.0533 49.0405 45.0533C49.0405 45.0533 49.0405 45.0533 49.0405 45.0533C49.0405 45.0533 49.0405 45.0533 49.0405 45.0533C49.0405 45.0533 49.0405 45.0533 49.0405 45.0533C49.0405 45.0533 49.0405 45.0533 49.0405 45.0533C49.0405 45.0533 49.0405 45.0533 49.0405 45.0533C49.0405 45.0533 49.0405 45.0533 49.0405 45.0533C49.0405 45.0533 49.0405 45.0533 49.0405 45.0533C49.0405 45.0533 49.0405 45.0533 49.0405 45.0533C49.0405 45.0533 49.0405 45.0533 49.0405 45.0533C49.0405 45.0533 49.0405 45.0533 49.0405 45.0533C49.0405 45.0533 49.0405 45.0533 49.0405 45.0533C49.0405 45.0533 49.0405 45.0533 49.0405 45.0533C49.0405 45.0533 49.0405 45.0533 49.0405 45.0533C49.0405 45.0533 49.0405 45.0533 49.0405 45.0533C49.0405 45.0533 49.0405 45.0533 49.0405 45.0533C49.0405 45.0533 49.0405 45.0533 49.0405 45.0533C49.0405 45.0533 49.0405 45.0533 49.0405 45.0533C49.0405 45.0533 49.0405 45.0533 49.0405 45.0533C49.0405 45.0533 49.0405 45.0533 49.0405 45.0533C49.0405 45.0533 49.0405 45.0533 49.0405 45.0533C49.0405 45.0533 49.0405 45.0533 49.0405 45.0533C49.0405 45.0533 49.0405 45.0533 49.0405 45.0533C49.0405 45.0533 49.0405 45.0533 49.0405 45.0533C49.0405 45.0533 49.0405 45.0533 49.0405 45.0533C49.0405 45.0533 49.0405 45.0533 49.0405 45.0533C49.0405 45.0533 49.0405 45.0533 49.0405 45.0533C49.0405 45.0533 49.0405 45.0533 49.0405 45.0533C49.0405 45.0533 49.0405 45.0533 49.0405 45.0534C49.0405 45.0534 49.0405 45.0534 49.0405 45.0534C49.0405 45.0534 49.0405 45.0534 49.0405 45.0534C49.0405 45.0534 49.0405 45.0534 49.0405 45.0534C49.0405 45.0534 49.0405 45.0534 49.0405 45.0534C49.0405 45.0534 49.0405 45.0534 49.0405 45.0534C49.0405 45.0534 49.0405 45.0534 49.0405 45.0534C49.0405 45.0534 49.0405 45.0534 49.0405 45.0534C49.0405 45.0534 49.0405 45.0534 49.0405 45.0534C49.0405 45.0534 49.0405 45.0534 49.0405 45.0534C49.0405 45.0534 49.0405 45.0534 49.0405 45.0534C49.0405 45.0534 49.0405 45.0534 49.0405 45.0534C49.0405 45.0534 49.0405 45.0534 49.0405 45.0534C49.0405 45.0534 49.0405 45.0534 49.0405 45.0534C49.0405 45.0534 49.0405 45.0534 49.0405 45.0534C49.0405 45.0534 49.0405 45.0534 49.0405 45.0534C49.0405 45.0534 49.0405 45.0534 49.0405 45.0534C49.0405 45.0534 49.0405 45.0534 49.0405 45.0534C49.0405 45.0534 49.0405 45.0534 49.0405 45.0534C49.0405 45.0534 49.0405 45.0534 49.0405 45.0534C49.0405 45.0534 49.0405 45.0534 49.0405 45.0534C49.0405 45.0534 49.0405 45.0534 49.0405 45.0534C49.0405 45.0534 49.0405 45.0534 49.0405 45.0534C49.0405 45.0534 49.0405 45.0534 49.0405 45.0534C49.0405 45.0534 49.0405 45.0534 49.0405 45.0534C49.0405 45.0534 49.0405 45.0534 49.0405 45.0534C49.0405 45.0534 49.0405 45.0534 49.0405 45.0534C49.0405 45.0534 49.0405 45.0534 49.0405 45.0534C49.0405 45.0534 49.0405 45.0534 49.0405 45.0534C49.0405 45.0534 49.0405 45.0534 49.0405 45.0534C49.0405 45.0534 49.0405 45.0534 49.0405 45.0534C49.0405 45.0534 49.0405 45.0534 49.0405 45.0534C49.0405 45.0534 49.0405 45.0534 49.0405 45.0534C49.0405 45.0534 49.0405 45.0534 49.0405 45.0534C49.0405 45.0534 49.0405 45.0534 49.0405 45.0534C49.0405 45.0534 49.0405 45.0534 49.0405 45.0534C49.0405 45.0534 49.0405 45.0534 49.0405 45.0534C49.0405 45.0534 49.0405 45.0534 49.0405 45.0534C49.0405 45.0534 49.0405 45.0534 49.0405 45.0534C49.0405 45.0534 49.0405 45.0534 49.0405 45.0534C49.0405 45.0534 49.0405 45.0534 49.0405 45.0534C49.0405 45.0534 49.0405 45.0534 49.0405 45.0534C49.0405 45.0534 49.0405 45.0534 49.0405 45.0534C49.0405 45.0534 49.0405 45.0534 49.0405 45.0534C49.0405 45.0534 49.0405 45.0534 49.0405 45.0534C49.0405 45.0534 49.0405 45.0534 49.0405 45.0534C49.0405 45.0534 49.0405 45.0534 49.0405 45.0534C49.0405 45.0534 49.0405 45.0534 49.0405 45.0534C49.0405 45.0534 49.0405 45.0534 49.0405 45.0534C49.0405 45.0534 49.0405 45.0534 49.0405 45.0534C49.0405 45.0534 49.0405 45.0534 49.0405 45.0534C49.0405 45.0534 49.0405 45.0534 49.0405 45.0534C49.0405 45.0534 49.0405 45.0534 49.0405 45.0534C49.0405 45.0534 49.0405 45.0534 49.0405 45.0534C49.0405 45.0534 49.0405 45.0534 49.0405 45.0534C49.0405 45.0534 49.0405 45.0534 49.0405 45.0534C49.0405 45.0534 49.0405 45.0534 49.0405 45.0534C49.0405 45.0534 49.0405 45.0534 49.0405 45.0534C49.0405 45.0534 49.0405 45.0534 49.0405 45.0534C49.0405 45.0534 49.0405 45.0534 49.0405 45.0534C49.0405 45.0534 49.0405 45.0534 49.0405 45.0534C49.0405 45.0534 49.0405 45.0534 49.0405 45.0534C49.0405 45.0534 49.0405 45.0534 49.0405 45.0534C49.0405 45.0534 49.0405 45.0534 49.0405 45.0534C49.0405 45.0534 49.0405 45.0534 49.0405 45.0534C49.0405 45.0534 49.0405 45.0534 49.0405 45.0534C49.0405 45.0534 49.0405 45.0534 49.0405 45.0534C49.0405 45.0534 49.0405 45.0534 49.0405 45.0534C49.0405 45.0534 49.0405 45.0534 49.0405 45.0534C49.0405 45.0534 49.0405 45.0534 49.0405 45.0534C49.0405 45.0534 49.0405 45.0534 49.0405 45.0534C49.0405 45.0534 49.0405 45.0534 49.0405 45.0534C49.0405 45.0534 49.0405 45.0534 49.0405 45.0534C49.0405 45.0534 49.0405 45.0534 49.0405 45.0534C49.0405 45.0534 49.0405 45.0534 49.0405 45.0534C49.0405 45.0534 49.0405 45.0534 49.0405 45.0534C49.0405 45.0534 49.0405 45.0534 49.0405 45.0534C49.0405 45.0534 49.0405 45.0534 49.0405 45.0534C49.0405 45.0534 49.0405 45.0534 49.0405 45.0534C49.0405 45.0534 49.0405 45.0534 49.0405 45.0534C49.0405 45.0534 49.0405 45.0534 49.0405 45.0534C49.0405 45.0534 49.0405 45.0534 49.0405 45.0534C49.0405 45.0534 49.0405 45.0534 49.0405 45.0534C49.0405 45.0534 49.0405 45.0534 49.0405 45.0534C49.0405 45.0534 49.0405 45.0534 49.0405 45.0534C49.0405 45.0534 49.0405 45.0534 49.0405 45.0534C49.0405 45.0534 49.0405 45.0534 49.0405 45.0534C49.0405 45.0534 49.0405 45.0534 49.0405 45.0534C49.0405 45.0534 49.0405 45.0534 49.0405 45.0534C49.0405 45.0534 49.0405 45.0534 49.0405 45.0534C49.0405 45.0534 49.0405 45.0534 49.0405 45.0534C49.0405 45.0534 49.0405 45.0534 49.0405 45.0534C49.0405 45.0534 49.0405 45.0534 49.0405 45.0534C49.0405 45.0534 49.0405 45.0534 49.0405 45.0534C49.0405 45.0534 49.0405 45.0534 49.0405 45.0534C49.0405 45.0534 49.0405 45.0534 49.0405 45.0534C49.0405 45.0534 49.0405 45.0534 49.0405 45.0534C49.0405 45.0534 49.0405 45.0534 49.0405 45.0534C49.0405 45.0534 49.0405 45.0534 49.0405 45.0534C49.0405 45.0534 49.0405 45.0534 49.0405 45.0534C49.0405 45.0534 49.0405 45.0534 49.0405 45.0534C49.0405 45.0534 49.0405 45.0534 49.0405 45.0534C49.0405 45.0534 49.0405 45.0534 49.0405 45.0534C49.0405 45.0534 49.0405 45.0534 49.0405 45.0534C49.0405 45.0534 49.0405 45.0534 49.0405 45.0534C49.0405 45.0534 49.0405 45.0534 49.0405 45.0534C49.0405 45.0534 49.0405 45.0534 49.0405 45.0534C49.0405 45.0534 49.0405 45.0534 49.0405 45.0534C49.0405 45.0534 49.0405 45.0534 49.0405 45.0534C49.0405 45.0534 49.0405 45.0534 49.0405 45.0534C49.0405 45.0534 49.0405 45.0534 49.0405 45.0534C49.0405 45.0534 49.0405 45.0534 49.0405 45.0534C49.0405 45.0534 49.0405 45.0534 49.0405 45.0534C49.0405 45.0534 49.0405 45.0534 49.0405 45.0534C49.0405 45.0534 49.0405 45.0534 49.0405 45.0534C49.0405 45.0534 49.0405 45.0534 49.0405 45.0534C49.0405 45.0534 49.0405 45.0534 49.0405 45.0534C49.0405 45.0534 49.0405 45.0534 49.0405 45.0534C49.0405 45.0534 49.0405 45.0534 49.0405 45.0534C49.0405 45.0534 49.0405 45.0534 49.0405 45.0534C49.0405 45.0534 49.0405 45.0534 49.0405 45.0534C49.0405 45.0534 49.0405 45.0534 49.0405 45.0534C49.0405 45.0534 49.0405 45.0534 49.0405 45.0534C49.0405 45.0534 49.0405 45.0534 49.0405 45.0534C49.0405 45.0534 49.0405 45.0534 49.0405 45.0534C49.0405 45.0534 49.0405 45.0534 49.0405 45.0534C49.0405 45.0534 49.0405 45.0534 49.0405 45.0534C49.0405 45.0534 49.0405 45.0534 49.0405 45.0534C49.0405 45.0534 49.0405 45.0534 49.0405 45.0534C49.0405 45.0534 49.0405 45.0534 49.0405 45.0534C49.0405 45.0534 49.0405 45.0534 49.0405 45.0534C49.0405 45.0534 49.0405 45.0534 49.0405 45.0534C49.0405 45.0534 49.0405 45.0534 49.0405 45.0534C49.0405 45.0534 49.0405 45.0534 49.0405 45.0534C49.0405 45.0534 49.0405 45.0534 49.0405 45.0534C49.0405 45.0534 49.0405 45.0534 49.0405 45.0534C49.0405 45.0534 49.0405 45.0534 49.0405 45.0534C49.0405 45.0534 49.0405 45.0534 49.0405 45.0534C49.0405 45.0534 49.0405 45.0534 49.0405 45.0534C49.0405 45.0534 49.0405 45.0534 49.0405 45.0534C49.0405 45.0534 49.0405 45.0534 49.0405 45.0534C49.0405 45.0534 49.0405 45.0534 49.0405 45.0534C49.0405 45.0534 49.0405 45.0534 49.0405 45.0534C49.0405 45.0534 49.0405 45.0534 49.0405 45.0534C49.0405 45.0534 49.0405 45.0534 49.0405 45.0534C49.0405 45.0534 49.0405 45.0534 49.0405 45.0534C49.0405 45.0534 49.0405 45.0534 49.0405 45.0534C49.0405 45.0534 49.0405 45.0534 49.0405 45.0534C49.0405 45.0534 49.0405 45.0534 49.0405 45.0534C49.0405 45.0534 49.0405 45.0534 49.0405 45.0534C49.0405 45.0534 49.0405 45.0534 49.0405 45.0534C49.0405 45.0534 49.0405 45.0534 49.0405 45.0535C49.0405 45.0535 49.0405 45.0535 49.0405 45.0535C49.0405 45.0535 49.0405 45.0535 49.0405 45.0535C49.0405 45.0535 49.0405 45.0535 49.0405 45.0535C49.0405 45.0535 49.0405 45.0535 49.0405 45.0535C49.0405 45.0535 49.0405 45.0535 49.0405 45.0535C49.0405 45.0535 49.0405 45.0535 49.0405 45.0535C49.0405 45.0535 49.0405 45.0535 49.0405 45.0535C49.0405 45.0535 49.0405 45.0535 49.0405 45.0535C49.0405 45.0535 49.0405 45.0535 49.0405 45.0535C49.0405 45.0535 49.0405 45.0535 49.0405 45.0535C49.0405 45.0535 49.0405 45.0535 49.0405 45.0535C49.0405 45.0535 49.0405 45.0535 49.0405 45.0535C49.0405 45.0535 49.0405 45.0535 49.0405 45.0535C49.0405 45.0535 49.0405 45.0535 49.0405 45.0535C49.0405 45.0535 49.0405 45.0535 49.0405 45.0535C49.0405 45.0535 49.0405 45.0535 49.0405 45.0535C49.0405 45.0535 49.0405 45.0535 49.0405 45.0535C49.0405 45.0535 49.0405 45.0535 49.0405 45.0535C49.0405 45.0535 49.0405 45.0535 49.0405 45.0535C49.0405 45.0535 49.0405 45.0535 49.0405 45.0535C49.0405 45.0535 49.0405 45.0535 49.0405 45.0535C49.0405 45.0535 49.0405 45.0535 49.0405 45.0535C49.0405 45.0535 49.0405 45.0535 49.0405 45.0535C49.0405 45.0535 49.0405 45.0535 49.0405 45.0535C49.0405 45.0535 49.0405 45.0535 49.0405 45.0535C49.0405 45.0535 49.0405 45.0535 49.0405 45.0535C49.0405 45.0535 49.0405 45.0535 49.0405 45.0535C49.0405 45.0535 49.0405 45.0535 49.0405 45.0535C49.0405 45.0535 49.0405 45.0535 49.0405 45.0535C49.0405 45.0535 49.0405 45.0535 49.0405 45.0535C49.0405 45.0535 49.0405 45.0535 49.0405 45.0535C49.0405 45.0535 49.0405 45.0535 49.0405 45.0535C49.0405 45.0535 49.0405 45.0535 49.0405 45.0535C49.0405 45.0535 49.0405 45.0535 49.0405 45.0535C49.0405 45.0535 49.0405 45.0535 49.0405 45.0535C49.0405 45.0535 49.0405 45.0535 49.0405 45.0535C49.0405 45.0535 49.0405 45.0535 49.0405 45.0535C49.0405 45.0535 49.0405 45.0535 49.0405 45.0535C49.0405 45.0535 49.0405 45.0535 49.0405 45.0535C49.0405 45.0535 49.0405 45.0535 49.0405 45.0535C49.0405 45.0535 49.0405 45.0535 49.0405 45.0535C49.0405 45.0535 49.0405 45.0535 49.0405 45.0535C49.0405 45.0535 49.0405 45.0535 49.0405 45.0535C49.0405 45.0535 49.0405 45.0535 49.0405 45.0535C49.0405 45.0535 49.0405 45.0535 49.0405 45.0535C49.0405 45.0535 49.0405 45.0535 49.0405 45.0535C49.0405 45.0535 49.0405 45.0535 49.0405 45.0535C49.0405 45.0535 49.0405 45.0535 49.0405 45.0535C49.0405 45.0535 49.0405 45.0535 49.0405 45.0535C49.0405 45.0535 49.0405 45.0535 49.0405 45.0535C49.0405 45.0535 49.0405 45.0535 49.0405 45.0535C49.0405 45.0535 49.0405 45.0535 49.0405 45.0535C49.0405 45.0535 49.0405 45.0535 49.0405 45.0535C49.0405 45.0535 49.0405 45.0535 49.0405 45.0535C49.0405 45.0535 49.0405 45.0535 49.0405 45.0535C49.0405 45.0535 49.0405 45.0535 49.0405 45.0535C49.0405 45.0535 49.0405 45.0535 49.0405 45.0535C49.0405 45.0535 49.0405 45.0535 49.0405 45.0535C49.0405 45.0535 49.0405 45.0535 49.0405 45.0535C49.0405 45.0535 49.0405 45.0535 49.0405 45.0535C49.0405 45.0535 49.0405 45.0535 49.0405 45.0535C49.0405 45.0535 49.0405 45.0535 49.0405 45.0535C49.0405 45.0535 49.0405 45.0535 49.0405 45.0535C49.0405 45.0535 49.0405 45.0535 49.0405 45.0535C49.0405 45.0535 49.0405 45.0535 49.0405 45.0535C49.0405 45.0535 49.0405 45.0535 49.0405 45.0535C49.0405 45.0535 49.0405 45.0535 49.0405 45.0535C49.0405 45.0535 49.0405 45.0535 49.0405 45.0535C49.0405 45.0535 49.0405 45.0535 49.0405 45.0535C49.0405 45.0535 49.0405 45.0535 49.0405 45.0535C49.0405 45.0535 49.0405 45.0535 49.0405 45.0535C49.0405 45.0535 49.0405 45.0535 49.0405 45.0535C49.0405 45.0535 49.0405 45.0535 49.0405 45.0535C49.0405 45.0535 49.0405 45.0535 49.0405 45.0535C49.0405 45.0535 49.0405 45.0535 49.0405 45.0535C49.0405 45.0535 49.0405 45.0535 49.0405 45.0535C49.0405 45.0535 49.0405 45.0535 49.0405 45.0535C49.0405 45.0535 49.0405 45.0535 49.0405 45.0535C49.0405 45.0535 49.0405 45.0535 49.0405 45.0535C49.0405 45.0535 49.0405 45.0535 49.0405 45.0535C49.0405 45.0535 49.0405 45.0535 49.0405 45.0535C49.0405 45.0535 49.0405 45.0535 49.0405 45.0535C49.0405 45.0535 49.0405 45.0535 49.0405 45.0535C49.0405 45.0535 49.0405 45.0535 49.0405 45.0535C49.0405 45.0535 49.0405 45.0535 49.0405 45.0535C49.0405 45.0535 49.0405 45.0535 49.0405 45.0535C49.0405 45.0535 49.0405 45.0535 49.0405 45.0535C49.0405 45.0535 49.0405 45.0535 49.0405 45.0535C49.0405 45.0535 49.0405 45.0535 49.0405 45.0535C49.0405 45.0535 49.0405 45.0535 49.0405 45.0535C49.0405 45.0535 49.0405 45.0535 49.0405 45.0535C49.0405 45.0535 49.0405 45.0535 49.0405 45.0535C49.0405 45.0535 49.0405 45.0535 49.0405 45.0535C49.0405 45.0535 49.0405 45.0535 49.0405 45.0535C49.0405 45.0535 49.0405 45.0535 49.0405 45.0535C49.0405 45.0535 49.0405 45.0535 49.0405 45.0535C49.0405 45.0535 49.0405 45.0535 49.0405 45.0535C49.0405 45.0535 49.0405 45.0535 49.0405 45.0535C49.0405 45.0535 49.0405 45.0535 49.0405 45.0535C49.0405 45.0535 49.0405 45.0535 49.0405 45.0535C49.0405 45.0535 49.0405 45.0535 49.0405 45.0535C49.0405 45.0535 49.0405 45.0535 49.0405 45.0535C49.0405 45.0535 49.0405 45.0535 49.0405 45.0535C49.0405 45.0535 49.0405 45.0535 49.0405 45.0535C49.0405 45.0535 49.0405 45.0535 49.0405 45.0535C49.0405 45.0535 49.0405 45.0535 49.0405 45.0535C49.0405 45.0535 49.0405 45.0535 49.0405 45.0535C49.0405 45.0535 49.0405 45.0535 49.0405 45.0535C49.0405 45.0535 49.0405 45.0535 49.0405 45.0535C49.0405 45.0535 49.0405 45.0535 49.0405 45.0535C49.0405 45.0535 49.0405 45.0535 49.0405 45.0535C49.0405 45.0535 49.0405 45.0535 49.0405 45.0535C49.0405 45.0535 49.0405 45.0535 49.0405 45.0535C49.0405 45.0535 49.0405 45.0535 49.0405 45.0535C49.0405 45.0535 49.0405 45.0535 49.0405 45.0535C49.0405 45.0535 49.0405 45.0535 49.0405 45.0535C49.0405 45.0535 49.0405 45.0535 49.0405 45.0535C49.0405 45.0535 49.0405 45.0535 49.0405 45.0535C49.0405 45.0535 49.0405 45.0535 49.0405 45.0535C49.0405 45.0535 49.0405 45.0535 49.0405 45.0535C49.0405 45.0535 49.0405 45.0535 49.0405 45.0535C49.0405 45.0535 49.0405 45.0535 49.0405 45.0535C49.0405 45.0535 49.0405 45.0535 49.0405 45.0535C49.0405 45.0535 49.0405 45.0535 49.0405 45.0535C49.0405 45.0535 49.0405 45.0535 49.0405 45.0535C49.0405 45.0535 49.0405 45.0535 49.0405 45.0535C49.0405 45.0535 49.0405 45.0535 49.0405 45.0535C49.0405 45.0535 49.0405 45.0535 49.0405 45.0535C49.0405 45.0535 49.0405 45.0535 49.0405 45.0535C49.0405 45.0535 49.0405 45.0535 49.0405 45.0535C49.0405 45.0535 49.0405 45.0535 49.0405 45.0535C49.0405 45.0535 49.0405 45.0535 49.0405 45.0535C49.0405 45.0535 49.0405 45.0535 49.0405 45.0535C49.0405 45.0535 49.0405 45.0535 49.0405 45.0535C49.0405 45.0535 49.0405 45.0535 49.0405 45.0535C49.0405 45.0535 49.0405 45.0535 49.0405 45.0535C49.0405 45.0535 49.0405 45.0535 49.0405 45.0535C49.0405 45.0535 49.0405 45.0535 49.0405 45.0535C49.0405 45.0535 49.0405 45.0535 49.0405 45.0535C49.0405 45.0535 49.0405 45.0535 49.0405 45.0535C49.0405 45.0535 49.0405 45.0535 49.0405 45.0535C49.0405 45.0535 49.0405 45.0535 49.0405 45.0535C49.0405 45.0535 49.0405 45.0535 49.0405 45.0535C49.0405 45.0535 49.0405 45.0535 49.0405 45.0535C49.0405 45.0535 49.0405 45.0535 49.0405 45.0535C49.0405 45.0535 49.0405 45.0535 49.0405 45.0535C49.0405 45.0535 49.0405 45.0535 49.0405 45.0535C49.0405 45.0535 49.0405 45.0535 49.0405 45.0535C49.0405 45.0535 49.0405 45.0535 49.0405 45.0535C49.0405 45.0535 49.0405 45.0535 49.0405 45.0535C49.0405 45.0535 49.0405 45.0535 49.0405 45.0535C49.0405 45.0536 49.0405 45.0536 49.0405 45.0536C49.0405 45.0536 49.0405 45.0536 49.0405 45.0536C49.0405 45.0536 49.0405 45.0536 49.0405 45.0536C49.0405 45.0536 49.0405 45.0536 49.0405 45.0536C49.0405 45.0536 49.0405 45.0536 49.0405 45.0536C49.0405 45.0536 49.0405 45.0536 49.0405 45.0536C49.0405 45.0536 49.0405 45.0536 49.0405 45.0536C49.0405 45.0536 49.0405 45.0536 49.0405 45.0536C49.0405 45.0536 49.0405 45.0536 49.0405 45.0536L55.0405 45.0536C55.0405 45.0536 55.0405 45.0536 55.0405 45.0536C55.0405 45.0536 55.0405 45.0536 55.0405 45.0536C55.0405 45.0536 55.0405 45.0536 55.0405 45.0536C55.0405 45.0536 55.0405 45.0536 55.0405 45.0536C55.0405 45.0536 55.0405 45.0536 55.0405 45.0536C55.0405 45.0536 55.0405 45.0536 55.0405 45.0536C55.0405 45.0536 55.0405 45.0536 55.0405 45.0536C55.0405 45.0536 55.0405 45.0536 55.0405 45.0536C55.0405 45.0536 55.0405 45.0536 55.0405 45.0536C55.0405 45.0536 55.0405 45.0535 55.0405 45.0535C55.0405 45.0535 55.0405 45.0535 55.0405 45.0535C55.0405 45.0535 55.0405 45.0535 55.0405 45.0535C55.0405 45.0535 55.0405 45.0535 55.0405 45.0535C55.0405 45.0535 55.0405 45.0535 55.0405 45.0535C55.0405 45.0535 55.0405 45.0535 55.0405 45.0535C55.0405 45.0535 55.0405 45.0535 55.0405 45.0535C55.0405 45.0535 55.0405 45.0535 55.0405 45.0535C55.0405 45.0535 55.0405 45.0535 55.0405 45.0535C55.0405 45.0535 55.0405 45.0535 55.0405 45.0535C55.0405 45.0535 55.0405 45.0535 55.0405 45.0535C55.0405 45.0535 55.0405 45.0535 55.0405 45.0535C55.0405 45.0535 55.0405 45.0535 55.0405 45.0535C55.0405 45.0535 55.0405 45.0535 55.0405 45.0535C55.0405 45.0535 55.0405 45.0535 55.0405 45.0535C55.0405 45.0535 55.0405 45.0535 55.0405 45.0535C55.0405 45.0535 55.0405 45.0535 55.0405 45.0535C55.0405 45.0535 55.0405 45.0535 55.0405 45.0535C55.0405 45.0535 55.0405 45.0535 55.0405 45.0535C55.0405 45.0535 55.0405 45.0535 55.0405 45.0535C55.0405 45.0535 55.0405 45.0535 55.0405 45.0535C55.0405 45.0535 55.0405 45.0535 55.0405 45.0535C55.0405 45.0535 55.0405 45.0535 55.0405 45.0535C55.0405 45.0535 55.0405 45.0535 55.0405 45.0535C55.0405 45.0535 55.0405 45.0535 55.0405 45.0535C55.0405 45.0535 55.0405 45.0535 55.0405 45.0535C55.0405 45.0535 55.0405 45.0535 55.0405 45.0535C55.0405 45.0535 55.0405 45.0535 55.0405 45.0535C55.0405 45.0535 55.0405 45.0535 55.0405 45.0535C55.0405 45.0535 55.0405 45.0535 55.0405 45.0535C55.0405 45.0535 55.0405 45.0535 55.0405 45.0535C55.0405 45.0535 55.0405 45.0535 55.0405 45.0535C55.0405 45.0535 55.0405 45.0535 55.0405 45.0535C55.0405 45.0535 55.0405 45.0535 55.0405 45.0535C55.0405 45.0535 55.0405 45.0535 55.0405 45.0535C55.0405 45.0535 55.0405 45.0535 55.0405 45.0535C55.0405 45.0535 55.0405 45.0535 55.0405 45.0535C55.0405 45.0535 55.0405 45.0535 55.0405 45.0535C55.0405 45.0535 55.0405 45.0535 55.0405 45.0535C55.0405 45.0535 55.0405 45.0535 55.0405 45.0535C55.0405 45.0535 55.0405 45.0535 55.0405 45.0535C55.0405 45.0535 55.0405 45.0535 55.0405 45.0535C55.0405 45.0535 55.0405 45.0535 55.0405 45.0535C55.0405 45.0535 55.0405 45.0535 55.0405 45.0535C55.0405 45.0535 55.0405 45.0535 55.0405 45.0535C55.0405 45.0535 55.0405 45.0535 55.0405 45.0535C55.0405 45.0535 55.0405 45.0535 55.0405 45.0535C55.0405 45.0535 55.0405 45.0535 55.0405 45.0535C55.0405 45.0535 55.0405 45.0535 55.0405 45.0535C55.0405 45.0535 55.0405 45.0535 55.0405 45.0535C55.0405 45.0535 55.0405 45.0535 55.0405 45.0535C55.0405 45.0535 55.0405 45.0535 55.0405 45.0535C55.0405 45.0535 55.0405 45.0535 55.0405 45.0535C55.0405 45.0535 55.0405 45.0535 55.0405 45.0535C55.0405 45.0535 55.0405 45.0535 55.0405 45.0535C55.0405 45.0535 55.0405 45.0535 55.0405 45.0535C55.0405 45.0535 55.0405 45.0535 55.0405 45.0535C55.0405 45.0535 55.0405 45.0535 55.0405 45.0535C55.0405 45.0535 55.0405 45.0535 55.0405 45.0535C55.0405 45.0535 55.0405 45.0535 55.0405 45.0535C55.0405 45.0535 55.0405 45.0535 55.0405 45.0535C55.0405 45.0535 55.0405 45.0535 55.0405 45.0535C55.0405 45.0535 55.0405 45.0535 55.0405 45.0535C55.0405 45.0535 55.0405 45.0535 55.0405 45.0535C55.0405 45.0535 55.0405 45.0535 55.0405 45.0535C55.0405 45.0535 55.0405 45.0535 55.0405 45.0535C55.0405 45.0535 55.0405 45.0535 55.0405 45.0535C55.0405 45.0535 55.0405 45.0535 55.0405 45.0535C55.0405 45.0535 55.0405 45.0535 55.0405 45.0535C55.0405 45.0535 55.0405 45.0535 55.0405 45.0535C55.0405 45.0535 55.0405 45.0535 55.0405 45.0535C55.0405 45.0535 55.0405 45.0535 55.0405 45.0535C55.0405 45.0535 55.0405 45.0535 55.0405 45.0535C55.0405 45.0535 55.0405 45.0535 55.0405 45.0535C55.0405 45.0535 55.0405 45.0535 55.0405 45.0535C55.0405 45.0535 55.0405 45.0535 55.0405 45.0535C55.0405 45.0535 55.0405 45.0535 55.0405 45.0535C55.0405 45.0535 55.0405 45.0535 55.0405 45.0535C55.0405 45.0535 55.0405 45.0535 55.0405 45.0535C55.0405 45.0535 55.0405 45.0535 55.0405 45.0535C55.0405 45.0535 55.0405 45.0535 55.0405 45.0535C55.0405 45.0535 55.0405 45.0535 55.0405 45.0535C55.0405 45.0535 55.0405 45.0535 55.0405 45.0535C55.0405 45.0535 55.0405 45.0535 55.0405 45.0535C55.0405 45.0535 55.0405 45.0535 55.0405 45.0535C55.0405 45.0535 55.0405 45.0535 55.0405 45.0535C55.0405 45.0535 55.0405 45.0535 55.0405 45.0535C55.0405 45.0535 55.0405 45.0535 55.0405 45.0535C55.0405 45.0535 55.0405 45.0535 55.0405 45.0535C55.0405 45.0535 55.0405 45.0535 55.0405 45.0535C55.0405 45.0535 55.0405 45.0535 55.0405 45.0535C55.0405 45.0535 55.0405 45.0535 55.0405 45.0535C55.0405 45.0535 55.0405 45.0535 55.0405 45.0535C55.0405 45.0535 55.0405 45.0535 55.0405 45.0535C55.0405 45.0535 55.0405 45.0535 55.0405 45.0535C55.0405 45.0535 55.0405 45.0535 55.0405 45.0535C55.0405 45.0535 55.0405 45.0535 55.0405 45.0535C55.0405 45.0535 55.0405 45.0535 55.0405 45.0535C55.0405 45.0535 55.0405 45.0535 55.0405 45.0535C55.0405 45.0535 55.0405 45.0535 55.0405 45.0535C55.0405 45.0535 55.0405 45.0535 55.0405 45.0535C55.0405 45.0535 55.0405 45.0535 55.0405 45.0535C55.0405 45.0535 55.0405 45.0535 55.0405 45.0535C55.0405 45.0535 55.0405 45.0535 55.0405 45.0535C55.0405 45.0535 55.0405 45.0535 55.0405 45.0535C55.0405 45.0535 55.0405 45.0535 55.0405 45.0535C55.0405 45.0535 55.0405 45.0535 55.0405 45.0535C55.0405 45.0535 55.0405 45.0535 55.0405 45.0535C55.0405 45.0535 55.0405 45.0535 55.0405 45.0535C55.0405 45.0535 55.0405 45.0535 55.0405 45.0535C55.0405 45.0535 55.0405 45.0535 55.0405 45.0535C55.0405 45.0535 55.0405 45.0535 55.0405 45.0535C55.0405 45.0535 55.0405 45.0535 55.0405 45.0535C55.0405 45.0535 55.0405 45.0535 55.0405 45.0535C55.0405 45.0535 55.0405 45.0535 55.0405 45.0535C55.0405 45.0535 55.0405 45.0535 55.0405 45.0535C55.0405 45.0535 55.0405 45.0535 55.0405 45.0535C55.0405 45.0535 55.0405 45.0535 55.0405 45.0535C55.0405 45.0535 55.0405 45.0535 55.0405 45.0535C55.0405 45.0535 55.0405 45.0535 55.0405 45.0535C55.0405 45.0535 55.0405 45.0535 55.0405 45.0535C55.0405 45.0535 55.0405 45.0535 55.0405 45.0535C55.0405 45.0535 55.0405 45.0535 55.0405 45.0535C55.0405 45.0535 55.0405 45.0535 55.0405 45.0535C55.0405 45.0535 55.0405 45.0535 55.0405 45.0535C55.0405 45.0535 55.0405 45.0535 55.0405 45.0535C55.0405 45.0535 55.0405 45.0535 55.0405 45.0535C55.0405 45.0535 55.0405 45.0535 55.0405 45.0535C55.0405 45.0535 55.0405 45.0535 55.0405 45.0535C55.0405 45.0535 55.0405 45.0535 55.0405 45.0535C55.0405 45.0535 55.0405 45.0535 55.0405 45.0535C55.0405 45.0535 55.0405 45.0535 55.0405 45.0535C55.0405 45.0535 55.0405 45.0535 55.0405 45.0535C55.0405 45.0535 55.0405 45.0535 55.0405 45.0535C55.0405 45.0535 55.0405 45.0535 55.0405 45.0535C55.0405 45.0535 55.0405 45.0535 55.0405 45.0535C55.0405 45.0535 55.0405 45.0535 55.0405 45.0535C55.0405 45.0535 55.0405 45.0535 55.0405 45.0535C55.0405 45.0535 55.0405 45.0535 55.0405 45.0535C55.0405 45.0535 55.0405 45.0535 55.0405 45.0535C55.0405 45.0535 55.0405 45.0535 55.0405 45.0535C55.0405 45.0535 55.0405 45.0535 55.0405 45.0535C55.0405 45.0535 55.0405 45.0535 55.0405 45.0535C55.0405 45.0535 55.0405 45.0535 55.0405 45.0535C55.0405 45.0535 55.0405 45.0535 55.0405 45.0535C55.0405 45.0535 55.0405 45.0535 55.0405 45.0535C55.0405 45.0535 55.0405 45.0535 55.0405 45.0535C55.0405 45.0535 55.0405 45.0535 55.0405 45.0535C55.0405 45.0535 55.0405 45.0535 55.0405 45.0535C55.0405 45.0535 55.0405 45.0535 55.0405 45.0535C55.0405 45.0535 55.0405 45.0535 55.0405 45.0535C55.0405 45.0535 55.0405 45.0534 55.0405 45.0534C55.0405 45.0534 55.0405 45.0534 55.0405 45.0534C55.0405 45.0534 55.0405 45.0534 55.0405 45.0534C55.0405 45.0534 55.0405 45.0534 55.0405 45.0534C55.0405 45.0534 55.0405 45.0534 55.0405 45.0534C55.0405 45.0534 55.0405 45.0534 55.0405 45.0534C55.0405 45.0534 55.0405 45.0534 55.0405 45.0534C55.0405 45.0534 55.0405 45.0534 55.0405 45.0534C55.0405 45.0534 55.0405 45.0534 55.0405 45.0534C55.0405 45.0534 55.0405 45.0534 55.0405 45.0534C55.0405 45.0534 55.0405 45.0534 55.0405 45.0534C55.0405 45.0534 55.0405 45.0534 55.0405 45.0534C55.0405 45.0534 55.0405 45.0534 55.0405 45.0534C55.0405 45.0534 55.0405 45.0534 55.0405 45.0534C55.0405 45.0534 55.0405 45.0534 55.0405 45.0534C55.0405 45.0534 55.0405 45.0534 55.0405 45.0534C55.0405 45.0534 55.0405 45.0534 55.0405 45.0534C55.0405 45.0534 55.0405 45.0534 55.0405 45.0534C55.0405 45.0534 55.0405 45.0534 55.0405 45.0534C55.0405 45.0534 55.0405 45.0534 55.0405 45.0534C55.0405 45.0534 55.0405 45.0534 55.0405 45.0534C55.0405 45.0534 55.0405 45.0534 55.0405 45.0534C55.0405 45.0534 55.0405 45.0534 55.0405 45.0534C55.0405 45.0534 55.0405 45.0534 55.0405 45.0534C55.0405 45.0534 55.0405 45.0534 55.0405 45.0534C55.0405 45.0534 55.0405 45.0534 55.0405 45.0534C55.0405 45.0534 55.0405 45.0534 55.0405 45.0534C55.0405 45.0534 55.0405 45.0534 55.0405 45.0534C55.0405 45.0534 55.0405 45.0534 55.0405 45.0534C55.0405 45.0534 55.0405 45.0534 55.0405 45.0534C55.0405 45.0534 55.0405 45.0534 55.0405 45.0534C55.0405 45.0534 55.0405 45.0534 55.0405 45.0534C55.0405 45.0534 55.0405 45.0534 55.0405 45.0534C55.0405 45.0534 55.0405 45.0534 55.0405 45.0534C55.0405 45.0534 55.0405 45.0534 55.0405 45.0534C55.0405 45.0534 55.0405 45.0534 55.0405 45.0534C55.0405 45.0534 55.0405 45.0534 55.0405 45.0534C55.0405 45.0534 55.0405 45.0534 55.0405 45.0534C55.0405 45.0534 55.0405 45.0534 55.0405 45.0534C55.0405 45.0534 55.0405 45.0534 55.0405 45.0534C55.0405 45.0534 55.0405 45.0534 55.0405 45.0534C55.0405 45.0534 55.0405 45.0534 55.0405 45.0534C55.0405 45.0534 55.0405 45.0534 55.0405 45.0534C55.0405 45.0534 55.0405 45.0534 55.0405 45.0534C55.0405 45.0534 55.0405 45.0534 55.0405 45.0534C55.0405 45.0534 55.0405 45.0534 55.0405 45.0534C55.0405 45.0534 55.0405 45.0534 55.0405 45.0534C55.0405 45.0534 55.0405 45.0534 55.0405 45.0534C55.0405 45.0534 55.0405 45.0534 55.0405 45.0534C55.0405 45.0534 55.0405 45.0534 55.0405 45.0534C55.0405 45.0534 55.0405 45.0534 55.0405 45.0534C55.0405 45.0534 55.0405 45.0534 55.0405 45.0534C55.0405 45.0534 55.0405 45.0534 55.0405 45.0534C55.0405 45.0534 55.0405 45.0534 55.0405 45.0534C55.0405 45.0534 55.0405 45.0534 55.0405 45.0534C55.0405 45.0534 55.0405 45.0534 55.0405 45.0534C55.0405 45.0534 55.0405 45.0534 55.0405 45.0534C55.0405 45.0534 55.0405 45.0534 55.0405 45.0534C55.0405 45.0534 55.0405 45.0534 55.0405 45.0534C55.0405 45.0534 55.0405 45.0534 55.0405 45.0534C55.0405 45.0534 55.0405 45.0534 55.0405 45.0534C55.0405 45.0534 55.0405 45.0534 55.0405 45.0534C55.0405 45.0534 55.0405 45.0534 55.0405 45.0534C55.0405 45.0534 55.0405 45.0534 55.0405 45.0534C55.0405 45.0534 55.0405 45.0534 55.0405 45.0534C55.0405 45.0534 55.0405 45.0534 55.0405 45.0534C55.0405 45.0534 55.0405 45.0534 55.0405 45.0534C55.0405 45.0534 55.0405 45.0534 55.0405 45.0534C55.0405 45.0534 55.0405 45.0534 55.0405 45.0534C55.0405 45.0534 55.0405 45.0534 55.0405 45.0534C55.0405 45.0534 55.0405 45.0534 55.0405 45.0534C55.0405 45.0534 55.0405 45.0534 55.0405 45.0534C55.0405 45.0534 55.0405 45.0534 55.0405 45.0534C55.0405 45.0534 55.0405 45.0534 55.0405 45.0534C55.0405 45.0534 55.0405 45.0534 55.0405 45.0534C55.0405 45.0534 55.0405 45.0534 55.0405 45.0534C55.0405 45.0534 55.0405 45.0534 55.0405 45.0534C55.0405 45.0534 55.0405 45.0534 55.0405 45.0534C55.0405 45.0534 55.0405 45.0534 55.0405 45.0534C55.0405 45.0534 55.0405 45.0534 55.0405 45.0534C55.0405 45.0534 55.0405 45.0534 55.0405 45.0534C55.0405 45.0534 55.0405 45.0534 55.0405 45.0534C55.0405 45.0534 55.0405 45.0534 55.0405 45.0534C55.0405 45.0534 55.0405 45.0534 55.0405 45.0534C55.0405 45.0534 55.0405 45.0534 55.0405 45.0534C55.0405 45.0534 55.0405 45.0534 55.0405 45.0534C55.0405 45.0534 55.0405 45.0534 55.0405 45.0534C55.0405 45.0534 55.0405 45.0534 55.0405 45.0534C55.0405 45.0534 55.0405 45.0534 55.0405 45.0534C55.0405 45.0534 55.0405 45.0534 55.0405 45.0534C55.0405 45.0534 55.0405 45.0534 55.0405 45.0534C55.0405 45.0534 55.0405 45.0534 55.0405 45.0534C55.0405 45.0534 55.0405 45.0534 55.0405 45.0534C55.0405 45.0534 55.0405 45.0534 55.0405 45.0534C55.0405 45.0534 55.0405 45.0534 55.0405 45.0534C55.0405 45.0534 55.0405 45.0534 55.0405 45.0534C55.0405 45.0534 55.0405 45.0534 55.0405 45.0534C55.0405 45.0534 55.0405 45.0534 55.0405 45.0534C55.0405 45.0534 55.0405 45.0534 55.0405 45.0534C55.0405 45.0534 55.0405 45.0534 55.0405 45.0534C55.0405 45.0534 55.0405 45.0534 55.0405 45.0534C55.0405 45.0534 55.0405 45.0534 55.0405 45.0534C55.0405 45.0534 55.0405 45.0534 55.0405 45.0534C55.0405 45.0534 55.0405 45.0534 55.0405 45.0534C55.0405 45.0534 55.0405 45.0534 55.0405 45.0534C55.0405 45.0534 55.0405 45.0534 55.0405 45.0534C55.0405 45.0534 55.0405 45.0534 55.0405 45.0534C55.0405 45.0534 55.0405 45.0534 55.0405 45.0534C55.0405 45.0534 55.0405 45.0534 55.0405 45.0534C55.0405 45.0534 55.0405 45.0534 55.0405 45.0534C55.0405 45.0534 55.0405 45.0534 55.0405 45.0534C55.0405 45.0534 55.0405 45.0534 55.0405 45.0534C55.0405 45.0534 55.0405 45.0534 55.0405 45.0534C55.0405 45.0534 55.0405 45.0534 55.0405 45.0534C55.0405 45.0534 55.0405 45.0534 55.0405 45.0534C55.0405 45.0534 55.0405 45.0534 55.0405 45.0534C55.0405 45.0534 55.0405 45.0534 55.0405 45.0534C55.0405 45.0534 55.0405 45.0534 55.0405 45.0534C55.0405 45.0534 55.0405 45.0534 55.0405 45.0534C55.0405 45.0534 55.0405 45.0534 55.0405 45.0534C55.0405 45.0534 55.0405 45.0534 55.0405 45.0534C55.0405 45.0534 55.0405 45.0534 55.0405 45.0534C55.0405 45.0534 55.0405 45.0534 55.0405 45.0534C55.0405 45.0534 55.0405 45.0534 55.0405 45.0534C55.0405 45.0534 55.0405 45.0534 55.0405 45.0534C55.0405 45.0534 55.0405 45.0534 55.0405 45.0534C55.0405 45.0534 55.0405 45.0534 55.0405 45.0534C55.0405 45.0534 55.0405 45.0534 55.0405 45.0534C55.0405 45.0534 55.0405 45.0534 55.0405 45.0534C55.0405 45.0534 55.0405 45.0534 55.0405 45.0534C55.0405 45.0534 55.0405 45.0534 55.0405 45.0534C55.0405 45.0534 55.0405 45.0534 55.0405 45.0534C55.0405 45.0534 55.0405 45.0534 55.0405 45.0534C55.0405 45.0534 55.0405 45.0534 55.0405 45.0534C55.0405 45.0534 55.0405 45.0534 55.0405 45.0534C55.0405 45.0534 55.0405 45.0534 55.0405 45.0534C55.0405 45.0534 55.0405 45.0534 55.0405 45.0534C55.0405 45.0534 55.0405 45.0534 55.0405 45.0534C55.0405 45.0534 55.0405 45.0534 55.0405 45.0534C55.0405 45.0534 55.0405 45.0534 55.0405 45.0534C55.0405 45.0534 55.0405 45.0534 55.0405 45.0534C55.0405 45.0534 55.0405 45.0534 55.0405 45.0534C55.0405 45.0534 55.0405 45.0534 55.0405 45.0534C55.0405 45.0534 55.0405 45.0534 55.0405 45.0534C55.0405 45.0534 55.0405 45.0534 55.0405 45.0534C55.0405 45.0534 55.0405 45.0534 55.0405 45.0534C55.0405 45.0534 55.0405 45.0534 55.0405 45.0534C55.0405 45.0534 55.0405 45.0534 55.0405 45.0534C55.0405 45.0534 55.0405 45.0534 55.0405 45.0534C55.0405 45.0534 55.0405 45.0534 55.0405 45.0534C55.0405 45.0534 55.0405 45.0534 55.0405 45.0534C55.0405 45.0534 55.0405 45.0534 55.0405 45.0533C55.0405 45.0533 55.0405 45.0533 55.0405 45.0533C55.0405 45.0533 55.0405 45.0533 55.0405 45.0533C55.0405 45.0533 55.0405 45.0533 55.0405 45.0533C55.0405 45.0533 55.0405 45.0533 55.0405 45.0533C55.0405 45.0533 55.0405 45.0533 55.0405 45.0533C55.0405 45.0533 55.0405 45.0533 55.0405 45.0533C55.0405 45.0533 55.0405 45.0533 55.0405 45.0533C55.0405 45.0533 55.0405 45.0533 55.0405 45.0533C55.0405 45.0533 55.0405 45.0533 55.0405 45.0533C55.0405 45.0533 55.0405 45.0533 55.0405 45.0533C55.0405 45.0533 55.0405 45.0533 55.0405 45.0533C55.0405 45.0533 55.0405 45.0533 55.0405 45.0533C55.0405 45.0533 55.0405 45.0533 55.0405 45.0533C55.0405 45.0533 55.0405 45.0533 55.0405 45.0533C55.0405 45.0533 55.0405 45.0533 55.0405 45.0533C55.0405 45.0533 55.0405 45.0533 55.0405 45.0533C55.0405 45.0533 55.0405 45.0533 55.0405 45.0533C55.0405 45.0533 55.0405 45.0533 55.0405 45.0533C55.0405 45.0533 55.0405 45.0533 55.0405 45.0533C55.0405 45.0533 55.0405 45.0533 55.0405 45.0533C55.0405 45.0533 55.0405 45.0533 55.0405 45.0533C55.0405 45.0533 55.0405 45.0533 55.0405 45.0533C55.0405 45.0533 55.0405 45.0533 55.0405 45.0533C55.0405 45.0533 55.0405 45.0533 55.0405 45.0533C55.0405 45.0533 55.0405 45.0533 55.0405 45.0533C55.0405 45.0533 55.0405 45.0533 55.0405 45.0533C55.0405 45.0533 55.0405 45.0533 55.0405 45.0533C55.0405 45.0533 55.0405 45.0533 55.0405 45.0533C55.0405 45.0533 55.0405 45.0533 55.0405 45.0533C55.0405 45.0533 55.0405 45.0533 55.0405 45.0533C55.0405 45.0533 55.0405 45.0533 55.0405 45.0533C55.0405 45.0533 55.0405 45.0533 55.0405 45.0533C55.0405 45.0533 55.0405 45.0533 55.0405 45.0533C55.0405 45.0533 55.0405 45.0533 55.0405 45.0533C55.0405 45.0533 55.0405 45.0533 55.0405 45.0533C55.0405 45.0533 55.0405 45.0533 55.0405 45.0533C55.0405 45.0533 55.0405 45.0533 55.0405 45.0533C55.0405 45.0533 55.0405 45.0533 55.0405 45.0533C55.0405 45.0533 55.0405 45.0533 55.0405 45.0533C55.0405 45.0533 55.0405 45.0533 55.0405 45.0533C55.0405 45.0533 55.0405 45.0533 55.0405 45.0533C55.0405 45.0533 55.0405 45.0533 55.0405 45.0533C55.0405 45.0533 55.0405 45.0533 55.0405 45.0533C55.0405 45.0533 55.0405 45.0533 55.0405 45.0533C55.0405 45.0533 55.0405 45.0533 55.0405 45.0533C55.0405 45.0533 55.0405 45.0533 55.0405 45.0533C55.0405 45.0533 55.0405 45.0533 55.0405 45.0533C55.0405 45.0533 55.0405 45.0533 55.0405 45.0533C55.0405 45.0533 55.0405 45.0533 55.0405 45.0533C55.0405 45.0533 55.0405 45.0533 55.0405 45.0533C55.0405 45.0533 55.0405 45.0533 55.0405 45.0533C55.0405 45.0533 55.0405 45.0533 55.0405 45.0533C55.0405 45.0533 55.0405 45.0533 55.0405 45.0533C55.0405 45.0533 55.0405 45.0533 55.0405 45.0533C55.0405 45.0533 55.0405 45.0533 55.0405 45.0533C55.0405 45.0533 55.0405 45.0533 55.0405 45.0533C55.0405 45.0533 55.0405 45.0533 55.0405 45.0533C55.0405 45.0533 55.0405 45.0533 55.0405 45.0533C55.0405 45.0533 55.0405 45.0533 55.0405 45.0533C55.0405 45.0533 55.0405 45.0533 55.0405 45.0533C55.0405 45.0533 55.0405 45.0533 55.0405 45.0533C55.0405 45.0533 55.0405 45.0533 55.0405 45.0533C55.0405 45.0533 55.0405 45.0533 55.0405 45.0533C55.0405 45.0533 55.0405 45.0533 55.0405 45.0533C55.0405 45.0533 55.0405 45.0533 55.0405 45.0533C55.0405 45.0533 55.0405 45.0533 55.0405 45.0533C55.0405 45.0533 55.0405 45.0533 55.0405 45.0533C55.0405 45.0533 55.0405 45.0533 55.0405 45.0533C55.0405 45.0533 55.0405 45.0533 55.0405 45.0533C55.0405 45.0533 55.0405 45.0533 55.0405 45.0533C55.0405 45.0533 55.0405 45.0533 55.0405 45.0533C55.0405 45.0533 55.0405 45.0533 55.0405 45.0533C55.0405 45.0533 55.0405 45.0533 55.0405 45.0533C55.0405 45.0533 55.0405 45.0533 55.0405 45.0533C55.0405 45.0533 55.0405 45.0533 55.0405 45.0533C55.0405 45.0533 55.0405 45.0533 55.0405 45.0533C55.0405 45.0533 55.0405 45.0533 55.0405 45.0533C55.0405 45.0533 55.0405 45.0533 55.0405 45.0533C55.0405 45.0533 55.0405 45.0533 55.0405 45.0533C55.0405 45.0533 55.0405 45.0533 55.0405 45.0533C55.0405 45.0533 55.0405 45.0533 55.0405 45.0533C55.0405 45.0533 55.0405 45.0533 55.0405 45.0533C55.0405 45.0533 55.0405 45.0533 55.0405 45.0533C55.0405 45.0533 55.0405 45.0533 55.0405 45.0533C55.0405 45.0533 55.0405 45.0533 55.0405 45.0533C55.0405 45.0533 55.0405 45.0533 55.0405 45.0533C55.0405 45.0533 55.0405 45.0533 55.0405 45.0533C55.0405 45.0533 55.0405 45.0533 55.0405 45.0533C55.0405 45.0533 55.0405 45.0533 55.0405 45.0533C55.0405 45.0533 55.0405 45.0533 55.0405 45.0533C55.0405 45.0533 55.0405 45.0533 55.0405 45.0533C55.0405 45.0533 55.0405 45.0533 55.0405 45.0533C55.0405 45.0533 55.0405 45.0533 55.0405 45.0533C55.0405 45.0533 55.0405 45.0533 55.0405 45.0533C55.0405 45.0533 55.0405 45.0533 55.0405 45.0533C55.0405 45.0533 55.0405 45.0533 55.0405 45.0533C55.0405 45.0533 55.0405 45.0533 55.0405 45.0533C55.0405 45.0533 55.0405 45.0533 55.0405 45.0533C55.0405 45.0533 55.0405 45.0533 55.0405 45.0533C55.0405 45.0533 55.0405 45.0533 55.0405 45.0533C55.0405 45.0533 55.0405 45.0533 55.0405 45.0533C55.0405 45.0533 55.0405 45.0533 55.0405 45.0533C55.0405 45.0533 55.0405 45.0533 55.0405 45.0533C55.0405 45.0533 55.0405 45.0533 55.0405 45.0533C55.0405 45.0533 55.0405 45.0533 55.0405 45.0533C55.0405 45.0533 55.0405 45.0533 55.0405 45.0533C55.0405 45.0533 55.0405 45.0533 55.0405 45.0533C55.0405 45.0533 55.0405 45.0533 55.0405 45.0533C55.0405 45.0533 55.0405 45.0533 55.0405 45.0533C55.0405 45.0533 55.0405 45.0533 55.0405 45.0533C55.0405 45.0533 55.0405 45.0533 55.0405 45.0533C55.0405 45.0533 55.0405 45.0533 55.0405 45.0533C55.0405 45.0533 55.0405 45.0533 55.0405 45.0533C55.0405 45.0533 55.0405 45.0533 55.0405 45.0533C55.0405 45.0533 55.0405 45.0533 55.0405 45.0533C55.0405 45.0533 55.0405 45.0533 55.0405 45.0533C55.0405 45.0533 55.0405 45.0533 55.0405 45.0533C55.0405 45.0533 55.0405 45.0533 55.0405 45.0533C55.0405 45.0533 55.0405 45.0533 55.0405 45.0533C55.0405 45.0533 55.0405 45.0533 55.0405 45.0533C55.0405 45.0533 55.0405 45.0533 55.0405 45.0533C55.0405 45.0533 55.0405 45.0533 55.0405 45.0533C55.0405 45.0533 55.0405 45.0533 55.0405 45.0533C55.0405 45.0533 55.0405 45.0533 55.0405 45.0533C55.0405 45.0533 55.0405 45.0533 55.0405 45.0533C55.0405 45.0533 55.0405 45.0533 55.0405 45.0533C55.0405 45.0533 55.0405 45.0533 55.0405 45.0533C55.0405 45.0533 55.0405 45.0533 55.0405 45.0533C55.0405 45.0533 55.0405 45.0533 55.0405 45.0533C55.0405 45.0533 55.0405 45.0533 55.0405 45.0533C55.0405 45.0533 55.0405 45.0533 55.0405 45.0533C55.0405 45.0533 55.0405 45.0533 55.0405 45.0533C55.0405 45.0533 55.0405 45.0533 55.0405 45.0533C55.0405 45.0533 55.0405 45.0533 55.0405 45.0533C55.0405 45.0533 55.0405 45.0533 55.0405 45.0533C55.0405 45.0533 55.0405 45.0533 55.0405 45.0533C55.0405 45.0533 55.0405 45.0533 55.0405 45.0533C55.0405 45.0533 55.0405 45.0533 55.0405 45.0533C55.0405 45.0533 55.0405 45.0533 55.0405 45.0533C55.0405 45.0533 55.0405 45.0533 55.0405 45.0533C55.0405 45.0533 55.0405 45.0533 55.0405 45.0533C55.0405 45.0533 55.0405 45.0533 55.0405 45.0533C55.0405 45.0533 55.0405 45.0533 55.0405 45.0533C55.0405 45.0533 55.0405 45.0533 55.0405 45.0533C55.0405 45.0533 55.0405 45.0533 55.0405 45.0533C55.0405 45.0533 55.0405 45.0533 55.0405 45.0533C55.0405 45.0533 55.0405 45.0533 55.0405 45.0533C55.0405 45.0533 55.0405 45.0533 55.0405 45.0533C55.0405 45.0533 55.0405 45.0533 55.0405 45.0533C55.0405 45.0533 55.0405 45.0533 55.0405 45.0533C55.0405 45.0533 55.0405 45.0533 55.0405 45.0532C55.0405 45.0532 55.0405 45.0532 55.0405 45.0532C55.0405 45.0532 55.0405 45.0532 55.0405 45.0532C55.0405 45.0532 55.0405 45.0532 55.0405 45.0532C55.0405 45.0532 55.0405 45.0532 55.0405 45.0532C55.0405 45.0532 55.0405 45.0532 55.0405 45.0532C55.0405 45.0532 55.0405 45.0532 55.0405 45.0532C55.0405 45.0532 55.0405 45.0532 55.0405 45.0532C55.0405 45.0532 55.0405 45.0532 55.0405 45.0532C55.0405 45.0532 55.0405 45.0532 55.0405 45.0532C55.0405 45.0532 55.0405 45.0532 55.0405 45.0532C55.0405 45.0532 55.0405 45.0532 55.0405 45.0532C55.0405 45.0532 55.0405 45.0532 55.0405 45.0532C55.0405 45.0532 55.0405 45.0532 55.0405 45.0532C55.0405 45.0532 55.0405 45.0532 55.0405 45.0532C55.0405 45.0532 55.0405 45.0532 55.0405 45.0532C55.0405 45.0532 55.0405 45.0532 55.0405 45.0532C55.0405 45.0532 55.0405 45.0532 55.0405 45.0532C55.0405 45.0532 55.0405 45.0532 55.0405 45.0532C55.0405 45.0532 55.0405 45.0532 55.0405 45.0532C55.0405 45.0532 55.0405 45.0532 55.0405 45.0532C55.0405 45.0532 55.0405 45.0532 55.0405 45.0532C55.0405 45.0532 55.0405 45.0532 55.0405 45.0532C55.0405 45.0532 55.0405 45.0532 55.0405 45.0532C55.0405 45.0532 55.0405 45.0532 55.0405 45.0532C55.0405 45.0532 55.0405 45.0532 55.0405 45.0532C55.0405 45.0532 55.0405 45.0532 55.0405 45.0532C55.0405 45.0532 55.0405 45.0532 55.0405 45.0532C55.0405 45.0532 55.0405 45.0532 55.0405 45.0532C55.0405 45.0532 55.0405 45.0532 55.0405 45.0532C55.0405 45.0532 55.0405 45.0532 55.0405 45.0532C55.0405 45.0532 55.0405 45.0532 55.0405 45.0532C55.0405 45.0532 55.0405 45.0532 55.0405 45.0532C55.0405 45.0532 55.0405 45.0532 55.0405 45.0532C55.0405 45.0532 55.0405 45.0532 55.0405 45.0532C55.0405 45.0532 55.0405 45.0532 55.0405 45.0532C55.0405 45.0532 55.0405 45.0532 55.0405 45.0532C55.0405 45.0532 55.0405 45.0532 55.0405 45.0532C55.0405 45.0532 55.0405 45.0532 55.0405 45.0532C55.0405 45.0532 55.0405 45.0532 55.0405 45.0532C55.0405 45.0532 55.0405 45.0532 55.0405 45.0532C55.0405 45.0532 55.0405 45.0532 55.0405 45.0532C55.0405 45.0532 55.0405 45.0532 55.0405 45.0532C55.0405 45.0532 55.0405 45.0532 55.0405 45.0532C55.0405 45.0532 55.0405 45.0532 55.0405 45.0532C55.0405 45.0532 55.0405 45.0532 55.0405 45.0532C55.0405 45.0532 55.0405 45.0532 55.0405 45.0532C55.0405 45.0532 55.0405 45.0532 55.0405 45.0532C55.0405 45.0532 55.0405 45.0532 55.0405 45.0532C55.0405 45.0532 55.0405 45.0532 55.0405 45.0532L49.0405 45.0532ZM62.4493 31.7231C55.0654 31.7231 49.0405 37.6698 49.0405 45.0532L55.0405 45.0532C55.0405 41.0264 58.3361 37.7231 62.4493 37.7231L62.4493 31.7231ZM75.8581 45.0532C75.8581 37.6698 69.8333 31.7231 62.4493 31.7231L62.4493 37.7231C66.5626 37.7231 69.8581 41.0264 69.8581 45.0532L75.8581 45.0532Z" fill="#26734E" mask="url(#path-3-outside-2_1574_131)"/>
</svg>
