<svg width="1674" height="746" viewBox="0 0 1674 746" fill="none" xmlns="http://www.w3.org/2000/svg">
<mask id="path-1-inside-1_1693_93" fill="white">
<path fill-rule="evenodd" clip-rule="evenodd" d="M222.5 541C222.667 541 222.833 541 223 540.999L223 541C223 633.784 296.649 709 387.5 709C478.351 709 552 633.784 552 541C552 540.948 552 540.896 552 540.844C643.79 537.02 717 463.336 717 373C717 282.663 643.79 208.98 552 205.156C552 205.104 552 205.052 552 205C552 112.216 478.351 37 387.5 37C296.649 37 223 112.216 223 205L223 205.001C222.833 205 222.667 205 222.5 205C131.649 205 58 280.216 58 373C58 465.784 131.649 541 222.5 541Z"/>
</mask>
<path fill-rule="evenodd" clip-rule="evenodd" d="M222.5 541C222.667 541 222.833 541 223 540.999L223 541C223 633.784 296.649 709 387.5 709C478.351 709 552 633.784 552 541C552 540.948 552 540.896 552 540.844C643.79 537.02 717 463.336 717 373C717 282.663 643.79 208.98 552 205.156C552 205.104 552 205.052 552 205C552 112.216 478.351 37 387.5 37C296.649 37 223 112.216 223 205L223 205.001C222.833 205 222.667 205 222.5 205C131.649 205 58 280.216 58 373C58 465.784 131.649 541 222.5 541Z" fill="#FFFAB1"/>
<path d="M223 540.999L222.981 534.999L229 534.981L229 540.999L223 540.999ZM223 541L229 541L223 541ZM552 540.844L546 540.851L545.993 535.089L551.75 534.849L552 540.844ZM552 205.156L551.75 211.151L545.993 210.911L546 205.149L552 205.156ZM223 205L229 205L223 205ZM223 205.001L229 205.001L229 211.019L222.982 211.001L223 205.001ZM223.019 546.999C222.845 547 222.673 547 222.5 547L222.5 535C222.661 535 222.821 535 222.981 534.999L223.019 546.999ZM217 541L217 540.999L229 540.999L229 541L217 541ZM387.5 715C293.217 715 217 636.978 217 541L229 541C229 630.59 300.081 703 387.5 703L387.5 715ZM558 541C558 636.978 481.783 715 387.5 715L387.5 703C474.919 703 546 630.59 546 541L558 541ZM558 540.837C558 540.893 558 540.949 558 541L546 541C546 540.947 546 540.899 546 540.851L558 540.837ZM551.75 534.849C640.481 531.152 711 459.967 711 373L723 373C723 466.706 647.098 542.887 552.25 546.839L551.75 534.849ZM711 373C711 286.033 640.481 214.847 551.75 211.151L552.25 199.161C647.098 203.113 723 279.294 723 373L711 373ZM558 205C558 205.051 558 205.107 558 205.163L546 205.149C546 205.101 546 205.053 546 205L558 205ZM387.5 31C481.783 31 558 109.022 558 205L546 205C546 115.41 474.919 43 387.5 43L387.5 31ZM217 205C217 109.022 293.217 31 387.5 31L387.5 43C300.081 43 229 115.41 229 205L217 205ZM217 205.001L217 205L229 205L229 205.001L217 205.001ZM222.5 199C222.673 199 222.846 199 223.018 199.001L222.982 211.001C222.821 211 222.661 211 222.5 211L222.5 199ZM52 373C52 277.022 128.217 199 222.5 199L222.5 211C135.081 211 64 283.41 64 373L52 373ZM222.5 547C128.217 547 52 468.978 52 373L64 373C64 462.59 135.081 535 222.5 535L222.5 547Z" fill="#A7EF9B" mask="url(#path-1-inside-1_1693_93)"/>
<mask id="path-3-inside-2_1693_93" fill="white">
<path fill-rule="evenodd" clip-rule="evenodd" d="M1522 130.219C1522 129.979 1522 129.74 1522 129.5C1522 78.4136 1480.14 37 1428.5 37C1376.86 37 1335 78.4137 1335 129.5C1335 129.722 1335 129.945 1335 130.167C1283.12 133.064 1242 173.295 1242 222.5C1242 271.704 1283.12 311.935 1335 314.833C1335.18 365.766 1376.97 407 1428.5 407C1480.04 407 1521.85 365.738 1522 314.781C1574.52 311.489 1616 271.432 1616 222.5C1616 173.568 1574.51 133.51 1522 130.219Z"/>
</mask>
<path fill-rule="evenodd" clip-rule="evenodd" d="M1522 130.219C1522 129.979 1522 129.74 1522 129.5C1522 78.4136 1480.14 37 1428.5 37C1376.86 37 1335 78.4137 1335 129.5C1335 129.722 1335 129.945 1335 130.167C1283.12 133.064 1242 173.295 1242 222.5C1242 271.704 1283.12 311.935 1335 314.833C1335.18 365.766 1376.97 407 1428.5 407C1480.04 407 1521.85 365.738 1522 314.781C1574.52 311.489 1616 271.432 1616 222.5C1616 173.568 1574.51 133.51 1522 130.219Z" fill="#FFFAB1"/>
<path d="M1522 130.219L1521.62 136.207L1515.95 135.852L1516 130.173L1522 130.219ZM1335 130.167L1341 130.124L1341.04 135.839L1335.34 136.158L1335 130.167ZM1335 314.833L1335.34 308.842L1340.98 309.158L1341 314.812L1335 314.833ZM1522 314.781L1516 314.763L1516.02 309.145L1521.62 308.793L1522 314.781ZM1516 130.173C1516 129.948 1516 129.724 1516 129.5L1528 129.5C1528 129.755 1528 130.01 1528 130.264L1516 130.173ZM1516 129.5C1516 81.788 1476.89 43 1428.5 43L1428.5 31C1483.39 31 1528 75.0393 1528 129.5L1516 129.5ZM1428.5 43C1380.11 43 1341 81.788 1341 129.5L1329 129.5C1329 75.0393 1373.61 31 1428.5 31L1428.5 43ZM1341 129.5C1341 129.708 1341 129.916 1341 130.124L1329 130.21C1329 129.973 1329 129.737 1329 129.5L1341 129.5ZM1335.34 136.158C1286.25 138.898 1248 176.844 1248 222.5L1236 222.5C1236 169.747 1279.98 127.23 1334.67 124.176L1335.34 136.158ZM1248 222.5C1248 268.156 1286.25 306.101 1335.34 308.842L1334.67 320.824C1279.98 317.77 1236 275.253 1236 222.5L1248 222.5ZM1341 314.812C1341.17 362.38 1380.22 401 1428.5 401L1428.5 413C1373.73 413 1329.19 369.152 1329 314.854L1341 314.812ZM1428.5 401C1476.8 401 1515.86 362.354 1516 314.763L1528 314.799C1527.84 369.122 1483.29 413 1428.5 413L1428.5 401ZM1521.62 308.793C1571.46 305.669 1610 267.802 1610 222.5L1622 222.5C1622 275.061 1577.57 317.309 1522.37 320.77L1521.62 308.793ZM1610 222.5C1610 177.197 1571.46 139.33 1521.62 136.207L1522.37 124.23C1577.57 127.689 1622 169.938 1622 222.5L1610 222.5Z" fill="#A7EF9B" mask="url(#path-3-inside-2_1693_93)"/>
</svg>
