<svg width="96" height="96" viewBox="0 0 96 96" fill="none" xmlns="http://www.w3.org/2000/svg">
<path fill-rule="evenodd" clip-rule="evenodd" d="M8.86961 49.0035L1.6096 56.2638L4.43799 59.0922L11.698 51.832L17.9517 58.0859L11.1547 64.8832L13.9831 67.7116L20.7801 60.9144L26.8755 67.01L20.284 73.6017L23.1124 76.4302L29.7039 69.8384L35.7962 75.9309L28.9903 82.7369L31.8187 85.5654L38.6246 78.7593L44.7213 84.8563L38.1224 91.4554L40.9508 94.2839L47.5497 87.6847L54.6225 94.7577L57.4509 91.9293L50.3781 84.8563L56.4675 78.7667L63.7385 86.0379L66.5669 83.2094L59.2959 75.9382L66.0163 69.2177L73.0793 76.2809L75.9077 73.4524L68.8447 66.3892L75.5724 59.6613L82.851 66.94L85.6793 64.1116L78.4008 56.8328L84.4955 50.7379L91.563 57.8055L94.3914 54.977L87.3239 47.9094L94.0365 41.1967L91.2081 38.3682L84.4955 45.0809L78.4018 38.987L84.6683 32.7204L81.8399 29.892L75.5734 36.1586L69.4719 30.0569L75.9424 23.5862L73.114 20.7577L66.6435 27.2284L60.5456 21.1303L66.8091 14.8667L63.9807 12.0382L57.7172 18.3019L51.4722 12.0567L58.8508 4.67785L56.0224 1.84938L48.6438 9.22821L41.5481 2.13225L38.7197 4.96071L45.8154 12.0567L39.7256 18.1467L32.8449 11.2659L30.0165 14.0943L36.8972 20.9752L30.1676 27.7049L23.0699 20.6069L20.2415 23.4354L27.3393 30.5334L20.6208 37.252L13.733 30.3639L10.9046 33.1924L17.7924 40.0804L11.698 46.1751L4.6076 39.0845L1.77921 41.9129L8.86961 49.0035ZM14.5264 49.0035L47.5497 82.0278L81.6672 47.9094L48.6438 14.8851L14.5264 49.0035Z" fill="#26734E"/>
<rect width="47.6896" height="46.4053" transform="matrix(0.707097 -0.707117 0.707097 0.707117 14.9375 48.9429)" fill="#A7EF9B"/>
</svg>
