<svg width="81" height="85" viewBox="0 0 81 85" fill="none" xmlns="http://www.w3.org/2000/svg">
<path fill-rule="evenodd" clip-rule="evenodd" d="M58.3906 68.654C60.2473 69.5177 62.3173 70 64.5 70C72.5081 70 79 63.5081 79 55.5C79 47.4919 72.5081 41 64.5 41C64.0436 41 63.5921 41.0211 63.1465 41.0623C63.1768 41.7302 63.1946 42.3985 63.1997 43.0668C63.6271 43.0226 64.0609 43 64.5 43C71.4035 43 77 48.5964 77 55.5C77 62.4036 71.4035 68 64.5 68C62.49 68 60.5908 67.5256 58.9083 66.6826L58.3906 68.654Z" fill="black"/>
<path d="M58.3906 68.654L57.4234 68.4L57.2112 69.2082L57.9688 69.5606L58.3906 68.654ZM63.1465 41.0623L63.0543 40.0666L62.1042 40.1545L62.1475 41.1077L63.1465 41.0623ZM63.1997 43.0668L62.1997 43.0745L62.2082 44.1746L63.3025 44.0615L63.1997 43.0668ZM58.9083 66.6826L59.3562 65.7886L58.2542 65.2364L57.9411 66.4287L58.9083 66.6826ZM57.9688 69.5606C59.9549 70.4846 62.1686 71 64.5 71V69C62.466 69 60.5397 68.5509 58.8124 67.7473L57.9688 69.5606ZM64.5 71C73.0604 71 80 64.0604 80 55.5H78C78 62.9558 71.9558 69 64.5 69V71ZM80 55.5C80 46.9396 73.0604 40 64.5 40V42C71.9558 42 78 48.0442 78 55.5H80ZM64.5 40C64.0128 40 63.5305 40.0225 63.0543 40.0666L63.2387 42.0581C63.6537 42.0197 64.0744 42 64.5 42V40ZM62.1475 41.1077C62.1773 41.763 62.1947 42.4187 62.1997 43.0745L64.1997 43.0591C64.1945 42.3782 64.1764 41.6973 64.1455 41.0169L62.1475 41.1077ZM64.5 42C64.0265 42 63.5584 42.0244 63.0969 42.0721L63.3025 44.0615C63.6958 44.0209 64.0953 44 64.5 44V42ZM78 55.5C78 48.0442 71.9558 42 64.5 42V44C70.8512 44 76 49.1487 76 55.5H78ZM64.5 69C71.9558 69 78 62.9558 78 55.5H76C76 61.8513 70.8512 67 64.5 67V69ZM58.4604 67.5767C60.2788 68.4877 62.331 69 64.5 69V67C62.649 67 60.9028 66.5634 59.3562 65.7886L58.4604 67.5767ZM57.9411 66.4287L57.4234 68.4L59.3578 68.9079L59.8755 66.9366L57.9411 66.4287Z" fill="#26734E"/>
<path d="M5.81561 56.3129C3.51103 48.3932 3.27034 40.0244 5.10416 32H60.8972C62.7525 40.0564 62.6283 48.4508 60.5246 56.4618L53.8323 81.9465C53.6693 82.5672 53.1082 83 52.4664 83H14.5396C13.9718 83 13.4722 82.6251 13.3136 82.0799L5.81561 56.3129Z" fill="#A7EF9B" stroke="#26734E" stroke-width="4"/>
<path d="M25.4615 1L23.2305 7.52268C22.4666 9.75594 22.9247 12.226 24.4387 14.0367V14.0367C26.0184 15.926 26.4437 18.5256 25.5486 20.8198L24.3077 24" stroke="#26734E" stroke-width="4"/>
<path d="M42.4615 1L40.2305 7.52268C39.4666 9.75594 39.9247 12.226 41.4387 14.0367V14.0367C43.0184 15.926 43.4437 18.5256 42.5486 20.8198L41.3077 24" stroke="#26734E" stroke-width="4"/>
</svg>
