<svg width="35" height="34" viewBox="0 0 35 34" fill="none" xmlns="http://www.w3.org/2000/svg">
<path d="M17.75 0C27.139 0 34.75 7.611 34.75 17C34.75 26.389 27.139 34 17.75 34C8.361 34 0.75 26.389 0.75 17C0.75 7.611 8.361 0 17.75 0ZM23.614 23.93C23.926 22.971 25.392 13.409 25.572 11.525C25.627 10.954 25.446 10.575 25.094 10.406C24.667 10.201 24.034 10.303 23.3 10.568C22.293 10.931 9.424 16.395 8.68 16.712C7.976 17.012 7.308 17.338 7.308 17.812C7.308 18.145 7.506 18.332 8.05 18.526C8.616 18.728 10.042 19.16 10.884 19.392C11.695 19.616 12.618 19.422 13.135 19.1C13.683 18.759 20.013 14.524 20.467 14.153C20.921 13.782 21.283 14.257 20.912 14.629C20.541 15 16.197 19.217 15.623 19.801C14.927 20.51 15.421 21.244 15.888 21.539C16.421 21.875 20.253 24.445 20.831 24.858C21.409 25.27 21.993 25.457 22.53 25.457C23.066 25.456 23.347 24.749 23.614 23.93Z" fill="#26AB69"/>
</svg>
