<svg width="35" height="34" viewBox="0 0 35 34" fill="none" xmlns="http://www.w3.org/2000/svg">
<mask id="mask0_758_143" style="mask-type:alpha" maskUnits="userSpaceOnUse" x="0" y="0" width="35" height="34">
<circle cx="17.0879" cy="17" r="17" fill="#60757E"/>
</mask>
<g mask="url(#mask0_758_143)">
<path d="M39.0696 3.7833C38.5467 1.8283 37.0055 0.287035 35.0505 -0.235814C31.5042 -1.18603 17.2872 -1.18604 17.2872 -1.18604C17.2872 -1.18604 3.0703 -1.18603 -0.475976 -0.235814C-2.43098 0.287035 -3.97224 1.8283 -4.49509 3.7833C-5.44531 7.32958 -5.44531 17 -5.44531 17C-5.44531 17 -5.44531 26.6704 -4.49509 30.2167C-3.97224 32.1717 -2.43098 33.713 -0.475976 34.2358C3.0703 35.1861 17.2872 35.1861 17.2872 35.1861C17.2872 35.1861 31.5042 35.1861 35.0505 34.2358C37.0077 33.713 38.5467 32.1717 39.0696 30.2167C40.0198 26.6704 40.0198 17 40.0198 17C40.0198 17 40.0198 7.32958 39.0696 3.7833ZM12.7407 22.9059V11.0941C12.7407 10.2189 13.6887 9.67331 14.4457 10.1098L24.6753 16.0157C25.4323 16.4522 25.4323 17.5479 24.6753 17.9843L14.4457 23.8902C13.6887 24.329 12.7407 23.7811 12.7407 22.9059Z" fill="#26AB69"/>
</g>
</svg>
