<svg width="35" height="34" viewBox="0 0 35 34" fill="none" xmlns="http://www.w3.org/2000/svg">
<path d="M17.918 0C8.52972 0 0.917969 7.61175 0.917969 17C0.917969 26.3882 8.52972 34 17.918 34C27.3062 34 34.918 26.3882 34.918 17C34.918 7.61175 27.3062 0 17.918 0ZM26.9294 22.6199L24.2831 22.6567C24.2831 22.6567 23.7121 22.7687 22.9656 22.253C21.9753 21.573 21.0417 19.8036 20.3136 20.0331C19.5755 20.2683 19.5981 21.8606 19.5981 21.8606C19.5981 21.8606 19.6038 22.1411 19.4352 22.3238C19.2525 22.5207 18.8941 22.5009 18.8941 22.5009H17.7083C17.7083 22.5009 15.0931 22.7177 12.7882 20.315C10.2779 17.6956 8.05939 12.5262 8.05939 12.5262C8.05939 12.5262 7.92905 12.2003 8.06788 12.0332C8.22513 11.849 8.64872 11.8433 8.64872 11.8433L11.4821 11.8292C11.4821 11.8292 11.7484 11.8759 11.9411 12.0176C12.0983 12.1337 12.1876 12.3519 12.1876 12.3519C12.1876 12.3519 12.6451 13.5122 13.2529 14.5633C14.4372 16.6118 14.9869 17.0609 15.3892 16.8413C15.9757 16.5212 15.8001 13.9457 15.8001 13.9457C15.8001 13.9457 15.8114 13.0107 15.5054 12.5942C15.2674 12.2698 14.8197 12.1734 14.6242 12.1493C14.4641 12.1281 14.7248 11.7569 15.0648 11.5897C15.5748 11.3404 16.4758 11.3262 17.5397 11.3362C18.3685 11.3447 18.6079 11.3957 18.9309 11.475C19.9084 11.7116 19.5769 12.6239 19.5769 14.8127C19.5769 15.5139 19.4508 16.4999 19.9551 16.8243C20.1733 16.9646 20.7046 16.8456 22.0291 14.5874C22.6596 13.5164 23.1313 12.2584 23.1313 12.2584C23.1313 12.2584 23.2347 12.0346 23.3948 11.9383C23.5591 11.8391 23.7801 11.8702 23.7801 11.8702L26.7622 11.8518C26.7622 11.8518 27.6576 11.7442 27.8035 12.1507C27.9565 12.5757 27.4691 13.5688 26.2508 15.1938C24.2505 17.8628 24.0281 17.6148 25.6898 19.159C27.2765 20.6337 27.6037 21.3506 27.659 21.4413C28.3149 22.5335 26.9294 22.6199 26.9294 22.6199Z" fill="#26AB69"/>
</svg>
