<svg width="2753" height="944" viewBox="0 0 2753 944" fill="none" xmlns="http://www.w3.org/2000/svg">
<path d="M414.738 521.643C421.024 515.163 431.422 515.163 437.707 521.643L842.993 939.45H9.45284L414.738 521.643Z" fill="#A7EF9B" stroke="#AFFAA2" stroke-width="8"/>
<path d="M414.738 269.615C421.024 263.135 431.422 263.135 437.707 269.615L842.993 687.423H9.45284L414.738 269.615Z" fill="#A7EF9B" stroke="#AFFAA2" stroke-width="8"/>
<path d="M414.738 17.5842C421.024 11.1046 431.422 11.1046 437.707 17.5842L842.993 435.392H9.45284L414.738 17.5842Z" fill="#A7EF9B" stroke="#AFFAA2" stroke-width="8"/>
<path d="M2315.18 521.643C2321.47 515.163 2331.87 515.163 2338.15 521.643L2743.44 939.45H1909.9L2315.18 521.643Z" fill="#A7EF9B" stroke="#AFFAA2" stroke-width="8"/>
<path d="M2315.18 269.615C2321.47 263.135 2331.87 263.135 2338.15 269.615L2743.44 687.423H1909.9L2315.18 269.615Z" fill="#A7EF9B" stroke="#AFFAA2" stroke-width="8"/>
<path d="M2315.18 17.5842C2321.47 11.1046 2331.87 11.1046 2338.15 17.5842L2743.44 435.392H1909.9L2315.18 17.5842Z" fill="#A7EF9B" stroke="#AFFAA2" stroke-width="8"/>
<path d="M1364.74 521.643C1371.02 515.163 1381.42 515.163 1387.71 521.643L1792.99 939.45H959.453L1364.74 521.643Z" fill="#A7EF9B" stroke="#AFFAA2" stroke-width="8"/>
<path d="M1364.74 269.615C1371.02 263.135 1381.42 263.135 1387.71 269.615L1792.99 687.423H959.453L1364.74 269.615Z" fill="#A7EF9B" stroke="#AFFAA2" stroke-width="8"/>
<path d="M1364.74 17.5842C1371.02 11.1046 1381.42 11.1046 1387.71 17.5842L1792.99 435.392H959.453L1364.74 17.5842Z" fill="#A7EF9B" stroke="#AFFAA2" stroke-width="8"/>
</svg>
