<svg width="16" height="16" viewBox="0 0 16 16" fill="none" xmlns="http://www.w3.org/2000/svg">
<circle cx="8" cy="8" r="8" fill="#FDFFDD"/>
<path d="M5.05103 4.23251H5.12323L5.14595 4.16399C6.04405 1.45573 9.95595 1.45573 10.854 4.16399L10.8768 4.23251H10.949C13.8593 4.23251 15.06 7.87666 12.7135 9.54705L12.6534 9.58989L12.6766 9.65999C13.5721 12.3603 10.4152 14.6218 8.05799 12.9438L8 12.9025L7.94201 12.9438C5.58478 14.6218 2.42792 12.3603 3.32339 9.65999L3.34664 9.58989L3.28646 9.54705C0.939985 7.87666 2.14066 4.23251 5.05103 4.23251ZM11.3304 3.61522C10.0777 0.791963 5.9223 0.791965 4.66964 3.61522C1.547 3.90919 0.255034 7.78418 2.61004 9.82654C1.92973 12.8379 5.29933 15.2238 8 13.6638C10.7007 15.2238 14.0703 12.8379 13.39 9.82654C15.745 7.78418 14.453 3.90918 11.3304 3.61522Z" fill="#26734E" stroke="#26734E" stroke-width="0.2"/>
<path fill-rule="evenodd" clip-rule="evenodd" d="M8.08371 10.479C9.35177 10.479 10.3797 9.45101 10.3797 8.18295C10.3797 6.91488 9.35177 5.88692 8.08371 5.88692C6.81564 5.88692 5.78767 6.91488 5.78767 8.18295C5.78767 9.45101 6.81564 10.479 8.08371 10.479ZM8.08371 10.8526C9.55811 10.8526 10.7533 9.65735 10.7533 8.18295C10.7533 6.70855 9.55811 5.51331 8.08371 5.51331C6.6093 5.51331 5.41406 6.70855 5.41406 8.18295C5.41406 9.65735 6.6093 10.8526 8.08371 10.8526Z" fill="#26734E" stroke="#26734E" stroke-width="0.5"/>
</svg>
