<svg width="1759" height="599" viewBox="0 0 1759 599" fill="none" xmlns="http://www.w3.org/2000/svg">
<path fill-rule="evenodd" clip-rule="evenodd" d="M1505.79 151.735C1520.52 142.839 1539.04 143.133 1553.47 152.492C1566.25 160.776 1573.96 174.968 1573.96 190.196V228.65H1625.63V191.844C1625.63 175.619 1634.12 160.576 1648.01 152.187L1648.76 151.735C1663.48 142.839 1682 143.133 1696.43 152.492C1709.21 160.776 1716.92 174.968 1716.92 190.196V536.697V540.197H1713.42H1629.13H1625.63V536.697V451.148L1573.96 451.148V536.697V540.197H1570.46H1486.17H1482.67V536.697V451.148L1430.64 451.148V536.697V540.197H1427.14H1342.85H1339.35V536.697V191.844C1339.35 175.619 1347.83 160.576 1361.72 152.187L1362.47 151.735C1377.2 142.839 1395.71 143.133 1410.15 152.492C1422.93 160.776 1430.64 174.968 1430.64 190.196V228.65H1482.67V191.844C1482.67 175.619 1491.16 160.576 1505.05 152.187L1505.79 151.735ZM1625.63 444.148V374.566H1573.96V444.148L1625.63 444.148ZM1625.63 367.566V312.232H1573.96V367.566H1625.63ZM1625.63 305.232V235.65H1573.96V305.232H1625.63ZM1482.67 374.566V444.148L1430.64 444.148V374.566H1482.67ZM1482.67 312.232V367.566H1430.64V312.232H1482.67ZM1482.67 235.65V305.232H1430.64V235.65H1482.67ZM1549.66 158.366C1537.48 150.464 1521.85 150.216 1509.41 157.727L1508.67 158.179C1496.88 165.3 1489.67 178.07 1489.67 191.844V533.197H1566.96V190.196C1566.96 177.34 1560.45 165.359 1549.66 158.366ZM1406.34 158.366C1394.15 150.464 1378.52 150.216 1366.09 157.727L1365.34 158.179C1353.55 165.3 1346.35 178.07 1346.35 191.844V533.197H1423.64V190.196C1423.64 177.34 1417.13 165.359 1406.34 158.366ZM1652.38 157.727C1664.81 150.216 1680.44 150.464 1692.63 158.366C1703.41 165.359 1709.92 177.34 1709.92 190.196V533.197H1632.63V191.844C1632.63 178.07 1639.84 165.3 1651.63 158.179L1652.38 157.727Z" fill="#FFFAB1"/>
<path fill-rule="evenodd" clip-rule="evenodd" d="M201.525 151.735C216.252 142.839 234.766 143.133 249.203 152.492C261.981 160.776 269.694 174.968 269.694 190.196V228.65H321.363V191.844C321.363 175.619 329.85 160.576 343.738 152.187L344.486 151.735C359.213 142.839 377.727 143.133 392.164 152.492C404.942 160.776 412.655 174.968 412.655 190.196V536.697V540.197H409.155H324.863H321.363V536.697V451.148L269.694 451.148V536.697V540.197H266.194H181.902H178.402V536.697V451.148L126.369 451.148V536.697V540.197H122.869H38.5781H35.0781V536.697V191.844C35.0781 175.619 43.5653 160.576 57.4528 152.187L58.2012 151.735C72.928 142.839 91.4417 143.133 105.879 152.492C118.657 160.776 126.369 174.968 126.369 190.196V228.65H178.402V191.844C178.402 175.619 186.89 160.576 200.777 152.187L201.525 151.735ZM321.363 444.148V374.566H269.694V444.148L321.363 444.148ZM321.363 367.566V312.232H269.694V367.566H321.363ZM321.363 305.232V235.65H269.694V305.232H321.363ZM178.402 374.566V444.148L126.369 444.148V374.566H178.402ZM178.402 312.232V367.566H126.369V312.232H178.402ZM178.402 235.65V305.232H126.369V235.65H178.402ZM245.395 158.366C233.207 150.464 217.577 150.216 205.145 157.727L204.396 158.179C192.607 165.3 185.402 178.07 185.402 191.844V533.197H262.694V190.196C262.694 177.34 256.182 165.359 245.395 158.366ZM102.071 158.366C89.8829 150.464 74.2533 150.216 61.8207 157.727L61.0723 158.179C49.283 165.3 42.0781 178.07 42.0781 191.844V533.197H119.369V190.196C119.369 177.34 112.858 165.359 102.071 158.366ZM348.106 157.727C360.538 150.216 376.168 150.464 388.356 158.366C399.143 165.359 405.655 177.34 405.655 190.196V533.197H328.363V191.844C328.363 178.07 335.568 165.3 347.357 158.179L348.106 157.727Z" fill="#FFFAB1"/>
<path d="M815.08 461.387C789.018 490.364 752.748 506.377 722.725 515.135C707.748 519.504 694.415 522.041 684.834 523.485C680.046 524.207 676.201 524.654 673.564 524.921C673.462 524.931 673.362 524.941 673.264 524.951C673.259 524.857 673.255 524.76 673.251 524.662C673.137 522.123 673.032 518.412 673.071 513.767C673.148 504.473 673.801 491.46 676.101 476.619C680.712 446.868 691.889 410.126 717.95 381.149C744.012 352.172 780.282 336.16 810.305 327.402C825.282 323.033 838.615 320.495 848.196 319.051C852.984 318.33 856.829 317.882 859.466 317.616C859.568 317.605 859.668 317.595 859.766 317.586C859.771 317.68 859.775 317.777 859.779 317.875C859.893 320.414 859.998 324.124 859.96 328.77C859.882 338.064 859.229 351.077 856.929 365.918C852.318 395.668 841.141 432.411 815.08 461.387Z" fill="#A7EF9B" stroke="#FFFAB1" stroke-width="7.32385"/>
<path d="M521.196 483.155C551.243 507.976 589.476 518.47 620.461 522.709C635.919 524.824 649.48 525.369 659.169 525.386C664.011 525.394 667.88 525.271 670.528 525.146C670.63 525.141 670.731 525.136 670.829 525.131C670.82 525.037 670.81 524.941 670.8 524.843C670.538 522.315 670.096 518.63 669.373 514.041C667.927 504.859 665.364 492.085 660.903 477.744C651.959 448.998 635.491 414.303 605.444 389.482C575.398 364.661 537.164 354.167 506.179 349.928C490.722 347.813 477.16 347.268 467.472 347.251C462.629 347.243 458.761 347.366 456.113 347.491C456.011 347.496 455.91 347.501 455.811 347.506C455.821 347.6 455.831 347.696 455.841 347.794C456.102 350.322 456.545 354.007 457.268 358.596C458.714 367.778 461.276 380.552 465.738 394.893C474.682 423.639 491.15 458.334 521.196 483.155Z" fill="#A7EF9B" stroke="#FFFAB1" stroke-width="7.32385"/>
<path d="M716.575 80.1529C685.151 9.10186 581.355 16.79 560.742 91.6953C483.475 99.6172 458.693 200.697 523.56 243.427C507.21 319.369 595.719 374.131 656.415 325.659C723.59 364.659 803.066 297.455 775.705 224.751C833.569 172.93 794.166 76.6047 716.575 80.1529Z" fill="#A7EF9B" stroke="#FFFAB1" stroke-width="7.32385"/>
<circle cx="646.822" cy="196.657" r="77.5331" transform="rotate(-4.23609 646.822 196.657)" fill="#A7EF9B" stroke="#FFFAB1" stroke-width="7.32385"/>
<line x1="657.847" y1="325.41" x2="676.992" y2="582.271" stroke="#FFFAB1" stroke-width="7.32385"/>
<path d="M1025.39 199.737L1239.08 228.741M1025.39 199.737L1006.06 197.113M1025.39 199.737L1006.93 335.744M985.089 496.675L1198.78 525.679M985.089 496.675L965.757 494.051M985.089 496.675L991.556 449.035M1198.78 525.679L1217.3 528.194M1198.78 525.679L1210.43 439.805M1239.08 228.741L1257.61 231.256M1239.08 228.741L1232.33 278.473M1232.33 278.473L1236.58 279.05C1281.13 285.097 1312.34 326.114 1306.29 370.665V370.665C1300.25 415.215 1259.23 446.429 1214.68 440.382L1210.43 439.805M1232.33 278.473L1210.43 439.805M1006.93 335.744L894.42 228.67L865.621 259.532L991.556 449.035M1006.93 335.744L991.556 449.035" stroke="#FFFAB1" stroke-width="7"/>
</svg>
