<svg width="1760" height="601" viewBox="0 0 1760 601" fill="none" xmlns="http://www.w3.org/2000/svg">
<path fill-rule="evenodd" clip-rule="evenodd" d="M1505.79 152.735C1520.52 143.838 1539.04 144.132 1553.47 153.492C1566.25 161.776 1573.96 175.968 1573.96 191.196V229.65H1625.63V192.844C1625.63 176.619 1634.12 161.576 1648.01 153.187L1648.76 152.735C1663.48 143.838 1682 144.132 1696.43 153.492C1709.21 161.776 1716.92 175.968 1716.92 191.196V537.696V541.196H1713.42H1629.13H1625.63V537.696V452.148L1573.96 452.148V537.696V541.196H1570.46H1486.17H1482.67V537.696V452.148L1430.64 452.148V537.697V541.197H1427.14H1342.85H1339.35V537.697V192.844C1339.35 176.619 1347.83 161.576 1361.72 153.187L1362.47 152.735C1377.2 143.839 1395.71 144.133 1410.15 153.492C1422.93 161.776 1430.64 175.968 1430.64 191.196V229.65H1482.67V192.844C1482.67 176.619 1491.16 161.576 1505.05 153.187L1505.79 152.735ZM1625.63 445.148V375.566H1573.96V445.148L1625.63 445.148ZM1625.63 368.566V313.232H1573.96V368.566H1625.63ZM1625.63 306.232V236.65H1573.96V306.232H1625.63ZM1482.67 375.566V445.148L1430.64 445.148V375.566H1482.67ZM1482.67 313.232V368.566H1430.64V313.232H1482.67ZM1482.67 236.65V306.232H1430.64V236.65H1482.67ZM1549.66 159.365C1537.48 151.464 1521.85 151.216 1509.41 158.726L1508.67 159.178C1496.88 166.3 1489.67 179.07 1489.67 192.844V534.196H1566.96V191.196C1566.96 178.34 1560.45 166.359 1549.66 159.365ZM1406.34 159.366C1394.15 151.464 1378.52 151.216 1366.09 158.727L1365.34 159.179C1353.55 166.3 1346.35 179.07 1346.35 192.844V534.197H1423.64V191.196C1423.64 178.34 1417.13 166.359 1406.34 159.366ZM1652.38 158.726C1664.81 151.216 1680.44 151.464 1692.63 159.365C1703.41 166.359 1709.92 178.34 1709.92 191.196V534.196H1632.63V192.844C1632.63 179.07 1639.84 166.3 1651.63 159.178L1652.38 158.726Z" fill="#FFFAB1"/>
<path fill-rule="evenodd" clip-rule="evenodd" d="M201.525 152.735C216.252 143.838 234.766 144.132 249.203 153.492C261.981 161.776 269.694 175.968 269.694 191.196V229.65H321.363V192.844C321.363 176.619 329.85 161.576 343.738 153.187L344.486 152.735C359.213 143.838 377.727 144.132 392.164 153.492C404.942 161.776 412.655 175.968 412.655 191.196V537.696V541.196H409.155H324.863H321.363V537.696V452.148L269.694 452.148V537.696V541.196H266.194H181.902H178.402V537.696V452.148L126.369 452.148V537.697V541.197H122.869H38.5781H35.0781V537.697V192.844C35.0781 176.619 43.5653 161.576 57.4528 153.187L58.2012 152.735C72.928 143.839 91.4417 144.133 105.879 153.492C118.657 161.776 126.369 175.968 126.369 191.196V229.65H178.402V192.844C178.402 176.619 186.89 161.576 200.777 153.187L201.525 152.735ZM321.363 445.148V375.566H269.694V445.148L321.363 445.148ZM321.363 368.566V313.232H269.694V368.566H321.363ZM321.363 306.232V236.65H269.694V306.232H321.363ZM178.402 375.566V445.148L126.369 445.148V375.566H178.402ZM178.402 313.232V368.566H126.369V313.232H178.402ZM178.402 236.65V306.232H126.369V236.65H178.402ZM245.395 159.365C233.207 151.464 217.577 151.216 205.145 158.726L204.396 159.178C192.607 166.3 185.402 179.07 185.402 192.844V534.196H262.694V191.196C262.694 178.34 256.182 166.359 245.395 159.365ZM102.071 159.366C89.8829 151.464 74.2533 151.216 61.8207 158.727L61.0723 159.179C49.283 166.3 42.0781 179.07 42.0781 192.844V534.197H119.369V191.196C119.369 178.34 112.858 166.359 102.071 159.366ZM348.106 158.726C360.538 151.216 376.168 151.464 388.356 159.365C399.143 166.359 405.655 178.34 405.655 191.196V534.196H328.363V192.844C328.363 179.07 335.568 166.3 347.357 159.178L348.106 158.726Z" fill="#FFFAB1"/>
<g clip-path="url(#clip0_1804_723)">
<path d="M815.08 462.386C789.018 491.363 752.748 507.376 722.725 516.134C707.748 520.503 694.415 523.04 684.834 524.484C680.046 525.206 676.201 525.653 673.564 525.92C673.462 525.93 673.362 525.94 673.264 525.95C673.259 525.855 673.255 525.759 673.251 525.661C673.137 523.122 673.032 519.411 673.071 514.766C673.148 505.472 673.801 492.459 676.101 477.617C680.712 447.867 691.889 411.125 717.95 382.148C744.012 353.171 780.282 337.159 810.305 328.401C825.282 324.032 838.615 321.494 848.196 320.05C852.984 319.329 856.829 318.881 859.466 318.615C859.568 318.604 859.668 318.594 859.766 318.584C859.771 318.679 859.775 318.775 859.779 318.874C859.893 321.413 859.998 325.123 859.96 329.768C859.882 339.063 859.229 352.076 856.929 366.917C852.318 396.667 841.141 433.409 815.08 462.386Z" fill="#A7EF9B" stroke="#FFFAB1" stroke-width="7.32385"/>
<path d="M521.196 484.154C551.243 508.975 589.476 519.469 620.461 523.708C635.919 525.823 649.48 526.368 659.169 526.385C664.011 526.393 667.88 526.269 670.528 526.144C670.63 526.14 670.731 526.135 670.829 526.13C670.82 526.036 670.81 525.94 670.8 525.842C670.538 523.314 670.096 519.628 669.373 515.039C667.927 505.858 665.364 493.083 660.903 478.743C651.959 449.997 635.491 415.302 605.444 390.481C575.398 365.66 537.164 355.166 506.179 350.926C490.722 348.812 477.16 348.266 467.472 348.25C462.629 348.241 458.761 348.365 456.113 348.49C456.011 348.495 455.91 348.5 455.811 348.504C455.821 348.599 455.831 348.695 455.841 348.792C456.102 351.32 456.545 355.006 457.268 359.595C458.714 368.777 461.276 381.551 465.738 395.892C474.682 424.638 491.15 459.332 521.196 484.154Z" fill="#A7EF9B" stroke="#FFFAB1" stroke-width="7.32385"/>
<rect x="645.091" y="192.358" width="4.10046" height="379.292" transform="rotate(-4.23609 645.091 192.358)" fill="#26734E" stroke="#FFFAB1" stroke-width="4.10046"/>
<path d="M716.575 81.1527C685.151 10.1016 581.355 17.7897 560.742 92.6951C483.475 100.617 458.693 201.697 523.56 244.427C507.21 320.369 595.719 375.13 656.415 326.659C723.59 365.659 803.066 298.455 775.705 225.751C833.569 173.93 794.166 77.6045 716.575 81.1527Z" fill="#A7EF9B" stroke="#FFFAB1" stroke-width="7.32385"/>
<circle cx="646.822" cy="197.657" r="77.5331" transform="rotate(-4.23609 646.822 197.657)" fill="#A7EF9B" stroke="#FFFAB1" stroke-width="7.32385"/>
</g>
<path d="M1025.39 200.737L1239.08 229.742M1025.39 200.737L1006.06 198.113M1025.39 200.737L1006.93 336.744M985.089 497.675L1198.78 526.68M985.089 497.675L965.757 495.051M985.089 497.675L991.556 450.036M1198.78 526.68L1217.3 529.194M1198.78 526.68L1210.43 440.806M1239.08 229.742L1257.61 232.256M1239.08 229.742L1232.33 279.474M1232.33 279.474L1236.58 280.05C1281.13 286.097 1312.34 327.115 1306.29 371.665V371.665C1300.25 416.216 1259.23 447.429 1214.68 441.382L1210.43 440.806M1232.33 279.474L1210.43 440.806M1006.93 336.744L894.42 229.67L865.621 260.533L991.556 450.036M1006.93 336.744L991.556 450.036" stroke="#FFFAB1" stroke-width="7"/>
<defs>
<clipPath id="clip0_1804_723">
<rect width="416.607" height="553.8" fill="white" transform="translate(414.398 50.1748) rotate(-6.83945)"/>
</clipPath>
</defs>
</svg>
