<svg width="107" height="71" viewBox="0 0 107 71" fill="none" xmlns="http://www.w3.org/2000/svg">
<path d="M85.6462 69H36.9413V58.2508L3 20.0528L8.50779 12.3489L36.9413 32.6881V2H85.6462V13.2214V49.6237V69Z" fill="#FDFFDD"/>
<path d="M36.9413 2H85.6462M36.9413 2H32.535M36.9413 2V32.6881M36.9413 69H85.6462M36.9413 69H32.535M36.9413 69V58.2508M85.6462 69H89.8688M85.6462 69V49.6237V13.2214M85.6462 2H89.8688M85.6462 2V13.2214M85.6462 13.2214H86.7988C96.8511 13.2214 105 21.3703 105 31.4225V31.4225C105 41.4748 96.8511 49.6237 86.7988 49.6237H86.3919M36.9413 32.6881L8.50779 12.3489L3 20.0528L36.9413 58.2508M36.9413 32.6881V58.2508" stroke="#26734E" stroke-width="4"/>
</svg>
