<svg width="683" height="136" viewBox="0 0 683 136" fill="none" xmlns="http://www.w3.org/2000/svg">
<path d="M38.5719 132L3.57147 35.5704H19.6431L46.6969 111.732L73.6615 35.5704H89.8224L54.822 132H38.5719ZM142.485 134.679C133.02 134.679 124.747 132.595 117.663 128.429C110.639 124.202 105.163 118.339 101.234 110.839C97.3058 103.279 95.3415 94.4698 95.3415 84.4102C95.3415 73.8744 97.276 64.7671 101.145 57.0885C105.014 49.3503 110.401 43.3978 117.306 39.2311C124.27 35.0049 132.425 32.8918 141.771 32.8918C151.473 32.8918 159.717 35.1239 166.503 39.5883C173.348 44.0526 178.467 50.4217 181.86 58.6956C185.313 66.9695 186.801 76.8208 186.325 88.2495H170.253V82.5352C170.074 70.6898 167.664 61.8504 163.021 56.017C158.378 50.1241 151.473 47.1776 142.306 47.1776C132.485 47.1776 125.014 50.3324 119.895 56.642C114.776 62.9516 112.217 71.9993 112.217 83.7852C112.217 95.1544 114.776 103.964 119.895 110.214C125.014 116.464 132.306 119.589 141.771 119.589C148.14 119.589 153.675 118.131 158.378 115.214C163.08 112.297 166.771 108.101 169.449 102.625L184.717 107.893C180.967 116.405 175.313 123.012 167.753 127.714C160.253 132.357 151.83 134.679 142.485 134.679ZM106.859 88.2495V75.4815H178.11V88.2495H106.859ZM204.418 132V35.5704H218.614V58.8742L216.293 55.8384C217.424 52.8622 218.882 50.1241 220.668 47.6241C222.513 45.124 224.567 43.0704 226.829 41.4633C229.329 39.4394 232.156 37.8918 235.311 36.8204C238.466 35.7489 241.68 35.1239 244.954 34.9454C248.228 34.7072 251.293 34.9156 254.15 35.5704V50.4812C250.817 49.5884 247.156 49.3503 243.168 49.7669C239.18 50.1836 235.49 51.642 232.097 54.142C229.001 56.3444 226.591 59.023 224.864 62.1778C223.198 65.3326 222.037 68.7552 221.382 72.4458C220.727 76.0768 220.4 79.797 220.4 83.6066V132H204.418ZM367.264 98.6127L371.913 101.36C361.066 123.759 349.866 134.958 338.314 134.958C330.003 134.958 325.847 129.323 325.847 118.053C325.847 115.518 326.622 111.01 328.172 104.529C324.086 114.109 318.662 121.575 311.901 126.929C305.139 132.282 297.954 134.958 290.347 134.958C282.035 134.958 275.555 132.07 270.906 126.295C266.257 120.519 263.933 112.559 263.933 102.416C263.651 91.569 265.905 80.6512 270.695 69.663C275.625 58.6748 282.176 49.6588 290.347 42.6151C298.658 35.4305 307.181 31.979 315.915 32.2608C322.396 32.2608 327.678 34.5148 331.764 39.0228C335.849 43.3899 338.244 49.5884 338.948 57.6182L344.865 35.2192H364.728L348.035 96.077C344.795 107.91 343.175 115.87 343.175 119.955C343.175 123.477 344.724 125.238 347.824 125.238C350.218 125.238 353.177 122.702 356.699 117.631C360.643 112.137 364.165 105.797 367.264 98.6127ZM297.743 127.14C304.364 127.14 310.562 123.407 316.338 115.94C322.114 108.756 326.622 100.092 329.862 89.9489C332.961 80.2286 334.511 71.1422 334.511 62.6897C334.511 55.2233 333.173 49.5884 330.496 45.7848C327.819 41.9811 324.297 40.0793 319.93 40.0793C313.309 40.0793 307.04 43.9534 301.124 51.7015C295.489 59.3087 291.051 68.1134 287.811 78.1155C284.712 87.8358 283.162 96.9927 283.162 105.586C283.162 119.955 288.022 127.14 297.743 127.14ZM358.6 0.986637L356.065 12.3975H300.067L302.603 0.986637H358.6ZM452.596 132V83.6959C452.596 79.1125 452.179 74.7077 451.346 70.4815C450.572 66.2552 449.173 62.4754 447.149 59.142C445.185 55.7492 442.507 53.0706 439.114 51.1062C435.78 49.1419 431.554 48.1598 426.435 48.1598C422.447 48.1598 418.816 48.8443 415.542 50.2134C412.328 51.5229 409.56 53.5467 407.238 56.2849C404.917 59.023 403.101 62.4754 401.792 66.6421C400.542 70.7493 399.917 75.6006 399.917 81.1959L389.47 77.9815C389.47 68.6362 391.137 60.6302 394.47 53.9634C397.863 47.2372 402.595 42.0883 408.667 38.5168C414.798 34.8858 422 33.0703 430.274 33.0703C436.524 33.0703 441.852 34.0525 446.257 36.0168C450.661 37.9811 454.322 40.6002 457.239 43.874C460.156 47.0883 462.447 50.7193 464.114 54.767C465.781 58.7551 466.941 62.8326 467.596 66.9993C468.31 71.1065 468.668 75.0053 468.668 78.6958V132H452.596ZM383.845 132V35.5704H398.131V61.3742H399.917V132H383.845ZM527.081 134.679C518.092 134.679 510.384 132.446 503.955 127.982C497.527 123.458 492.556 117.357 489.044 109.678C485.592 102 483.866 93.3389 483.866 83.6959C483.866 74.0529 485.592 65.3921 489.044 57.7135C492.556 50.0348 497.527 43.9931 503.955 39.5883C510.384 35.1239 518.063 32.8918 526.991 32.8918C536.099 32.8918 543.747 35.0942 549.938 39.499C556.129 43.9038 560.801 49.9455 563.956 57.6242C567.17 65.3028 568.777 73.9934 568.777 83.6959C568.777 93.2793 567.17 101.94 563.956 109.678C560.801 117.357 556.129 123.458 549.938 127.982C543.747 132.446 536.128 134.679 527.081 134.679ZM529.045 120.125C535.533 120.125 540.86 118.577 545.027 115.482C549.194 112.327 552.259 108.012 554.224 102.535C556.248 96.9996 557.259 90.7198 557.259 83.6959C557.259 76.553 556.248 70.2731 554.224 64.8564C552.259 59.3801 549.224 55.1241 545.116 52.0884C541.009 48.9931 535.801 47.4455 529.491 47.4455C522.944 47.4455 517.527 49.0526 513.241 52.267C509.015 55.4813 505.86 59.8266 503.777 65.3028C501.753 70.7791 500.741 76.9101 500.741 83.6959C500.741 90.5412 501.783 96.7317 503.866 102.268C505.949 107.744 509.074 112.089 513.241 115.303C517.467 118.518 522.735 120.125 529.045 120.125ZM557.259 132V61.0171H555.474V3.42714H571.456V132H557.259ZM622.097 134.679C614.895 134.679 608.853 133.369 603.972 130.75C599.15 128.071 595.49 124.559 592.99 120.214C590.549 115.869 589.329 111.107 589.329 105.928C589.329 100.869 590.281 96.4937 592.186 92.8031C594.15 89.0531 596.888 85.9578 600.4 83.5173C603.912 81.0173 608.109 79.053 612.99 77.6244C617.573 76.3744 622.692 75.3029 628.347 74.4101C634.061 73.4577 639.835 72.5946 645.669 71.8208C651.502 71.0469 656.949 70.3029 662.008 69.5886L656.294 72.8922C656.472 64.3207 654.746 57.9813 651.115 53.8741C647.544 49.7669 641.353 47.7133 632.544 47.7133C626.71 47.7133 621.591 49.0526 617.186 51.7312C612.841 54.3503 609.775 58.6361 607.99 64.5885L592.9 60.0349C595.222 51.5824 599.716 44.9455 606.383 40.124C613.049 35.3025 621.829 32.8918 632.722 32.8918C641.472 32.8918 648.972 34.4692 655.222 37.6239C661.532 40.7192 666.056 45.4217 668.794 51.7312C670.163 54.7075 671.026 57.9516 671.383 61.4635C671.74 64.9159 671.919 68.5469 671.919 72.3565V132H657.812V108.875L661.115 111.018C657.484 118.815 652.395 124.708 645.847 128.696C639.359 132.685 631.442 134.679 622.097 134.679ZM624.508 121.375C630.222 121.375 635.163 120.363 639.329 118.339C643.556 116.256 646.948 113.547 649.508 110.214C652.068 106.821 653.734 103.131 654.508 99.1425C655.401 96.1663 655.877 92.8627 655.937 89.2317C656.056 85.5411 656.115 82.7137 656.115 80.7494L661.651 83.1602C656.472 83.8745 651.383 84.559 646.383 85.2138C641.383 85.8685 636.651 86.5828 632.186 87.3566C627.722 88.0709 623.704 88.934 620.133 89.946C617.514 90.7793 615.043 91.8507 612.722 93.1603C610.46 94.4698 608.615 96.1663 607.186 98.2496C605.817 100.273 605.133 102.803 605.133 105.839C605.133 108.458 605.787 110.958 607.097 113.339C608.466 115.72 610.549 117.655 613.347 119.143C616.204 120.631 619.924 121.375 624.508 121.375Z" fill="#26734E"/>
</svg>
