<svg width="1202" height="250" viewBox="0 0 1202 250" fill="none" xmlns="http://www.w3.org/2000/svg">
<path d="M1109.27 247.811C1095.86 247.811 1084.61 245.387 1075.53 240.541C1066.55 235.584 1059.74 229.085 1055.09 221.044C1050.54 213.003 1048.27 204.191 1048.27 194.608C1048.27 185.246 1050.05 177.15 1053.59 170.32C1057.25 163.381 1062.34 157.653 1068.88 153.137C1075.42 148.511 1083.23 144.876 1092.32 142.232C1100.85 139.919 1110.37 137.936 1120.9 136.284C1131.54 134.522 1142.28 132.924 1153.14 131.492C1164 130.061 1174.14 128.684 1183.56 127.362L1172.92 133.475C1173.25 117.614 1170.04 105.883 1163.28 98.2823C1156.63 90.6819 1145.11 86.8818 1128.71 86.8818C1117.85 86.8818 1108.33 89.3601 1100.13 94.3169C1092.04 99.1635 1086.33 107.094 1083.01 118.109L1054.92 109.683C1059.24 94.0415 1067.61 81.7598 1080.02 72.8377C1092.43 63.9155 1108.77 59.4545 1129.04 59.4545C1145.33 59.4545 1159.29 62.3734 1170.93 68.2114C1182.67 73.9392 1191.09 82.641 1196.19 94.3169C1198.74 99.8244 1200.34 105.828 1201.01 112.326C1201.67 118.715 1202 125.434 1202 132.484V242.854H1175.74V200.061L1181.89 204.026C1175.14 218.456 1165.66 229.361 1153.47 236.741C1141.4 244.121 1126.66 247.811 1109.27 247.811ZM1113.75 223.192C1124.39 223.192 1133.59 221.32 1141.34 217.575C1149.21 213.719 1155.52 208.708 1160.29 202.539C1165.05 196.261 1168.16 189.431 1169.6 182.051C1171.26 176.544 1172.14 170.43 1172.25 163.711C1172.48 156.882 1172.59 151.65 1172.59 148.015L1182.89 152.476C1173.25 153.798 1163.78 155.065 1154.47 156.276C1145.17 157.488 1136.36 158.81 1128.05 160.242C1119.74 161.563 1112.26 163.161 1105.61 165.033C1100.74 166.575 1096.14 168.558 1091.82 170.981C1087.61 173.404 1084.17 176.544 1081.51 180.399C1078.96 184.144 1077.69 188.825 1077.69 194.443C1077.69 199.29 1078.91 203.916 1081.35 208.322C1083.89 212.728 1087.77 216.308 1092.98 219.062C1098.3 221.815 1105.22 223.192 1113.75 223.192Z" fill="#26734E"/>
<path d="M948.555 247.811C931.825 247.811 917.477 243.68 905.511 235.419C893.545 227.047 884.294 215.757 877.757 201.548C871.33 187.338 868.117 171.311 868.117 153.467C868.117 135.623 871.33 119.596 877.757 105.387C884.294 91.1774 893.545 79.9972 905.511 71.8461C917.477 63.5849 931.77 59.4543 948.389 59.4543C965.341 59.4543 979.579 63.5298 991.101 71.6809C1002.62 79.832 1011.32 91.0122 1017.19 105.222C1023.18 119.431 1026.17 135.513 1026.17 153.467C1026.17 171.201 1023.18 187.228 1017.19 201.548C1011.32 215.757 1002.62 227.047 991.101 235.419C979.579 243.68 965.397 247.811 948.555 247.811ZM952.212 220.879C964.289 220.879 974.205 218.015 981.961 212.287C989.716 206.449 995.422 198.463 999.079 188.33C1002.85 178.086 1004.73 166.465 1004.73 153.467C1004.73 140.249 1002.85 128.628 999.079 118.605C995.422 108.471 989.772 100.595 982.127 94.9776C974.482 89.2498 964.787 86.3859 953.043 86.3859C940.855 86.3859 930.773 89.3599 922.795 95.308C914.929 101.256 909.057 109.297 905.179 119.431C901.412 129.565 899.528 140.91 899.528 153.467C899.528 166.134 901.467 177.59 905.345 187.834C909.223 197.968 915.04 206.009 922.795 211.957C930.662 217.905 940.467 220.879 952.212 220.879ZM1004.73 242.854V111.5H1001.41V4.93005H1031.15V242.854H1004.73Z" fill="#26734E"/>
<path d="M822.197 242.854V153.468C822.197 144.986 821.421 136.835 819.87 129.014C818.43 121.194 815.826 114.199 812.059 108.031C808.402 101.752 803.417 96.7954 797.101 93.1604C790.897 89.5255 783.03 87.708 773.502 87.708C766.078 87.708 759.32 88.9747 753.226 91.5082C747.243 93.9315 742.091 97.6766 737.77 102.743C733.449 107.81 730.069 114.199 727.632 121.91C725.305 129.51 724.142 138.487 724.142 148.841L704.697 142.893C704.697 125.6 707.799 110.784 714.004 98.4476C720.319 86.0007 729.127 76.4727 740.429 69.8637C751.841 63.1446 765.247 59.785 780.648 59.785C792.282 59.785 802.198 61.6025 810.397 65.2374C818.596 68.8724 825.41 73.719 830.839 79.7772C836.268 85.7253 840.533 92.4445 843.636 99.9347C846.738 107.315 848.899 114.86 850.117 122.57C851.447 130.171 852.112 137.386 852.112 144.215V242.854H822.197ZM694.227 242.854V64.4113H720.818V112.161H724.142V242.854H694.227Z" fill="#26734E"/>
<path d="M662.39 182.177L671.111 187.303C650.762 229.101 629.752 250 608.081 250C592.489 250 584.693 239.485 584.693 218.454C584.693 213.722 586.147 205.31 589.054 193.218C581.39 211.094 571.215 225.026 558.53 235.016C545.845 245.005 532.367 250 518.096 250C502.503 250 490.347 244.611 481.626 233.833C472.905 223.055 468.544 208.202 468.544 189.274C468.015 169.033 472.244 148.659 481.229 128.155C490.479 107.65 502.768 90.8254 518.096 77.6814C533.688 64.2744 549.677 57.8338 566.062 58.3596C578.218 58.3596 588.129 62.5657 595.793 70.9779C603.457 79.1272 607.949 90.694 609.271 105.678L620.37 63.8801H657.633L626.316 177.445C620.238 199.527 617.199 214.38 617.199 222.003C617.199 228.575 620.106 231.861 625.92 231.861C630.413 231.861 635.962 227.129 642.569 217.666C649.969 207.413 656.576 195.584 662.39 182.177ZM531.97 235.41C544.391 235.41 556.019 228.444 566.855 214.511C577.69 201.104 586.147 184.937 592.225 166.009C598.039 147.871 600.946 130.915 600.946 115.142C600.946 101.209 598.435 90.694 593.414 83.5962C588.393 76.4984 581.786 72.9495 573.594 72.9495C561.173 72.9495 549.412 80.1788 538.313 94.6372C527.742 108.833 519.417 125.263 513.339 143.927C507.525 162.066 504.618 179.154 504.618 195.189C504.618 222.003 513.735 235.41 531.97 235.41ZM646.137 0L641.38 21.2934H536.331L541.088 0H646.137Z" fill="#26734E"/>
<path d="M369.82 242.854V64.4109H396.245V107.535L391.924 101.917C394.029 96.4095 396.744 91.3426 400.068 86.7163C403.502 82.09 407.325 78.2898 411.535 75.3158C416.189 71.5707 421.452 68.7068 427.324 66.7241C433.196 64.7414 439.179 63.5848 445.273 63.2544C451.367 62.8138 457.073 63.1993 462.391 64.4109V92.0035C456.186 90.3512 449.372 89.9106 441.949 90.6817C434.526 91.4527 427.656 94.1514 421.341 98.7777C415.579 102.853 411.092 107.81 407.879 113.648C404.777 119.486 402.616 125.819 401.397 132.649C400.179 139.368 399.569 146.252 399.569 153.302V242.854H369.82Z" fill="#26734E"/>
<path d="M261.931 247.811C244.314 247.811 228.913 243.955 215.728 236.245C202.654 228.424 192.461 217.574 185.149 203.696C177.836 189.707 174.18 173.404 174.18 154.789C174.18 135.293 177.781 118.44 184.982 104.23C192.184 89.9108 202.211 78.8958 215.064 71.1853C228.027 63.3647 243.206 59.4543 260.601 59.4543C278.661 59.4543 294.006 63.585 306.637 71.8462C319.379 80.1074 328.907 91.8935 335.222 107.204C341.649 122.515 344.419 140.745 343.532 161.894H313.617V151.319C313.285 129.4 308.797 113.042 300.155 102.248C291.513 91.3427 278.661 85.8903 261.598 85.8903C243.317 85.8903 229.412 91.7282 219.883 103.404C210.355 115.08 205.591 131.823 205.591 153.632C205.591 174.671 210.355 190.973 219.883 202.539C229.412 214.105 242.984 219.888 260.601 219.888C272.456 219.888 282.76 217.189 291.513 211.792C300.266 206.394 307.136 198.629 312.121 188.495L340.541 198.243C333.561 213.995 323.035 226.221 308.964 234.923C295.003 243.515 279.326 247.811 261.931 247.811ZM195.619 161.894V138.267H328.242V161.894H195.619Z" fill="#26734E"/>
<path d="M65.1484 242.854L0 64.4109H29.9151L80.2721 205.348L130.463 64.4109H160.544L95.3958 242.854H65.1484Z" fill="#26734E"/>
</svg>
