<svg width="97" height="97" viewBox="0 0 97 97" fill="none" xmlns="http://www.w3.org/2000/svg">
<path d="M48.1012 30.9189V89.7217C48.1012 92.091 50.0218 94.0117 52.3911 94.0117H55.2107H58.3196C60.5291 94.0117 62.3203 92.2205 62.3203 90.0109V30.9189H58.3196H55.2107H52.3911H48.1012Z" fill="#A7EF9B" stroke="#26734E" stroke-width="4"/>
<path d="M14.9894 58.3145V91.5496C14.9894 92.9094 16.0917 94.0117 17.4515 94.0117H19.4517H21.6571C22.9036 94.0117 23.9141 93.0013 23.9141 91.7548V58.3145H21.6571H19.4517H17.4515H14.9894Z" fill="#A7EF9B" stroke="#26734E" stroke-width="4"/>
<path d="M49.4501 8.86355L18.127 41.3789H92.2963L60.9731 8.86355C57.8265 5.5972 52.5967 5.5972 49.4501 8.86355Z" fill="#A7EF9B" stroke="#26734E" stroke-width="4"/>
<path d="M12.9454 57.0763L4.3699 67.0059H33.6301L25.0546 57.0763C21.8637 53.3816 16.1363 53.3816 12.9454 57.0763Z" fill="#A7EF9B" stroke="#26734E" stroke-width="4"/>
</svg>
