<svg width="68" height="92" viewBox="0 0 68 92" fill="none" xmlns="http://www.w3.org/2000/svg">
<mask id="path-1-outside-1_1736_472" maskUnits="userSpaceOnUse" x="-5.67865" y="44.5386" width="51.2013" height="50.4523" fill="black">
<rect fill="white" x="-5.67865" y="44.5386" width="51.2013" height="50.4523"/>
<path fill-rule="evenodd" clip-rule="evenodd" d="M18.3745 56.2041L5.98734 77.6239C4.56879 80.0769 5.41062 83.2134 7.86762 84.6296L10.1724 85.9581L12.2628 87.163C14.8382 88.6475 18.1314 87.7665 19.6183 85.1954L32.4906 62.9366C27.258 61.9704 22.3843 59.6292 18.3745 56.2041Z"/>
</mask>
<path fill-rule="evenodd" clip-rule="evenodd" d="M18.3745 56.2041L5.98734 77.6239C4.56879 80.0769 5.41062 83.2134 7.86762 84.6296L10.1724 85.9581L12.2628 87.163C14.8382 88.6475 18.1314 87.7665 19.6183 85.1954L32.4906 62.9366C27.258 61.9704 22.3843 59.6292 18.3745 56.2041Z" fill="#FDFFDD"/>
<path d="M5.98734 77.6239L2.52324 75.6206L2.52324 75.6206L5.98734 77.6239ZM18.3745 56.2041L20.9724 53.1646L17.3159 50.0412L14.9104 54.2008L18.3745 56.2041ZM7.86762 84.6296L5.87092 88.0937L5.87092 88.0937L7.86762 84.6296ZM10.1724 85.9581L8.17571 89.4222L8.17571 89.4222L10.1724 85.9581ZM12.2628 87.163L14.2595 83.6989L14.2595 83.6989L12.2628 87.163ZM19.6183 85.1954L16.1542 83.1921L16.1542 83.1921L19.6183 85.1954ZM32.4906 62.9366L35.9547 64.9398L38.7919 60.0337L33.2146 59.0039L32.4906 62.9366ZM9.45144 79.6272L21.8386 58.2074L14.9104 54.2008L2.52324 75.6206L9.45144 79.6272ZM9.86432 81.1655C9.324 80.8541 9.13949 80.1666 9.45144 79.6272L2.52324 75.6206C-0.00190443 79.9871 1.49724 85.5728 5.87092 88.0937L9.86432 81.1655ZM12.1691 82.494L9.86432 81.1655L5.87092 88.0937L8.17571 89.4222L12.1691 82.494ZM14.2595 83.6989L12.1691 82.494L8.17571 89.4222L10.2661 90.6271L14.2595 83.6989ZM16.1542 83.1921C15.7716 83.8536 14.9221 84.0808 14.2595 83.6989L10.2661 90.6271C14.7543 93.2141 20.4911 91.6795 23.0824 87.1987L16.1542 83.1921ZM29.0265 60.9333L16.1542 83.1921L23.0824 87.1987L35.9547 64.9398L29.0265 60.9333ZM33.2146 59.0039C28.6795 58.1666 24.451 56.136 20.9724 53.1646L15.7766 59.2436C20.3175 63.1224 25.8364 65.7742 31.7666 66.8692L33.2146 59.0039Z" fill="#26734E" mask="url(#path-1-outside-1_1736_472)"/>
<mask id="path-3-inside-2_1736_472" fill="white">
<path fill-rule="evenodd" clip-rule="evenodd" d="M45.7111 62.4037C61.7455 58.1144 71.2611 41.6601 66.9647 25.6521C62.6682 9.64404 46.1868 0.144155 30.1524 4.4335C28.0222 5.00334 26.0071 5.78788 24.1241 6.75756C28.7918 10.3102 30.2006 16.8567 27.1881 22.0659C23.9173 27.7217 16.6734 29.6596 11.0082 26.3942C10.3057 25.9892 9.66037 25.5232 9.07519 25.0068C7.5776 30.1094 7.4196 35.6737 8.89882 41.1852C13.1952 57.1932 29.6766 66.6931 45.7111 62.4037Z"/>
</mask>
<path fill-rule="evenodd" clip-rule="evenodd" d="M45.7111 62.4037C61.7455 58.1144 71.2611 41.6601 66.9647 25.6521C62.6682 9.64404 46.1868 0.144155 30.1524 4.4335C28.0222 5.00334 26.0071 5.78788 24.1241 6.75756C28.7918 10.3102 30.2006 16.8567 27.1881 22.0659C23.9173 27.7217 16.6734 29.6596 11.0082 26.3942C10.3057 25.9892 9.66037 25.5232 9.07519 25.0068C7.5776 30.1094 7.4196 35.6737 8.89882 41.1852C13.1952 57.1932 29.6766 66.6931 45.7111 62.4037Z" fill="#FDFFDD"/>
<path d="M66.9647 25.6521L70.8279 24.6152L70.8279 24.6152L66.9647 25.6521ZM30.1524 4.4335L29.1187 0.569367L29.1187 0.569367L30.1524 4.4335ZM24.1241 6.75756L22.2928 3.2014L16.659 6.10262L21.7015 9.94051L24.1241 6.75756ZM27.1881 22.0659L30.6508 24.0684L30.6508 24.0684L27.1881 22.0659ZM11.0082 26.3942L13.0058 22.9286L13.0058 22.9286L11.0082 26.3942ZM9.07519 25.0068L11.7219 22.0077L7.00771 17.8475L5.23709 23.8804L9.07519 25.0068ZM8.89882 41.1852L5.03554 42.222L8.89882 41.1852ZM63.1014 26.6889C66.8234 40.5569 58.5817 54.8201 44.6774 58.5396L46.7448 66.2679C64.9093 61.4087 75.6987 42.7633 70.8279 24.6152L63.1014 26.6889ZM31.1861 8.29763C45.0929 4.57745 59.3787 12.8185 63.1014 26.6889L70.8279 24.6152C65.9578 6.4696 47.2808 -4.28914 29.1187 0.569367L31.1861 8.29763ZM25.9554 10.3137C27.5858 9.4741 29.3337 8.79315 31.1861 8.29763L29.1187 0.569367C26.7107 1.21352 24.4283 2.10166 22.2928 3.2014L25.9554 10.3137ZM21.7015 9.94051C24.7885 12.29 25.7156 16.622 23.7254 20.0635L30.6508 24.0684C34.6856 17.0913 32.7951 8.33035 26.5467 3.57461L21.7015 9.94051ZM23.7254 20.0635C21.561 23.8061 16.7615 25.0935 13.0058 22.9286L9.01071 29.8597C16.5852 34.2256 26.2736 31.6373 30.6508 24.0684L23.7254 20.0635ZM13.0058 22.9286C12.5358 22.6578 12.1079 22.3483 11.7219 22.0077L6.42851 28.006C7.21289 28.6982 8.07549 29.3206 9.01071 29.8597L13.0058 22.9286ZM12.7621 40.1483C11.4787 35.3665 11.6168 30.5508 12.9133 26.1333L5.23709 23.8804C3.53843 29.668 3.3605 35.981 5.03554 42.222L12.7621 40.1483ZM44.6774 58.5396C30.7706 62.2598 16.4848 54.0187 12.7621 40.1483L5.03554 42.222C9.90566 60.3676 28.5827 71.1264 46.7448 66.2679L44.6774 58.5396Z" fill="#26734E" mask="url(#path-3-inside-2_1736_472)"/>
<path d="M10.0213 28.1253C16.642 31.9415 25.1106 29.6778 28.9351 23.0645C32.7596 16.4511 30.489 7.99735 23.8682 4.18115C17.2475 0.364947 8.77888 2.62863 4.95438 9.24196C1.12987 15.8553 3.40052 24.3091 10.0213 28.1253Z" fill="#FDFFDD" stroke="#26734E" stroke-width="4"/>
</svg>
