<svg width="111" height="93" viewBox="0 0 111 93" fill="none" xmlns="http://www.w3.org/2000/svg">
<path d="M53.2688 4.4963C53.4432 4.28507 53.6122 4.08264 53.775 3.88925L53.775 83.5394C53.6186 83.3585 53.4567 83.1695 53.2897 82.9725C51.4321 80.7817 48.9534 77.6131 46.4757 73.7102C41.503 65.8774 36.6207 55.2225 36.6207 43.6539L36.6207 43.6539C36.6203 32.4803 41.4912 21.8469 46.4606 13.9256C48.936 9.97983 51.4126 6.74376 53.2688 4.4963ZM57.2882 82.9685C57.1122 83.1797 56.9418 83.382 56.7777 83.5752L56.7777 3.95444C56.9317 4.13586 57.091 4.32522 57.2553 4.52232C59.1145 6.75361 61.595 9.97087 64.0743 13.907C69.0525 21.8104 73.932 32.4647 73.932 43.7797C73.932 55.0849 69.0595 65.7187 64.0933 73.6029C61.6189 77.5313 59.1434 80.7421 57.2882 82.9685Z" fill="#A7EF9B" stroke="#26734E" stroke-width="3"/>
<path d="M106.315 40.8937C106.387 40.8883 106.458 40.883 106.529 40.8779L55.9962 89.33C56.0028 89.2459 56.0097 89.1605 56.0168 89.074C56.2201 86.6081 56.6494 83.1648 57.5523 79.2686C59.3637 71.4512 63.0491 61.9491 70.4996 54.8053C77.957 47.6549 87.8868 44.1116 96.0636 42.3696C100.137 41.5019 103.737 41.0892 106.315 40.8937ZM58.2326 91.3419L108.765 42.8898C108.758 42.9739 108.751 43.0592 108.744 43.1458C108.541 45.6116 108.112 49.055 107.209 52.9512C105.397 60.7685 101.712 70.2706 94.2615 77.4144C86.8042 84.5648 76.8744 88.1082 68.6975 89.8501C64.6243 90.7179 61.0244 91.1306 58.4457 91.326C58.3739 91.3315 58.3029 91.3367 58.2326 91.3419Z" fill="#A7EF9B" stroke="#26734E" stroke-width="3"/>
<path d="M1.68088 43.1458C1.67374 43.0592 1.66688 42.9739 1.6603 42.8898L52.1926 91.3419C52.1224 91.3367 52.0513 91.3315 51.9795 91.326C49.4009 91.1306 45.8009 90.7179 41.7277 89.8501C33.5508 88.1082 23.621 84.5648 16.1637 77.4144C8.71314 70.2706 5.02778 60.7685 3.21633 52.9512C2.31349 49.055 1.88418 45.6116 1.68088 43.1458ZM54.429 89.33L3.8967 40.8779C3.96692 40.883 4.03796 40.8883 4.1098 40.8937C6.68843 41.0892 10.2884 41.5019 14.3616 42.3696C22.5385 44.1116 32.4682 47.6549 39.9256 54.8053C47.3761 61.9491 51.0615 71.4512 52.873 79.2686C53.7758 83.1648 54.2051 86.6081 54.4084 89.074C54.4155 89.1605 54.4224 89.2459 54.429 89.33Z" fill="#A7EF9B" stroke="#26734E" stroke-width="3"/>
</svg>
