<svg width="80" height="84" viewBox="0 0 80 84" fill="none" xmlns="http://www.w3.org/2000/svg">
<rect x="8.06641" y="71.3965" width="46.3948" height="18.3815" transform="rotate(-53.5991 8.06641 71.3965)" fill="#FDFFDD"/>
<circle cx="48.1658" cy="32.3845" r="23.0938" transform="rotate(7 48.1658 32.3845)" fill="#A7EF9B"/>
<circle cx="31.1176" cy="15.9198" r="13.2759" transform="rotate(7 31.1176 15.9198)" fill="#FDFFDD"/>
<mask id="path-4-outside-1_1574_114" maskUnits="userSpaceOnUse" x="5.4436" y="40.7499" width="43.9092" height="43.0578" fill="black">
<rect fill="white" x="5.4436" y="40.7499" width="43.9092" height="43.0578"/>
<path fill-rule="evenodd" clip-rule="evenodd" d="M27.0951 50.2035L13.8646 67.7606C12.3494 69.7714 12.7512 72.6297 14.7619 74.1449L16.6481 75.5663L18.3589 76.8554C20.4665 78.4436 23.4627 78.0226 25.0509 75.9149L38.8 57.6695C34.2955 56.2514 30.2561 53.6589 27.0951 50.2035Z"/>
</mask>
<path d="M13.8646 67.7606L17.0592 70.1679L17.0592 70.1679L13.8646 67.7606ZM27.0951 50.2035L30.0464 47.5036L26.7974 43.952L23.9005 47.7962L27.0951 50.2035ZM14.7619 74.1449L17.1692 70.9504L17.1692 70.9504L14.7619 74.1449ZM16.6481 75.5663L14.2409 78.7608L14.2409 78.7608L16.6481 75.5663ZM18.3589 76.8554L15.9516 80.0499L15.9516 80.0499L18.3589 76.8554ZM25.0509 75.9149L28.2455 78.3222L28.2455 78.3222L25.0509 75.9149ZM38.8 57.6695L41.9945 60.0768L45.4023 55.5545L40.0011 53.8541L38.8 57.6695ZM17.0592 70.1679L30.2896 52.6108L23.9005 47.7962L10.6701 65.3534L17.0592 70.1679ZM17.1692 70.9504C16.9227 70.7647 16.8735 70.4144 17.0592 70.1679L10.6701 65.3534C7.82538 69.1284 8.57959 74.4948 12.3547 77.3395L17.1692 70.9504ZM19.0554 72.3717L17.1692 70.9504L12.3547 77.3395L14.2409 78.7608L19.0554 72.3717ZM20.7661 73.6609L19.0554 72.3717L14.2409 78.7608L15.9516 80.0499L20.7661 73.6609ZM21.8564 73.5076C21.5976 73.851 21.1095 73.9196 20.7661 73.6609L15.9516 80.0499C19.8236 82.9676 25.3277 82.1941 28.2455 78.3222L21.8564 73.5076ZM35.6054 55.2622L21.8564 73.5076L28.2455 78.3222L41.9945 60.0768L35.6054 55.2622ZM40.0011 53.8541C36.1737 52.6492 32.7364 50.4441 30.0464 47.5036L24.1437 52.9034C27.7758 56.8738 32.4173 59.8536 37.5988 61.4849L40.0011 53.8541Z" fill="#26734E" mask="url(#path-4-outside-1_1574_114)"/>
<mask id="path-6-inside-2_1574_114" fill="white">
<path fill-rule="evenodd" clip-rule="evenodd" d="M50.5167 58.6317C65.1049 56.5815 75.2689 43.0936 73.2187 28.5055C71.1684 13.9175 57.6803 3.75353 43.092 5.80373C41.1537 6.07613 39.2935 6.55046 37.5297 7.20247C41.2552 10.8418 41.7865 16.7691 38.569 21.0388C35.0753 25.675 28.4848 26.6012 23.8485 23.1076C23.2742 22.6748 22.7568 22.1945 22.2976 21.6762C20.426 26.0159 19.6842 30.9077 20.3901 35.9299C22.4403 50.518 35.9285 60.6819 50.5167 58.6317Z"/>
</mask>
<path d="M73.2187 28.5055L77.1798 27.9488L77.1798 27.9488L73.2187 28.5055ZM50.5167 58.6317L51.0734 62.5928L51.0734 62.5928L50.5167 58.6317ZM43.092 5.80373L42.5354 1.84265L42.5354 1.84265L43.092 5.80373ZM37.5297 7.20247L36.1428 3.4506L30.2098 5.64376L34.7346 10.0638L37.5297 7.20247ZM38.569 21.0388L41.7635 23.4461L41.7635 23.4461L38.569 21.0388ZM23.8485 23.1076L26.2557 19.913L26.2557 19.913L23.8485 23.1076ZM22.2976 21.6762L25.2917 19.0238L21.1175 14.3121L18.6247 20.0922L22.2976 21.6762ZM20.3901 35.9299L24.3511 35.3732L24.3511 35.3732L20.3901 35.9299ZM69.2576 29.0622C71.0004 41.4626 62.3606 52.9279 49.96 54.6707L51.0734 62.5928C67.8492 60.2352 79.5375 44.7246 77.1798 27.9488L69.2576 29.0622ZM43.6487 9.7648C56.0494 8.02204 67.5148 16.6618 69.2576 29.0622L77.1798 27.9488C74.822 11.1731 59.3112 -0.514981 42.5354 1.84265L43.6487 9.7648ZM38.9166 10.9543C40.4137 10.4009 41.9956 9.99712 43.6487 9.7648L42.5354 1.84265C40.3118 2.15514 38.1734 2.69999 36.1428 3.4506L38.9166 10.9543ZM34.7346 10.0638C37.0395 12.3154 37.3657 15.9891 35.3745 18.6315L41.7635 23.4461C46.2073 17.549 45.471 9.36818 40.3248 4.34112L34.7346 10.0638ZM35.3745 18.6315C33.2103 21.5034 29.1277 22.0772 26.2557 19.913L21.4413 26.3021C27.8418 31.1252 36.9404 29.8466 41.7635 23.4461L35.3745 18.6315ZM26.2557 19.913C25.8958 19.6418 25.5748 19.3433 25.2917 19.0238L19.3036 24.3287C19.9387 25.0457 20.6525 25.7078 21.4413 26.3021L26.2557 19.913ZM24.3511 35.3732C23.7503 31.0979 24.3813 26.9454 25.9706 23.2603L18.6247 20.0922C16.4708 25.0864 15.6182 30.7176 16.429 36.4866L24.3511 35.3732ZM49.96 54.6707C37.5594 56.4134 26.0939 47.7736 24.3511 35.3732L16.429 36.4866C18.7867 53.2624 34.2976 64.9504 51.0734 62.5928L49.96 54.6707Z" fill="#26734E" mask="url(#path-6-inside-2_1574_114)"/>
<path d="M22.6449 24.7034C28.1633 28.8618 36.0079 27.7593 40.1663 22.241C44.3247 16.7226 43.2222 8.87809 37.7038 4.71973C32.1854 0.561359 24.3408 1.66381 20.1824 7.18216C16.0239 12.7005 17.1265 20.545 22.6449 24.7034Z" stroke="#26734E" stroke-width="4"/>
</svg>
