<svg width="90" height="85" viewBox="0 0 90 85" fill="none" xmlns="http://www.w3.org/2000/svg">
<mask id="path-1-inside-1_2926_6903" fill="white">
<path fill-rule="evenodd" clip-rule="evenodd" d="M20.2257 22L20.2258 22.0456C9.61057 22.7265 1.22656 30.9524 1.22656 41C1.22656 51.0476 9.61056 59.2735 20.2258 59.9544L20.2257 60C20.2257 70.4934 28.5196 79 38.7507 79C45.9982 79 52.2735 74.7314 55.3173 68.5118C55.0212 68.537 54.7216 68.5499 54.419 68.5499C48.6477 68.5499 43.969 63.8713 43.969 58.0999C43.969 52.3285 48.6477 47.6499 54.419 47.6499C54.7402 47.6499 55.0579 47.6644 55.3716 47.6927L55.3715 47.6499C55.3715 41.8786 60.0502 37.1999 65.8215 37.1999C70.5836 37.1999 74.6016 40.3852 75.8614 44.7414C76.1332 43.5317 76.2757 42.2807 76.2757 41C76.2757 31.2201 67.9629 23.166 57.2754 22.1159C57.2755 22.0951 57.2756 22.0742 57.2757 22.0534C57.2757 22.0356 57.2757 22.0178 57.2757 22C57.2757 11.5066 48.9818 3 38.7507 3C28.5197 3 20.2257 11.5066 20.2257 22Z"/>
</mask>
<path fill-rule="evenodd" clip-rule="evenodd" d="M20.2257 22L20.2258 22.0456C9.61057 22.7265 1.22656 30.9524 1.22656 41C1.22656 51.0476 9.61056 59.2735 20.2258 59.9544L20.2257 60C20.2257 70.4934 28.5196 79 38.7507 79C45.9982 79 52.2735 74.7314 55.3173 68.5118C55.0212 68.537 54.7216 68.5499 54.419 68.5499C48.6477 68.5499 43.969 63.8713 43.969 58.0999C43.969 52.3285 48.6477 47.6499 54.419 47.6499C54.7402 47.6499 55.0579 47.6644 55.3716 47.6927L55.3715 47.6499C55.3715 41.8786 60.0502 37.1999 65.8215 37.1999C70.5836 37.1999 74.6016 40.3852 75.8614 44.7414C76.1332 43.5317 76.2757 42.2807 76.2757 41C76.2757 31.2201 67.9629 23.166 57.2754 22.1159C57.2755 22.0951 57.2756 22.0742 57.2757 22.0534C57.2757 22.0356 57.2757 22.0178 57.2757 22C57.2757 11.5066 48.9818 3 38.7507 3C28.5197 3 20.2257 11.5066 20.2257 22Z" fill="#F9FFEA"/>
<path d="M20.2258 22.0456L20.4818 26.0374L24.2302 25.7969L24.2258 22.0409L20.2258 22.0456ZM20.2257 22L16.2257 22L16.2257 22.0047L20.2257 22ZM1.22656 41L5.22656 41L1.22656 41ZM20.2258 59.9544L24.2258 59.9591L24.2302 56.2031L20.4818 55.9626L20.2258 59.9544ZM20.2257 60L16.2257 59.9953V60H20.2257ZM55.3173 68.5118L58.9101 70.2701L62.0142 63.9272L54.978 64.5262L55.3173 68.5118ZM55.3716 47.6927L55.0116 51.6765L59.3802 52.0713L59.3716 47.6849L55.3716 47.6927ZM55.3715 47.6499L51.3715 47.6499L51.3716 47.6578L55.3715 47.6499ZM75.8614 44.7414L72.0189 45.8526L79.7641 45.6181L75.8614 44.7414ZM57.2754 22.1159L53.2755 22.0925L53.2541 25.7401L56.8843 26.0968L57.2754 22.1159ZM57.2757 22.0534L53.2757 22.0422L53.2757 22.0424L57.2757 22.0534ZM38.7507 3L38.7507 -1H38.7507V3ZM24.2258 22.0409L24.2257 21.9953L16.2257 22.0047L16.2258 22.0503L24.2258 22.0409ZM5.22656 41C5.22656 33.3185 11.7063 26.6003 20.4818 26.0374L19.9697 18.0538C7.51486 18.8527 -2.77344 28.5864 -2.77344 41L5.22656 41ZM20.4818 55.9626C11.7063 55.3997 5.22656 48.6815 5.22656 41L-2.77344 41C-2.77344 53.4136 7.51486 63.1473 19.9697 63.9462L20.4818 55.9626ZM24.2257 60.0047L24.2258 59.9591L16.2258 59.9497L16.2257 59.9953L24.2257 60.0047ZM38.7507 75C30.8237 75 24.2257 68.3803 24.2257 60H16.2257C16.2257 72.6065 26.2156 83 38.7507 83V75ZM51.7245 66.7536C49.308 71.6913 44.3731 75 38.7507 75V83C47.6233 83 55.239 77.7716 58.9101 70.2701L51.7245 66.7536ZM54.419 72.5499C54.835 72.5499 55.2479 72.5322 55.6566 72.4974L54.978 64.5262C54.7946 64.5419 54.6082 64.5499 54.419 64.5499V72.5499ZM39.969 58.0999C39.969 66.0804 46.4385 72.5499 54.419 72.5499V64.5499C50.8568 64.5499 47.969 61.6621 47.969 58.0999H39.969ZM54.419 43.6499C46.4385 43.6499 39.969 50.1194 39.969 58.0999H47.969C47.969 54.5377 50.8568 51.6499 54.419 51.6499V43.6499ZM55.7316 43.709C55.2984 43.6698 54.8605 43.6499 54.419 43.6499V51.6499C54.6198 51.6499 54.8174 51.6589 55.0116 51.6765L55.7316 43.709ZM51.3716 47.6578L51.3716 47.7006L59.3716 47.6849L59.3715 47.6421L51.3716 47.6578ZM65.8215 33.1999C57.841 33.1999 51.3715 39.6694 51.3715 47.6499H59.3715C59.3715 44.0877 62.2593 41.1999 65.8215 41.1999V33.1999ZM79.704 43.6301C77.9627 37.609 72.4122 33.1999 65.8215 33.1999V41.1999C68.7549 41.1999 71.2406 43.1615 72.0189 45.8526L79.704 43.6301ZM72.2757 41C72.2757 41.9826 72.1665 42.9397 71.9587 43.8646L79.7641 45.6181C80.0999 44.1238 80.2757 42.5788 80.2757 41H72.2757ZM56.8843 26.0968C65.9365 26.9861 72.2757 33.6674 72.2757 41H80.2757C80.2757 28.7728 69.9894 19.3458 57.6665 18.1351L56.8843 26.0968ZM53.2757 22.0424C53.2756 22.0594 53.2756 22.0761 53.2755 22.0925L61.2753 22.1394C61.2755 22.1141 61.2756 22.0891 61.2756 22.0643L53.2757 22.0424ZM53.2757 22C53.2757 22.0144 53.2757 22.0284 53.2757 22.0422L61.2756 22.0645C61.2757 22.0427 61.2757 22.0212 61.2757 22H53.2757ZM38.7507 7C46.6778 7 53.2757 13.6197 53.2757 22H61.2757C61.2757 9.39353 51.2858 -0.999997 38.7507 -1L38.7507 7ZM24.2257 22C24.2257 13.6197 30.8237 7 38.7507 7V-1C26.2156 -1 16.2257 9.39352 16.2257 22H24.2257Z" fill="#26734E" mask="url(#path-1-inside-1_2926_6903)"/>
<mask id="path-3-outside-2_2926_6903" maskUnits="userSpaceOnUse" x="37.7734" y="33.1999" width="52" height="50" fill="black">
<rect fill="white" x="37.7734" y="33.1999" width="52" height="50"/>
<path fill-rule="evenodd" clip-rule="evenodd" d="M63.9218 58.0901C63.9223 58.0902 63.9229 58.0902 63.9234 58.0902L63.9234 58.0999L63.9234 58.1096C63.9229 58.1096 63.9223 58.1096 63.9218 58.1097C63.9218 58.1064 63.9218 58.1032 63.9218 58.0999C63.9218 58.0966 63.9218 58.0934 63.9218 58.0901ZM53.4743 47.6597C53.4743 47.6565 53.4743 47.6532 53.4743 47.6499C53.4743 41.8786 58.3656 37.1999 64.3993 37.2C70.433 37.2 75.3243 41.8786 75.3243 47.65L75.3243 47.6596C81.1372 47.8979 85.7734 52.481 85.7734 58.0999C85.7734 63.7188 81.1372 68.3019 75.3243 68.5402L75.3243 68.5498C75.3243 74.3212 70.433 78.9998 64.3993 78.9998C58.3656 78.9998 53.4743 74.3212 53.4743 68.5498C53.4743 68.5466 53.4743 68.5433 53.4743 68.5401C53.316 68.5466 53.1568 68.5499 52.9968 68.5499C46.9631 68.5499 42.0718 63.8713 42.0718 58.0999C42.0718 52.3285 46.9631 47.6499 52.9968 47.6499C53.1568 47.6499 53.316 47.6532 53.4743 47.6597Z"/>
</mask>
<path fill-rule="evenodd" clip-rule="evenodd" d="M63.9218 58.0901C63.9223 58.0902 63.9229 58.0902 63.9234 58.0902L63.9234 58.0999L63.9234 58.1096C63.9229 58.1096 63.9223 58.1096 63.9218 58.1097C63.9218 58.1064 63.9218 58.1032 63.9218 58.0999C63.9218 58.0966 63.9218 58.0934 63.9218 58.0901ZM53.4743 47.6597C53.4743 47.6565 53.4743 47.6532 53.4743 47.6499C53.4743 41.8786 58.3656 37.1999 64.3993 37.2C70.433 37.2 75.3243 41.8786 75.3243 47.65L75.3243 47.6596C81.1372 47.8979 85.7734 52.481 85.7734 58.0999C85.7734 63.7188 81.1372 68.3019 75.3243 68.5402L75.3243 68.5498C75.3243 74.3212 70.433 78.9998 64.3993 78.9998C58.3656 78.9998 53.4743 74.3212 53.4743 68.5498C53.4743 68.5466 53.4743 68.5433 53.4743 68.5401C53.316 68.5466 53.1568 68.5499 52.9968 68.5499C46.9631 68.5499 42.0718 63.8713 42.0718 58.0999C42.0718 52.3285 46.9631 47.6499 52.9968 47.6499C53.1568 47.6499 53.316 47.6532 53.4743 47.6597Z" fill="#F9FFEA"/>
<path d="M63.9234 58.0902L67.9234 58.0918L67.925 54.2502L64.0866 54.0935L63.9234 58.0902ZM63.9218 58.0901L64.0849 54.0935L59.9169 53.9234L59.9218 58.0948L63.9218 58.0901ZM63.9234 58.0999L59.9234 58.0983L59.9234 58.1015L63.9234 58.0999ZM63.9234 58.1096L64.0866 62.1063L67.925 61.9496L67.9234 58.108L63.9234 58.1096ZM63.9218 58.1097L59.9218 58.105L59.9169 62.2764L64.0849 62.1063L63.9218 58.1097ZM53.4743 47.6597L53.3099 51.6563L57.4743 51.8276L57.4743 47.6597L53.4743 47.6597ZM75.3243 47.65L79.3243 47.6531L79.3243 47.65L75.3243 47.65ZM75.3243 47.6596L71.3243 47.6565L71.3212 51.4989L75.1604 51.6563L75.3243 47.6596ZM75.3243 68.5402L75.1604 64.5435L71.3212 64.7009L71.3243 68.5433L75.3243 68.5402ZM75.3243 68.5498L79.3243 68.5498L79.3243 68.5467L75.3243 68.5498ZM53.4743 68.5401L57.4743 68.5401L57.4743 64.3721L53.3098 64.5435L53.4743 68.5401ZM64.0866 54.0935C64.0861 54.0935 64.0857 54.0935 64.0855 54.0935C64.0851 54.0935 64.085 54.0935 64.0849 54.0935L63.7586 62.0868C63.7591 62.0868 63.7595 62.0869 63.7597 62.0869C63.76 62.0869 63.7602 62.0869 63.7603 62.0869L64.0866 54.0935ZM67.9234 58.1015L67.9234 58.0918L59.9234 58.0886L59.9234 58.0983L67.9234 58.1015ZM67.9234 58.108L67.9234 58.0983L59.9234 58.1015L59.9234 58.1112L67.9234 58.108ZM64.0849 62.1063C64.085 62.1063 64.0851 62.1063 64.0855 62.1063C64.0857 62.1063 64.0861 62.1063 64.0866 62.1063L63.7603 54.1129C63.7602 54.1129 63.76 54.1129 63.7597 54.1129C63.7595 54.1129 63.7591 54.113 63.7586 54.113L64.0849 62.1063ZM59.9218 58.0999C59.9218 58.1004 59.9218 58.1013 59.9218 58.105L67.9218 58.1143C67.9218 58.1115 67.9218 58.1059 67.9218 58.0999L59.9218 58.0999ZM59.9218 58.0948C59.9218 58.0985 59.9218 58.0994 59.9218 58.0999L67.9218 58.0999C67.9218 58.0939 67.9218 58.0883 67.9218 58.0855L59.9218 58.0948ZM57.4743 47.6597C57.4743 47.6567 57.4743 47.6539 57.4743 47.6525C57.4743 47.6507 57.4743 47.6502 57.4743 47.6499L49.4743 47.6499C49.4743 47.6529 49.4743 47.6557 49.4743 47.6572C49.4743 47.659 49.4743 47.6594 49.4743 47.6597L57.4743 47.6597ZM57.4743 47.6499C57.4743 44.2534 60.4053 41.2 64.3993 41.2L64.3993 33.2C56.3259 33.1999 49.4743 39.5037 49.4743 47.6499L57.4743 47.6499ZM64.3993 41.2C68.3933 41.2 71.3243 44.2534 71.3243 47.65L79.3243 47.65C79.3243 39.5037 72.4727 33.2 64.3993 33.2L64.3993 41.2ZM71.3243 47.6468L71.3243 47.6565L79.3243 47.6628L79.3243 47.6531L71.3243 47.6468ZM75.1604 51.6563C78.9982 51.8136 81.7734 54.7911 81.7734 58.0999L89.7734 58.0999C89.7734 50.1709 83.2762 43.9822 75.4881 43.663L75.1604 51.6563ZM81.7734 58.0999C81.7734 61.4087 78.9982 64.3862 75.1604 64.5435L75.4881 72.5368C83.2762 72.2176 89.7734 66.0289 89.7734 58.0999L81.7734 58.0999ZM71.3243 68.5433L71.3243 68.553L79.3243 68.5467L79.3243 68.537L71.3243 68.5433ZM71.3243 68.5498C71.3243 71.9464 68.3933 74.9998 64.3993 74.9998L64.3993 82.9998C72.4727 82.9998 79.3243 76.6961 79.3243 68.5498L71.3243 68.5498ZM64.3993 74.9998C60.4053 74.9998 57.4743 71.9464 57.4743 68.5498L49.4743 68.5498C49.4743 76.6961 56.3259 82.9998 64.3993 82.9998L64.3993 74.9998ZM57.4743 68.5498C57.4743 68.5496 57.4743 68.5491 57.4743 68.5473C57.4743 68.5459 57.4743 68.5431 57.4743 68.5401L49.4743 68.5401C49.4743 68.5404 49.4743 68.5408 49.4743 68.5426C49.4743 68.5441 49.4743 68.5469 49.4743 68.5498L57.4743 68.5498ZM53.3098 64.5435C53.2063 64.5477 53.1019 64.5499 52.9968 64.5499L52.9968 72.5499C53.2116 72.5499 53.4256 72.5455 53.6387 72.5367L53.3098 64.5435ZM52.9968 64.5499C49.0028 64.5499 46.0718 61.4964 46.0718 58.0999L38.0718 58.0999C38.0718 66.2461 44.9233 72.5499 52.9968 72.5499L52.9968 64.5499ZM46.0718 58.0999C46.0718 54.7034 49.0028 51.6499 52.9968 51.6499L52.9968 43.6499C44.9233 43.6499 38.0718 49.9537 38.0718 58.0999L46.0718 58.0999ZM52.9968 51.6499C53.1019 51.6499 53.2063 51.6521 53.3099 51.6563L53.6387 43.6631C53.4256 43.6543 53.2116 43.6499 52.9968 43.6499L52.9968 51.6499Z" fill="#26734E" mask="url(#path-3-outside-2_2926_6903)"/>
</svg>
