<svg width="90" height="85" viewBox="0 0 90 85" fill="none" xmlns="http://www.w3.org/2000/svg">
<path d="M41.9492 28L42.2236 28.5618C47.9049 40.1906 56.8653 49.9026 68 56.5V56.5V56.5C56.8653 63.0974 47.9049 72.8094 42.2236 84.4382L41.9492 85L41.4591 84.0881C35.3149 72.6552 26.1664 63.1163 15 56.5V56.5V56.5C26.1664 49.8837 35.3149 40.3448 41.4591 28.9119L41.9492 28Z" fill="#F9FFEA"/>
<path d="M64.2278 56.5C54.9099 62.6371 47.2359 70.9648 41.8793 80.7533C36.1542 70.9929 28.2473 62.692 18.7818 56.5C28.2473 50.308 36.1542 42.0071 41.8793 32.2467C47.2359 42.0352 54.9099 50.3629 64.2278 56.5Z" stroke="#26734E" stroke-width="4"/>
<path d="M19.4815 13V13C21.9813 18.6247 26.2433 23.2833 31.6239 26.2725L32 26.4815V26.4815C26.4214 28.9609 21.9609 33.4214 19.4815 39V39L19.2725 38.6239C16.2833 33.2433 11.6247 28.9813 6 26.4815V26.4815V26.4815C11.6644 23.3346 16.3346 18.6644 19.4815 13V13Z" fill="#F9FFEA"/>
<path d="M19.3242 17.036C21.5188 20.7149 24.4689 23.8899 27.9806 26.3493C24.4751 28.5198 21.5198 31.4751 19.3493 34.9806C16.8899 31.4689 13.7149 28.5188 10.036 26.3242C13.6653 23.812 16.812 20.6653 19.3242 17.036Z" stroke="#26734E" stroke-width="4"/>
<path d="M67.5 3L67.5823 3.14732C72.1709 11.3642 78.8756 18.203 87 22.9535V22.9535V22.9535C78.909 27.0931 72.226 33.5372 67.7948 41.4722L67.5 42L67.2052 41.4722C62.774 33.5372 56.091 27.0931 48 22.9535V22.9535V22.9535C56.1244 18.203 62.8291 11.3642 67.4177 3.14732L67.5 3Z" fill="#F9FFEA"/>
<path d="M83.0786 22.8523C76.7909 26.662 71.4594 31.8679 67.5 38.069C63.5406 31.8679 58.2091 26.662 51.9214 22.8523C58.1528 18.6625 63.4563 13.2339 67.5 6.90503C71.5437 13.2339 76.8472 18.6625 83.0786 22.8523Z" stroke="#26734E" stroke-width="4"/>
</svg>
