<svg width="280" height="280" viewBox="0 0 280 280" fill="none" xmlns="http://www.w3.org/2000/svg">
<path d="M18.9526 100.238C44.9387 89.2565 62.7897 64.6831 65.1905 36.5047C92.6776 42.9225 121.515 33.5512 140 12.1626C158.485 33.5512 187.322 42.9225 214.81 36.5047C217.21 64.6831 235.061 89.2565 261.047 100.238C246.45 124.444 246.45 154.813 261.047 179.02C235.061 190.001 217.21 214.574 214.81 242.753C187.322 236.335 158.485 245.706 140 267.095C121.515 245.706 92.6776 236.335 65.1905 242.753C62.7897 214.574 44.9387 190.001 18.9526 179.02C33.5503 154.813 33.5503 124.444 18.9526 100.238Z" stroke="#AFFAAE" stroke-width="5.30919"/>
<path d="M221.473 139.265C221.473 184.405 184.88 220.998 139.74 220.998C94.5994 220.998 58.0062 184.405 58.0062 139.265C58.0062 94.1248 94.5994 57.5315 139.74 57.5315C184.88 57.5315 221.473 94.1248 221.473 139.265Z" stroke="#AFFAAE" stroke-width="5.30919"/>
</svg>
