<svg width="90" height="85" viewBox="0 0 90 85" fill="none" xmlns="http://www.w3.org/2000/svg">
<g clip-path="url(#clip0_2926_6922)">
<path d="M48 28.1074H68.1065H88.213" stroke="#26734E" stroke-width="4"/>
<path d="M68.0293 48.2129L68.0293 28.1064L68.0293 7.99984" stroke="#26734E" stroke-width="4"/>
<path d="M82.3242 42.3241L68.1068 28.1066L53.8893 13.8892" stroke="#26734E" stroke-width="4"/>
<path d="M53.8887 42.3241L68.1061 28.1066L82.3236 13.8892" stroke="#26734E" stroke-width="4"/>
<path d="M2 22.1055H22.1065H42.213" stroke="#26734E" stroke-width="4"/>
<path d="M22.0293 42.2129L22.0293 22.1064L22.0293 1.99984" stroke="#26734E" stroke-width="4"/>
<path d="M36.3242 36.3241L22.1068 22.1066L7.8893 7.88918" stroke="#26734E" stroke-width="4"/>
<path d="M7.89062 36.3242L22.1081 22.1068L36.3255 7.8893" stroke="#26734E" stroke-width="4"/>
<path d="M20 65.1074H40.1065H60.213" stroke="#26734E" stroke-width="4"/>
<path d="M40.0293 85.2129L40.0293 65.1064L40.0293 44.9998" stroke="#26734E" stroke-width="4"/>
<path d="M54.3242 79.3241L40.1068 65.1066L25.8893 50.8892" stroke="#26734E" stroke-width="4"/>
<path d="M25.8906 79.3242L40.1081 65.1068L54.3255 50.8893" stroke="#26734E" stroke-width="4"/>
</g>
<defs>
<clipPath id="clip0_2926_6922">
<rect width="90" height="85" fill="white"/>
</clipPath>
</defs>
</svg>
