<svg width="40" height="40" viewBox="0 0 40 40" fill="none" xmlns="http://www.w3.org/2000/svg">
<mask id="mask0_2941_7219" style="mask-type:alpha" maskUnits="userSpaceOnUse" x="0" y="0" width="40" height="40">
<circle cx="20" cy="20" r="20" fill="#60757E"/>
</mask>
<g mask="url(#mask0_2941_7219)">
<path d="M45.8588 4.45175C45.2436 2.15175 43.4304 0.338493 41.1304 -0.276624C36.9583 -1.39453 20.2325 -1.39453 20.2325 -1.39453C20.2325 -1.39453 3.50665 -1.39453 -0.665439 -0.276624C-2.96544 0.338493 -4.7787 2.15175 -5.39381 4.45175C-6.51172 8.62384 -6.51172 20.0008 -6.51172 20.0008C-6.51172 20.0008 -6.51172 31.3778 -5.39381 35.5499C-4.7787 37.8499 -2.96544 39.6631 -0.665439 40.2783C3.50665 41.3962 20.2325 41.3962 20.2325 41.3962C20.2325 41.3962 36.9583 41.3962 41.1304 40.2783C43.433 39.6631 45.2436 37.8499 45.8588 35.5499C46.9767 31.3778 46.9767 20.0008 46.9767 20.0008C46.9767 20.0008 46.9767 8.62384 45.8588 4.45175ZM14.8836 26.949V13.0527C14.8836 12.023 15.9989 11.3812 16.8894 11.8947L28.9243 18.8428C29.8149 19.3563 29.8149 20.6454 28.9243 21.1588L16.8894 28.107C15.9989 28.6231 14.8836 27.9786 14.8836 26.949Z" fill="#F9FFEA"/>
</g>
</svg>
