<svg width="158" height="185" viewBox="0 0 158 185" fill="none" xmlns="http://www.w3.org/2000/svg">
<path fill-rule="evenodd" clip-rule="evenodd" d="M127.61 154.259C143.464 154.259 156.317 141.425 156.317 125.593C156.317 109.761 143.464 96.9265 127.61 96.9265C111.755 96.9265 98.9023 109.761 98.9023 125.593C98.9023 141.425 111.755 154.259 127.61 154.259ZM127.721 150.004C141.16 150.004 152.054 139.125 152.054 125.705C152.054 112.285 141.16 101.406 127.721 101.406C114.281 101.406 103.387 112.285 103.387 125.705C103.387 139.125 114.281 150.004 127.721 150.004Z" fill="#FFFAB1"/>
<path d="M155.321 125.593C155.321 140.873 142.915 153.263 127.61 153.263V155.255C144.013 155.255 157.313 141.976 157.313 125.593H155.321ZM127.61 97.9225C142.915 97.9225 155.321 110.312 155.321 125.593H157.313C157.313 109.209 144.013 95.9306 127.61 95.9306V97.9225ZM99.8983 125.593C99.8983 110.312 112.304 97.9225 127.61 97.9225V95.9306C111.206 95.9306 97.9064 109.209 97.9064 125.593H99.8983ZM127.61 153.263C112.304 153.263 99.8983 140.873 99.8983 125.593H97.9064C97.9064 141.976 111.206 155.255 127.61 155.255V153.263ZM151.058 125.705C151.058 138.573 140.611 149.008 127.721 149.008V151C141.708 151 153.05 139.676 153.05 125.705H151.058ZM127.721 102.401C140.611 102.401 151.058 112.836 151.058 125.705H153.05C153.05 111.733 141.708 100.41 127.721 100.41V102.401ZM104.383 125.705C104.383 112.836 114.83 102.401 127.721 102.401V100.41C113.733 100.41 102.391 111.733 102.391 125.705H104.383ZM127.721 149.008C114.83 149.008 104.383 138.573 104.383 125.705H102.391C102.391 139.676 113.733 151 127.721 151V149.008Z" fill="#FFFAB1"/>
<path d="M11.8108 127.587C7.27589 111.914 6.80023 95.3621 10.4045 79.4831H120.138C123.785 95.4251 123.539 112.028 119.399 127.88L106.236 178.293C105.914 179.528 104.799 180.389 103.523 180.389H28.9935C27.8652 180.389 26.8728 179.643 26.5592 178.559L11.8108 127.587Z" fill="#A7EF9B" stroke="#FFFAB1" stroke-width="7.96761"/>
<path d="M51.0392 1.37256L46.2153 19.572C44.6851 25.345 45.6645 31.4956 48.912 36.5078V36.5078C52.2982 41.734 53.2116 48.186 51.4093 54.1467L48.6303 63.3377" stroke="#FFFAB1" stroke-width="7.96761"/>
<path d="M84.0978 1.37256L79.2739 19.572C77.7437 25.345 78.7231 31.4956 81.9706 36.5078V36.5078C85.3568 41.734 86.2702 48.186 84.4679 54.1467L81.6889 63.3377" stroke="#FFFAB1" stroke-width="7.96761"/>
</svg>
