<svg width="538" height="232" viewBox="0 0 538 232" fill="none" xmlns="http://www.w3.org/2000/svg">
<path d="M437.859 147.482C433.367 147.482 429.599 146.665 426.554 145.032C423.547 143.361 421.264 141.171 419.705 138.461C418.183 135.751 417.422 132.781 417.422 129.551C417.422 126.396 418.016 123.667 419.204 121.365C420.429 119.027 422.137 117.096 424.327 115.574C426.517 114.015 429.135 112.79 432.179 111.899C435.037 111.119 438.23 110.451 441.757 109.894C445.321 109.3 448.922 108.762 452.56 108.279C456.198 107.796 459.595 107.332 462.75 106.887L459.186 108.947C459.298 103.601 458.221 99.6478 455.957 97.0862C453.729 94.5247 449.868 93.2439 444.374 93.2439C440.736 93.2439 437.543 94.0792 434.796 95.7498C432.086 97.3832 430.174 100.056 429.06 103.769L419.649 100.929C421.097 95.6569 423.9 91.5176 428.058 88.5106C432.216 85.5035 437.692 84 444.485 84C449.943 84 454.62 84.9838 458.518 86.9514C462.453 88.8818 465.275 91.8146 466.982 95.7498C467.836 97.606 468.375 99.6292 468.597 101.82C468.82 103.973 468.931 106.237 468.931 108.613V147.811H460.133V131.389L462.193 132.725C459.929 137.589 456.755 141.264 452.671 143.751C448.625 146.238 443.687 147.482 437.859 147.482ZM439.362 139.185C442.926 139.185 446.007 138.554 448.606 137.292C451.242 135.992 453.358 134.303 454.954 132.224C456.551 130.108 457.59 127.806 458.073 125.319C458.63 123.463 458.927 121.402 458.964 119.138C459.038 116.836 459.075 115.073 459.075 113.848L462.528 115.351C459.298 115.797 456.124 116.224 453.005 116.632C449.887 117.04 446.935 117.486 444.151 117.968C441.367 118.414 438.861 118.952 436.634 119.583C435 120.103 433.459 120.771 432.012 121.588C430.601 122.405 429.45 123.463 428.559 124.762C427.705 126.024 427.278 127.602 427.278 129.495C427.278 131.129 427.687 132.688 428.503 134.173C429.357 135.658 430.657 136.865 432.401 137.793C434.183 138.721 436.504 139.185 439.362 139.185Z" fill="#26734E"/>
<path d="M384.007 146.858C378.401 146.858 373.593 145.466 369.584 142.682C365.575 139.861 362.475 136.055 360.284 131.266C358.131 126.477 357.055 121.076 357.055 115.062C357.055 109.048 358.131 103.646 360.284 98.8571C362.475 94.0681 365.575 90.3 369.584 87.5528C373.593 84.7685 378.382 83.3764 383.951 83.3764C389.631 83.3764 394.401 84.75 398.262 87.4972C402.123 90.2443 405.038 94.0124 407.005 98.8014C409.01 103.59 410.012 109.011 410.012 115.062C410.012 121.039 409.01 126.44 407.005 131.266C405.038 136.055 402.123 139.861 398.262 142.682C394.401 145.466 389.65 146.858 384.007 146.858ZM385.232 137.782C389.278 137.782 392.601 136.816 395.2 134.886C397.798 132.918 399.71 130.227 400.935 126.812C402.198 123.359 402.829 119.442 402.829 115.062C402.829 110.607 402.198 106.69 400.935 103.312C399.71 99.8966 397.817 97.2422 395.255 95.3489C392.694 93.4184 389.445 92.4532 385.51 92.4532C381.427 92.4532 378.048 93.4556 375.375 95.4603C372.74 97.465 370.772 100.175 369.473 103.59C368.21 107.006 367.579 110.83 367.579 115.062C367.579 119.331 368.229 123.192 369.528 126.644C370.828 130.06 372.777 132.77 375.375 134.775C378.011 136.779 381.297 137.782 385.232 137.782ZM402.829 147.188V100.917H401.715V64H411.683V147.188H402.829Z" fill="#26734E"/>
<path d="M341.667 147.7V115.574C341.667 112.715 341.407 109.968 340.888 107.332C340.405 104.697 339.533 102.339 338.27 100.26C337.045 98.1443 335.375 96.4737 333.259 95.2486C331.18 94.0235 328.544 93.4109 325.351 93.4109C322.864 93.4109 320.599 93.8379 318.558 94.6917C316.553 95.5084 314.827 96.7707 313.379 98.4784C311.931 100.186 310.799 102.339 309.982 104.938C309.202 107.5 308.813 110.525 308.813 114.015L302.297 112.01C302.297 106.182 303.337 101.188 305.416 97.0305C307.532 92.8355 310.483 89.6243 314.27 87.3968C318.094 85.1323 322.586 84 327.746 84C331.644 84 334.966 84.6125 337.714 85.8376C340.461 87.0627 342.744 88.6962 344.563 90.738C346.382 92.7427 347.811 95.0073 348.851 97.5317C349.89 100.019 350.614 102.562 351.023 105.161C351.468 107.722 351.691 110.154 351.691 112.456V147.7H341.667ZM298.789 147.7V84.5592H307.699V101.652H308.813V147.7H298.789Z" fill="#26734E"/>
<path d="M287.073 125.211L290 126.934C283.17 140.978 276.119 148 268.846 148C263.613 148 260.997 144.467 260.997 137.401C260.997 135.811 261.484 132.984 262.46 128.921C259.888 134.927 256.473 139.609 252.216 142.965C247.958 146.322 243.435 148 238.645 148C233.412 148 229.332 146.189 226.405 142.568C223.478 138.946 222.015 133.956 222.015 127.596C221.837 120.795 223.257 113.95 226.272 107.06C229.377 100.17 233.501 94.5173 238.645 90.1009C243.878 85.5962 249.244 83.4322 254.743 83.6088C258.823 83.6088 262.15 85.0221 264.722 87.8486C267.294 90.5867 268.802 94.4732 269.245 99.5079L272.97 84.4668H285.477L274.966 123.621C272.926 131.041 271.906 136.032 271.906 138.593C271.906 140.801 272.882 141.905 274.833 141.905C276.341 141.905 278.203 140.315 280.421 137.136C282.904 133.691 285.122 129.716 287.073 125.211ZM243.302 143.098C247.47 143.098 251.373 140.757 255.01 136.076C258.646 131.571 261.484 126.139 263.524 119.779C265.476 113.685 266.451 107.987 266.451 102.688C266.451 98.0063 265.609 94.4732 263.923 92.0883C262.238 89.7035 260.021 88.511 257.271 88.511C253.103 88.511 249.156 90.9401 245.43 95.7981C241.883 100.568 239.089 106.088 237.049 112.36C235.097 118.454 234.122 124.196 234.122 129.584C234.122 138.593 237.182 143.098 243.302 143.098ZM281.618 64L280.022 71.1546H244.765L246.362 64H281.618Z" fill="#26734E"/>
<path d="M65.073 40.7609L68 42.4417C61.1704 56.1473 54.1191 63 46.8461 63C41.6131 63 38.9965 59.5521 38.9965 52.6562C38.9965 51.1046 39.4844 48.3463 40.46 44.3812C37.8878 50.2427 34.473 54.8112 30.2157 58.0867C25.9583 61.3622 21.4348 63 16.6452 63C11.4122 63 7.33218 61.2329 4.40522 57.6988C1.47826 54.1647 0.0147826 49.2945 0.0147826 43.0882C-0.162609 36.451 1.25652 29.7706 4.27217 23.0472C7.37652 16.3237 11.5009 10.807 16.6452 6.49711C21.8783 2.101 27.2444 -0.0108494 32.7435 0.161547C36.8235 0.161547 40.1496 1.54072 42.7218 4.29906C45.2939 6.9712 46.8018 10.7639 47.2452 15.6772L50.9704 0H63.4765L52.9661 39.2093C50.9261 46.45 49.9061 51.3202 49.9061 53.8199C49.9061 55.9749 50.8817 57.0523 52.8331 57.0523C54.3409 57.0523 56.2035 55.5008 58.4209 52.3976C60.9043 49.0359 63.1217 45.157 65.073 40.7609ZM21.3017 58.216C25.4704 58.216 29.3731 55.9318 33.0096 51.3633C36.6461 46.9672 39.4844 41.666 41.5244 35.4597C43.4757 29.512 44.4513 23.9522 44.4513 18.7804C44.4513 14.2119 43.6087 10.7639 41.9235 8.43657C40.2383 6.10922 38.0209 4.94555 35.2713 4.94555C31.1026 4.94555 27.1556 7.316 23.4304 12.0569C19.8826 16.7116 17.0887 22.099 15.0487 28.219C13.0974 34.1667 12.1217 39.7696 12.1217 45.0277C12.1217 53.8199 15.1817 58.216 21.3017 58.216Z" fill="#A7EF9B"/>
<path d="M65.0731 208.699L68 210.46C61.1704 224.82 54.1191 232 46.8461 232C41.6131 232 38.9965 228.387 38.9965 221.162C38.9965 219.537 39.4844 216.647 40.46 212.492C37.8878 218.634 34.473 223.42 30.2157 226.852C25.9583 230.284 21.4348 232 16.6452 232C11.4122 232 7.33218 230.149 4.40522 226.446C1.47826 222.743 0.0147826 217.64 0.0147826 211.137C-0.162609 204.183 1.25652 197.184 4.27217 190.14C7.37652 183.095 11.5009 177.315 16.6452 172.799C21.8783 168.193 27.2444 165.981 32.7435 166.161C36.8235 166.161 40.1496 167.606 42.7218 170.496C45.2939 173.296 46.8018 177.27 47.2452 182.418L50.9704 166H63.4765L52.9661 207.073C50.9261 214.66 49.9061 219.762 49.9061 222.382C49.9061 224.639 50.8818 225.768 52.8331 225.768C54.3409 225.768 56.2035 224.143 58.4209 220.891C60.9043 217.369 63.1218 213.305 65.0731 208.699ZM21.3017 226.988C25.4704 226.988 29.3731 224.594 33.0096 219.808C36.6461 215.202 39.4844 209.647 41.5244 203.145C43.4757 196.913 44.4513 191.088 44.4513 185.669C44.4513 180.882 43.6087 177.27 41.9235 174.831C40.2383 172.393 38.0209 171.174 35.2713 171.174C31.1026 171.174 27.1556 173.657 23.4304 178.625C19.8826 183.501 17.0887 189.146 15.0487 195.558C13.0974 201.79 12.1217 207.66 12.1217 213.17C12.1217 222.382 15.1817 226.988 21.3017 226.988Z" fill="#A7EF9B"/>
<path d="M534.116 208.408L537 210.115C530.271 224.038 523.323 231 516.157 231C511.001 231 508.423 227.497 508.423 220.492C508.423 218.916 508.904 216.114 509.865 212.086C507.331 218.04 503.966 222.681 499.771 226.009C495.577 229.336 491.12 231 486.4 231C481.244 231 477.224 229.205 474.34 225.615C471.457 222.024 470.015 217.077 470.015 210.772C469.84 204.03 471.238 197.243 474.209 190.413C477.268 183.583 481.332 177.979 486.4 173.6C491.557 169.134 496.844 166.989 502.262 167.164C506.282 167.164 509.559 168.565 512.093 171.367C514.628 174.082 516.113 177.935 516.55 182.926L520.221 167H532.543L522.187 206.832C520.177 214.187 519.172 219.135 519.172 221.674C519.172 223.863 520.133 224.958 522.056 224.958C523.542 224.958 525.377 223.382 527.562 220.229C530.009 216.814 532.193 212.874 534.116 208.408ZM490.988 226.14C495.096 226.14 498.941 223.82 502.524 219.179C506.107 214.713 508.904 209.327 510.914 203.023C512.836 196.98 513.798 191.332 513.798 186.078C513.798 181.437 512.967 177.935 511.307 175.57C509.647 173.206 507.462 172.024 504.753 172.024C500.645 172.024 496.756 174.432 493.086 179.248C489.59 183.977 486.837 189.45 484.827 195.667C482.905 201.709 481.943 207.401 481.943 212.742C481.943 221.674 484.958 226.14 490.988 226.14Z" fill="#A7EF9B"/>
<path d="M534.274 41.3457L537.18 43.0507C530.4 56.9529 523.401 63.904 516.181 63.904C510.987 63.904 508.389 60.4066 508.389 53.4118C508.389 51.8379 508.874 49.04 509.842 45.018C507.289 50.9636 503.899 55.5976 499.673 58.9202C495.447 62.2427 490.957 63.904 486.203 63.904C481.008 63.904 476.958 62.1116 474.053 58.5267C471.147 54.9419 469.694 50.0018 469.694 43.7065C469.518 36.974 470.927 30.1978 473.92 23.3779C477.002 16.5579 481.096 10.9621 486.203 6.59034C491.397 2.13115 496.724 -0.0110051 502.182 0.163865C506.232 0.163865 509.534 1.56282 512.087 4.36074C514.641 7.07123 516.137 10.9184 516.578 15.9022L520.275 0H532.689L522.256 39.7719C520.231 47.1165 519.219 52.0565 519.219 54.5921C519.219 56.778 520.187 57.871 522.124 57.871C523.621 57.871 525.47 56.2971 527.671 53.1495C530.136 49.7395 532.337 45.8049 534.274 41.3457ZM490.825 59.0513C494.963 59.0513 498.837 56.7343 502.447 52.1003C506.056 47.6411 508.874 42.2638 510.899 35.9685C512.836 29.9355 513.804 24.2959 513.804 19.0498C513.804 14.4158 512.968 10.9184 511.295 8.55763C509.622 6.19688 507.421 5.01651 504.692 5.01651C500.554 5.01651 496.636 7.42097 492.938 12.2299C489.416 16.9514 486.643 22.4161 484.618 28.624C482.681 34.657 481.712 40.3402 481.712 45.6738C481.712 54.5921 484.75 59.0513 490.825 59.0513Z" fill="#A7EF9B"/>
<path d="M191 148V84.4745H199.849V99.8265L198.402 97.8266C199.107 95.8659 200.016 94.0621 201.129 92.4152C202.279 90.7682 203.56 89.4154 204.969 88.3566C206.528 87.0233 208.29 86.0038 210.257 85.298C212.223 84.5921 214.227 84.1804 216.268 84.0627C218.308 83.9059 220.219 84.0431 222 84.4745V94.2974C219.922 93.7092 217.64 93.5524 215.154 93.8268C212.668 94.1013 210.368 95.0621 208.253 96.709C206.324 98.1599 204.821 99.9245 203.745 102.003C202.706 104.081 201.983 106.336 201.575 108.767C201.166 111.159 200.962 113.61 200.962 116.12V148H191Z" fill="#26734E"/>
<path d="M153.293 147.482C147.39 147.482 142.23 146.183 137.812 143.584C133.431 140.948 130.016 137.292 127.566 132.614C125.116 127.899 123.891 122.405 123.891 116.131C123.891 109.56 125.097 103.88 127.51 99.0909C129.923 94.2648 133.283 90.5524 137.589 87.9537C141.933 85.3179 147.019 84 152.847 84C158.899 84 164.04 85.3922 168.272 88.1764C172.542 90.9608 175.734 94.933 177.85 100.093C180.004 105.254 180.932 111.398 180.635 118.525H170.611V114.961C170.5 107.574 168.996 102.061 166.101 98.4227C163.205 94.7474 158.899 92.9098 153.181 92.9098C147.056 92.9098 142.397 94.8773 139.204 98.8125C136.012 102.748 134.415 108.39 134.415 115.741C134.415 122.832 136.012 128.326 139.204 132.224C142.397 136.122 146.945 138.071 152.847 138.071C156.82 138.071 160.272 137.162 163.205 135.343C166.138 133.523 168.439 130.906 170.11 127.491L179.632 130.776C177.294 136.085 173.767 140.206 169.052 143.139C164.374 146.034 159.121 147.482 153.293 147.482ZM131.074 118.525V110.562H175.512V118.525H131.074Z" fill="#26734E"/>
<path d="M90.5072 148L69 84H78.8758L95.5 134.548L112.069 84H122L100.493 148H90.5072Z" fill="#26734E"/>
<line x1="68" y1="147.5" x2="469" y2="147.5" stroke="#26734E"/>
<line x1="67.9453" y1="83.5" x2="468.926" y2="83.5" stroke="#26734E"/>
<line x1="0.181086" y1="62.5" x2="537.181" y2="64.0017" stroke="#26734E"/>
<line x1="-4.37114e-08" y1="231.5" x2="538" y2="231.5" stroke="#26734E"/>
<line y1="166.5" x2="537" y2="166.5" stroke="#26734E"/>
<line x1="68.5" y1="2.18557e-08" x2="68.5" y2="231" stroke="#26734E"/>
<line x1="537.5" y1="1" x2="537.5" y2="231" stroke="#26734E"/>
<line x1="469.43" y1="-2.18557e-08" x2="469.43" y2="230.819" stroke="#26734E"/>
</svg>
