<svg width="422" height="359" viewBox="0 0 422 359" fill="none" xmlns="http://www.w3.org/2000/svg">
<g clip-path="url(#clip0_758_205)">
<mask id="path-1-inside-1_758_205" fill="white">
<path fill-rule="evenodd" clip-rule="evenodd" d="M9.8803 315.346L83.3518 257.41H225.534L299.005 315.345C318.176 330.462 307.486 361.281 283.073 361.281H25.8126C1.39934 361.281 -9.28993 330.462 9.8803 315.346Z"/>
</mask>
<path fill-rule="evenodd" clip-rule="evenodd" d="M9.8803 315.346L83.3518 257.41H225.534L299.005 315.345C318.176 330.462 307.486 361.281 283.073 361.281H25.8126C1.39934 361.281 -9.28993 330.462 9.8803 315.346Z" fill="#57F0A0"/>
<path d="M83.3518 257.41V255.16H82.5714L81.9586 255.643L83.3518 257.41ZM9.8803 315.346L8.48711 313.579L8.48711 313.579L9.8803 315.346ZM225.534 257.41L226.927 255.643L226.314 255.16H225.534V257.41ZM299.005 315.345L297.612 317.112L297.612 317.112L299.005 315.345ZM81.9586 255.643L8.48711 313.579L11.2735 317.112L84.745 259.177L81.9586 255.643ZM225.534 255.16H83.3518V259.66H225.534V255.16ZM300.399 313.579L226.927 255.643L224.141 259.177L297.612 317.112L300.399 313.579ZM283.073 363.531C309.621 363.531 321.245 330.017 300.399 313.579L297.612 317.112C315.106 330.907 305.352 359.031 283.073 359.031V363.531ZM25.8126 363.531H283.073V359.031H25.8126V363.531ZM8.48711 313.579C-12.3595 330.017 -0.735442 363.531 25.8126 363.531V359.031C3.53413 359.031 -6.2204 330.907 11.2735 317.112L8.48711 313.579Z" fill="#155335" mask="url(#path-1-inside-1_758_205)"/>
<mask id="path-3-inside-2_758_205" fill="white">
<path fill-rule="evenodd" clip-rule="evenodd" d="M9.8803 214.917L83.3518 156.982H225.534L299.005 214.917C318.176 230.034 307.486 260.852 283.073 260.852H25.8126C1.39934 260.852 -9.28993 230.034 9.8803 214.917Z"/>
</mask>
<path fill-rule="evenodd" clip-rule="evenodd" d="M9.8803 214.917L83.3518 156.982H225.534L299.005 214.917C318.176 230.034 307.486 260.852 283.073 260.852H25.8126C1.39934 260.852 -9.28993 230.034 9.8803 214.917Z" fill="#57F0A0"/>
<path d="M83.3518 156.982V154.732H82.5714L81.9586 155.215L83.3518 156.982ZM9.8803 214.917L8.48711 213.15L8.48711 213.15L9.8803 214.917ZM225.534 156.982L226.927 155.215L226.314 154.732H225.534V156.982ZM299.005 214.917L297.612 216.684L297.612 216.684L299.005 214.917ZM81.9586 155.215L8.48711 213.15L11.2735 216.684L84.7449 158.749L81.9586 155.215ZM225.534 154.732H83.3518V159.232H225.534V154.732ZM300.399 213.15L226.927 155.215L224.141 158.749L297.612 216.684L300.399 213.15ZM283.073 263.102C309.621 263.102 321.245 229.589 300.399 213.15L297.612 216.684C315.106 230.479 305.352 258.602 283.073 258.602V263.102ZM25.8126 263.102H283.073V258.602H25.8126V263.102ZM8.48711 213.15C-12.3595 229.589 -0.735442 263.102 25.8126 263.102V258.602C3.53413 258.602 -6.2204 230.479 11.2735 216.684L8.48711 213.15Z" fill="#155335" mask="url(#path-3-inside-2_758_205)"/>
<path d="M169.677 13.4466L298.308 114.877C316.64 129.332 306.418 158.804 283.072 158.804H25.8116C2.46577 158.804 -7.75613 129.332 10.5759 114.877L139.206 13.4466C148.141 6.40081 160.742 6.4008 169.677 13.4466Z" fill="#57F0A0" stroke="#155335" stroke-width="2.25"/>
<mask id="path-6-inside-3_758_205" fill="white">
<path fill-rule="evenodd" clip-rule="evenodd" d="M185.663 322.879L221.931 293.205H312.316L348.584 322.879C364.508 335.908 355.295 361.718 334.72 361.718H199.527C178.952 361.718 169.739 335.908 185.663 322.879Z"/>
</mask>
<path fill-rule="evenodd" clip-rule="evenodd" d="M185.663 322.879L221.931 293.205H312.316L348.584 322.879C364.508 335.908 355.295 361.718 334.72 361.718H199.527C178.952 361.718 169.739 335.908 185.663 322.879Z" fill="#57F0A0"/>
<path d="M221.931 293.205V290.955H221.128L220.506 291.464L221.931 293.205ZM185.663 322.879L184.238 321.138L184.238 321.138L185.663 322.879ZM312.316 293.205L313.741 291.464L313.119 290.955H312.316V293.205ZM348.584 322.879L350.009 321.138L350.009 321.138L348.584 322.879ZM220.506 291.464L184.238 321.138L187.088 324.62L223.356 294.946L220.506 291.464ZM312.316 290.955H221.931V295.455H312.316V290.955ZM350.009 321.138L313.741 291.464L310.891 294.946L347.159 324.62L350.009 321.138ZM334.72 363.968C357.41 363.968 367.57 335.506 350.009 321.138L347.159 324.62C361.447 336.311 353.181 359.468 334.72 359.468V363.968ZM199.527 363.968H334.72V359.468H199.527V363.968ZM184.238 321.138C166.677 335.506 176.837 363.968 199.527 363.968V359.468C181.066 359.468 172.8 336.311 187.088 324.62L184.238 321.138Z" fill="#155335" mask="url(#path-6-inside-3_758_205)"/>
<mask id="path-8-inside-4_758_205" fill="white">
<path fill-rule="evenodd" clip-rule="evenodd" d="M185.663 256.107L221.931 226.433H312.316L348.584 256.107C364.508 269.137 355.295 294.946 334.72 294.946H199.527C178.952 294.946 169.739 269.137 185.663 256.107Z"/>
</mask>
<path fill-rule="evenodd" clip-rule="evenodd" d="M185.663 256.107L221.931 226.433H312.316L348.584 256.107C364.508 269.137 355.295 294.946 334.72 294.946H199.527C178.952 294.946 169.739 269.137 185.663 256.107Z" fill="#57F0A0"/>
<path d="M221.931 226.433V224.183H221.128L220.506 224.692L221.931 226.433ZM185.663 256.107L184.238 254.366L184.238 254.366L185.663 256.107ZM312.316 226.433L313.741 224.692L313.119 224.183H312.316V226.433ZM348.584 256.107L350.009 254.366L350.009 254.366L348.584 256.107ZM220.506 224.692L184.238 254.366L187.088 257.849L223.356 228.174L220.506 224.692ZM312.316 224.183H221.931V228.683H312.316V224.183ZM350.009 254.366L313.741 224.692L310.891 228.174L347.159 257.849L350.009 254.366ZM334.72 297.196C357.41 297.196 367.57 268.734 350.009 254.366L347.159 257.849C361.447 269.539 353.181 292.696 334.72 292.696V297.196ZM199.527 297.196H334.72V292.696H199.527V297.196ZM184.238 254.366C166.677 268.734 176.837 297.196 199.527 297.196V292.696C181.066 292.696 172.8 269.539 187.088 257.849L184.238 254.366Z" fill="#155335" mask="url(#path-8-inside-4_758_205)"/>
<path d="M280.277 135.214L347.873 190.521C362.979 202.881 354.239 227.364 334.721 227.364H199.529C180.011 227.364 171.271 202.881 186.377 190.521L253.973 135.214C261.624 128.955 272.626 128.955 280.277 135.214Z" fill="#57F0A0" stroke="#155335" stroke-width="2.25"/>
<path d="M381.138 382.302C381.138 399.94 374.479 414.239 366.264 414.239C358.05 414.239 351.391 399.94 351.391 382.302C351.391 364.663 358.05 350.364 366.264 350.364C374.479 350.364 381.138 364.663 381.138 382.302Z" fill="#26AB69"/>
<path d="M350.315 383.817C335.661 396.29 319.074 402.393 313.265 397.449C307.457 392.505 314.627 378.386 329.28 365.913C343.934 353.441 360.521 347.338 366.33 352.282C372.138 357.226 364.968 371.345 350.315 383.817Z" fill="#26AB69"/>
<path d="M382.214 383.817C396.868 396.29 413.456 402.393 419.264 397.449C425.073 392.505 417.902 378.386 403.249 365.913C388.596 353.441 372.008 347.338 366.199 352.282C360.391 357.226 367.561 371.345 382.214 383.817Z" fill="#26AB69"/>
<path d="M381.138 343.188C381.138 325.549 374.479 311.25 366.264 311.25C358.05 311.25 351.391 325.549 351.391 343.188C351.391 360.827 358.05 375.126 366.264 375.126C374.479 375.126 381.138 360.827 381.138 343.188Z" fill="#26AB69"/>
<path d="M350.315 341.674C335.661 329.202 319.074 323.099 313.265 328.043C307.457 332.987 314.627 347.106 329.28 359.578C343.934 372.051 360.521 378.154 366.33 373.21C372.138 368.266 364.968 354.147 350.315 341.674Z" fill="#26AB69"/>
<path d="M382.214 341.674C396.868 329.202 413.456 323.099 419.264 328.043C425.073 332.987 417.902 347.106 403.249 359.578C388.596 372.051 372.008 378.154 366.199 373.21C360.391 368.266 367.561 354.147 382.214 341.674Z" fill="#26AB69"/>
<path d="M93.8809 304.268C93.8809 300.623 96.8359 297.668 100.481 297.668H101.851C105.496 297.668 108.451 300.623 108.451 304.268V355.091C108.451 358.736 105.496 361.691 101.851 361.691H100.481C96.8359 361.691 93.8809 358.736 93.8809 355.091V304.268Z" fill="#26AB69"/>
<path d="M134.768 341.965C134.768 339.322 136.91 337.18 139.553 337.18V337.18C142.196 337.18 144.338 339.322 144.338 341.965V356.156C144.338 358.799 142.196 360.941 139.553 360.941V360.941C136.91 360.941 134.768 358.799 134.768 356.156V341.965Z" fill="#26AB69"/>
<path d="M96.8396 281.947C99.2709 279.958 102.767 279.958 105.199 281.947L136.855 307.848C141.655 311.775 138.878 319.556 132.675 319.556H69.3635C63.1606 319.556 60.3831 311.775 65.1838 307.848L96.8396 281.947Z" fill="#26AB69"/>
<path d="M135.237 330.37C137.668 328.381 141.164 328.381 143.596 330.37L152.567 337.71C157.367 341.638 154.59 349.418 148.387 349.418H130.446C124.243 349.418 121.465 341.638 126.266 337.71L135.237 330.37Z" fill="#26AB69"/>
</g>
<defs>
<clipPath id="clip0_758_205">
<rect width="422" height="359" fill="white"/>
</clipPath>
</defs>
</svg>
