<svg width="428" height="359" viewBox="0 0 428 359" fill="none" xmlns="http://www.w3.org/2000/svg">
<g clip-path="url(#clip0_758_248)">
<path d="M383.712 65.0723L420.143 203.131C424.347 219.067 426.5 235.92 426.5 252.909V271.828C426.5 294.042 420.803 315.517 410.447 332.341C397.878 352.76 379.584 364.5 360.335 364.5H119.452C107.2 364.5 95.1477 360.148 84.4227 351.851C61.3342 333.99 47 299.966 47 263.022V254.893C47 236.705 50.0733 218.776 55.9686 202.57L88.956 111.89C95.3525 94.3069 108.251 83.236 122.341 83.236C136.63 83.236 149.675 94.6197 155.973 112.585L172.925 160.941C178.195 175.971 189.109 185.495 201.063 185.495C212.902 185.495 223.73 176.154 229.057 161.347L267.011 55.8488C277.843 25.7422 299.859 6.75 323.929 6.75C350.608 6.75 374.464 30.0228 383.712 65.0723Z" fill="#57F0A0" stroke="#155335" stroke-width="2.25"/>
<path fill-rule="evenodd" clip-rule="evenodd" d="M276.761 122.662C268.756 116.113 257.244 116.113 249.239 122.662L145.013 207.939C129.207 220.871 138.352 246.489 158.775 246.489V246.489C168.657 246.489 176.668 254.5 176.668 264.383V345.387C176.668 357.389 186.397 367.119 198.399 367.119H326.615C338.617 367.119 348.347 357.389 348.347 345.387V265.368C348.347 254.942 356.799 246.489 367.225 246.489V246.489C387.648 246.489 396.793 220.871 380.987 207.939L276.761 122.662Z" fill="#26AB69"/>
<path fill-rule="evenodd" clip-rule="evenodd" d="M75.6035 234.416C71.2588 230.861 65.0107 230.861 60.666 234.416L4.09914 280.699C-4.47953 287.718 0.483674 301.621 11.5679 301.621V301.621C16.9324 301.621 21.2813 305.97 21.2813 311.335V355.297C21.2813 361.811 26.5618 367.091 33.0757 367.091H102.663C109.177 367.091 114.458 361.811 114.458 355.297V311.866C114.458 306.208 119.044 301.621 124.702 301.621V301.621C135.786 301.621 140.749 287.718 132.17 280.699L75.6035 234.416Z" fill="#26AB69"/>
</g>
<defs>
<clipPath id="clip0_758_248">
<rect width="428" height="359" fill="white"/>
</clipPath>
</defs>
</svg>
