<svg width="61" height="61" viewBox="0 0 61 61" fill="none" xmlns="http://www.w3.org/2000/svg">
<mask id="mask0_1610_77" style="mask-type:alpha" maskUnits="userSpaceOnUse" x="0" y="0" width="61" height="61">
<circle cx="30.2891" cy="30.666" r="30" fill="#60757E"/>
</mask>
<g mask="url(#mask0_1610_77)">
<path d="M69.0713 7.34266C68.1487 3.89266 65.4288 1.17278 61.9788 0.250104C55.7206 -1.42676 30.6319 -1.42676 30.6319 -1.42676C30.6319 -1.42676 5.54318 -1.42676 -0.714956 0.250104C-4.16496 1.17278 -6.88484 3.89266 -7.80751 7.34266C-9.48438 13.6008 -9.48438 30.6663 -9.48438 30.6663C-9.48438 30.6663 -9.48438 47.7317 -7.80751 53.9899C-6.88484 57.4399 -4.16496 60.1598 -0.714956 61.0824C5.54318 62.7593 30.6319 62.7593 30.6319 62.7593C30.6319 62.7593 55.7206 62.7593 61.9788 61.0824C65.4328 60.1598 68.1487 57.4399 69.0713 53.9899C70.7482 47.7317 70.7482 30.6663 70.7482 30.6663C70.7482 30.6663 70.7482 13.6008 69.0713 7.34266ZM22.6087 41.0885V20.2441C22.6087 18.6996 24.2815 17.7368 25.6174 18.507L43.6697 28.9292C45.0056 29.6995 45.0056 31.6331 43.6697 32.4033L25.6174 42.8255C24.2815 43.5998 22.6087 42.633 22.6087 41.0885Z" fill="#FDFFDD"/>
</g>
</svg>
