<svg width="61" height="61" viewBox="0 0 61 61" fill="none" xmlns="http://www.w3.org/2000/svg">
<path d="M30.3281 0.666992C13.7606 0.666992 0.328125 14.0995 0.328125 30.667C0.328125 47.2345 13.7606 60.667 30.3281 60.667C46.8956 60.667 60.3281 47.2345 60.3281 30.667C60.3281 14.0995 46.8956 0.666992 30.3281 0.666992ZM46.2306 40.5845L41.5606 40.6495C41.5606 40.6495 40.5531 40.847 39.2356 39.937C37.4881 38.737 35.8406 35.6145 34.5556 36.0195C33.2531 36.4345 33.2931 39.2445 33.2931 39.2445C33.2931 39.2445 33.3031 39.7395 33.0056 40.062C32.6831 40.4095 32.0506 40.3745 32.0506 40.3745H29.9581C29.9581 40.3745 25.3431 40.757 21.2756 36.517C16.8456 31.8945 12.9306 22.772 12.9306 22.772C12.9306 22.772 12.7006 22.197 12.9456 21.902C13.2231 21.577 13.9706 21.567 13.9706 21.567L18.9706 21.542C18.9706 21.542 19.4406 21.6245 19.7806 21.8745C20.0581 22.0795 20.2156 22.4645 20.2156 22.4645C20.2156 22.4645 21.0231 24.512 22.0956 26.367C24.1856 29.982 25.1556 30.7745 25.8656 30.387C26.9006 29.822 26.5906 25.277 26.5906 25.277C26.5906 25.277 26.6106 23.627 26.0706 22.892C25.6506 22.3195 24.8606 22.1495 24.5156 22.107C24.2331 22.0695 24.6931 21.4145 25.2931 21.1195C26.1931 20.6795 27.7831 20.6545 29.6606 20.672C31.1231 20.687 31.5456 20.777 32.1156 20.917C33.8406 21.3345 33.2556 22.9445 33.2556 26.807C33.2556 28.0445 33.0331 29.7845 33.9231 30.357C34.3081 30.6045 35.2456 30.3945 37.5831 26.4095C38.6956 24.5195 39.5281 22.2995 39.5281 22.2995C39.5281 22.2995 39.7106 21.9045 39.9931 21.7345C40.2831 21.5595 40.6731 21.6145 40.6731 21.6145L45.9356 21.582C45.9356 21.582 47.5156 21.392 47.7731 22.1095C48.0431 22.8595 47.1831 24.612 45.0331 27.4795C41.5031 32.1895 41.1106 31.752 44.0431 34.477C46.8431 37.0795 47.4206 38.3445 47.5181 38.5045C48.6756 40.432 46.2306 40.5845 46.2306 40.5845Z" fill="#FDFFDD"/>
</svg>
