<svg width="64" height="64" viewBox="0 0 64 64" fill="none" xmlns="http://www.w3.org/2000/svg">
<mask id="mask0_774_594" style="mask-type:alpha" maskUnits="userSpaceOnUse" x="0" y="0" width="64" height="64">
<circle cx="32" cy="32" r="32" fill="#60757E"/>
</mask>
<g mask="url(#mask0_774_594)">
<path d="M73.3748 7.1215C72.3906 3.4415 69.4894 0.540294 65.8094 -0.443892C59.134 -2.23254 32.3727 -2.23254 32.3727 -2.23254C32.3727 -2.23254 5.61143 -2.23254 -1.06392 -0.443892C-4.74392 0.540294 -7.64513 3.4415 -8.62932 7.1215C-10.418 13.7969 -10.418 32 -10.418 32C-10.418 32 -10.418 50.2032 -8.62932 56.8785C-7.64513 60.5585 -4.74392 63.4597 -1.06392 64.4439C5.61143 66.2326 32.3727 66.2326 32.3727 66.2326C32.3727 66.2326 59.134 66.2326 65.8094 64.4439C69.4937 63.4597 72.3906 60.5585 73.3748 56.8785C75.1634 50.2032 75.1634 32 75.1634 32C75.1634 32 75.1634 13.7969 73.3748 7.1215ZM23.8146 43.117V20.883C23.8146 19.2356 25.599 18.2086 27.0239 19.0302L46.2797 30.1472C47.7046 30.9688 47.7046 33.0313 46.2797 33.8529L27.0239 44.9699C25.599 45.7957 23.8146 44.7645 23.8146 43.117Z" fill="#155335"/>
</g>
</svg>
