<svg width="61" height="61" viewBox="0 0 61 61" fill="none" xmlns="http://www.w3.org/2000/svg">
<path d="M30.3828 0.666992C46.9516 0.666992 60.3828 14.0982 60.3828 30.667C60.3828 47.2358 46.9516 60.667 30.3828 60.667C13.814 60.667 0.382812 47.2358 0.382812 30.667C0.382812 14.0982 13.814 0.666992 30.3828 0.666992ZM40.731 42.8964C41.2816 41.2041 43.8687 24.3299 44.1863 21.0052C44.2834 19.9976 43.964 19.3288 43.3428 19.0305C42.5893 18.6688 41.4722 18.8488 40.1769 19.3164C38.3999 19.957 15.6899 29.5993 14.3769 30.1588C13.1346 30.6882 11.9558 31.2635 11.9558 32.0999C11.9558 32.6876 12.3052 33.0176 13.2652 33.3599C14.264 33.7164 16.7805 34.4788 18.2663 34.8882C19.6975 35.2835 21.3263 34.9411 22.2387 34.3729C23.2058 33.7711 34.3763 26.2976 35.1775 25.6429C35.9787 24.9882 36.6175 25.8264 35.9628 26.4829C35.3081 27.1376 27.6422 34.5793 26.6293 35.6099C25.401 36.8611 26.2728 38.1564 27.0969 38.677C28.0375 39.2699 34.7999 43.8052 35.8199 44.5341C36.8399 45.2611 37.8705 45.5911 38.8181 45.5911C39.764 45.5893 40.2599 44.3417 40.731 42.8964Z" fill="#FDFFDD"/>
</svg>
