<svg width="89" height="90" viewBox="0 0 89 90" fill="none" xmlns="http://www.w3.org/2000/svg">
<path d="M12.4428 59.1812C23.5441 52.2709 32.9698 42.9075 39.9351 31.8388C46.9003 42.9075 56.326 52.2709 67.4274 59.1812C56.326 66.0914 46.9003 75.4548 39.9351 86.5235C32.9698 75.4548 23.5441 66.0914 12.4428 59.1812Z" fill="#A7EF9B" stroke="#26734E" stroke-width="3.6"/>
<path d="M18.3719 7.87288C22.0716 13.4417 26.8736 18.2139 32.4591 21.8862C26.8736 25.5584 22.0716 30.3306 18.3719 35.8994C14.6722 30.3306 9.87025 25.5584 4.28478 21.8862C9.87025 18.2139 14.6722 13.4417 18.3719 7.87288Z" fill="#A7EF9B" stroke="#26734E" stroke-width="3.6"/>
<path d="M48.4867 21.4392C55.7194 16.7919 61.904 10.6468 66.587 3.43551C71.27 10.6468 77.4545 16.7919 84.6872 21.4392C77.4545 26.0865 71.27 32.2317 66.587 39.4429C61.904 32.2317 55.7194 26.0865 48.4867 21.4392Z" fill="#A7EF9B" stroke="#26734E" stroke-width="3.6"/>
</svg>
