<svg width="35" height="35" viewBox="0 0 35 35" fill="none" xmlns="http://www.w3.org/2000/svg">
<path d="M15.3773 0.782889C16.6047 -0.260963 18.3953 -0.260963 19.6227 0.782889L21.7993 2.63408C22.3943 3.14014 23.1466 3.41738 23.9237 3.41696L26.7664 3.41542C28.3693 3.41455 29.741 4.57995 30.0185 6.17835L30.5106 9.01299C30.6452 9.78791 31.0455 10.4899 31.641 10.9953L33.8196 12.8442C35.048 13.8867 35.359 15.6722 34.5568 17.0772L33.1342 19.569C32.7453 20.2501 32.6062 21.0484 32.7416 21.8232L33.2367 24.6573C33.5159 26.2554 32.6205 27.8255 31.114 28.3798L28.4423 29.3627C27.7119 29.6314 27.0986 30.1524 26.7104 30.834L25.2904 33.3273C24.4897 34.7332 22.807 35.3533 21.3011 34.7974L18.6304 33.8116C17.9003 33.5421 17.0997 33.5421 16.3696 33.8116L13.6989 34.7974C12.193 35.3533 10.5103 34.7332 9.70957 33.3273L8.28958 30.834C7.90139 30.1524 7.28808 29.6314 6.5577 29.3627L3.88599 28.3798C2.37946 27.8255 1.48411 26.2554 1.7633 24.6573L2.25841 21.8232C2.39377 21.0484 2.25474 20.2501 1.86583 19.5689L0.4432 17.0772C-0.358998 15.6722 -0.0480479 13.8867 1.1804 12.8442L3.35896 10.9953C3.95452 10.4899 4.35483 9.78791 4.48936 9.01299L4.98148 6.17835C5.25897 4.57995 6.63072 3.41455 8.23363 3.41542L11.0763 3.41696C11.8534 3.41738 12.6057 3.14014 13.2007 2.63407L15.3773 0.782889Z" fill="#26AB69"/>
</svg>
