<svg width="92" height="95" viewBox="0 0 92 95" fill="none" xmlns="http://www.w3.org/2000/svg">
<path d="M45.9985 3.05374C52.6906 10.1634 62.5787 13.3664 72.1699 11.5435C73.4 21.2187 79.5187 29.6145 88.3419 33.7666C83.6426 42.312 83.6426 52.688 88.3419 61.2334C79.5187 65.3855 73.4001 73.7813 72.1699 83.4565C62.5787 81.6336 52.6906 84.8366 45.9985 91.9463C39.3063 84.8366 29.4182 81.6336 19.8271 83.4565C18.5969 73.7813 12.4782 65.3855 3.65503 61.2334C8.35428 52.688 8.35428 42.312 3.65503 33.7666C12.4782 29.6145 18.5969 21.2187 19.8271 11.5435C29.4182 13.3664 39.3063 10.1634 45.9985 3.05374Z" fill="#A7EF9B" stroke="#26734E" stroke-width="4"/>
<circle cx="46.1469" cy="47.4999" r="29.9164" fill="#FDFFDD" stroke="#26734E" stroke-width="4"/>
</svg>
