<svg width="86" height="89" viewBox="0 0 86 89" fill="none" xmlns="http://www.w3.org/2000/svg">
<path d="M18.0886 10.4997C27.1644 12.3251 36.5624 9.28102 42.8358 2.47198C49.1092 9.28102 58.5071 12.3251 67.5829 10.4997C68.651 19.6861 74.4669 27.6661 82.8753 31.5137C78.3324 39.5691 78.3324 49.431 82.8753 57.4864C74.4669 61.334 68.651 69.314 67.5829 78.5004C58.5071 76.675 49.1092 79.7191 42.8358 86.5281C36.5624 79.7191 27.1644 76.675 18.0886 78.5004C17.0205 69.314 11.2047 61.334 2.79626 57.4864C7.33916 49.431 7.33916 39.5691 2.79626 31.5137C11.2047 27.6661 17.0205 19.6861 18.0886 10.4997Z" fill="#FFFAB1" stroke="#26734E" stroke-width="3.21731"/>
<path d="M71.263 44.5003C71.263 60.1255 58.5962 72.7923 42.971 72.7923C27.3457 72.7923 14.679 60.1255 14.679 44.5003C14.679 28.875 27.3457 16.2083 42.971 16.2083C58.5962 16.2083 71.263 28.875 71.263 44.5003Z" fill="#FDFFDD" stroke="#26734E" stroke-width="3.21731"/>
</svg>
