<svg width="83" height="82" viewBox="0 0 83 82" fill="none" xmlns="http://www.w3.org/2000/svg">
<path d="M41.8145 0C64.4585 0 82.8145 18.3559 82.8145 41C82.8145 63.6441 64.4585 82 41.8145 82C19.1704 82 0.814453 63.6441 0.814453 41C0.814453 18.3559 19.1704 0 41.8145 0ZM55.957 57.7135C56.7095 55.4006 60.2452 32.3394 60.6793 27.7956C60.8119 26.4185 60.3754 25.5044 59.5265 25.0968C58.4966 24.6024 56.97 24.8484 55.1997 25.4875C52.7711 26.363 21.7341 39.5409 19.9397 40.3054C18.2419 41.0289 16.6308 41.8152 16.6308 42.9584C16.6308 43.7615 17.1083 44.2125 18.4203 44.6803C19.7854 45.1675 23.2246 46.2094 25.2553 46.7689C27.2112 47.3092 29.4373 46.8413 30.6842 46.0647C32.0058 45.2423 47.2723 35.0285 48.3672 34.1337C49.4622 33.2389 50.3352 34.3845 49.4405 35.2817C48.5457 36.1765 38.069 46.3469 36.6846 47.7554C35.006 49.4653 36.1975 51.2355 37.3237 51.947C38.6092 52.7574 47.8511 58.9556 49.2451 59.9516C50.6391 60.9453 52.0476 61.3963 53.3427 61.3963C54.6354 61.3939 55.3131 59.6888 55.957 57.7135Z" fill="#57F0A0"/>
</svg>
