<svg width="1206" height="190" viewBox="0 0 1206 190" fill="none" xmlns="http://www.w3.org/2000/svg">
<rect y="118" width="900" height="7" fill="#FDFFDD"/>
<path d="M0.98 82L29.106 45.887L3.283 11.44H15.68L39.347 43.731V11.44H49.588V43.731L73.255 11.44H85.652L59.829 45.887L87.955 82H75.117L49.588 48.925V82H39.347V48.925L13.769 82H0.98ZM139.378 29.08V82H129.529V45.201L103.069 82H94.7392V29.08H104.588V65.144L131.097 29.08H139.378ZM165.762 82V38.292H147.681V29.08H194.084V38.292H176.003V82H165.762ZM202.359 82V29.08H212.649V47.455H223.086C224.589 47.455 226.19 47.4877 227.888 47.553C229.62 47.6183 231.106 47.7817 232.347 48.043C235.189 48.631 237.639 49.611 239.697 50.983C241.788 52.355 243.405 54.1843 244.548 56.471C245.692 58.725 246.263 61.5017 246.263 64.801C246.263 69.407 245.055 73.082 242.637 75.826C240.253 78.5373 237.019 80.3667 232.935 81.314C231.629 81.608 230.077 81.804 228.28 81.902C226.516 81.9673 224.899 82 223.429 82H202.359ZM212.649 73.768H224.017C224.834 73.768 225.765 73.7353 226.81 73.67C227.856 73.6047 228.819 73.4577 229.701 73.229C231.269 72.7717 232.674 71.8407 233.915 70.436C235.157 69.0313 235.777 67.153 235.777 64.801C235.777 62.3837 235.157 60.4563 233.915 59.019C232.707 57.5817 231.171 56.6507 229.309 56.226C228.427 55.9973 227.529 55.8503 226.614 55.785C225.7 55.7197 224.834 55.687 224.017 55.687H212.649V73.768ZM293.579 83.47C288.45 83.47 283.844 82.3757 279.761 80.187C275.71 77.9983 272.509 74.9767 270.157 71.122L278.291 65.781C280.186 68.329 282.374 70.3053 284.857 71.71C287.372 73.1147 290.198 73.817 293.334 73.817C296.601 73.817 299.181 73.082 301.076 71.612C303.003 70.1093 303.967 68.1003 303.967 65.585C303.967 63.5923 303.412 62.1223 302.301 61.175C301.223 60.195 299.72 59.558 297.793 59.264C295.898 58.97 293.742 58.823 291.325 58.823H286.621V50.591H291.325C294.526 50.591 297.156 50.15 299.214 49.268C301.305 48.3533 302.35 46.6383 302.35 44.123C302.35 41.673 301.452 39.909 299.655 38.831C297.891 37.753 295.784 37.214 293.334 37.214C290.59 37.214 287.928 37.802 285.347 38.978C282.766 40.1213 280.512 41.5423 278.585 43.241L272.607 36.234C275.416 33.5227 278.618 31.4157 282.211 29.913C285.837 28.3777 289.724 27.61 293.873 27.61C297.27 27.61 300.406 28.2143 303.281 29.423C306.188 30.599 308.508 32.3467 310.239 34.666C312.003 36.9853 312.885 39.8437 312.885 43.241C312.885 45.887 312.297 48.3043 311.121 50.493C309.945 52.6817 308.148 54.6743 305.731 56.471L305.437 52.992C307.43 53.6127 309.096 54.609 310.435 55.981C311.774 57.353 312.771 58.97 313.424 60.832C314.11 62.6613 314.453 64.605 314.453 66.663C314.453 70.2237 313.506 73.2617 311.611 75.777C309.749 78.2923 307.234 80.2033 304.065 81.51C300.896 82.8167 297.401 83.47 293.579 83.47ZM339.21 83.47C335.29 83.47 332.007 82.7513 329.361 81.314C326.715 79.844 324.706 77.9167 323.334 75.532C321.995 73.1147 321.325 70.4687 321.325 67.594C321.325 64.9153 321.799 62.5633 322.746 60.538C323.693 58.5127 325.098 56.7977 326.96 55.393C328.822 53.9557 331.109 52.796 333.82 51.914C336.172 51.228 338.834 50.6237 341.807 50.101C344.78 49.5783 347.899 49.0883 351.166 48.631C354.465 48.1737 357.732 47.7163 360.966 47.259L357.242 49.317C357.307 45.1683 356.425 42.0977 354.596 40.105C352.799 38.0797 349.696 37.067 345.286 37.067C342.509 37.067 339.961 37.7203 337.642 39.027C335.323 40.301 333.706 42.4243 332.791 45.397L323.236 42.457C324.543 37.9163 327.025 34.3067 330.684 31.628C334.375 28.9493 339.275 27.61 345.384 27.61C350.121 27.61 354.237 28.4267 357.732 30.06C361.26 31.6607 363.841 34.2087 365.474 37.704C366.323 39.4353 366.846 41.2647 367.042 43.192C367.238 45.1193 367.336 47.1937 367.336 49.415V82H358.271V69.897L360.035 71.465C357.846 75.5157 355.053 78.5373 351.656 80.53C348.291 82.49 344.143 83.47 339.21 83.47ZM341.023 75.091C343.93 75.091 346.429 74.5847 348.52 73.572C350.611 72.5267 352.293 71.2037 353.567 69.603C354.841 68.0023 355.674 66.3363 356.066 64.605C356.621 63.037 356.932 61.273 356.997 59.313C357.095 57.353 357.144 55.785 357.144 54.609L360.476 55.834C357.242 56.324 354.302 56.765 351.656 57.157C349.01 57.549 346.609 57.941 344.453 58.333C342.33 58.6923 340.435 59.1333 338.769 59.656C337.364 60.146 336.107 60.734 334.996 61.42C333.918 62.106 333.052 62.939 332.399 63.919C331.778 64.899 331.468 66.0913 331.468 67.496C331.468 68.868 331.811 70.142 332.497 71.318C333.183 72.4613 334.228 73.376 335.633 74.062C337.038 74.748 338.834 75.091 341.023 75.091ZM397.719 82V29.08H434.959V38.733H407.96V82H397.719ZM465.275 83.47C459.983 83.47 455.393 82.2777 451.506 79.893C447.619 77.5083 444.613 74.2253 442.49 70.044C440.399 65.83 439.354 60.979 439.354 55.491C439.354 49.9703 440.432 45.1193 442.588 40.938C444.744 36.724 447.766 33.4573 451.653 31.138C455.54 28.786 460.081 27.61 465.275 27.61C470.567 27.61 475.157 28.8023 479.044 31.187C482.931 33.5717 485.937 36.8547 488.06 41.036C490.183 45.2173 491.245 50.0357 491.245 55.491C491.245 61.0117 490.167 65.879 488.011 70.093C485.888 74.2743 482.882 77.5573 478.995 79.942C475.108 82.294 470.534 83.47 465.275 83.47ZM465.275 73.817C470.338 73.817 474.111 72.1183 476.594 68.721C479.109 65.291 480.367 60.881 480.367 55.491C480.367 49.9703 479.093 45.5603 476.545 42.261C474.03 38.929 470.273 37.263 465.275 37.263C461.845 37.263 459.019 38.047 456.798 39.615C454.577 41.1503 452.927 43.29 451.849 46.034C450.771 48.7453 450.232 51.8977 450.232 55.491C450.232 61.0443 451.506 65.487 454.054 68.819C456.602 72.151 460.342 73.817 465.275 73.817ZM525.876 83.47C520.812 83.47 516.566 82.245 513.136 79.795C509.706 77.3123 507.109 73.964 505.345 69.75C503.581 65.536 502.699 60.783 502.699 55.491C502.699 50.199 503.564 45.446 505.296 41.232C507.06 37.018 509.64 33.7023 513.038 31.285C516.468 28.835 520.682 27.61 525.68 27.61C530.645 27.61 534.924 28.835 538.518 31.285C542.144 33.7023 544.937 37.018 546.897 41.232C548.857 45.4133 549.837 50.1663 549.837 55.491C549.837 60.783 548.857 65.5523 546.897 69.799C544.969 74.013 542.209 77.345 538.616 79.795C535.055 82.245 530.808 83.47 525.876 83.47ZM500.984 105.52V29.08H510.098V67.153H511.274V105.52H500.984ZM524.455 74.209C527.721 74.209 530.416 73.376 532.54 71.71C534.696 70.044 536.296 67.8063 537.342 64.997C538.42 62.155 538.959 58.9863 538.959 55.491C538.959 52.0283 538.42 48.8923 537.342 46.083C536.296 43.2737 534.679 41.036 532.491 39.37C530.302 37.704 527.509 36.871 524.112 36.871C520.91 36.871 518.264 37.655 516.174 39.223C514.116 40.791 512.58 42.9797 511.568 45.789C510.588 48.5983 510.098 51.8323 510.098 55.491C510.098 59.1497 510.588 62.3837 511.568 65.193C512.548 68.0023 514.099 70.2073 516.223 71.808C518.346 73.4087 521.09 74.209 524.455 74.209ZM582.657 83.47C577.365 83.47 572.775 82.2777 568.888 79.893C565 77.5083 561.995 74.2253 559.872 70.044C557.781 65.83 556.736 60.979 556.736 55.491C556.736 49.9703 557.814 45.1193 559.97 40.938C562.126 36.724 565.147 33.4573 569.035 31.138C572.922 28.786 577.463 27.61 582.657 27.61C587.949 27.61 592.538 28.8023 596.426 31.187C600.313 33.5717 603.318 36.8547 605.442 41.036C607.565 45.2173 608.627 50.0357 608.627 55.491C608.627 61.0117 607.549 65.879 605.393 70.093C603.269 74.2743 600.264 77.5573 596.377 79.942C592.489 82.294 587.916 83.47 582.657 83.47ZM582.657 73.817C587.72 73.817 591.493 72.1183 593.976 68.721C596.491 65.291 597.749 60.881 597.749 55.491C597.749 49.9703 596.475 45.5603 593.927 42.261C591.411 38.929 587.655 37.263 582.657 37.263C579.227 37.263 576.401 38.047 574.18 39.615C571.958 41.1503 570.309 43.29 569.231 46.034C568.153 48.7453 567.614 51.8977 567.614 55.491C567.614 61.0443 568.888 65.487 571.436 68.819C573.984 72.151 577.724 73.817 582.657 73.817ZM614.494 93.76V73.768C617.402 73.768 619.476 72.8043 620.717 70.877C621.991 68.917 623.004 65.6013 623.755 60.93C624.213 58.088 624.588 55.0663 624.882 51.865C625.209 48.6637 625.487 45.201 625.715 41.477C625.944 37.7203 626.173 33.588 626.401 29.08H664.327V73.768H669.521V93.76H659.819V82H624.245V93.76H614.494ZM629.145 73.768H654.037V37.312H635.515C635.385 39.468 635.238 41.6893 635.074 43.976C634.944 46.2627 634.78 48.533 634.584 50.787C634.421 53.041 634.225 55.197 633.996 57.255C633.768 59.313 633.506 61.175 633.212 62.841C632.82 65.4217 632.347 67.5777 631.791 69.309C631.269 71.0403 630.387 72.5267 629.145 73.768ZM701.283 83.47C695.991 83.47 691.401 82.2777 687.514 79.893C683.626 77.5083 680.621 74.2253 678.498 70.044C676.407 65.83 675.362 60.979 675.362 55.491C675.362 49.9703 676.44 45.1193 678.596 40.938C680.752 36.724 683.773 33.4573 687.661 31.138C691.548 28.786 696.089 27.61 701.283 27.61C706.575 27.61 711.164 28.8023 715.052 31.187C718.939 33.5717 721.944 36.8547 724.068 41.036C726.191 45.2173 727.253 50.0357 727.253 55.491C727.253 61.0117 726.175 65.879 724.019 70.093C721.895 74.2743 718.89 77.5573 715.003 79.942C711.115 82.294 706.542 83.47 701.283 83.47ZM701.283 73.817C706.346 73.817 710.119 72.1183 712.602 68.721C715.117 65.291 716.375 60.881 716.375 55.491C716.375 49.9703 715.101 45.5603 712.553 42.261C710.037 38.929 706.281 37.263 701.283 37.263C697.853 37.263 695.027 38.047 692.806 39.615C690.584 41.1503 688.935 43.29 687.857 46.034C686.779 48.7453 686.24 51.8977 686.24 55.491C686.24 61.0443 687.514 65.487 690.062 68.819C692.61 72.151 696.35 73.817 701.283 73.817ZM736.991 82V29.08H745.566L765.117 67.888L784.619 29.08H793.243V82H783.345V50.052L767.42 82H762.765L746.84 50.052V82H736.991ZM39.494 134.544C39.494 141.535 34.7573 145.847 25.284 147.48C28.7467 148.003 31.36 149.146 33.124 150.91C34.9533 152.674 35.868 154.895 35.868 157.574C35.868 162.409 33.9733 166.1 30.184 168.648C26.3293 171.131 21.56 172.372 15.876 172.372C11.368 172.372 7.80733 171.425 5.194 169.53C2.58067 167.57 1.274 164.924 1.274 161.592C1.274 159.763 1.764 158.26 2.744 157.084C3.724 155.908 4.96533 155.32 6.468 155.32C7.644 155.32 8.624 155.745 9.408 156.594C10.192 157.378 10.584 158.358 10.584 159.534C10.584 160.775 10.192 161.886 9.408 162.866C8.68933 163.781 7.77467 164.238 6.664 164.238C5.684 164.238 4.93267 164.107 4.41 163.846C5.25933 167.766 8.722 169.726 14.798 169.726C17.9993 169.726 20.776 168.256 23.128 165.316C25.5453 162.311 26.754 159.044 26.754 155.516C26.754 153.425 26.068 151.825 24.696 150.714C23.324 149.603 21.6907 149.048 19.796 149.048C17.9667 148.983 16.1047 149.048 14.21 149.244L14.896 145.912C17.5093 146.043 19.4367 146.108 20.678 146.108C23.2913 146.108 25.6107 144.997 27.636 142.776C29.7267 140.489 30.772 137.941 30.772 135.132C30.772 133.107 30.0533 131.473 28.616 130.232C27.244 128.925 25.48 128.272 23.324 128.272C19.9267 128.272 17.15 129.056 14.994 130.624C12.838 132.127 10.976 134.838 9.408 138.758L7.154 138.072C8.98333 133.172 11.368 129.742 14.308 127.782C17.248 125.757 20.9067 124.744 25.284 124.744C29.4653 124.744 32.8627 125.691 35.476 127.586C38.1547 129.415 39.494 131.735 39.494 134.544ZM56.6547 111.71C56.6547 112.559 56.2954 113.376 55.5767 114.16C54.9234 114.879 54.1394 115.238 53.2247 115.238C52.3101 115.238 51.4934 114.879 50.7747 114.16C50.1214 113.441 49.7947 112.559 49.7947 111.514C49.7947 109.162 50.9054 107.169 53.1267 105.536C55.3481 103.903 58.3534 103.086 62.1427 103.086C68.4147 103.086 73.7721 105.928 78.2147 111.612C82.6574 117.231 84.8787 125.43 84.8787 136.21C84.8787 144.703 83.0494 152.576 79.3907 159.828C77.4961 163.683 74.8174 166.753 71.3547 169.04C67.8921 171.261 63.9394 172.372 59.4967 172.372C54.4007 172.372 50.3501 170.706 47.3447 167.374C44.3394 164.042 42.8367 159.632 42.8367 154.144C42.8367 145.847 44.7641 138.889 48.6187 133.27C52.4081 127.717 57.6674 124.94 64.3967 124.94C70.6687 124.94 74.4907 127.782 75.8627 133.466C75.8627 125.038 74.4907 118.341 71.7467 113.376C69.0681 108.345 65.4094 105.83 60.7707 105.83C57.5694 105.83 55.2827 106.614 53.9107 108.182C54.6947 108.378 55.3481 108.835 55.8707 109.554C56.3934 110.207 56.6547 110.926 56.6547 111.71ZM59.9867 169.628C62.9921 169.628 65.7034 168.027 68.1207 164.826C70.4074 161.69 72.1387 158.064 73.3147 153.948C74.5561 149.832 75.1767 145.847 75.1767 141.992C75.1767 133.041 72.3347 128.566 66.6507 128.566C63.5147 128.566 60.7707 130.167 58.4187 133.368C53.9761 139.313 51.7547 147.121 51.7547 156.79C51.7547 165.349 54.4987 169.628 59.9867 169.628ZM106.273 169.628C109.539 169.628 112.447 167.995 114.995 164.728C119.829 158.521 122.247 150.877 122.247 141.796C122.247 132.323 119.666 127.586 114.505 127.586C110.258 127.521 106.501 130.428 103.235 136.308C99.9679 142.188 98.3999 148.166 98.5306 154.242C98.5306 159.534 99.1186 163.421 100.295 165.904C101.536 168.387 103.529 169.628 106.273 169.628ZM131.263 143.07C131.263 150.714 128.813 157.509 123.913 163.454C119.013 169.399 113.002 172.372 105.881 172.372C100.785 172.372 96.7992 170.739 93.9246 167.472C91.0499 164.14 89.6126 159.763 89.6126 154.34C89.6126 146.108 92.0299 139.117 96.8646 133.368C101.634 127.619 107.71 124.744 115.093 124.744C120.123 124.744 124.076 126.443 126.951 129.84C129.825 133.237 131.263 137.647 131.263 143.07ZM184.803 139.738C184.803 144.899 183.79 149.93 181.765 154.83C179.739 159.795 176.865 163.977 173.141 167.374C169.417 170.706 165.399 172.372 161.087 172.372C157.755 172.372 155.076 171.196 153.051 168.844C151.091 166.492 150.078 163.389 150.013 159.534L143.839 182.76C143.577 183.479 143.447 184.197 143.447 184.916C143.447 186.092 144.296 186.68 145.995 186.68H151.483L150.797 189.424H126.199L126.885 186.68H130.413C131.654 186.68 132.569 186.386 133.157 185.798C133.745 185.275 134.235 184.263 134.627 182.76L146.289 139.542C147.334 135.687 147.824 133.009 147.759 131.506C147.759 130.003 147.171 129.252 145.995 129.252C143.512 129.252 140.343 133.368 136.489 141.6L134.431 140.326C139.2 129.938 144.329 124.744 149.817 124.744C153.867 124.744 155.893 126.835 155.893 131.016C155.893 132.649 155.435 135.557 154.521 139.738C156.807 135.034 159.584 131.375 162.851 128.762C166.117 126.083 169.515 124.744 173.043 124.744C176.767 124.744 179.641 126.116 181.667 128.86C183.757 131.539 184.803 135.165 184.803 139.738ZM175.885 138.268C175.885 135.132 175.297 132.715 174.121 131.016C172.945 129.317 171.279 128.468 169.123 128.468C165.072 128.468 161.185 131.8 157.461 138.464C153.737 144.997 151.875 151.073 151.875 156.692C151.875 160.481 152.495 163.454 153.737 165.61C154.978 167.766 156.775 168.844 159.127 168.844C162.263 168.844 165.137 167.08 167.751 163.552C170.429 159.828 172.455 155.712 173.827 151.204C175.199 146.5 175.885 142.188 175.885 138.268ZM206.045 169.628C209.312 169.628 212.219 167.995 214.767 164.728C219.602 158.521 222.019 150.877 222.019 141.796C222.019 132.323 219.438 127.586 214.277 127.586C210.03 127.521 206.274 130.428 203.007 136.308C199.74 142.188 198.172 148.166 198.303 154.242C198.303 159.534 198.891 163.421 200.067 165.904C201.308 168.387 203.301 169.628 206.045 169.628ZM231.035 143.07C231.035 150.714 228.585 157.509 223.685 163.454C218.785 169.399 212.774 172.372 205.653 172.372C200.557 172.372 196.572 170.739 193.697 167.472C190.822 164.14 189.385 159.763 189.385 154.34C189.385 146.108 191.802 139.117 196.637 133.368C201.406 127.619 207.482 124.744 214.865 124.744C219.896 124.744 223.848 126.443 226.723 129.84C229.598 133.237 231.035 137.647 231.035 143.07ZM275.167 133.662C275.167 135.883 274.024 138.333 271.737 141.012C269.516 143.625 266.151 145.52 261.643 146.696C265.106 146.957 267.686 148.068 269.385 150.028C271.084 151.923 271.933 154.242 271.933 156.986C271.933 161.363 270.104 165.022 266.445 167.962C262.852 170.902 257.919 172.372 251.647 172.372C246.551 172.372 242.664 170.804 239.985 167.668C237.372 164.467 236.065 160.187 236.065 154.83C236.065 150.126 237.078 145.553 239.103 141.11C241.128 136.602 244.199 132.747 248.315 129.546C252.366 126.345 256.939 124.744 262.035 124.744C266.02 124.744 269.189 125.528 271.541 127.096C273.958 128.599 275.167 130.787 275.167 133.662ZM263.407 156.496C263.407 154.079 262.786 152.086 261.545 150.518C260.304 148.95 258.638 148.166 256.547 148.166C252.888 148.166 249.23 148.885 245.571 150.322C245.244 152.805 245.081 155.157 245.081 157.378C245.081 165.479 247.694 169.53 252.921 169.53C255.534 169.53 257.919 168.321 260.075 165.904C262.296 163.487 263.407 160.351 263.407 156.496ZM261.055 127.488C257.527 127.488 254.358 129.481 251.549 133.466C248.674 137.386 246.812 142.123 245.963 147.676C249.426 146.565 253.248 145.814 257.429 145.422C260.5 144.246 262.884 142.547 264.583 140.326C266.347 138.105 267.229 135.883 267.229 133.662C267.229 131.767 266.641 130.265 265.465 129.154C264.354 128.043 262.884 127.488 261.055 127.488ZM296.534 169.628C299.801 169.628 302.708 167.995 305.256 164.728C310.091 158.521 312.508 150.877 312.508 141.796C312.508 132.323 309.928 127.586 304.766 127.586C300.52 127.521 296.763 130.428 293.496 136.308C290.23 142.188 288.662 148.166 288.792 154.242C288.792 159.534 289.38 163.421 290.556 165.904C291.798 168.387 293.79 169.628 296.534 169.628ZM321.524 143.07C321.524 150.714 319.074 157.509 314.174 163.454C309.274 169.399 303.264 172.372 296.142 172.372C291.046 172.372 287.061 170.739 284.186 167.472C281.312 164.14 279.874 159.763 279.874 154.34C279.874 146.108 282.292 139.117 287.126 133.368C291.896 127.619 297.972 124.744 305.354 124.744C310.385 124.744 314.338 126.443 317.212 129.84C320.087 133.237 321.524 137.647 321.524 143.07ZM381.927 166.296C381.927 163.029 382.809 158.358 384.573 152.282C381.959 158.097 378.725 162.931 374.871 166.786C371.147 170.51 367.325 172.372 363.405 172.372C357.394 172.372 354.389 169.497 354.389 163.748C354.389 161.135 354.846 158.26 355.761 155.124L360.073 140.13C361.053 136.602 361.575 133.76 361.641 131.604C361.641 130.036 360.987 129.252 359.681 129.252C357.263 129.252 354.193 133.368 350.469 141.6L348.313 140.326C353.213 129.938 358.341 124.744 363.699 124.744C368.337 124.744 370.657 126.933 370.657 131.31C370.657 133.27 369.84 137.288 368.207 143.364L365.365 154.046C364.385 157.639 363.895 160.449 363.895 162.474C363.895 165.871 365.201 167.57 367.815 167.57C370.951 167.57 374.413 164.793 378.203 159.24C382.123 153.687 384.801 148.133 386.239 142.58L390.551 126.116H400.057L391.335 157.672C390.289 161.2 389.767 163.846 389.767 165.61C389.767 167.178 390.42 167.962 391.727 167.962C394.275 167.962 397.411 163.846 401.135 155.614L403.291 156.888C398.26 167.211 393.131 172.372 387.905 172.372C383.919 172.372 381.927 170.347 381.927 166.296ZM461.41 166.296C461.41 163.029 462.292 158.358 464.056 152.282C461.443 158.097 458.209 162.931 454.354 166.786C450.63 170.51 446.808 172.372 442.888 172.372C436.877 172.372 433.872 169.497 433.872 163.748C433.872 161.135 434.329 158.26 435.244 155.124L439.556 140.13C440.536 136.602 441.059 133.76 441.124 131.604C441.124 130.036 440.471 129.252 439.164 129.252C436.747 129.252 433.676 133.368 429.952 141.6L427.796 140.326C432.696 129.938 437.825 124.744 443.182 124.744C447.821 124.744 450.14 126.933 450.14 131.31C450.14 133.27 449.323 137.288 447.69 143.364L444.848 154.046C443.868 157.639 443.378 160.449 443.378 162.474C443.378 165.871 444.685 167.57 447.298 167.57C450.434 167.57 453.897 164.793 457.686 159.24C461.606 153.687 464.285 148.133 465.722 142.58L470.034 126.116H479.54L470.818 157.672C469.773 161.2 469.25 163.846 469.25 165.61C469.25 167.178 469.903 167.962 471.21 167.962C473.758 167.962 476.894 163.846 480.618 155.614L482.774 156.888C477.743 167.211 472.615 172.372 467.388 172.372C463.403 172.372 461.41 170.347 461.41 166.296ZM537.069 155.516L539.127 156.79C534.162 167.178 529.066 172.372 523.839 172.372C519.135 172.372 516.783 170.216 516.783 165.904C516.783 163.683 517.567 159.665 519.135 153.85L520.409 149.048H502.377L496.497 171H487.089L495.811 139.542C495.876 139.281 496.072 138.562 496.399 137.386C496.726 136.145 496.987 135.001 497.183 133.956C497.379 132.911 497.444 132.127 497.379 131.604C497.379 130.036 496.693 129.252 495.321 129.252C492.904 129.252 489.768 133.368 485.913 141.6L483.855 140.326C488.69 129.938 493.818 124.744 499.241 124.744C501.528 124.744 503.259 125.299 504.435 126.41C505.611 127.521 506.199 129.056 506.199 131.016C506.199 133.825 505.546 137.582 504.239 142.286L503.259 145.618H521.389L526.681 126.116H536.089L527.367 157.28C526.256 161.135 525.701 163.846 525.701 165.414C525.701 167.047 526.387 167.864 527.759 167.864C530.111 167.864 533.214 163.748 537.069 155.516ZM619.864 155.516L621.922 156.79C616.956 167.178 611.828 172.372 606.536 172.372C601.962 172.372 599.676 170.216 599.676 165.904C599.676 163.421 600.46 159.403 602.028 153.85L604.87 143.168C605.915 139.444 606.438 136.569 606.438 134.544C606.438 132.78 606.111 131.539 605.458 130.82C604.804 130.036 603.694 129.644 602.126 129.644C599.447 129.644 596.148 132.388 592.228 137.876C588.308 143.495 585.694 148.721 584.388 153.556L579.586 171H570.374L578.018 143.168C578.998 139.379 579.488 136.504 579.488 134.544C579.488 132.78 579.161 131.539 578.508 130.82C577.92 130.036 576.842 129.644 575.274 129.644C572.53 129.644 569.263 132.323 565.474 137.68C561.619 143.037 558.973 148.329 557.536 153.556L552.832 171H543.62L552.048 139.542C553.093 135.622 553.616 132.976 553.616 131.604C553.616 130.036 552.962 129.252 551.656 129.252C550.48 129.252 549.01 130.428 547.246 132.78C545.547 135.067 543.914 138.007 542.346 141.6L540.19 140.326C545.155 129.938 550.284 124.744 555.576 124.744C557.732 124.744 559.234 125.267 560.084 126.312C560.998 127.292 561.456 128.827 561.456 130.918C561.456 133.466 560.574 138.137 558.81 144.932C561.488 138.921 564.82 134.054 568.806 130.33C572.791 126.606 576.678 124.744 580.468 124.744C585.433 124.744 587.916 127.455 587.916 132.878C587.916 135.622 587.197 139.64 585.76 144.932C588.373 139.183 591.705 134.381 595.756 130.526C599.806 126.671 603.661 124.744 607.32 124.744C613.069 124.744 615.944 127.553 615.944 133.172C615.944 135.72 615.454 138.66 614.474 141.992L610.162 157.084C609.116 160.612 608.594 163.421 608.594 165.512C608.594 167.08 609.247 167.864 610.554 167.864C611.664 167.864 613.069 166.721 614.768 164.434C616.532 162.082 618.23 159.109 619.864 155.516ZM663.24 134.348C663.24 138.007 660.659 141.731 655.498 145.52C650.532 149.244 643.346 151.857 633.938 153.36C633.742 154.536 633.644 155.679 633.644 156.79C633.774 164.565 636.78 168.452 642.66 168.452C645.469 168.452 648.246 167.439 650.99 165.414C653.734 163.323 656.151 160.383 658.242 156.594L660.202 157.868C657.98 162.311 654.975 165.871 651.186 168.55C647.527 171.098 643.901 172.372 640.308 172.372C635.408 172.372 631.553 170.739 628.744 167.472C626 164.205 624.628 159.959 624.628 154.732C624.628 150.093 625.64 145.553 627.666 141.11C629.691 136.602 632.762 132.747 636.878 129.546C640.928 126.345 645.469 124.744 650.5 124.744C658.993 124.744 663.24 127.945 663.24 134.348ZM655.4 133.956C655.4 129.709 653.472 127.586 649.618 127.586C645.828 127.586 642.496 130.036 639.622 134.936C636.812 139.705 635.048 144.932 634.33 150.616C642.3 149.244 647.788 146.99 650.794 143.854C653.864 140.587 655.4 137.288 655.4 133.956ZM715.894 139.738C715.894 144.899 714.881 149.93 712.856 154.83C710.831 159.795 707.956 163.977 704.232 167.374C700.508 170.706 696.49 172.372 692.178 172.372C688.846 172.372 686.167 171.196 684.142 168.844C682.182 166.492 681.169 163.389 681.104 159.534L674.93 182.76C674.669 183.479 674.538 184.197 674.538 184.916C674.538 186.092 675.387 186.68 677.086 186.68H682.574L681.888 189.424H657.29L657.976 186.68H661.504C662.745 186.68 663.66 186.386 664.248 185.798C664.836 185.275 665.326 184.263 665.718 182.76L677.38 139.542C678.425 135.687 678.915 133.009 678.85 131.506C678.85 130.003 678.262 129.252 677.086 129.252C674.603 129.252 671.435 133.368 667.58 141.6L665.522 140.326C670.291 129.938 675.42 124.744 680.908 124.744C684.959 124.744 686.984 126.835 686.984 131.016C686.984 132.649 686.527 135.557 685.612 139.738C687.899 135.034 690.675 131.375 693.942 128.762C697.209 126.083 700.606 124.744 704.134 124.744C707.858 124.744 710.733 126.116 712.758 128.86C714.849 131.539 715.894 135.165 715.894 139.738ZM706.976 138.268C706.976 135.132 706.388 132.715 705.212 131.016C704.036 129.317 702.37 128.468 700.214 128.468C696.163 128.468 692.276 131.8 688.552 138.464C684.828 144.997 682.966 151.073 682.966 156.692C682.966 160.481 683.587 163.454 684.828 165.61C686.069 167.766 687.866 168.844 690.218 168.844C693.354 168.844 696.229 167.08 698.842 163.552C701.521 159.828 703.546 155.712 704.918 151.204C706.29 146.5 706.976 142.188 706.976 138.268ZM759.088 134.348C759.088 138.007 756.507 141.731 751.346 145.52C746.381 149.244 739.194 151.857 729.786 153.36C729.59 154.536 729.492 155.679 729.492 156.79C729.623 164.565 732.628 168.452 738.508 168.452C741.317 168.452 744.094 167.439 746.838 165.414C749.582 163.323 751.999 160.383 754.09 156.594L756.05 157.868C753.829 162.311 750.823 165.871 747.034 168.55C743.375 171.098 739.749 172.372 736.156 172.372C731.256 172.372 727.401 170.739 724.592 167.472C721.848 164.205 720.476 159.959 720.476 154.732C720.476 150.093 721.489 145.553 723.514 141.11C725.539 136.602 728.61 132.747 732.726 129.546C736.777 126.345 741.317 124.744 746.348 124.744C754.841 124.744 759.088 127.945 759.088 134.348ZM751.248 133.956C751.248 129.709 749.321 127.586 745.466 127.586C741.677 127.586 738.345 130.036 735.47 134.936C732.661 139.705 730.897 144.932 730.178 150.616C738.149 149.244 743.637 146.99 746.642 143.854C749.713 140.587 751.248 137.288 751.248 133.956ZM800.201 134.446C800.201 136.537 799.581 138.497 798.339 140.326C797.163 142.09 795.661 142.972 793.831 142.972C792.329 142.972 791.185 142.515 790.401 141.6C789.683 140.685 789.323 139.575 789.323 138.268C789.323 136.831 789.781 135.557 790.695 134.446C791.61 133.27 792.655 132.682 793.831 132.682C795.203 132.682 796.347 133.139 797.261 134.054C797.261 132.094 796.412 130.493 794.713 129.252C793.08 127.945 790.924 127.292 788.245 127.292C783.868 127.292 780.013 129.807 776.681 134.838C773.349 139.869 771.683 146.402 771.683 154.438C771.683 158.685 772.565 162.115 774.329 164.728C776.159 167.276 778.511 168.55 781.385 168.55C787.004 168.55 791.708 164.597 795.497 156.692L797.555 157.672C795.334 162.376 792.655 166.002 789.519 168.55C786.383 171.098 782.986 172.372 779.327 172.372C774.297 172.372 770.181 170.706 766.979 167.374C763.843 164.042 762.275 159.697 762.275 154.34C762.275 146.5 764.725 139.607 769.625 133.662C774.525 127.717 780.536 124.744 787.657 124.744C791.381 124.744 794.387 125.593 796.673 127.292C799.025 128.991 800.201 131.375 800.201 134.446ZM855.144 155.516L857.202 156.79C852.237 167.178 847.141 172.372 841.914 172.372C837.21 172.372 834.858 170.216 834.858 165.904C834.858 163.683 835.642 159.665 837.21 153.85L838.484 149.048H820.452L814.572 171H805.164L813.886 139.542C813.952 139.281 814.148 138.562 814.474 137.386C814.801 136.145 815.062 135.001 815.258 133.956C815.454 132.911 815.52 132.127 815.454 131.604C815.454 130.036 814.768 129.252 813.396 129.252C810.979 129.252 807.843 133.368 803.988 141.6L801.93 140.326C806.765 129.938 811.894 124.744 817.316 124.744C819.603 124.744 821.334 125.299 822.51 126.41C823.686 127.521 824.274 129.056 824.274 131.016C824.274 133.825 823.621 137.582 822.314 142.286L821.334 145.618H839.464L844.756 126.116H854.164L845.442 157.28C844.332 161.135 843.776 163.846 843.776 165.414C843.776 167.047 844.462 167.864 845.834 167.864C848.186 167.864 851.29 163.748 855.144 155.516ZM877.081 169.628C880.348 169.628 883.255 167.995 885.803 164.728C890.638 158.521 893.055 150.877 893.055 141.796C893.055 132.323 890.474 127.586 885.313 127.586C881.066 127.521 877.31 130.428 874.043 136.308C870.776 142.188 869.208 148.166 869.339 154.242C869.339 159.534 869.927 163.421 871.103 165.904C872.344 168.387 874.337 169.628 877.081 169.628ZM902.071 143.07C902.071 150.714 899.621 157.509 894.721 163.454C889.821 169.399 883.81 172.372 876.689 172.372C871.593 172.372 867.608 170.739 864.733 167.472C861.858 164.14 860.421 159.763 860.421 154.34C860.421 146.108 862.838 139.117 867.673 133.368C872.442 127.619 878.518 124.744 885.901 124.744C890.932 124.744 894.884 126.443 897.759 129.84C900.634 133.237 902.071 137.647 902.071 143.07ZM916.901 166.296C916.901 167.799 916.378 169.105 915.333 170.216C914.288 171.327 913.014 171.882 911.511 171.882C910.074 171.882 908.865 171.359 907.885 170.314C906.905 169.269 906.415 167.995 906.415 166.492C906.415 164.924 906.905 163.552 907.885 162.376C908.93 161.2 910.204 160.612 911.707 160.612C913.144 160.612 914.353 161.167 915.333 162.278C916.378 163.389 916.901 164.728 916.901 166.296Z" fill="#26734E"/>
<line x1="4.37114e-08" y1="171.5" x2="1096" y2="171.5" stroke="#26734E"/>
<line x1="4.37114e-08" y1="81.5" x2="1096" y2="81.5001" stroke="#26734E"/>
<line x1="4.37114e-08" y1="117.5" x2="1096" y2="117.5" stroke="#26734E"/>
<line x1="4.37114e-08" y1="28.5" x2="1096" y2="28.5001" stroke="#26734E"/>
<path d="M1110.35 28.6464C1110.16 28.4512 1109.84 28.4512 1109.65 28.6464L1106.46 31.8284C1106.27 32.0237 1106.27 32.3403 1106.46 32.5355C1106.66 32.7308 1106.98 32.7308 1107.17 32.5355L1110 29.7071L1112.83 32.5355C1113.02 32.7308 1113.34 32.7308 1113.54 32.5355C1113.73 32.3403 1113.73 32.0237 1113.54 31.8284L1110.35 28.6464ZM1109.65 82.3536C1109.84 82.5488 1110.16 82.5488 1110.35 82.3536L1113.54 79.1716C1113.73 78.9763 1113.73 78.6597 1113.54 78.4645C1113.34 78.2692 1113.02 78.2692 1112.83 78.4645L1110 81.2929L1107.17 78.4645C1106.98 78.2692 1106.66 78.2692 1106.46 78.4645C1106.27 78.6597 1106.27 78.9763 1106.46 79.1716L1109.65 82.3536ZM1109.5 29L1109.5 82L1110.5 82L1110.5 29L1109.5 29Z" fill="#26734E"/>
<path d="M1110.35 117.646C1110.16 117.451 1109.84 117.451 1109.65 117.646L1106.46 120.828C1106.27 121.024 1106.27 121.34 1106.46 121.536C1106.66 121.731 1106.98 121.731 1107.17 121.536L1110 118.707L1112.83 121.536C1113.02 121.731 1113.34 121.731 1113.54 121.536C1113.73 121.34 1113.73 121.024 1113.54 120.828L1110.35 117.646ZM1109.65 171.354C1109.84 171.549 1110.16 171.549 1110.35 171.354L1113.54 168.172C1113.73 167.976 1113.73 167.66 1113.54 167.464C1113.34 167.269 1113.02 167.269 1112.83 167.464L1110 170.293L1107.17 167.464C1106.98 167.269 1106.66 167.269 1106.46 167.464C1106.27 167.66 1106.27 167.976 1106.46 168.172L1109.65 171.354ZM1109.5 118L1109.5 171L1110.5 171L1110.5 118L1109.5 118Z" fill="#26734E"/>
<path d="M1139.03 44.7615C1140.56 44.7615 1141.94 45.13 1143.17 45.867C1144.41 46.593 1145.38 47.594 1146.11 48.87C1146.84 50.146 1147.2 51.6035 1147.2 53.2425V60.7995C1147.2 62.5375 1146.84 64.061 1146.11 65.37C1145.4 66.668 1144.39 67.68 1143.11 68.406C1141.83 69.132 1140.36 69.495 1138.69 69.495C1137.43 69.495 1136.25 69.2585 1135.15 68.7855C1134.05 68.3125 1133.1 67.6085 1132.28 66.6735L1134.82 64.314C1135.28 64.897 1135.84 65.3645 1136.52 65.7165C1137.21 66.0685 1137.93 66.2445 1138.69 66.2445C1139.66 66.2445 1140.53 66.008 1141.28 65.535C1142.04 65.062 1142.62 64.446 1143.04 63.687C1143.46 62.928 1143.67 62.114 1143.67 61.245V56.889L1144.36 57.648C1143.68 58.539 1142.83 59.243 1141.82 59.76C1140.81 60.277 1139.73 60.5355 1138.57 60.5355C1137.09 60.5355 1135.77 60.1945 1134.61 59.5125C1133.46 58.8305 1132.54 57.901 1131.87 56.724C1131.2 55.547 1130.86 54.216 1130.86 52.731C1130.86 51.246 1131.24 49.904 1131.99 48.705C1132.73 47.506 1133.72 46.549 1134.96 45.834C1136.19 45.119 1137.55 44.7615 1139.03 44.7615ZM1139.03 48.0945C1138.17 48.0945 1137.39 48.3035 1136.67 48.7215C1135.97 49.1285 1135.41 49.684 1134.99 50.388C1134.57 51.092 1134.36 51.873 1134.36 52.731C1134.36 53.589 1134.57 54.3755 1134.99 55.0905C1135.41 55.7945 1135.97 56.3555 1136.67 56.7735C1137.38 57.1915 1138.16 57.4005 1139.02 57.4005C1139.87 57.4005 1140.65 57.1915 1141.36 56.7735C1142.06 56.3555 1142.62 55.7945 1143.04 55.0905C1143.46 54.3755 1143.67 53.589 1143.67 52.731C1143.67 51.884 1143.46 51.1085 1143.04 50.4045C1142.63 49.7005 1142.08 49.1395 1141.38 48.7215C1140.67 48.3035 1139.89 48.0945 1139.03 48.0945ZM1159.08 69.495C1157.53 69.495 1156.16 69.187 1154.96 68.571C1153.77 67.944 1152.83 67.075 1152.15 65.964C1151.48 64.853 1151.15 63.566 1151.15 62.103C1151.15 60.739 1151.47 59.4905 1152.1 58.3575C1152.74 57.2245 1153.69 56.3335 1154.96 55.6845L1154.89 56.8725C1153.88 56.2455 1153.1 55.4645 1152.55 54.5295C1152.01 53.5835 1151.74 52.5275 1151.74 51.3615C1151.74 50.0085 1152.05 48.837 1152.68 47.847C1153.31 46.857 1154.17 46.0925 1155.27 45.5535C1156.38 45.0145 1157.65 44.745 1159.08 44.745C1160.51 44.745 1161.78 45.0145 1162.88 45.5535C1163.98 46.0925 1164.84 46.857 1165.47 47.847C1166.1 48.837 1166.41 50.0085 1166.41 51.3615C1166.41 52.5275 1166.15 53.578 1165.63 54.513C1165.12 55.448 1164.32 56.2345 1163.26 56.8725L1163.21 55.7175C1164.46 56.3335 1165.41 57.2135 1166.06 58.3575C1166.71 59.4905 1167.04 60.739 1167.04 62.103C1167.04 63.566 1166.69 64.853 1166.01 65.964C1165.33 67.075 1164.39 67.944 1163.19 68.571C1161.99 69.187 1160.62 69.495 1159.08 69.495ZM1159.08 66.2115C1160.36 66.2115 1161.39 65.865 1162.18 65.172C1162.98 64.468 1163.37 63.445 1163.37 62.103C1163.37 60.761 1162.98 59.738 1162.18 59.034C1161.4 58.319 1160.37 57.9615 1159.08 57.9615C1157.8 57.9615 1156.76 58.319 1155.96 59.034C1155.18 59.738 1154.79 60.761 1154.79 62.103C1154.79 63.445 1155.19 64.468 1155.98 65.172C1156.77 65.865 1157.81 66.2115 1159.08 66.2115ZM1159.08 54.6615C1160.17 54.6615 1161.05 54.392 1161.72 53.853C1162.4 53.303 1162.75 52.4725 1162.75 51.3615C1162.75 50.2505 1162.4 49.42 1161.72 48.87C1161.05 48.309 1160.17 48.0285 1159.08 48.0285C1157.99 48.0285 1157.11 48.309 1156.43 48.87C1155.74 49.42 1155.4 50.2505 1155.4 51.3615C1155.4 52.4725 1155.74 53.303 1156.43 53.853C1157.11 54.392 1157.99 54.6615 1159.08 54.6615ZM1179.36 69.495C1177.66 69.495 1176.23 69.0825 1175.07 68.2575C1173.92 67.4215 1173.04 66.294 1172.45 64.875C1171.86 63.456 1171.56 61.8555 1171.56 60.0735C1171.56 58.2915 1171.85 56.691 1172.43 55.272C1173.03 53.853 1173.9 52.7365 1175.04 51.9225C1176.2 51.0975 1177.61 50.685 1179.3 50.685C1180.97 50.685 1182.41 51.0975 1183.62 51.9225C1184.84 52.7365 1185.78 53.853 1186.44 55.272C1187.1 56.68 1187.43 58.2805 1187.43 60.0735C1187.43 61.8555 1187.1 63.4615 1186.44 64.8915C1185.79 66.3105 1184.86 67.4325 1183.65 68.2575C1182.45 69.0825 1181.02 69.495 1179.36 69.495ZM1170.98 76.92V51.18H1174.05V64.0005H1174.45V76.92H1170.98ZM1178.88 66.3765C1179.98 66.3765 1180.89 66.096 1181.61 65.535C1182.33 64.974 1182.87 64.2205 1183.22 63.2745C1183.59 62.3175 1183.77 61.2505 1183.77 60.0735C1183.77 58.9075 1183.59 57.8515 1183.22 56.9055C1182.87 55.9595 1182.33 55.206 1181.59 54.645C1180.85 54.084 1179.91 53.8035 1178.77 53.8035C1177.69 53.8035 1176.8 54.0675 1176.1 54.5955C1175.4 55.1235 1174.89 55.8605 1174.55 56.8065C1174.22 57.7525 1174.05 58.8415 1174.05 60.0735C1174.05 61.3055 1174.22 62.3945 1174.55 63.3405C1174.88 64.2865 1175.4 65.029 1176.11 65.568C1176.83 66.107 1177.75 66.3765 1178.88 66.3765ZM1188.28 69L1194.95 59.991L1188.43 51.18H1192.52L1196.96 57.3015L1201.35 51.18H1205.44L1198.92 59.991L1205.61 69H1201.5L1196.96 62.6805L1192.39 69H1188.28Z" fill="#26734E"/>
</svg>
