<svg width="93" height="95" viewBox="0 0 93 95" fill="none" xmlns="http://www.w3.org/2000/svg">
<mask id="path-1-outside-1_1578_254" maskUnits="userSpaceOnUse" x="4" y="0.405762" width="87" height="95" fill="black">
<rect fill="white" x="4" y="0.405762" width="87" height="95"/>
<path fill-rule="evenodd" clip-rule="evenodd" d="M50.2486 5.64557L82.3489 42.0001H65.5284L65.5284 42.0001H30.1357L30.1357 42.0001H12.6511L44.7514 5.64556C46.211 3.99254 48.789 3.99254 50.2486 5.64557ZM27.4908 45.0002H10.0022H6L8.64897 42.0001L42.5026 3.65988C45.1564 0.654386 49.8436 0.654388 52.4974 3.65989L86.351 42.0001L89 45.0002H84.9978H68.1733L86.6871 66.0001L89.332 69.0001H85.3326H67.7467L86.4496 91.0001L89 94.0001H85.0624H9.93762H6L8.55042 91.0001L27.2533 69.0001H10.3315H6.33203L8.97691 66.0001L27.4908 45.0002ZM31.4902 45.0002L12.9764 66.0001H82.6877L64.1738 45.0002H31.4902ZM31.1908 69.0001L12.488 91.0001H82.512L63.8092 69.0001H31.1908Z"/>
</mask>
<path fill-rule="evenodd" clip-rule="evenodd" d="M50.2486 5.64557L82.3489 42.0001H65.5284L65.5284 42.0001H30.1357L30.1357 42.0001H12.6511L44.7514 5.64556C46.211 3.99254 48.789 3.99254 50.2486 5.64557ZM27.4908 45.0002H10.0022H6L8.64897 42.0001L42.5026 3.65988C45.1564 0.654386 49.8436 0.654388 52.4974 3.65989L86.351 42.0001L89 45.0002H84.9978H68.1733L86.6871 66.0001L89.332 69.0001H85.3326H67.7467L86.4496 91.0001L89 94.0001H85.0624H9.93762H6L8.55042 91.0001L27.2533 69.0001H10.3315H6.33203L8.97691 66.0001L27.4908 45.0002ZM31.4902 45.0002L12.9764 66.0001H82.6877L64.1738 45.0002H31.4902ZM31.1908 69.0001L12.488 91.0001H82.512L63.8092 69.0001H31.1908Z" fill="#26734E"/>
<path d="M82.3489 42.0001V42.6668H83.8269L82.8486 41.5589L82.3489 42.0001ZM50.2486 5.64557L50.7483 5.20431L50.7483 5.20431L50.2486 5.64557ZM65.5284 42.0001L65.0222 42.434L65.2218 42.6668H65.5284V42.0001ZM65.5284 42.0001L66.0346 41.5662L65.835 41.3334H65.5284V42.0001ZM30.1357 42.0001V41.3334H29.8291L29.6295 41.5662L30.1357 42.0001ZM30.1357 42.0001V42.6668H30.4423L30.6418 42.434L30.1357 42.0001ZM12.6511 42.0001L12.1514 41.5589L11.1731 42.6668H12.6511V42.0001ZM44.7514 5.64556L45.2512 6.08682L45.2512 6.08682L44.7514 5.64556ZM27.4908 45.0002L27.9909 45.441L28.9673 44.3335H27.4908V45.0002ZM6 45.0002L5.50026 44.5589L4.52199 45.6668H6V45.0002ZM8.64897 42.0001L8.14923 41.5589L8.64897 42.0001ZM42.5026 3.65988L42.0028 3.21863L42.0028 3.21863L42.5026 3.65988ZM52.4974 3.65989L51.9977 4.10114L51.9977 4.10114L52.4974 3.65989ZM86.351 42.0001L86.8508 41.5589L86.8508 41.5589L86.351 42.0001ZM89 45.0002V45.6668H90.478L89.4997 44.5589L89 45.0002ZM68.1733 45.0002V44.3335H66.6968L67.6732 45.441L68.1733 45.0002ZM86.6871 66.0001L86.1871 66.4409L86.1871 66.4409L86.6871 66.0001ZM89.332 69.0001V69.6668H90.8085L89.8321 68.5592L89.332 69.0001ZM67.7467 69.0001V68.3334H66.305L67.2388 69.4319L67.7467 69.0001ZM86.4496 91.0001L86.9575 90.5682L86.9575 90.5682L86.4496 91.0001ZM89 94.0001V94.6668H90.4418L89.5079 93.5683L89 94.0001ZM6 94.0001L5.49207 93.5683L4.55823 94.6668H6V94.0001ZM8.55042 91.0001L8.04249 90.5682L8.04249 90.5682L8.55042 91.0001ZM27.2533 69.0001L27.7612 69.4319L28.695 68.3334H27.2533V69.0001ZM6.33203 69.0001L5.83196 68.5592L4.85553 69.6668H6.33203V69.0001ZM8.97691 66.0001L9.47699 66.4409L9.47699 66.4409L8.97691 66.0001ZM12.9764 66.0001L12.4763 65.5592L11.4999 66.6667H12.9764V66.0001ZM31.4902 45.0002V44.3335H31.1892L30.9902 44.5593L31.4902 45.0002ZM82.6877 66.0001V66.6667H84.1642L83.1878 65.5592L82.6877 66.0001ZM64.1738 45.0002L64.6739 44.5593L64.4748 44.3335H64.1738V45.0002ZM12.488 91.0001L11.9801 90.5682L11.0463 91.6667H12.488V91.0001ZM31.1908 69.0001V68.3335H30.8826L30.6829 68.5683L31.1908 69.0001ZM82.512 91.0001V91.6667H83.9537L83.0199 90.5682L82.512 91.0001ZM63.8092 69.0001L64.3171 68.5683L64.1174 68.3335H63.8092V69.0001ZM82.8486 41.5589L50.7483 5.20431L49.7488 6.08682L81.8491 42.4414L82.8486 41.5589ZM65.5284 42.6668H82.3489V41.3335H65.5284V42.6668ZM65.0222 42.434L65.0222 42.434L66.0346 41.5663L66.0346 41.5662L65.0222 42.434ZM30.1357 42.6668H65.5284V41.3334H30.1357V42.6668ZM30.6418 42.434L30.6419 42.434L29.6295 41.5662L29.6295 41.5663L30.6418 42.434ZM12.6511 42.6668H30.1357V41.3335H12.6511V42.6668ZM44.2517 5.20431L12.1514 41.5589L13.1509 42.4414L45.2512 6.08682L44.2517 5.20431ZM50.7483 5.20431C49.0234 3.25074 45.9766 3.25074 44.2517 5.20431L45.2512 6.08682C46.4454 4.73434 48.5546 4.73434 49.7488 6.08682L50.7483 5.20431ZM10.0022 45.6668H27.4908V44.3335H10.0022V45.6668ZM6 45.6668H10.0022V44.3335H6V45.6668ZM8.14923 41.5589L5.50026 44.5589L6.49974 45.4414L9.1487 42.4414L8.14923 41.5589ZM42.0028 3.21863L8.14923 41.5589L9.1487 42.4414L43.0023 4.10114L42.0028 3.21863ZM52.9972 3.21863C50.078 -0.0874152 44.922 -0.0874174 42.0028 3.21863L43.0023 4.10114C45.3907 1.39619 49.6093 1.39619 51.9977 4.10114L52.9972 3.21863ZM86.8508 41.5589L52.9972 3.21863L51.9977 4.10114L85.8513 42.4414L86.8508 41.5589ZM89.4997 44.5589L86.8508 41.5589L85.8513 42.4414L88.5003 45.4414L89.4997 44.5589ZM84.9978 45.6668H89V44.3335H84.9978V45.6668ZM68.1733 45.6668H84.9978V44.3335H68.1733V45.6668ZM67.6732 45.441L86.1871 66.4409L87.1872 65.5592L68.6734 44.5593L67.6732 45.441ZM86.1871 66.4409L88.832 69.441L89.8321 68.5592L87.1872 65.5592L86.1871 66.4409ZM89.332 68.3334H85.3326V69.6668H89.332V68.3334ZM85.3326 68.3334H67.7467V69.6668H85.3326V68.3334ZM67.2388 69.4319L85.9417 91.4319L86.9575 90.5682L68.2547 68.5683L67.2388 69.4319ZM85.9417 91.4319L88.4921 94.4319L89.5079 93.5683L86.9575 90.5682L85.9417 91.4319ZM89 93.3334H85.0624V94.6668H89V93.3334ZM85.0624 93.3334H9.93762V94.6668H85.0624V93.3334ZM9.93762 93.3334H6V94.6668H9.93762V93.3334ZM6.50793 94.4319L9.05835 91.4319L8.04249 90.5682L5.49207 93.5683L6.50793 94.4319ZM9.05835 91.4319L27.7612 69.4319L26.7453 68.5683L8.04249 90.5682L9.05835 91.4319ZM27.2533 68.3334H10.3315V69.6668H27.2533V68.3334ZM10.3315 68.3334H6.33203V69.6668H10.3315V68.3334ZM6.83211 69.441L9.47699 66.4409L8.47684 65.5592L5.83196 68.5592L6.83211 69.441ZM9.47699 66.4409L27.9909 45.441L26.9907 44.5593L8.47684 65.5592L9.47699 66.4409ZM13.4764 66.4409L31.9903 45.441L30.9902 44.5593L12.4763 65.5592L13.4764 66.4409ZM82.6877 65.3334H12.9764V66.6667H82.6877V65.3334ZM63.6738 45.441L82.1876 66.4409L83.1878 65.5592L64.6739 44.5593L63.6738 45.441ZM31.4902 45.6668H64.1738V44.3335H31.4902V45.6668ZM12.996 91.4319L31.6988 69.4319L30.6829 68.5683L11.9801 90.5682L12.996 91.4319ZM82.512 90.3334H12.488V91.6667H82.512V90.3334ZM63.3012 69.4319L82.004 91.4319L83.0199 90.5682L64.3171 68.5683L63.3012 69.4319ZM31.1908 69.6668H63.8092V68.3335H31.1908V69.6668Z" fill="#26734E" mask="url(#path-1-outside-1_1578_254)"/>
</svg>
