<svg width="81" height="87" viewBox="0 0 81 87" fill="none" xmlns="http://www.w3.org/2000/svg">
<path d="M2.48376 63.5393H20.8863L1.91303 85.8573L1.42276 86.434H2.17969H78.1902H78.9471L78.4569 85.8573L59.4836 63.5393H78.4943H79.2694L78.7568 62.9578L59.8925 41.5604H78.1902H78.9662L78.4526 40.9787L45.0239 3.11975C42.4543 0.209563 37.9156 0.209561 35.346 3.11975L1.91733 40.9787L1.40373 41.5604H2.17969H21.0856L2.22122 62.9578L1.7086 63.5393H2.48376ZM42.4397 5.40154L71.3232 38.113H9.04667L37.9302 5.40154C39.1275 4.0455 41.2424 4.0455 42.4397 5.40154ZM71.6343 60.0919H9.34373L25.6814 41.5604H55.2966L71.6343 60.0919ZM71.4916 82.9866H8.8783L25.411 63.5393H54.9589L71.4916 82.9866Z" fill="#26734E" stroke="#26734E" stroke-width="0.7"/>
</svg>
