<svg width="569" height="677" viewBox="0 0 569 677" fill="none" xmlns="http://www.w3.org/2000/svg">
<g clip-path="url(#clip0_736_177)">
<path d="M256.332 410.197C272.724 396.784 296.298 396.784 312.691 410.197L546.268 601.308C578.635 627.79 559.909 680.249 518.089 680.249H50.9334C9.11313 680.249 -9.61282 627.79 22.7541 601.308L256.332 410.197Z" fill="#26AB69" stroke="#155335" stroke-width="3"/>
<path d="M256.332 217.595C272.724 204.183 296.298 204.183 312.691 217.595L546.268 408.707C578.635 435.189 559.909 487.648 518.089 487.648H50.9334C9.11313 487.648 -9.61282 435.189 22.7541 408.707L256.332 217.595Z" fill="#26AB69" stroke="#155335" stroke-width="3"/>
<path d="M256.332 24.9942C272.724 11.5821 296.298 11.5821 312.691 24.9942L546.268 216.106C578.635 242.588 559.909 295.047 518.089 295.047H50.9334C9.11313 295.047 -9.61282 242.588 22.7541 216.106L256.332 24.9942Z" fill="#26AB69" stroke="#155335" stroke-width="3"/>
<path d="M393.452 628.909C393.452 611.981 390.254 596.73 385.148 585.766C379.985 574.679 373.152 568.5 366.121 568.5C359.09 568.5 352.257 574.679 347.093 585.766C341.987 596.73 338.789 611.981 338.789 628.909C338.789 645.836 341.987 661.088 347.093 672.052C352.257 683.138 359.09 689.318 366.121 689.318C373.152 689.318 379.985 683.138 385.148 672.052C390.254 661.088 393.452 645.836 393.452 628.909Z" fill="#57F0A0" stroke="#155335" stroke-width="3"/>
<path d="M334.062 626.947C319.967 614.95 304.992 606.062 292.225 601.365C285.837 599.015 280.082 597.743 275.312 597.611C270.545 597.48 266.925 598.484 264.529 600.523C262.133 602.563 260.953 605.644 261.108 609.701C261.262 613.761 262.756 618.66 265.518 624.098C271.036 634.964 281.478 647.711 295.573 659.708C309.668 671.705 324.643 680.593 337.41 685.29C343.798 687.64 349.553 688.912 354.323 689.044C359.09 689.175 362.71 688.17 365.106 686.131C367.502 684.092 368.682 681.01 368.528 676.954C368.373 672.893 366.879 667.994 364.118 662.557C358.599 651.691 348.157 638.944 334.062 626.947Z" fill="#57F0A0" stroke="#155335" stroke-width="3"/>
<path d="M398.184 626.947C412.279 614.95 427.254 606.062 440.021 601.365C446.409 599.015 452.164 597.743 456.934 597.611C461.701 597.48 465.321 598.484 467.717 600.523C470.113 602.563 471.293 605.644 471.139 609.701C470.984 613.761 469.49 618.66 466.729 624.098C461.21 634.964 450.768 647.711 436.673 659.708C422.578 671.705 407.603 680.593 394.836 685.29C388.448 687.64 382.693 688.912 377.923 689.044C373.156 689.175 369.536 688.17 367.14 686.131C364.744 684.092 363.564 681.01 363.719 676.954C363.873 672.893 365.367 667.994 368.129 662.557C373.647 651.691 384.089 638.944 398.184 626.947Z" fill="#57F0A0" stroke="#155335" stroke-width="3"/>
</g>
<defs>
<clipPath id="clip0_736_177">
<rect width="569" height="677" fill="white"/>
</clipPath>
</defs>
</svg>
