<svg width="1316" height="272" viewBox="0 0 1316 272" fill="none" xmlns="http://www.w3.org/2000/svg">
<rect width="429" height="271.193" rx="12" fill="#26734E"/>
<rect x="444" width="427.438" height="271.193" rx="12" fill="#FFFAB1"/>
<rect x="887" width="429" height="271.193" rx="12" fill="#A7EF9B"/>
<path d="M169.28 124.439L169.28 124.438C169.279 97.6845 180.934 72.2917 192.753 53.4519C198.647 44.0568 204.543 36.3527 208.963 31.001C211.172 28.3263 213.009 26.2425 214.29 24.8324C214.347 24.7691 214.404 24.7071 214.459 24.6466C214.535 24.729 214.613 24.8141 214.694 24.9019C215.977 26.2992 217.817 28.3646 220.028 31.0187C224.453 36.3292 230.356 43.9849 236.256 53.3526C248.09 72.1397 259.759 97.5674 259.759 124.648C259.759 151.713 248.102 177.106 236.288 195.861C230.396 205.216 224.501 212.861 220.083 218.163C217.875 220.813 216.038 222.875 214.759 224.269C214.695 224.339 214.632 224.407 214.571 224.473C214.492 224.39 214.411 224.304 214.328 224.215C213.047 222.849 211.208 220.826 208.998 218.22C204.576 213.004 198.676 205.462 192.778 196.172C180.954 177.547 169.28 152.118 169.28 124.439Z" fill="#26734E" stroke="#FDFFDD" stroke-width="5"/>
<path d="M307.526 205.191C289.668 222.314 265.947 230.756 246.51 234.897C236.815 236.962 228.247 237.945 222.109 238.41C219.042 238.642 216.585 238.745 214.902 238.791C214.9 238.791 214.897 238.791 214.895 238.791C214.895 238.788 214.895 238.786 214.895 238.784C214.942 237.17 215.05 234.815 215.292 231.873C215.777 225.988 216.802 217.773 218.956 208.477C223.274 189.84 232.079 167.096 249.937 149.973C267.795 132.85 291.516 124.408 310.953 120.267C320.648 118.202 329.216 117.219 335.354 116.754C338.421 116.522 340.878 116.419 342.561 116.373C342.563 116.373 342.566 116.373 342.568 116.373C342.568 116.376 342.568 116.378 342.568 116.38C342.521 117.994 342.413 120.349 342.171 123.291C341.686 129.176 340.661 137.391 338.507 146.687C334.189 165.324 325.384 188.068 307.526 205.191Z" fill="#26734E" stroke="#FDFFDD" stroke-width="5"/>
<path d="M121.224 205.191C139.082 222.314 162.802 230.756 182.24 234.897C191.935 236.963 200.503 237.945 206.641 238.41C209.708 238.643 212.165 238.746 213.848 238.791C213.85 238.791 213.853 238.791 213.855 238.791C213.855 238.789 213.855 238.786 213.855 238.784C213.808 237.171 213.7 234.815 213.458 231.874C212.973 225.988 211.948 217.773 209.794 208.477C205.476 189.84 196.671 167.096 178.813 149.973C160.955 132.85 137.234 124.408 117.797 120.267C108.102 118.202 99.5343 117.22 93.3961 116.754C90.3285 116.522 87.8718 116.419 86.1893 116.374C86.1868 116.374 86.1843 116.374 86.1818 116.373C86.1819 116.376 86.1819 116.378 86.182 116.381C86.229 117.994 86.3366 120.349 86.5791 123.291C87.0644 129.176 88.0886 137.391 90.2427 146.687C94.5614 165.324 103.366 188.068 121.224 205.191Z" fill="#26734E" stroke="#FDFFDD" stroke-width="5"/>
<path d="M612.28 124.439L612.28 124.438C612.279 97.6845 623.934 72.2917 635.753 53.4519C641.647 44.0568 647.543 36.3527 651.963 31.001C654.172 28.3263 656.009 26.2425 657.29 24.8324C657.347 24.7691 657.404 24.7071 657.459 24.6466C657.535 24.729 657.613 24.8141 657.694 24.9019C658.977 26.2992 660.817 28.3646 663.028 31.0187C667.453 36.3292 673.356 43.9849 679.256 53.3526C691.09 72.1397 702.759 97.5674 702.759 124.648C702.759 151.713 691.102 177.106 679.288 195.861C673.396 205.216 667.501 212.861 663.083 218.163C660.875 220.813 659.038 222.875 657.759 224.269C657.695 224.339 657.632 224.407 657.571 224.473C657.492 224.39 657.411 224.304 657.328 224.215C656.047 222.849 654.208 220.826 651.998 218.22C647.576 213.004 641.676 205.462 635.778 196.172C623.954 177.547 612.28 152.118 612.28 124.439Z" fill="#FFFAB1" stroke="#26734E" stroke-width="5"/>
<path d="M750.526 205.191C732.668 222.314 708.947 230.756 689.51 234.897C679.815 236.962 671.247 237.945 665.109 238.41C662.042 238.642 659.585 238.745 657.902 238.791C657.9 238.791 657.897 238.791 657.895 238.791C657.895 238.788 657.895 238.786 657.895 238.784C657.942 237.17 658.05 234.815 658.292 231.873C658.777 225.988 659.802 217.773 661.956 208.477C666.274 189.84 675.079 167.096 692.937 149.973C710.795 132.85 734.516 124.408 753.953 120.267C763.648 118.202 772.216 117.219 778.354 116.754C781.421 116.522 783.878 116.419 785.561 116.373C785.563 116.373 785.566 116.373 785.568 116.373C785.568 116.376 785.568 116.378 785.568 116.38C785.521 117.994 785.413 120.349 785.171 123.291C784.686 129.176 783.661 137.391 781.507 146.687C777.189 165.324 768.384 188.068 750.526 205.191Z" fill="#FFFAB1" stroke="#26734E" stroke-width="5"/>
<path d="M564.224 205.191C582.082 222.314 605.802 230.756 625.24 234.897C634.935 236.963 643.503 237.945 649.641 238.41C652.708 238.643 655.165 238.746 656.848 238.791C656.85 238.791 656.853 238.791 656.855 238.791C656.855 238.789 656.855 238.786 656.855 238.784C656.808 237.171 656.7 234.815 656.458 231.874C655.973 225.988 654.948 217.773 652.794 208.477C648.476 189.84 639.671 167.096 621.813 149.973C603.955 132.85 580.234 124.408 560.797 120.267C551.102 118.202 542.534 117.22 536.396 116.754C533.329 116.522 530.872 116.419 529.189 116.374C529.187 116.374 529.184 116.374 529.182 116.373C529.182 116.376 529.182 116.378 529.182 116.381C529.229 117.994 529.337 120.349 529.579 123.291C530.064 129.176 531.089 137.391 533.243 146.687C537.561 165.324 546.366 188.068 564.224 205.191Z" fill="#FFFAB1" stroke="#26734E" stroke-width="5"/>
<path d="M1056.28 124.439L1056.28 124.438C1056.28 97.6845 1067.93 72.2917 1079.75 53.4519C1085.65 44.0568 1091.54 36.3527 1095.96 31.001C1098.17 28.3263 1100.01 26.2425 1101.29 24.8324C1101.35 24.7691 1101.4 24.7071 1101.46 24.6466C1101.54 24.729 1101.61 24.8141 1101.69 24.9019C1102.98 26.2992 1104.82 28.3646 1107.03 31.0187C1111.45 36.3292 1117.36 43.9849 1123.26 53.3526C1135.09 72.1397 1146.76 97.5674 1146.76 124.648C1146.76 151.713 1135.1 177.106 1123.29 195.861C1117.4 205.216 1111.5 212.861 1107.08 218.163C1104.87 220.813 1103.04 222.875 1101.76 224.269C1101.69 224.339 1101.63 224.407 1101.57 224.473C1101.49 224.39 1101.41 224.304 1101.33 224.215C1100.05 222.849 1098.21 220.826 1096 218.22C1091.58 213.004 1085.68 205.462 1079.78 196.172C1067.95 177.547 1056.28 152.118 1056.28 124.439Z" fill="#FFF897" stroke="#26734E" stroke-width="5"/>
<path d="M1194.53 205.191C1176.67 222.314 1152.95 230.756 1133.51 234.897C1123.81 236.962 1115.25 237.945 1109.11 238.41C1106.04 238.642 1103.58 238.745 1101.9 238.791C1101.9 238.791 1101.9 238.791 1101.89 238.791C1101.89 238.788 1101.89 238.786 1101.9 238.784C1101.94 237.17 1102.05 234.815 1102.29 231.873C1102.78 225.988 1103.8 217.773 1105.96 208.477C1110.27 189.84 1119.08 167.096 1136.94 149.973C1154.8 132.85 1178.52 124.408 1197.95 120.267C1207.65 118.202 1216.22 117.219 1222.35 116.754C1225.42 116.522 1227.88 116.419 1229.56 116.373C1229.56 116.373 1229.57 116.373 1229.57 116.373C1229.57 116.376 1229.57 116.378 1229.57 116.38C1229.52 117.994 1229.41 120.349 1229.17 123.291C1228.69 129.176 1227.66 137.391 1225.51 146.687C1221.19 165.324 1212.38 188.068 1194.53 205.191Z" fill="#FFF897" stroke="#26734E" stroke-width="5"/>
<path d="M1008.22 205.191C1026.08 222.314 1049.8 230.756 1069.24 234.897C1078.94 236.963 1087.5 237.945 1093.64 238.41C1096.71 238.643 1099.17 238.746 1100.85 238.791C1100.85 238.791 1100.85 238.791 1100.86 238.791C1100.86 238.789 1100.85 238.786 1100.85 238.784C1100.81 237.171 1100.7 234.815 1100.46 231.874C1099.97 225.988 1098.95 217.773 1096.79 208.477C1092.48 189.84 1083.67 167.096 1065.81 149.973C1047.95 132.85 1024.23 124.408 1004.8 120.267C995.102 118.202 986.534 117.22 980.396 116.754C977.329 116.522 974.872 116.419 973.189 116.374C973.187 116.374 973.184 116.374 973.182 116.373C973.182 116.376 973.182 116.378 973.182 116.381C973.229 117.994 973.337 120.349 973.579 123.291C974.064 129.176 975.089 137.391 977.243 146.687C981.561 165.324 990.366 188.068 1008.22 205.191Z" fill="#FFF897" stroke="#26734E" stroke-width="5"/>
</svg>
