<svg width="115" height="30" viewBox="0 0 115 30" fill="none" xmlns="http://www.w3.org/2000/svg">
<path d="M6.48901 29L0.600835 12.7775H3.30459L7.85591 25.5903L12.3922 12.7775H15.111L9.22281 29H6.48901ZM23.9705 29.4506C22.3783 29.4506 20.9863 29.1001 19.7947 28.3992C18.613 27.6882 17.6918 26.7018 17.0308 25.4401C16.3699 24.1683 16.0395 22.6862 16.0395 20.9939C16.0395 19.2214 16.3649 17.6893 17.0158 16.3975C17.6667 15.0957 18.573 14.0943 19.7346 13.3933C20.9062 12.6823 22.2781 12.3268 23.8503 12.3268C25.4826 12.3268 26.8695 12.7024 28.0111 13.4534C29.1627 14.2044 30.0239 15.2759 30.5947 16.6679C31.1755 18.0598 31.4258 19.7171 31.3457 21.6398H28.642V20.6784C28.6119 18.6857 28.2064 17.1986 27.4253 16.2172C26.6442 15.2259 25.4826 14.7302 23.9404 14.7302C22.2881 14.7302 21.0314 15.2609 20.1702 16.3224C19.309 17.3839 18.8784 18.906 18.8784 20.8887C18.8784 22.8014 19.309 24.2834 20.1702 25.3349C21.0314 26.3864 22.2581 26.9121 23.8503 26.9121C24.9218 26.9121 25.8531 26.6668 26.6442 26.1761C27.4353 25.6854 28.0562 24.9794 28.5068 24.0581L31.0754 24.9444C30.4445 26.3764 29.4932 27.4879 28.2214 28.279C26.9596 29.0601 25.5427 29.4506 23.9705 29.4506ZM17.9772 21.6398V19.4918H29.9638V21.6398H17.9772ZM34.3896 29V12.7775H36.7779V16.6979L36.3873 16.1872C36.5776 15.6865 36.8229 15.2259 37.1234 14.8053C37.4338 14.3847 37.7793 14.0392 38.1598 13.7688C38.5804 13.4284 39.056 13.168 39.5868 12.9878C40.1175 12.8075 40.6583 12.7024 41.209 12.6723C41.7598 12.6323 42.2755 12.6673 42.7562 12.7775V15.286C42.1954 15.1357 41.5796 15.0957 40.9086 15.1658C40.2377 15.2359 39.6168 15.4812 39.046 15.9018C38.5253 16.2723 38.1197 16.7229 37.8293 17.2537C37.549 17.7844 37.3537 18.3602 37.2435 18.9811C37.1334 19.5919 37.0783 20.2178 37.0783 20.8587V29H34.3896ZM60.0711 23.6289L60.819 24.0708C59.0739 27.6742 57.2722 29.4759 55.4139 29.4759C54.0767 29.4759 53.4082 28.5694 53.4082 26.7564C53.4082 26.3484 53.5328 25.6232 53.7821 24.5807C53.1249 26.1218 52.2524 27.3229 51.1645 28.1841C50.0767 29.0453 48.9209 29.4759 47.6971 29.4759C46.36 29.4759 45.3175 29.0113 44.5696 28.0821C43.8217 27.153 43.4478 25.8725 43.4478 24.2408C43.4024 22.4957 43.765 20.7393 44.5356 18.9716C45.3288 17.2039 46.3826 15.7534 47.6971 14.6203C49.0342 13.4645 50.4053 12.9092 51.8104 12.9546C52.8529 12.9546 53.7028 13.3172 54.36 14.0424C55.0173 14.7449 55.4025 15.7421 55.5158 17.0339L56.4677 13.4305H59.6632L56.9776 23.2209C56.4564 25.1246 56.1957 26.4051 56.1957 27.0623C56.1957 27.6289 56.445 27.9122 56.9436 27.9122C57.3289 27.9122 57.8048 27.5042 58.3714 26.6884C59.006 25.8045 59.5725 24.7847 60.0711 23.6289ZM48.8869 28.2181C49.9521 28.2181 50.9492 27.6176 51.8784 26.4164C52.8076 25.2606 53.5328 23.8668 54.0541 22.2351C54.5527 20.6713 54.802 19.2096 54.802 17.8498C54.802 16.6486 54.5867 15.7421 54.1561 15.1302C53.7255 14.5183 53.1589 14.2124 52.4563 14.2124C51.3912 14.2124 50.3827 14.8356 49.4308 16.0821C48.5243 17.3059 47.8104 18.7223 47.2892 20.3314C46.7906 21.8951 46.5413 23.3682 46.5413 24.7507C46.5413 27.0623 47.3231 28.2181 48.8869 28.2181ZM58.6773 7.92336L58.2694 9.75906H49.2608L49.6688 7.92336H58.6773ZM74.3959 29V20.8737C74.3959 20.1026 74.3258 19.3616 74.1857 18.6506C74.0555 17.9396 73.8201 17.3038 73.4797 16.743C73.1492 16.1722 72.6986 15.7216 72.1278 15.3911C71.567 15.0606 70.856 14.8954 69.9948 14.8954C69.3239 14.8954 68.7131 15.0106 68.1623 15.2409C67.6215 15.4612 67.1559 15.8017 66.7653 16.2623C66.3748 16.7229 66.0694 17.3038 65.8491 18.0047C65.6388 18.6957 65.5336 19.5118 65.5336 20.4531L63.7762 19.9124C63.7762 18.3402 64.0566 16.9933 64.6174 15.8718C65.1882 14.7402 65.9843 13.874 67.0057 13.2732C68.0371 12.6623 69.2488 12.3569 70.6407 12.3569C71.6922 12.3569 72.5884 12.5221 73.3295 12.8526C74.0705 13.183 74.6863 13.6236 75.177 14.1744C75.6677 14.7152 76.0532 15.326 76.3336 16.007C76.614 16.6779 76.8093 17.3638 76.9194 18.0648C77.0396 18.7558 77.0997 19.4117 77.0997 20.0325V29H74.3959ZM62.8299 29V12.7775H65.2332V17.1185H65.5336V29H62.8299ZM86.9266 29.4506C85.4145 29.4506 84.1177 29.0751 83.0362 28.3241C81.9547 27.563 81.1186 26.5366 80.5277 25.2448C79.9469 23.953 79.6565 22.496 79.6565 20.8737C79.6565 19.2515 79.9469 17.7944 80.5277 16.5026C81.1186 15.2108 81.9547 14.1944 83.0362 13.4534C84.1177 12.7024 85.4095 12.3268 86.9116 12.3268C88.4437 12.3268 89.7305 12.6974 90.772 13.4384C91.8134 14.1794 92.5995 15.1958 93.1302 16.4876C93.671 17.7794 93.9414 19.2414 93.9414 20.8737C93.9414 22.486 93.671 23.943 93.1302 25.2448C92.5995 26.5366 91.8134 27.563 90.772 28.3241C89.7305 29.0751 88.4487 29.4506 86.9266 29.4506ZM87.2571 27.0022C88.3486 27.0022 89.2449 26.7419 89.9458 26.2211C90.6468 25.6904 91.1625 24.9644 91.493 24.0431C91.8334 23.1118 92.0037 22.0554 92.0037 20.8737C92.0037 19.672 91.8334 18.6156 91.493 17.7043C91.1625 16.783 90.6518 16.067 89.9608 15.5563C89.2699 15.0356 88.3937 14.7752 87.3322 14.7752C86.2307 14.7752 85.3194 15.0456 84.5984 15.5864C83.8874 16.1271 83.3567 16.8581 83.0062 17.7794C82.6657 18.7007 82.4955 19.7321 82.4955 20.8737C82.4955 22.0253 82.6707 23.0668 83.0212 23.9981C83.3717 24.9193 83.8974 25.6503 84.5984 26.1911C85.3094 26.7318 86.1956 27.0022 87.2571 27.0022ZM92.0037 29V17.0584H91.7033V7.36995H94.392V29H92.0037ZM102.911 29.4506C101.7 29.4506 100.683 29.2303 99.8622 28.7897C99.051 28.3391 98.4352 27.7483 98.0146 27.0172C97.604 26.2862 97.3988 25.4851 97.3988 24.6139C97.3988 23.7627 97.559 23.0267 97.8794 22.4058C98.2099 21.775 98.6705 21.2542 99.2613 20.8437C99.8522 20.4231 100.558 20.0926 101.379 19.8523C102.15 19.642 103.012 19.4618 103.963 19.3115C104.924 19.1513 105.896 19.0061 106.877 18.8759C107.858 18.7458 108.775 18.6206 109.626 18.5004L108.664 19.0562C108.694 17.6142 108.404 16.5477 107.793 15.8567C107.192 15.1658 106.151 14.8203 104.669 14.8203C103.687 14.8203 102.826 15.0456 102.085 15.4962C101.354 15.9369 100.839 16.6579 100.538 17.6592L97.9996 16.8932C98.3901 15.4712 99.1462 14.3547 100.268 13.5435C101.389 12.7324 102.866 12.3268 104.699 12.3268C106.171 12.3268 107.433 12.5922 108.484 13.1229C109.546 13.6437 110.307 14.4348 110.767 15.4962C110.998 15.9969 111.143 16.5427 111.203 17.1335C111.263 17.7143 111.293 18.3252 111.293 18.9661V29H108.92V25.1096L109.476 25.4701C108.865 26.7819 108.008 27.7733 106.907 28.4442C105.815 29.1152 104.484 29.4506 102.911 29.4506ZM103.317 27.2125C104.278 27.2125 105.109 27.0423 105.81 26.7018C106.521 26.3513 107.092 25.8957 107.523 25.3349C107.953 24.7641 108.234 24.1433 108.364 23.4723C108.514 22.9716 108.594 22.4159 108.604 21.805C108.624 21.1841 108.634 20.7085 108.634 20.378L109.566 20.7836C108.694 20.9038 107.838 21.0189 106.997 21.1291C106.156 21.2392 105.36 21.3594 104.609 21.4896C103.858 21.6097 103.182 21.7549 102.581 21.9252C102.14 22.0654 101.725 22.2456 101.334 22.4659C100.954 22.6862 100.643 22.9716 100.403 23.3221C100.173 23.6626 100.057 24.0882 100.057 24.5989C100.057 25.0395 100.168 25.4601 100.388 25.8606C100.618 26.2612 100.969 26.5866 101.439 26.837C101.92 27.0873 102.546 27.2125 103.317 27.2125Z" fill="#26734E"/>
</svg>
