<svg width="151" height="46" viewBox="0 0 151 46" fill="none" xmlns="http://www.w3.org/2000/svg">
<path d="M8.65202 38L0.801113 16.37H4.40612L10.4746 33.4537L16.523 16.37H20.148L12.2971 38H8.65202ZM31.9606 38.6008C29.8377 38.6008 27.9818 38.1335 26.3929 37.1989C24.8174 36.2509 23.589 34.9357 22.7078 33.2534C21.8266 31.5577 21.386 29.5816 21.386 27.3252C21.386 24.9619 21.8199 22.9191 22.6878 21.1967C23.5556 19.4609 24.764 18.1257 26.3128 17.1911C27.875 16.2431 29.7042 15.7691 31.8004 15.7691C33.9768 15.7691 35.826 16.2698 37.3481 17.2712C38.8836 18.2726 40.0319 19.7012 40.7929 21.5572C41.5673 23.4131 41.9011 25.6228 41.7943 28.1864H38.1893V26.9046C38.1492 24.2476 37.6085 22.2648 36.567 20.9563C35.5256 19.6345 33.9768 18.9736 31.9206 18.9736C29.7175 18.9736 28.0419 19.6812 26.8936 21.0965C25.7453 22.5118 25.1712 24.5413 25.1712 27.185C25.1712 29.7352 25.7453 31.7113 26.8936 33.1132C28.0419 34.5152 29.6775 35.2161 31.8004 35.2161C33.2291 35.2161 34.4708 34.889 35.5256 34.2348C36.5804 33.5805 37.4082 32.6392 38.009 31.4108L41.4338 32.5925C40.5926 34.5018 39.3242 35.9839 37.6285 37.0387C35.9462 38.0801 34.0569 38.6008 31.9606 38.6008ZM23.9695 28.1864V25.3224H39.9517V28.1864H23.9695ZM45.8528 38V16.37H49.0372V21.5972L48.5165 20.9163C48.7701 20.2487 49.0973 19.6345 49.4978 19.0737C49.9117 18.5129 50.3724 18.0523 50.8797 17.6918C51.4405 17.2378 52.0747 16.8907 52.7824 16.6503C53.49 16.41 54.211 16.2698 54.9454 16.2298C55.6797 16.1764 56.3674 16.2231 57.0083 16.37V19.7146C56.2605 19.5143 55.4394 19.4609 54.5448 19.5544C53.6503 19.6478 52.8224 19.975 52.0614 20.5357C51.3671 21.0298 50.8263 21.6306 50.4391 22.3382C50.0653 23.0459 49.8049 23.8136 49.658 24.6414C49.5112 25.4559 49.4377 26.2904 49.4377 27.1449V38H45.8528ZM80.0948 30.8385L81.092 31.4277C78.7653 36.2323 76.363 38.6346 73.8851 38.6346C72.1023 38.6346 71.2109 37.4259 71.2109 35.0085C71.2109 34.4646 71.3771 33.4976 71.7095 32.1076C70.8332 34.1624 69.6698 35.7639 68.2194 36.9122C66.7689 38.0604 65.2279 38.6346 63.5961 38.6346C61.8133 38.6346 60.4233 38.0151 59.4261 36.7762C58.4289 35.5373 57.9304 33.83 57.9304 31.6543C57.8699 29.3276 58.3534 26.9858 59.3808 24.6288C60.4384 22.2718 61.8435 20.3379 63.5961 18.8271C65.3789 17.286 67.2071 16.5456 69.0806 16.6061C70.4706 16.6061 71.6037 17.0895 72.48 18.0565C73.3563 18.9932 73.87 20.3228 74.0211 22.0452L75.2903 17.2406H79.5509L75.9702 30.2946C75.2752 32.8328 74.9276 34.5401 74.9276 35.4164C74.9276 36.1718 75.26 36.5496 75.9248 36.5496C76.4385 36.5496 77.0731 36.0057 77.8285 34.9178C78.6746 33.7393 79.43 32.3796 80.0948 30.8385ZM65.1825 36.9575C66.6028 36.9575 67.9323 36.1567 69.1712 34.5552C70.4101 33.0141 71.3771 31.1558 72.0721 28.9801C72.7369 26.8951 73.0693 24.9461 73.0693 23.133C73.0693 21.5315 72.7822 20.3228 72.2081 19.5069C71.634 18.6911 70.8785 18.2831 69.9418 18.2831C68.5216 18.2831 67.1769 19.1141 65.9078 20.7761C64.6991 22.4078 63.7472 24.2964 63.0522 26.4418C62.3874 28.5268 62.055 30.491 62.055 32.3342C62.055 35.4164 63.0975 36.9575 65.1825 36.9575ZM78.2365 9.89781L77.6925 12.3454H65.6811L66.225 9.89781H78.2365ZM99.1946 38V27.1649C99.1946 26.1369 99.1011 25.1488 98.9142 24.2008C98.7406 23.2528 98.4269 22.405 97.9729 21.6573C97.5323 20.8962 96.9315 20.2954 96.1704 19.8548C95.4227 19.4142 94.4747 19.1939 93.3264 19.1939C92.4319 19.1939 91.6174 19.3474 90.8831 19.6545C90.1621 19.9483 89.5412 20.4022 89.0205 21.0164C88.4997 21.6306 88.0925 22.405 87.7988 23.3396C87.5184 24.2609 87.3782 25.3491 87.3782 26.6042L85.0349 25.8832C85.0349 23.7869 85.4088 21.9911 86.1565 20.4957C86.9175 18.9869 87.979 17.832 89.3409 17.0309C90.7162 16.2164 92.3317 15.8092 94.1876 15.8092C95.5896 15.8092 96.7846 16.0295 97.7726 16.4701C98.7607 16.9107 99.5818 17.4982 100.236 18.2325C100.89 18.9535 101.404 19.768 101.778 20.6759C102.152 21.5705 102.412 22.4851 102.559 23.4197C102.719 24.341 102.8 25.2156 102.8 26.0434V38H99.1946ZM83.7732 38V16.37H86.9776V22.158H87.3782V38H83.7732ZM115.902 38.6008C113.886 38.6008 112.157 38.1001 110.715 37.0987C109.273 36.084 108.158 34.7154 107.37 32.993C106.596 31.2707 106.209 29.328 106.209 27.1649C106.209 25.0019 106.596 23.0592 107.37 21.3369C108.158 19.6145 109.273 18.2592 110.715 17.2712C112.157 16.2698 113.879 15.7691 115.882 15.7691C117.925 15.7691 119.641 16.2631 121.029 17.2512C122.418 18.2392 123.466 19.5944 124.174 21.3168C124.895 23.0392 125.255 24.9886 125.255 27.1649C125.255 29.3146 124.895 31.2573 124.174 32.993C123.466 34.7154 122.418 36.084 121.029 37.0987C119.641 38.1001 117.932 38.6008 115.902 38.6008ZM116.343 35.3363C117.798 35.3363 118.993 34.9892 119.928 34.2949C120.862 33.5872 121.55 32.6192 121.991 31.3908C122.445 30.1491 122.672 28.7405 122.672 27.1649C122.672 25.5627 122.445 24.1541 121.991 22.9391C121.55 21.7107 120.869 20.756 119.948 20.0751C119.027 19.3808 117.858 19.0337 116.443 19.0337C114.974 19.0337 113.759 19.3942 112.798 20.1152C111.85 20.8362 111.142 21.8108 110.675 23.0392C110.221 24.2676 109.994 25.6428 109.994 27.1649C109.994 28.7004 110.228 30.089 110.695 31.3307C111.162 32.5591 111.863 33.5338 112.798 34.2548C113.746 34.9758 114.927 35.3363 116.343 35.3363ZM122.672 38V22.0779H122.271V9.15994H125.856V38H122.672ZM137.215 38.6008C135.6 38.6008 134.244 38.3071 133.15 37.7196C132.068 37.1188 131.247 36.331 130.686 35.3563C130.139 34.3816 129.865 33.3135 129.865 32.1519C129.865 31.017 130.079 30.0356 130.506 29.2078C130.947 28.3666 131.561 27.6723 132.348 27.1249C133.136 26.5641 134.078 26.1235 135.172 25.8031C136.2 25.5227 137.349 25.2823 138.617 25.0821C139.899 24.8684 141.194 24.6748 142.503 24.5012C143.811 24.3277 145.033 24.1608 146.168 24.0006L144.886 24.7416C144.926 22.8189 144.539 21.3969 143.724 20.4757C142.923 19.5544 141.535 19.0937 139.558 19.0937C138.25 19.0937 137.102 19.3942 136.114 19.995C135.139 20.5825 134.451 21.5438 134.051 22.879L130.666 21.8576C131.187 19.9616 132.195 18.4729 133.69 17.3914C135.186 16.3099 137.155 15.7691 139.599 15.7691C141.561 15.7691 143.244 16.1229 144.646 16.8306C146.061 17.5249 147.076 18.5797 147.69 19.995C147.997 20.6626 148.19 21.3903 148.271 22.178C148.351 22.9524 148.391 23.7669 148.391 24.6214V38H145.226V32.8128L145.967 33.2935C145.153 35.0426 144.011 36.3644 142.543 37.259C141.087 38.1535 139.311 38.6008 137.215 38.6008ZM137.756 35.6167C139.038 35.6167 140.146 35.3897 141.081 34.9357C142.029 34.4684 142.79 33.8609 143.364 33.1132C143.938 32.3522 144.312 31.5243 144.485 30.6298C144.686 29.9622 144.792 29.2211 144.806 28.4067C144.832 27.5789 144.846 26.9446 144.846 26.504L146.088 27.0448C144.926 27.205 143.784 27.3586 142.663 27.5054C141.541 27.6523 140.48 27.8125 139.478 27.9861C138.477 28.1463 137.576 28.3399 136.775 28.5669C136.187 28.7538 135.633 28.9942 135.112 29.2879C134.605 29.5816 134.191 29.9622 133.871 30.4295C133.563 30.8834 133.41 31.4509 133.41 32.1318C133.41 32.7193 133.557 33.2801 133.851 33.8142C134.158 34.3483 134.625 34.7822 135.252 35.116C135.893 35.4498 136.728 35.6167 137.756 35.6167Z" fill="#FDFFDD"/>
</svg>
