<svg width="60" height="60" viewBox="0 0 60 60" fill="none" xmlns="http://www.w3.org/2000/svg">
<path d="M30 0C46.5688 0 60 13.4312 60 30C60 46.5688 46.5688 60 30 60C13.4312 60 0 46.5688 0 30C0 13.4312 13.4312 0 30 0ZM40.3482 42.2294C40.8988 40.5371 43.4859 23.6629 43.8035 20.3382C43.9006 19.3306 43.5812 18.6618 42.96 18.3635C42.2065 18.0018 41.0894 18.1818 39.7941 18.6494C38.0171 19.29 15.3071 28.9324 13.9941 29.4918C12.7518 30.0212 11.5729 30.5965 11.5729 31.4329C11.5729 32.0206 11.9224 32.3506 12.8824 32.6929C13.8812 33.0494 16.3976 33.8118 17.8835 34.2212C19.3147 34.6165 20.9435 34.2741 21.8559 33.7059C22.8229 33.1041 33.9935 25.6306 34.7947 24.9759C35.5959 24.3212 36.2347 25.1594 35.58 25.8159C34.9253 26.4706 27.2594 33.9124 26.2465 34.9429C25.0182 36.1941 25.89 37.4894 26.7141 38.01C27.6547 38.6029 34.4171 43.1382 35.4371 43.8671C36.4571 44.5941 37.4876 44.9241 38.4353 44.9241C39.3812 44.9224 39.8771 43.6747 40.3482 42.2294Z" fill="#26734E"/>
</svg>
