<svg width="402" height="191" viewBox="0 0 402 191" fill="none" xmlns="http://www.w3.org/2000/svg">
<rect x="158" y="2" width="68" height="103" fill="#A7EF9B"/>
<path d="M369.945 84.4821C365.453 84.4821 361.685 83.6654 358.64 82.0319C355.633 80.3613 353.35 78.171 351.791 75.461C350.269 72.7509 349.508 69.781 349.508 66.5512C349.508 63.3956 350.102 60.667 351.29 58.3653C352.515 56.0265 354.223 54.0961 356.413 52.574C358.603 51.0148 361.22 49.7897 364.265 48.8987C367.123 48.1191 370.316 47.4509 373.843 46.894C377.407 46.3 381.008 45.7617 384.646 45.2791C388.284 44.7965 391.681 44.3324 394.836 43.887L391.272 45.9473C391.384 40.6015 390.307 36.6478 388.043 34.0862C385.815 31.5247 381.954 30.2439 376.46 30.2439C372.822 30.2439 369.629 31.0792 366.882 32.7498C364.172 34.3832 362.26 37.0561 361.146 40.7685L351.735 37.9286C353.183 32.6569 355.986 28.5176 360.144 25.5106C364.302 22.5035 369.778 21 376.571 21C382.028 21 386.706 21.9838 390.604 23.9514C394.539 25.8818 397.361 28.8146 399.068 32.7498C399.922 34.606 400.461 36.6292 400.683 38.8195C400.906 40.9727 401.017 43.2373 401.017 45.6132V82.8115H392.219V68.3888L394.279 69.7253C392.015 74.5885 388.841 78.2638 384.757 80.7511C380.711 83.2384 375.773 84.4821 369.945 84.4821ZM371.448 76.1849C375.012 76.1849 378.093 75.5538 380.692 74.2915C383.328 72.9922 385.444 71.3031 387.04 69.2241C388.637 67.108 389.676 64.8064 390.159 62.319C390.715 60.4628 391.012 58.4025 391.05 56.1379C391.124 53.8362 391.161 52.0728 391.161 50.8477L394.614 52.3512C391.384 52.7967 388.21 53.2236 385.091 53.632C381.973 54.0404 379.021 54.4859 376.237 54.9685C373.453 55.414 370.947 55.9523 368.72 56.5834C367.086 57.1031 365.545 57.7713 364.098 58.5881C362.687 59.4048 361.536 60.4628 360.645 61.7622C359.791 63.0244 359.364 64.6022 359.364 66.4955C359.364 68.129 359.773 69.6882 360.589 71.1731C361.443 72.6581 362.743 73.8646 364.487 74.7927C366.269 75.7208 368.59 76.1849 371.448 76.1849Z" fill="#26734E"/>
<path d="M316.585 84.8585C310.979 84.8585 306.172 83.4663 302.162 80.682C298.153 77.8606 295.053 74.0554 292.863 69.2664C290.709 64.4774 289.633 59.0758 289.633 53.0618C289.633 47.0477 290.709 41.6461 292.863 36.8571C295.053 32.0681 298.153 28.3 302.162 25.5528C306.172 22.7685 310.961 21.3764 316.529 21.3764C322.209 21.3764 326.98 22.75 330.84 25.4972C334.701 28.2443 337.616 32.0124 339.583 36.8014C341.588 41.5904 342.59 47.0105 342.59 53.0618C342.59 59.0387 341.588 64.4403 339.583 69.2664C337.616 74.0554 334.701 77.8606 330.84 80.682C326.98 83.4663 322.228 84.8585 316.585 84.8585ZM317.81 75.7817C321.856 75.7817 325.179 74.8164 327.778 72.886C330.376 70.9184 332.288 68.2269 333.513 64.8115C334.776 61.359 335.407 57.4424 335.407 53.0618C335.407 48.6069 334.776 44.6903 333.513 41.312C332.288 37.8966 330.395 35.2422 327.833 33.3489C325.272 31.4184 322.024 30.4532 318.088 30.4532C314.005 30.4532 310.626 31.4556 307.954 33.4603C305.318 35.465 303.35 38.175 302.051 41.5904C300.789 45.0058 300.157 48.8296 300.157 53.0618C300.157 57.331 300.807 61.1919 302.106 64.6444C303.406 68.0599 305.355 70.7699 307.954 72.7746C310.589 74.7793 313.875 75.7817 317.81 75.7817ZM335.407 83.1879V38.9175H334.293V3H344.261V83.1879H335.407Z" fill="#26734E"/>
<path d="M274.363 82.7001V52.574C274.363 49.7154 274.103 46.9683 273.583 44.3325C273.1 41.6966 272.228 39.3393 270.966 37.2603C269.741 35.1443 268.07 33.4737 265.954 32.2486C263.875 31.0235 261.239 30.4109 258.047 30.4109C255.559 30.4109 253.295 30.8379 251.253 31.6917C249.248 32.5084 247.522 33.7707 246.074 35.4784C244.626 37.1861 243.494 39.3393 242.677 41.9379C241.898 44.4995 241.508 47.5251 241.508 51.0148L234.993 49.0101C234.993 43.1816 236.032 38.1884 238.111 34.0305C240.227 29.8355 243.178 26.6243 246.965 24.3968C250.789 22.1323 255.281 21 260.441 21C264.339 21 267.662 21.6125 270.409 22.8376C273.156 24.0627 275.439 25.6962 277.258 27.738C279.077 29.7427 280.507 32.0073 281.546 34.5317C282.586 37.019 283.31 39.562 283.718 42.1607C284.163 44.7222 284.386 47.1539 284.386 49.4556V82.7001H274.363ZM231.484 82.7001V22.5592H240.394V38.6525H241.508V82.7001H231.484Z" fill="#26734E"/>
<path d="M223.317 62.3994L226.239 64.127C219.421 78.2143 212.381 85.258 205.12 85.258C199.896 85.258 197.284 81.714 197.284 74.6261C197.284 73.0313 197.771 70.1961 198.745 66.1205C196.177 72.1453 192.768 76.841 188.517 80.2078C184.267 83.5746 179.751 85.258 174.969 85.258C169.745 85.258 165.672 83.4417 162.75 79.8091C159.827 76.1766 158.366 71.1707 158.366 64.7915C158.189 57.9694 159.606 51.1029 162.617 44.1922C165.716 37.2814 169.833 31.6111 174.969 27.1811C180.194 22.6625 185.551 20.4919 191.041 20.6691C195.114 20.6691 198.435 22.0866 201.003 24.9218C203.571 27.6684 205.076 31.5668 205.519 36.6169L209.238 22.5296H221.723L211.23 60.8046C209.194 68.2469 208.175 73.2528 208.175 75.8222C208.175 78.0371 209.149 79.1446 211.097 79.1446C212.603 79.1446 214.462 77.5498 216.676 74.3603C219.155 70.9049 221.369 66.9179 223.317 62.3994ZM179.618 80.3407C183.78 80.3407 187.676 77.9928 191.307 73.2971C194.937 68.7785 197.771 63.3296 199.807 56.9505C201.756 50.8371 202.73 45.1225 202.73 39.8065C202.73 35.1108 201.888 31.5668 200.206 29.1746C198.523 26.7824 196.31 25.5863 193.565 25.5863C189.403 25.5863 185.462 28.0228 181.743 32.8958C178.201 37.6801 175.412 43.2176 173.375 49.5081C171.427 55.6215 170.453 61.3805 170.453 66.785C170.453 75.8222 173.508 80.3407 179.618 80.3407ZM217.872 1L216.278 8.17654H181.079L182.673 1H217.872Z" fill="#26734E"/>
<path d="M122.086 82.5901V22.4492H130.94V36.9833L129.492 35.0899C130.198 33.2337 131.107 31.526 132.221 29.9668C133.372 28.4076 134.652 27.1268 136.063 26.1245C137.622 24.8623 139.386 23.897 141.353 23.2288C143.321 22.5606 145.326 22.1708 147.367 22.0594C149.409 21.9109 151.321 22.0408 153.103 22.4492V31.7488C151.024 31.1919 148.741 31.0434 146.254 31.3033C143.766 31.5631 141.465 32.4727 139.349 34.0319C137.418 35.4055 135.915 37.0761 134.838 39.0436C133.799 41.0112 133.075 43.1458 132.666 45.4475C132.258 47.7121 132.054 50.0324 132.054 52.4083V82.5901H122.086Z" fill="#26734E"/>
<path d="M89.4413 84.4821C83.5386 84.4821 78.3783 83.1827 73.9606 80.5841C69.5799 77.9483 66.1645 74.2915 63.7143 69.6139C61.2642 64.8992 60.0391 59.4048 60.0391 53.1308C60.0391 46.5599 61.2456 40.8799 63.6587 36.0909C66.0717 31.2648 69.4314 27.5524 73.7378 24.9537C78.0813 22.3179 83.1673 21 88.9958 21C95.047 21 100.189 22.3922 104.421 25.1764C108.69 27.9608 111.883 31.933 113.999 37.0933C116.152 42.2535 117.08 48.3975 116.783 55.5253H106.76V51.9614C106.648 44.5738 105.145 39.0608 102.249 35.4227C99.3534 31.7474 95.047 29.9098 89.3299 29.9098C83.2045 29.9098 78.5454 31.8773 75.3527 35.8125C72.1601 39.7476 70.5637 45.3905 70.5637 52.741C70.5637 59.8317 72.1601 65.3261 75.3527 69.2241C78.5454 73.1221 83.0931 75.0711 88.9958 75.0711C92.9681 75.0711 96.4206 74.1616 99.3534 72.3425C102.286 70.5234 104.588 67.9062 106.258 64.4908L115.781 67.7763C113.442 73.085 109.915 77.2058 105.2 80.1386C100.523 83.0342 95.2698 84.4821 89.4413 84.4821ZM67.2226 55.5253V47.5622H111.66V55.5253H67.2226Z" fill="#26734E"/>
<path d="M22.8289 83.1409L1 23H11.0235L27.8964 70.5002L44.7135 23H54.7927L32.9638 83.1409H22.8289Z" fill="#26734E"/>
<line x1="1.02344" y1="104.625" x2="400.464" y2="104.625" stroke="#26734E" stroke-width="0.75"/>
<line x1="1.52344" y1="82.5" x2="400.464" y2="82.5" stroke="#26734E"/>
<line x1="1.52344" y1="22.5" x2="400.464" y2="22.5" stroke="#26734E"/>
<line x1="400.625" y1="2" x2="400.625" y2="104.81" stroke="#26734E" stroke-width="0.75"/>
<line x1="1.375" y1="-1.63918e-08" x2="1.375" y2="105" stroke="#26734E" stroke-width="0.75"/>
<circle cx="13.5" cy="140.5" r="12.5" fill="#A7EF9B"/>
<path d="M53.402 141.552H54.078C53.8527 143.147 53.5493 144.429 53.168 145.4C52.4747 147.376 51.244 148.364 49.476 148.364C48.2453 148.364 47.1533 147.991 46.2 147.246C45.2987 146.483 44.4407 146.102 43.626 146.102C42.898 146.102 42.534 146.353 42.534 146.856C42.534 146.925 42.5947 147.064 42.716 147.272C42.8547 147.48 42.924 147.627 42.924 147.714C42.924 148.147 42.6987 148.364 42.248 148.364C42.092 148.364 41.962 148.286 41.858 148.13C41.754 147.991 41.702 147.809 41.702 147.584C41.702 146.804 41.9013 146.05 42.3 145.322C42.716 144.594 43.2447 143.935 43.886 143.346C44.5273 142.757 45.238 142.176 46.018 141.604C46.798 141.015 47.578 140.425 48.358 139.836C49.138 139.229 49.8487 138.614 50.49 137.99C51.1313 137.366 51.6513 136.664 52.05 135.884C52.466 135.104 52.674 134.289 52.674 133.44C52.674 132.261 52.3707 131.334 51.764 130.658C51.1573 129.965 50.3773 129.618 49.424 129.618C48.2973 129.618 47.3007 130.051 46.434 130.918C45.602 131.767 45.186 132.695 45.186 133.7C45.2727 133.457 45.4373 133.267 45.68 133.128C45.9227 132.972 46.1827 132.894 46.46 132.894C46.824 132.894 47.1013 133.033 47.292 133.31C47.5 133.587 47.604 133.96 47.604 134.428C47.604 134.896 47.4567 135.295 47.162 135.624C46.8847 135.936 46.538 136.092 46.122 136.092C45.6713 136.092 45.2813 135.875 44.952 135.442C44.64 134.991 44.484 134.471 44.484 133.882C44.484 132.339 45.056 131.117 46.2 130.216C47.344 129.28 48.6267 128.812 50.048 128.812C51.4867 128.812 52.7087 129.219 53.714 130.034C54.702 130.849 55.196 132.001 55.196 133.492C55.196 134.757 54.832 135.927 54.104 137.002C53.3933 138.059 52.44 138.952 51.244 139.68C50.256 140.304 49.1293 140.945 47.864 141.604C46.6853 142.211 45.654 142.843 44.77 143.502C43.8513 144.178 43.2707 144.88 43.028 145.608C43.6693 145.175 44.51 144.958 45.55 144.958C46.018 144.958 46.85 145.183 48.046 145.634C49.242 146.085 50.0393 146.31 50.438 146.31C51.1833 146.31 51.79 145.989 52.258 145.348C52.7433 144.672 53.1247 143.407 53.402 141.552ZM67.3528 128.864H67.9508L63.6088 145.842C63.5222 146.275 63.4788 146.544 63.4788 146.648C63.4788 147.064 63.7475 147.272 64.2848 147.272H66.7548L66.5468 148H56.8748L57.0568 147.272H59.5528C59.9515 147.272 60.2462 147.177 60.4368 146.986C60.6448 146.795 60.8182 146.414 60.9568 145.842L64.1028 133.232C64.2068 132.851 64.2588 132.547 64.2588 132.322C64.2588 132.027 64.1375 131.88 63.8948 131.88C63.8428 131.88 63.6782 131.906 63.4008 131.958L61.1388 132.4L61.3208 131.672C63.3488 131.221 64.7528 130.805 65.5328 130.424C66.2955 130.043 66.9022 129.523 67.3528 128.864ZM91.8597 128.89H92.4837L91.0017 136.144H90.2997C90.369 135.641 90.4037 135.061 90.4037 134.402C90.4037 132.721 90.0137 131.507 89.2337 130.762C88.471 129.999 87.6303 129.618 86.7117 129.618C84.857 129.618 83.2103 130.753 81.7717 133.024C80.3503 135.277 79.6397 138.077 79.6397 141.422C79.6397 143.225 80.0037 144.672 80.7317 145.764C81.4943 146.839 82.4737 147.376 83.6697 147.376C84.9697 147.376 86.1657 146.856 87.2577 145.816C88.3497 144.759 89.199 143.32 89.8057 141.5L90.4297 141.76C89.8057 143.909 88.7657 145.547 87.3097 146.674C85.8363 147.801 84.363 148.364 82.8897 148.364C81.035 148.364 79.5443 147.697 78.4177 146.362C77.291 145.027 76.7277 143.251 76.7277 141.032C76.7277 138.12 77.577 135.399 79.2757 132.868C80.1077 131.637 81.1563 130.667 82.4217 129.956C83.7043 129.228 85.065 128.864 86.5037 128.864C87.3357 128.864 88.133 129.098 88.8957 129.566C89.6757 130.017 90.2563 130.606 90.6377 131.334L91.8597 128.89ZM102.606 138.276C102.606 139.247 101.922 140.235 100.552 141.24C99.2349 142.228 97.3282 142.921 94.8322 143.32C94.7802 143.632 94.7542 143.935 94.7542 144.23C94.7889 146.293 95.5862 147.324 97.1462 147.324C97.8915 147.324 98.6282 147.055 99.3562 146.518C100.084 145.963 100.726 145.183 101.28 144.178L101.8 144.516C101.211 145.695 100.414 146.639 99.4082 147.35C98.4375 148.026 97.4755 148.364 96.5222 148.364C95.2222 148.364 94.1995 147.931 93.4542 147.064C92.7262 146.197 92.3622 145.071 92.3622 143.684C92.3622 142.453 92.6309 141.249 93.1682 140.07C93.7055 138.874 94.5202 137.851 95.6122 137.002C96.6869 136.153 97.8915 135.728 99.2262 135.728C101.48 135.728 102.606 136.577 102.606 138.276ZM100.526 138.172C100.526 137.045 100.015 136.482 98.9922 136.482C97.9869 136.482 97.1029 137.132 96.3402 138.432C95.5949 139.697 95.1269 141.084 94.9362 142.592C97.0509 142.228 98.5069 141.63 99.3042 140.798C100.119 139.931 100.526 139.056 100.526 138.172ZM117.434 143.892L118.006 144.23C116.671 146.986 115.31 148.364 113.924 148.364C112.693 148.364 112.078 147.792 112.078 146.648C112.078 145.989 112.286 144.923 112.702 143.45L113.456 140.616C113.716 139.611 113.846 138.857 113.846 138.354C113.846 137.886 113.759 137.548 113.586 137.34C113.43 137.132 113.144 137.028 112.728 137.028C111.896 137.028 110.977 137.713 109.972 139.082C108.984 140.434 108.282 141.864 107.866 143.372L106.618 148H104.122L106.436 139.628C106.696 138.657 106.826 137.955 106.826 137.522C106.826 137.123 106.652 136.924 106.306 136.924C105.664 136.924 104.832 138.016 103.81 140.2L103.264 139.862C104.546 137.106 105.907 135.728 107.346 135.728C107.918 135.728 108.316 135.867 108.542 136.144C108.784 136.404 108.906 136.811 108.906 137.366C108.906 137.903 108.68 139.143 108.23 141.084C108.923 139.541 109.781 138.259 110.804 137.236C111.809 136.231 112.866 135.728 113.976 135.728C115.57 135.728 116.368 136.499 116.368 138.042C116.368 138.614 116.246 139.368 116.004 140.304L114.886 144.308C114.591 145.348 114.444 146.067 114.444 146.466C114.444 146.726 114.478 146.908 114.548 147.012C114.617 147.116 114.756 147.168 114.964 147.168C115.241 147.168 115.622 146.856 116.108 146.232C116.593 145.573 117.035 144.793 117.434 143.892ZM123.928 136.092H127.334L127.1 136.976H123.668L121.614 144.672C121.458 145.244 121.38 145.738 121.38 146.154C121.38 146.951 121.735 147.35 122.446 147.35C123.382 147.35 124.24 146.154 125.02 143.762H125.722C125.167 145.391 124.56 146.57 123.902 147.298C123.26 148.009 122.385 148.364 121.276 148.364C119.75 148.364 118.988 147.627 118.988 146.154C118.988 145.582 119.066 145.019 119.222 144.464L121.224 136.976H119.482L119.742 136.092H120.496C121.501 136.092 122.281 135.676 122.836 134.844C123.356 134.116 123.919 132.963 124.526 131.386H125.202L123.928 136.092ZM136.303 129.228H143.661L143.453 129.956H142.257C141.875 129.956 141.581 130.06 141.373 130.268C141.165 130.459 140.983 130.84 140.827 131.412L136.953 145.842C136.849 146.206 136.797 146.483 136.797 146.674C136.797 147.073 137.065 147.272 137.603 147.272H138.773L138.565 148H131.233L131.441 147.272H132.611C133.009 147.272 133.304 147.177 133.495 146.986C133.703 146.795 133.885 146.414 134.041 145.842L137.915 131.412C138.019 130.996 138.071 130.71 138.071 130.554C138.071 130.155 137.811 129.956 137.291 129.956H136.095L136.303 129.228ZM147.345 136.092H150.751L150.517 136.976H147.085L145.031 144.672C144.875 145.244 144.797 145.738 144.797 146.154C144.797 146.951 145.152 147.35 145.863 147.35C146.799 147.35 147.657 146.154 148.437 143.762H149.139C148.584 145.391 147.978 146.57 147.319 147.298C146.678 148.009 145.802 148.364 144.693 148.364C143.168 148.364 142.405 147.627 142.405 146.154C142.405 145.582 142.483 145.019 142.639 144.464L144.641 136.976H142.899L143.159 136.092H143.913C144.918 136.092 145.698 135.676 146.253 134.844C146.773 134.116 147.336 132.963 147.943 131.386H148.619L147.345 136.092ZM163.184 143.892L163.756 144.23C162.421 146.986 161.043 148.364 159.622 148.364C158.599 148.364 158.088 147.671 158.088 146.284C158.088 145.972 158.183 145.417 158.374 144.62C157.871 145.799 157.204 146.717 156.372 147.376C155.54 148.035 154.656 148.364 153.72 148.364C152.697 148.364 151.9 148.009 151.328 147.298C150.756 146.587 150.47 145.608 150.47 144.36C150.435 143.025 150.712 141.682 151.302 140.33C151.908 138.978 152.714 137.869 153.72 137.002C154.742 136.118 155.791 135.693 156.866 135.728C157.663 135.728 158.313 136.005 158.816 136.56C159.318 137.097 159.613 137.86 159.7 138.848L160.428 136.092H162.872L160.818 143.58C160.419 145.036 160.22 146.015 160.22 146.518C160.22 146.951 160.41 147.168 160.792 147.168C161.086 147.168 161.45 146.856 161.884 146.232C162.369 145.556 162.802 144.776 163.184 143.892ZM154.63 147.402C155.444 147.402 156.207 146.943 156.918 146.024C157.628 145.14 158.183 144.074 158.582 142.826C158.963 141.63 159.154 140.512 159.154 139.472C159.154 138.553 158.989 137.86 158.66 137.392C158.33 136.924 157.897 136.69 157.36 136.69C156.545 136.69 155.774 137.167 155.046 138.12C154.352 139.056 153.806 140.139 153.408 141.37C153.026 142.566 152.836 143.693 152.836 144.75C152.836 146.518 153.434 147.402 154.63 147.402ZM167.051 129.124L171.471 128.864L167.233 144.308C166.955 145.383 166.817 146.128 166.817 146.544C166.834 146.96 166.999 147.168 167.311 147.168C167.605 147.168 167.995 146.847 168.481 146.206C168.949 145.582 169.382 144.811 169.781 143.892L170.353 144.23C169.035 146.986 167.675 148.364 166.271 148.364C165.04 148.364 164.425 147.792 164.425 146.648C164.425 145.989 164.633 144.923 165.049 143.45L168.429 130.944C168.498 130.649 168.533 130.441 168.533 130.32C168.533 130.008 168.255 129.852 167.701 129.852H166.843L167.051 129.124ZM176.714 130.606C177.147 130.606 177.503 130.753 177.78 131.048C178.057 131.325 178.196 131.672 178.196 132.088C178.196 132.504 178.04 132.868 177.728 133.18C177.433 133.475 177.078 133.622 176.662 133.622C176.246 133.622 175.899 133.483 175.622 133.206C175.345 132.911 175.206 132.556 175.206 132.14C175.206 131.724 175.353 131.369 175.648 131.074C175.943 130.762 176.298 130.606 176.714 130.606ZM177.598 143.918L178.144 144.256C176.809 146.995 175.457 148.364 174.088 148.364C172.84 148.364 172.216 147.792 172.216 146.648C172.216 146.059 172.424 144.993 172.84 143.45L173.854 139.836C174.149 138.813 174.296 138.051 174.296 137.548C174.296 137.132 174.131 136.924 173.802 136.924C173.49 136.924 173.1 137.236 172.632 137.86C172.181 138.467 171.739 139.247 171.306 140.2L170.76 139.862C172.043 137.106 173.403 135.728 174.842 135.728C176.073 135.728 176.688 136.3 176.688 137.444C176.688 137.947 176.463 139.056 176.012 140.772L175.024 144.308C174.747 145.296 174.608 146.05 174.608 146.57C174.608 146.986 174.781 147.194 175.128 147.194C175.405 147.194 175.778 146.873 176.246 146.232C176.731 145.591 177.182 144.819 177.598 143.918ZM189.053 138.302C189.053 138.857 188.888 139.377 188.559 139.862C188.247 140.33 187.848 140.564 187.363 140.564C186.964 140.564 186.661 140.443 186.453 140.2C186.262 139.957 186.167 139.663 186.167 139.316C186.167 138.935 186.288 138.597 186.531 138.302C186.774 137.99 187.051 137.834 187.363 137.834C187.727 137.834 188.03 137.955 188.273 138.198C188.273 137.678 188.048 137.253 187.597 136.924C187.164 136.577 186.592 136.404 185.881 136.404C184.72 136.404 183.697 137.071 182.813 138.406C181.929 139.741 181.487 141.474 181.487 143.606C181.487 144.733 181.721 145.643 182.189 146.336C182.674 147.012 183.298 147.35 184.061 147.35C185.552 147.35 186.8 146.301 187.805 144.204L188.351 144.464C187.762 145.712 187.051 146.674 186.219 147.35C185.387 148.026 184.486 148.364 183.515 148.364C182.18 148.364 181.088 147.922 180.239 147.038C179.407 146.154 178.991 145.001 178.991 143.58C178.991 141.5 179.641 139.671 180.941 138.094C182.241 136.517 183.836 135.728 185.725 135.728C186.713 135.728 187.51 135.953 188.117 136.404C188.741 136.855 189.053 137.487 189.053 138.302Z" fill="#26734E"/>
<circle cx="13.5" cy="176.5" r="12.5" stroke="#26734E" stroke-width="0.75"/>
<path d="M42.68 185V167.72H44.948L51.212 180.716L57.44 167.72H59.732V184.988H57.356V173.168L51.776 185H50.636L45.044 173.168V185H42.68ZM66.5141 185.36C65.5541 185.36 64.7501 185.184 64.1021 184.832C63.4541 184.472 62.9621 184 62.6261 183.416C62.2981 182.824 62.1341 182.176 62.1341 181.472C62.1341 180.816 62.2501 180.24 62.4821 179.744C62.7141 179.248 63.0581 178.828 63.5141 178.484C63.9701 178.132 64.5301 177.848 65.1941 177.632C65.7701 177.464 66.4221 177.316 67.1501 177.188C67.8781 177.06 68.6421 176.94 69.4421 176.828C70.2501 176.716 71.0501 176.604 71.8421 176.492L70.9301 176.996C70.9461 175.98 70.7301 175.228 70.2821 174.74C69.8421 174.244 69.0821 173.996 68.0021 173.996C67.3221 173.996 66.6981 174.156 66.1301 174.476C65.5621 174.788 65.1661 175.308 64.9421 176.036L62.6021 175.316C62.9221 174.204 63.5301 173.32 64.4261 172.664C65.3301 172.008 66.5301 171.68 68.0261 171.68C69.1861 171.68 70.1941 171.88 71.0501 172.28C71.9141 172.672 72.5461 173.296 72.9461 174.152C73.1541 174.576 73.2821 175.024 73.3301 175.496C73.3781 175.968 73.4021 176.476 73.4021 177.02V185H71.1821V182.036L71.6141 182.42C71.0781 183.412 70.3941 184.152 69.5621 184.64C68.7381 185.12 67.7221 185.36 66.5141 185.36ZM66.9581 183.308C67.6701 183.308 68.2821 183.184 68.7941 182.936C69.3061 182.68 69.7181 182.356 70.0301 181.964C70.3421 181.572 70.5461 181.164 70.6421 180.74C70.7781 180.356 70.8541 179.924 70.8701 179.444C70.8941 178.964 70.9061 178.58 70.9061 178.292L71.7221 178.592C70.9301 178.712 70.2101 178.82 69.5621 178.916C68.9141 179.012 68.3261 179.108 67.7981 179.204C67.2781 179.292 66.8141 179.4 66.4061 179.528C66.0621 179.648 65.7541 179.792 65.4821 179.96C65.2181 180.128 65.0061 180.332 64.8461 180.572C64.6941 180.812 64.6181 181.104 64.6181 181.448C64.6181 181.784 64.7021 182.096 64.8701 182.384C65.0381 182.664 65.2941 182.888 65.6381 183.056C65.9821 183.224 66.4221 183.308 66.9581 183.308ZM85.3741 185V178.628C85.3741 178.124 85.3301 177.608 85.2421 177.08C85.1621 176.544 85.0021 176.048 84.7621 175.592C84.5301 175.136 84.1981 174.768 83.7661 174.488C83.3421 174.208 82.7861 174.068 82.0981 174.068C81.6501 174.068 81.2261 174.144 80.8261 174.296C80.4261 174.44 80.0741 174.676 79.7701 175.004C79.4741 175.332 79.2381 175.764 79.0621 176.3C78.8941 176.836 78.8101 177.488 78.8101 178.256L77.2501 177.668C77.2501 176.492 77.4701 175.456 77.9101 174.56C78.3501 173.656 78.9821 172.952 79.8061 172.448C80.6301 171.944 81.6261 171.692 82.7941 171.692C83.6901 171.692 84.4421 171.836 85.0501 172.124C85.6581 172.412 86.1501 172.792 86.5261 173.264C86.9101 173.728 87.2021 174.236 87.4021 174.788C87.6021 175.34 87.7381 175.88 87.8101 176.408C87.8821 176.936 87.9181 177.4 87.9181 177.8V185H85.3741ZM76.2661 185V172.04H78.5101V175.784H78.8101V185H76.2661ZM90.8037 185V172.04H93.0357V175.184L92.7237 174.776C92.8837 174.36 93.0917 173.98 93.3477 173.636C93.6037 173.284 93.8997 172.996 94.2357 172.772C94.5637 172.532 94.9277 172.348 95.3277 172.22C95.7357 172.084 96.1517 172.004 96.5757 171.98C96.9997 171.948 97.4077 171.968 97.7997 172.04V174.392C97.3757 174.28 96.9037 174.248 96.3837 174.296C95.8717 174.344 95.3997 174.508 94.9677 174.788C94.5597 175.052 94.2357 175.372 93.9957 175.748C93.7637 176.124 93.5957 176.544 93.4917 177.008C93.3877 177.464 93.3357 177.948 93.3357 178.46V185H90.8037ZM105.239 185.36C103.943 185.36 102.819 185.068 101.867 184.484C100.915 183.9 100.179 183.096 99.6586 182.072C99.1466 181.04 98.8906 179.852 98.8906 178.508C98.8906 177.156 99.1546 175.968 99.6826 174.944C100.211 173.912 100.951 173.112 101.903 172.544C102.855 171.968 103.967 171.68 105.239 171.68C106.535 171.68 107.659 171.972 108.611 172.556C109.563 173.14 110.299 173.944 110.819 174.968C111.339 175.992 111.599 177.172 111.599 178.508C111.599 179.86 111.335 181.052 110.807 182.084C110.287 183.108 109.551 183.912 108.599 184.496C107.647 185.072 106.527 185.36 105.239 185.36ZM105.239 182.996C106.479 182.996 107.403 182.58 108.011 181.748C108.627 180.908 108.935 179.828 108.935 178.508C108.935 177.156 108.623 176.076 107.999 175.268C107.383 174.452 106.463 174.044 105.239 174.044C104.399 174.044 103.707 174.236 103.163 174.62C102.619 174.996 102.215 175.52 101.951 176.192C101.687 176.856 101.555 177.628 101.555 178.508C101.555 179.868 101.867 180.956 102.491 181.772C103.115 182.588 104.031 182.996 105.239 182.996ZM120.08 185.36C118.84 185.36 117.8 185.06 116.96 184.46C116.12 183.852 115.484 183.032 115.052 182C114.62 180.968 114.404 179.804 114.404 178.508C114.404 177.212 114.616 176.048 115.04 175.016C115.472 173.984 116.104 173.172 116.936 172.58C117.776 171.98 118.808 171.68 120.032 171.68C121.248 171.68 122.296 171.98 123.176 172.58C124.064 173.172 124.748 173.984 125.228 175.016C125.708 176.04 125.948 177.204 125.948 178.508C125.948 179.804 125.708 180.972 125.228 182.012C124.756 183.044 124.08 183.86 123.2 184.46C122.328 185.06 121.288 185.36 120.08 185.36ZM113.984 190.76V172.04H116.216V181.364H116.504V190.76H113.984ZM119.732 183.092C120.532 183.092 121.192 182.888 121.712 182.48C122.24 182.072 122.632 181.524 122.888 180.836C123.152 180.14 123.284 179.364 123.284 178.508C123.284 177.66 123.152 176.892 122.888 176.204C122.632 175.516 122.236 174.968 121.7 174.56C121.164 174.152 120.48 173.948 119.648 173.948C118.864 173.948 118.216 174.14 117.704 174.524C117.2 174.908 116.824 175.444 116.576 176.132C116.336 176.82 116.216 177.612 116.216 178.508C116.216 179.404 116.336 180.196 116.576 180.884C116.816 181.572 117.196 182.112 117.716 182.504C118.236 182.896 118.908 183.092 119.732 183.092ZM134.105 185.36C132.817 185.36 131.685 185.08 130.709 184.52C129.741 183.952 128.985 183.164 128.441 182.156C127.905 181.14 127.637 179.964 127.637 178.628C127.637 177.212 127.901 175.984 128.429 174.944C128.965 173.904 129.709 173.1 130.661 172.532C131.613 171.964 132.721 171.68 133.985 171.68C135.305 171.68 136.429 171.988 137.357 172.604C138.285 173.212 138.977 174.08 139.433 175.208C139.897 176.336 140.081 177.676 139.985 179.228H137.477V178.316C137.461 176.812 137.173 175.7 136.613 174.98C136.061 174.26 135.217 173.9 134.081 173.9C132.825 173.9 131.881 174.296 131.249 175.088C130.617 175.88 130.301 177.024 130.301 178.52C130.301 179.944 130.617 181.048 131.249 181.832C131.881 182.608 132.793 182.996 133.985 182.996C134.769 182.996 135.445 182.82 136.013 182.468C136.589 182.108 137.037 181.596 137.357 180.932L139.817 181.712C139.313 182.872 138.549 183.772 137.525 184.412C136.501 185.044 135.361 185.36 134.105 185.36ZM129.485 179.228V177.272H138.737V179.228H129.485ZM153.266 185.36C152.026 185.36 150.906 185.148 149.906 184.724C148.914 184.292 148.094 183.68 147.446 182.888C146.806 182.088 146.39 181.14 146.198 180.044L148.814 179.648C149.078 180.704 149.63 181.528 150.47 182.12C151.31 182.704 152.29 182.996 153.41 182.996C154.106 182.996 154.746 182.888 155.33 182.672C155.914 182.448 156.382 182.132 156.734 181.724C157.094 181.308 157.274 180.812 157.274 180.236C157.274 179.924 157.218 179.648 157.106 179.408C157.002 179.168 156.854 178.96 156.662 178.784C156.478 178.6 156.25 178.444 155.978 178.316C155.714 178.18 155.422 178.064 155.102 177.968L150.674 176.66C150.242 176.532 149.802 176.368 149.354 176.168C148.906 175.96 148.494 175.692 148.118 175.364C147.75 175.028 147.45 174.616 147.218 174.128C146.986 173.632 146.87 173.032 146.87 172.328C146.87 171.264 147.142 170.364 147.686 169.628C148.238 168.884 148.982 168.324 149.918 167.948C150.854 167.564 151.902 167.372 153.062 167.372C154.23 167.388 155.274 167.596 156.194 167.996C157.122 168.396 157.89 168.972 158.498 169.724C159.114 170.468 159.538 171.372 159.77 172.436L157.082 172.892C156.962 172.244 156.706 171.688 156.314 171.224C155.922 170.752 155.442 170.392 154.874 170.144C154.306 169.888 153.69 169.756 153.026 169.748C152.386 169.732 151.798 169.828 151.262 170.036C150.734 170.244 150.31 170.536 149.99 170.912C149.678 171.288 149.522 171.72 149.522 172.208C149.522 172.688 149.662 173.076 149.942 173.372C150.222 173.668 150.566 173.904 150.974 174.08C151.39 174.248 151.802 174.388 152.21 174.5L155.402 175.4C155.802 175.512 156.254 175.664 156.758 175.856C157.27 176.04 157.762 176.3 158.234 176.636C158.714 176.972 159.11 177.42 159.422 177.98C159.734 178.532 159.89 179.228 159.89 180.068C159.89 180.94 159.714 181.708 159.362 182.372C159.01 183.028 158.526 183.58 157.91 184.028C157.302 184.468 156.598 184.8 155.798 185.024C154.998 185.248 154.154 185.36 153.266 185.36ZM167.955 185.36C166.667 185.36 165.535 185.08 164.559 184.52C163.591 183.952 162.835 183.164 162.291 182.156C161.755 181.14 161.487 179.964 161.487 178.628C161.487 177.212 161.751 175.984 162.279 174.944C162.815 173.904 163.559 173.1 164.511 172.532C165.463 171.964 166.571 171.68 167.835 171.68C169.155 171.68 170.279 171.988 171.207 172.604C172.135 173.212 172.827 174.08 173.283 175.208C173.747 176.336 173.931 177.676 173.835 179.228H171.327V178.316C171.311 176.812 171.023 175.7 170.463 174.98C169.911 174.26 169.067 173.9 167.931 173.9C166.675 173.9 165.731 174.296 165.099 175.088C164.467 175.88 164.151 177.024 164.151 178.52C164.151 179.944 164.467 181.048 165.099 181.832C165.731 182.608 166.643 182.996 167.835 182.996C168.619 182.996 169.295 182.82 169.863 182.468C170.439 182.108 170.887 181.596 171.207 180.932L173.667 181.712C173.163 182.872 172.399 183.772 171.375 184.412C170.351 185.044 169.211 185.36 167.955 185.36ZM163.335 179.228V177.272H172.587V179.228H163.335ZM191.464 185L191.476 176.924C191.476 175.988 191.236 175.26 190.756 174.74C190.276 174.212 189.644 173.948 188.86 173.948C188.38 173.948 187.94 174.06 187.54 174.284C187.148 174.5 186.828 174.828 186.58 175.268C186.34 175.7 186.22 176.244 186.22 176.9L185.008 176.288C184.992 175.376 185.184 174.576 185.584 173.888C185.992 173.2 186.544 172.668 187.24 172.292C187.936 171.908 188.716 171.716 189.58 171.716C190.98 171.716 192.064 172.136 192.832 172.976C193.6 173.816 193.984 174.932 193.984 176.324L193.972 185H191.464ZM175.924 185V172.04H178.156V175.784H178.444V185H175.924ZM183.7 185L183.712 176.972C183.712 176.028 183.472 175.288 182.992 174.752C182.52 174.216 181.884 173.948 181.084 173.948C180.292 173.948 179.652 174.22 179.164 174.764C178.684 175.308 178.444 176.02 178.444 176.9L177.244 176.132C177.244 175.284 177.448 174.528 177.856 173.864C178.264 173.2 178.816 172.676 179.512 172.292C180.208 171.908 180.996 171.716 181.876 171.716C182.796 171.716 183.58 171.912 184.228 172.304C184.876 172.688 185.368 173.228 185.704 173.924C186.048 174.62 186.22 175.428 186.22 176.348L186.208 185H183.7ZM197.1 169.916V167.48H199.608V169.916H197.1ZM197.1 185V172.04H199.608V185H197.1ZM202.972 185V167.72H209.764C210.86 167.72 211.78 167.944 212.524 168.392C213.268 168.84 213.828 169.42 214.204 170.132C214.58 170.836 214.768 171.58 214.768 172.364C214.768 173.316 214.532 174.132 214.06 174.812C213.596 175.492 212.968 175.956 212.176 176.204L212.152 175.616C213.256 175.888 214.104 176.42 214.696 177.212C215.288 177.996 215.584 178.912 215.584 179.96C215.584 180.976 215.38 181.86 214.972 182.612C214.572 183.364 213.984 183.952 213.208 184.376C212.44 184.792 211.508 185 210.412 185H202.972ZM205.516 182.612H210.028C210.596 182.612 211.104 182.504 211.552 182.288C212.008 182.072 212.364 181.764 212.62 181.364C212.884 180.956 213.016 180.472 213.016 179.912C213.016 179.392 212.9 178.924 212.668 178.508C212.444 178.084 212.116 177.752 211.684 177.512C211.26 177.264 210.76 177.14 210.184 177.14H205.516V182.612ZM205.516 174.776H209.728C210.192 174.776 210.608 174.684 210.976 174.5C211.352 174.308 211.648 174.036 211.864 173.684C212.088 173.324 212.2 172.892 212.2 172.388C212.2 171.716 211.976 171.164 211.528 170.732C211.08 170.3 210.48 170.084 209.728 170.084H205.516V174.776ZM223.36 185.36C222.064 185.36 220.94 185.068 219.988 184.484C219.036 183.9 218.3 183.096 217.78 182.072C217.268 181.04 217.012 179.852 217.012 178.508C217.012 177.156 217.276 175.968 217.804 174.944C218.332 173.912 219.072 173.112 220.024 172.544C220.976 171.968 222.088 171.68 223.36 171.68C224.656 171.68 225.78 171.972 226.732 172.556C227.684 173.14 228.42 173.944 228.94 174.968C229.46 175.992 229.72 177.172 229.72 178.508C229.72 179.86 229.456 181.052 228.928 182.084C228.408 183.108 227.672 183.912 226.72 184.496C225.768 185.072 224.648 185.36 223.36 185.36ZM223.36 182.996C224.6 182.996 225.524 182.58 226.132 181.748C226.748 180.908 227.056 179.828 227.056 178.508C227.056 177.156 226.744 176.076 226.12 175.268C225.504 174.452 224.584 174.044 223.36 174.044C222.52 174.044 221.828 174.236 221.284 174.62C220.74 174.996 220.336 175.52 220.072 176.192C219.808 176.856 219.676 177.628 219.676 178.508C219.676 179.868 219.988 180.956 220.612 181.772C221.236 182.588 222.152 182.996 223.36 182.996ZM232.357 185V167.36H234.865V185H232.357ZM243.376 185.36C242.168 185.36 241.124 185.06 240.244 184.46C239.372 183.86 238.696 183.044 238.216 182.012C237.744 180.972 237.508 179.804 237.508 178.508C237.508 177.204 237.748 176.04 238.228 175.016C238.708 173.984 239.388 173.172 240.268 172.58C241.156 171.98 242.208 171.68 243.424 171.68C244.648 171.68 245.676 171.98 246.508 172.58C247.348 173.172 247.98 173.984 248.404 175.016C248.836 176.048 249.052 177.212 249.052 178.508C249.052 179.804 248.836 180.968 248.404 182C247.972 183.032 247.336 183.852 246.496 184.46C245.656 185.06 244.616 185.36 243.376 185.36ZM243.724 183.092C244.548 183.092 245.22 182.896 245.74 182.504C246.26 182.112 246.64 181.572 246.88 180.884C247.12 180.196 247.24 179.404 247.24 178.508C247.24 177.612 247.116 176.82 246.868 176.132C246.628 175.444 246.252 174.908 245.74 174.524C245.236 174.14 244.592 173.948 243.808 173.948C242.976 173.948 242.292 174.152 241.756 174.56C241.22 174.968 240.82 175.516 240.556 176.204C240.3 176.892 240.172 177.66 240.172 178.508C240.172 179.364 240.3 180.14 240.556 180.836C240.82 181.524 241.212 182.072 241.732 182.48C242.26 182.888 242.924 183.092 243.724 183.092ZM247.24 185V175.676H246.952V167.72H249.472V185H247.24Z" fill="#26734E"/>
</svg>
