<svg width="24" height="32" viewBox="0 0 24 32" fill="none" xmlns="http://www.w3.org/2000/svg">
<path d="M12 19.9474C10.6905 19.9474 9.57738 19.4868 8.66071 18.5658C7.74405 17.6447 7.28571 16.5263 7.28571 15.2105V5.73684C7.28571 4.42105 7.74405 3.30263 8.66071 2.38158C9.57738 1.46053 10.6905 1 12 1C13.3095 1 14.4226 1.46053 15.3393 2.38158C16.256 3.30263 16.7143 4.42105 16.7143 5.73684V15.2105C16.7143 16.5263 16.256 17.6447 15.3393 18.5658C14.4226 19.4868 13.3095 19.9474 12 19.9474ZM10.4286 31V26.1447C7.70476 25.7763 5.45238 24.5526 3.67143 22.4737C1.89048 20.3947 1 17.9737 1 15.2105H4.14286C4.14286 17.3947 4.90893 19.2566 6.44107 20.7961C7.97321 22.3355 9.82619 23.1053 12 23.1053C14.1738 23.1053 16.0268 22.3355 17.5589 20.7961C19.0911 19.2566 19.8571 17.3947 19.8571 15.2105H23C23 17.9737 22.1095 20.3947 20.3286 22.4737C18.5476 24.5526 16.2952 25.7763 13.5714 26.1447V31H10.4286ZM12 16.7895C12.4452 16.7895 12.8185 16.6382 13.1196 16.3355C13.4208 16.0329 13.5714 15.6579 13.5714 15.2105V5.73684C13.5714 5.28947 13.4208 4.91447 13.1196 4.61184C12.8185 4.30921 12.4452 4.15789 12 4.15789C11.5548 4.15789 11.1815 4.30921 10.8804 4.61184C10.5792 4.91447 10.4286 5.28947 10.4286 5.73684V15.2105C10.4286 15.6579 10.5792 16.0329 10.8804 16.3355C11.1815 16.6382 11.5548 16.7895 12 16.7895Z" fill="#155335" stroke="#155335" stroke-width="0.5"/>
</svg>
