<svg width="588" height="267" viewBox="0 0 588 267" fill="none" xmlns="http://www.w3.org/2000/svg">
<path d="M563.891 18.7358C575.045 19.4687 583.433 29.2005 582.512 40.34L564.115 262.947L564.169 261.64C565.515 229.023 541.272 200.95 508.813 197.47V197.47C508.115 197.395 507.596 196.786 507.634 196.084V196.084C509.393 164.184 485.619 136.601 453.809 133.635L452.561 133.518L452.643 132.315C454.784 101.097 431.403 73.9697 400.21 71.4812V71.4812C399.537 71.4274 399.023 70.8522 399.043 70.1767V70.1767C399.995 36.8918 375.418 8.22032 342.356 4.25219L341.006 4.09015L563.891 18.7358Z" fill="#FFF897"/>
<path d="M452.561 133.518L452.643 132.315C454.784 101.097 431.403 73.9697 400.21 71.4812V71.4812C399.537 71.4274 399.023 70.8522 399.043 70.1767V70.1767C399.995 36.8918 375.418 8.22032 342.356 4.25219L341.006 4.09015L563.891 18.7358C575.045 19.4687 583.433 29.2005 582.512 40.34L564.115 262.947L564.169 261.64C565.515 229.023 541.272 200.95 508.813 197.47V197.47C508.115 197.395 507.596 196.786 507.634 196.084V196.084C509.393 164.184 485.619 136.601 453.809 133.635L452.561 133.518ZM452.561 133.518L311.968 254.695C303.601 261.907 290.973 260.97 283.761 252.603L283.1 251.835C275.888 243.469 276.825 230.84 285.192 223.629L302.774 208.474" stroke="#26734E" stroke-width="7"/>
<path d="M80 66H230V240L231.5 260H208.5L187.5 257.5L174.5 247L139.5 260L110.5 257.5L108 240L80 253L31.5 260L4.5 256L13.5 222L80 190.5V66Z" fill="#A7EF9B"/>
<path fill-rule="evenodd" clip-rule="evenodd" d="M81.12 59.0291H77.12V63.0291V91.8116V172.661C77.12 191.46 61.8803 206.7 43.0811 206.7C19.8404 206.7 1 225.54 1 248.781V260.052V264.052H5H64.2044H65.0624L65.8448 263.7L102.878 247.048V260.052V264.052H106.878H156.471H160.471V260.052V253.982L177.802 246.839V260.052V264.052H181.802H231.421H235.421V260.052V240.864V63.0291V59.0291H231.421H160.471H156.471H156.031H152.031H81.12ZM152.031 67.0291H85.12V87.8116H128.022V95.8116H85.12V172.661C85.12 195.879 66.2985 214.7 43.0811 214.7C24.2586 214.7 9 229.959 9 248.781V256.052H63.3465L105.237 237.216L106.02 236.864H106.878H152.031V216.878V91.8116V67.0291ZM152.031 244.864H110.878V256.052H152.031V251.486V244.864ZM160.471 87.8116V67.0291H227.421V236.864H181.802H181.01L180.278 237.166L160.471 245.329V240.864V95.8116H202.957V87.8116H160.471ZM185.802 256.052V244.864H227.421V256.052H185.802Z" fill="#26734E"/>
<path d="M77.12 59.0291V58.0291H76.12V59.0291H77.12ZM1 264.052H0V265.052H1V264.052ZM65.0624 264.052V265.052H65.2768L65.4725 264.964L65.0624 264.052ZM65.8448 263.7L66.2549 264.612L66.2549 264.612L65.8448 263.7ZM102.878 247.048H103.878V245.502L102.468 246.136L102.878 247.048ZM102.878 264.052H101.878V265.052H102.878V264.052ZM160.471 264.052V265.052H161.471V264.052H160.471ZM160.471 253.982L160.09 253.058L159.471 253.313V253.982H160.471ZM177.802 246.839H178.802V245.345L177.421 245.914L177.802 246.839ZM177.802 264.052H176.802V265.052H177.802V264.052ZM235.421 264.052V265.052H236.421V264.052H235.421ZM235.421 59.0291H236.421V58.0291H235.421V59.0291ZM152.031 67.0291H153.031V66.0291H152.031V67.0291ZM85.12 67.0291V66.0291H84.12V67.0291H85.12ZM85.12 87.8116H84.12V88.8116H85.12V87.8116ZM128.022 87.8116H129.022V86.8116H128.022V87.8116ZM128.022 95.8116V96.8116H129.022V95.8116H128.022ZM85.12 95.8116V94.8116H84.12V95.8116H85.12ZM9 256.052H8V257.052H9V256.052ZM63.3465 256.052V257.052H63.561L63.7566 256.964L63.3465 256.052ZM105.237 237.216L105.647 238.128H105.647L105.237 237.216ZM106.02 236.864V235.864H105.805L105.61 235.952L106.02 236.864ZM152.031 236.864V237.864H153.031V236.864H152.031ZM152.031 244.864H153.031V243.864H152.031V244.864ZM110.878 244.864V243.864H109.878V244.864H110.878ZM110.878 256.052H109.878V257.052H110.878V256.052ZM152.031 256.052V257.052H153.031V256.052H152.031ZM160.471 67.0291V66.0291H159.471V67.0291H160.471ZM160.471 87.8116H159.471V88.8116H160.471V87.8116ZM227.421 67.0291H228.421V66.0291H227.421V67.0291ZM227.421 236.864V237.864H228.421V236.864H227.421ZM181.01 236.864V235.864H180.812L180.629 235.939L181.01 236.864ZM180.278 237.166L179.897 236.241L180.278 237.166ZM160.471 245.329H159.471V246.823L160.852 246.254L160.471 245.329ZM160.471 95.8116V94.8116H159.471V95.8116H160.471ZM202.957 95.8116V96.8116H203.957V95.8116H202.957ZM202.957 87.8116H203.957V86.8116H202.957V87.8116ZM185.802 244.864V243.864H184.802V244.864H185.802ZM185.802 256.052H184.802V257.052H185.802V256.052ZM227.421 244.864H228.421V243.864H227.421V244.864ZM227.421 256.052V257.052H228.421V256.052H227.421ZM77.12 60.0291H81.12V58.0291H77.12V60.0291ZM78.12 63.0291V59.0291H76.12V63.0291H78.12ZM78.12 91.8116V63.0291H76.12V91.8116H78.12ZM78.12 172.661V91.8116H76.12V172.661H78.12ZM43.0811 207.7C62.4326 207.7 78.12 192.013 78.12 172.661H76.12C76.12 190.908 61.328 205.7 43.0811 205.7V207.7ZM2 248.781C2 226.093 20.3927 207.7 43.0811 207.7V205.7C19.2881 205.7 0 224.988 0 248.781H2ZM2 260.052V248.781H0V260.052H2ZM2 264.052V260.052H0V264.052H2ZM5 263.052H1V265.052H5V263.052ZM64.2044 263.052H5V265.052H64.2044V263.052ZM65.0624 263.052H64.2044V265.052H65.0624V263.052ZM65.4347 262.788L64.6523 263.14L65.4725 264.964L66.2549 264.612L65.4347 262.788ZM102.468 246.136L65.4347 262.788L66.2549 264.612L103.288 247.96L102.468 246.136ZM103.878 260.052V247.048H101.878V260.052H103.878ZM103.878 264.052V260.052H101.878V264.052H103.878ZM106.878 263.052H102.878V265.052H106.878V263.052ZM156.471 263.052H106.878V265.052H156.471V263.052ZM160.471 263.052H156.471V265.052H160.471V263.052ZM159.471 260.052V264.052H161.471V260.052H159.471ZM159.471 253.982V260.052H161.471V253.982H159.471ZM177.421 245.914L160.09 253.058L160.852 254.907L178.183 247.763L177.421 245.914ZM178.802 260.052V246.839H176.802V260.052H178.802ZM178.802 264.052V260.052H176.802V264.052H178.802ZM181.802 263.052H177.802V265.052H181.802V263.052ZM231.421 263.052H181.802V265.052H231.421V263.052ZM235.421 263.052H231.421V265.052H235.421V263.052ZM234.421 260.052V264.052H236.421V260.052H234.421ZM234.421 240.864V260.052H236.421V240.864H234.421ZM234.421 63.0291V240.864H236.421V63.0291H234.421ZM234.421 59.0291V63.0291H236.421V59.0291H234.421ZM231.421 60.0291H235.421V58.0291H231.421V60.0291ZM160.471 60.0291H231.421V58.0291H160.471V60.0291ZM156.471 60.0291H160.471V58.0291H156.471V60.0291ZM156.031 60.0291H156.471V58.0291H156.031V60.0291ZM152.031 60.0291H156.031V58.0291H152.031V60.0291ZM81.12 60.0291H152.031V58.0291H81.12V60.0291ZM152.031 66.0291H85.12V68.0291H152.031V66.0291ZM84.12 67.0291V87.8116H86.12V67.0291H84.12ZM85.12 88.8116H128.022V86.8116H85.12V88.8116ZM127.022 87.8116V95.8116H129.022V87.8116H127.022ZM128.022 94.8116H85.12V96.8116H128.022V94.8116ZM84.12 95.8116V172.661H86.12V95.8116H84.12ZM84.12 172.661C84.12 195.326 65.7463 213.7 43.0811 213.7V215.7C66.8508 215.7 86.12 196.431 86.12 172.661H84.12ZM43.0811 213.7C23.7064 213.7 8 229.406 8 248.781H10C10 230.511 24.8109 215.7 43.0811 215.7V213.7ZM8 248.781V256.052H10V248.781H8ZM9 257.052H63.3465V255.052H9V257.052ZM63.7566 256.964L105.647 238.128L104.827 236.304L62.9364 255.14L63.7566 256.964ZM105.647 238.128L106.43 237.776L105.61 235.952L104.827 236.304L105.647 238.128ZM106.02 237.864H106.878V235.864H106.02V237.864ZM106.878 237.864H152.031V235.864H106.878V237.864ZM153.031 236.864V216.878H151.031V236.864H153.031ZM153.031 216.878V91.8116H151.031V216.878H153.031ZM153.031 91.8116V67.0291H151.031V91.8116H153.031ZM152.031 243.864H110.878V245.864H152.031V243.864ZM109.878 244.864V256.052H111.878V244.864H109.878ZM110.878 257.052H152.031V255.052H110.878V257.052ZM153.031 256.052V251.486H151.031V256.052H153.031ZM153.031 251.486V244.864H151.031V251.486H153.031ZM159.471 67.0291V87.8116H161.471V67.0291H159.471ZM227.421 66.0291H160.471V68.0291H227.421V66.0291ZM228.421 236.864V67.0291H226.421V236.864H228.421ZM181.802 237.864H227.421V235.864H181.802V237.864ZM181.01 237.864H181.802V235.864H181.01V237.864ZM180.659 238.09L181.391 237.788L180.629 235.939L179.897 236.241L180.659 238.09ZM160.852 246.254L180.659 238.09L179.897 236.241L160.09 244.405L160.852 246.254ZM159.471 240.864V245.329H161.471V240.864H159.471ZM159.471 95.8116V240.864H161.471V95.8116H159.471ZM202.957 94.8116H160.471V96.8116H202.957V94.8116ZM201.957 87.8116V95.8116H203.957V87.8116H201.957ZM160.471 88.8116H202.957V86.8116H160.471V88.8116ZM184.802 244.864V256.052H186.802V244.864H184.802ZM227.421 243.864H185.802V245.864H227.421V243.864ZM228.421 256.052V244.864H226.421V256.052H228.421ZM185.802 257.052H227.421V255.052H185.802V257.052Z" fill="#A7EF9B"/>
</svg>
