<svg width="35" height="35" viewBox="0 0 35 35" fill="none" xmlns="http://www.w3.org/2000/svg">
<path d="M16.2218 20.8722C17.2547 20.0271 18.74 20.0271 19.7729 20.8722L30.9608 30.0261C33.0002 31.6947 31.8203 35 29.1853 35H6.80946C4.17442 35 2.99452 31.6947 5.03392 30.0261L16.2218 20.8722Z" fill="#26AB69"/>
<path d="M16.2218 10.7531C17.2547 9.90799 18.74 9.90799 19.7729 10.7531L30.9608 19.9069C33.0002 21.5755 31.8203 24.8809 29.1853 24.8809H6.80946C4.17442 24.8809 2.99452 21.5755 5.03392 19.9069L16.2218 10.7531Z" fill="#26AB69"/>
<path d="M16.2218 0.633809C17.2547 -0.21127 18.74 -0.211269 19.7729 0.63381L30.9608 9.78766C33.0002 11.4563 31.8203 14.7616 29.1853 14.7616H6.80946C4.17442 14.7616 2.99452 11.4563 5.03392 9.78766L16.2218 0.633809Z" fill="#26AB69"/>
</svg>
