<svg width="49" height="50" viewBox="0 0 49 50" fill="none" xmlns="http://www.w3.org/2000/svg">
<g clip-path="url(#clip0_351_4)">
<path fill-rule="evenodd" clip-rule="evenodd" d="M20.459 5.32241C12.1259 5.32241 5.29753 12.2325 5.29753 20.8479C5.29753 29.4633 12.1259 36.3734 20.459 36.3734C28.792 36.3734 35.6204 29.4633 35.6204 20.8479C35.6204 12.2325 28.792 5.32241 20.459 5.32241ZM0 20.8479C0 9.37483 9.11941 0 20.459 0C31.7985 0 40.9179 9.37483 40.9179 20.8479C40.9179 25.8501 39.1845 30.4533 36.2893 34.0547L47.4695 45.4725C48.4954 46.5202 48.4817 48.2051 47.4389 49.2359C46.3961 50.2666 44.719 50.2528 43.6931 49.2051L32.4612 37.7346C29.0948 40.2246 24.9511 41.6958 20.459 41.6958C9.11941 41.6958 0 32.321 0 20.8479Z" fill="white"/>
</g>
<defs>
<clipPath id="clip0_351_4">
<rect width="49" height="50" fill="white"/>
</clipPath>
</defs>
</svg>
