<svg width="65" height="65" viewBox="0 0 65 65" fill="none" xmlns="http://www.w3.org/2000/svg">
<rect x="15.3984" y="10.9863" width="39.7937" height="39.7937" fill="#FDFFDD"/>
<mask id="mask0_1347_1344" style="mask-type:alpha" maskUnits="userSpaceOnUse" x="0" y="0" width="65" height="65">
<circle cx="32.5" cy="32.5" r="32.5" fill="#60757E"/>
</mask>
<g mask="url(#mask0_1347_1344)">
<path d="M74.5239 7.23556C73.5243 3.49805 70.5778 0.551515 66.8403 -0.448049C60.0606 -2.26465 32.8812 -2.26465 32.8812 -2.26465C32.8812 -2.26465 5.70173 -2.26465 -1.07792 -0.448049C-4.81542 0.551515 -7.76196 3.49805 -8.76153 7.23556C-10.5781 14.0152 -10.5781 32.5028 -10.5781 32.5028C-10.5781 32.5028 -10.5781 50.9904 -8.76153 57.77C-7.76196 61.5075 -4.81542 64.4541 -1.07792 65.4536C5.70173 67.2702 32.8812 67.2702 32.8812 67.2702C32.8812 67.2702 60.0606 67.2702 66.8403 65.4536C70.5821 64.4541 73.5243 61.5075 74.5239 57.77C76.3405 50.9904 76.3405 32.5028 76.3405 32.5028C76.3405 32.5028 76.3405 14.0152 74.5239 7.23556ZM24.1893 43.7935V21.2121C24.1893 19.5389 26.0016 18.4959 27.4488 19.3303L47.0054 30.621C48.4526 31.4554 48.4526 33.5502 47.0054 34.3846L27.4488 45.6753C26.0016 46.5141 24.1893 45.4667 24.1893 43.7935Z" fill="#0A7A44"/>
</g>
</svg>
