<svg width="373" height="453" viewBox="0 0 373 453" fill="none" xmlns="http://www.w3.org/2000/svg">
<path d="M8.00859 57.6308C23.5752 50.6275 34.3264 35.8763 36.1899 18.9067C52.9217 22.3824 70.2939 16.7556 81.7942 4.11346C93.2945 16.7556 110.667 22.3824 127.399 18.9067C129.262 35.8763 140.013 50.6275 155.58 57.6308C147.099 72.4471 147.099 90.6769 155.58 105.493C140.013 112.497 129.262 127.248 127.399 144.217C110.667 140.742 93.2945 146.368 81.7942 159.011C70.2939 146.368 52.9217 140.742 36.1899 144.217C34.3264 127.248 23.5752 112.497 8.00859 105.493C16.4894 90.677 16.4894 72.4471 8.00859 57.6308Z" fill="#FDFFDD" stroke="#26734E" stroke-width="5.33333"/>
<circle cx="81.7928" cy="81.0105" r="51.8917" fill="#FDFFDD" stroke="#26734E" stroke-width="5.33333"/>
<path d="M190.907 264.28L366.047 450.333H6.95379L182.093 264.28C184.483 261.741 188.517 261.741 190.907 264.28Z" fill="#FDFFDD" stroke="#26734E" stroke-width="5.33333"/>
<path d="M190.907 140.835L366.047 326.888H6.95379L182.093 140.835C184.483 138.296 188.517 138.296 190.907 140.835Z" fill="#FDFFDD" stroke="#26734E" stroke-width="5.33333"/>
<path d="M212.719 40.5604L366.047 203.443H6.95379L160.282 40.5604C174.498 25.4577 198.502 25.4577 212.719 40.5604Z" fill="#FDFFDD" stroke="#26734E" stroke-width="5.33333"/>
</svg>
