<svg width="1285" height="186" viewBox="0 0 1285 186" fill="none" xmlns="http://www.w3.org/2000/svg">
<rect x="1.5" y="1.5" width="309" height="80" rx="10.5" fill="#A7EF9B"/>
<rect x="1.5" y="1.5" width="309" height="80" rx="10.5" stroke="#26734E" stroke-width="3"/>
<path d="M36.5108 55.314C38.1442 55.314 39.5978 54.4973 40.8718 52.864C43.2892 49.7607 44.4978 45.9387 44.4978 41.398C44.4978 36.6613 43.2075 34.293 40.6268 34.293C38.5035 34.2603 36.6252 35.714 34.9918 38.654C33.3585 41.594 32.5745 44.583 32.6398 47.621C32.6398 50.267 32.9338 52.2107 33.5218 53.452C34.1425 54.6933 35.1388 55.314 36.5108 55.314ZM49.0058 42.035C49.0058 45.857 47.7808 49.2543 45.3308 52.227C42.8808 55.1997 39.8755 56.686 36.3148 56.686C33.7668 56.686 31.7742 55.8693 30.3368 54.236C28.8995 52.57 28.1808 50.3813 28.1808 47.67C28.1808 43.554 29.3895 40.0587 31.8068 37.184C34.1915 34.3093 37.2295 32.872 40.9208 32.872C43.4362 32.872 45.4125 33.7213 46.8498 35.42C48.2872 37.1187 49.0058 39.3237 49.0058 42.035ZM90.7699 48.258L91.7989 48.895C89.3162 54.089 86.7519 56.686 84.1059 56.686C81.8192 56.686 80.6759 55.608 80.6759 53.452C80.6759 52.2107 81.0679 50.2017 81.8519 47.425L83.2729 42.084C83.7956 40.222 84.0569 38.7847 84.0569 37.772C84.0569 36.89 83.8936 36.2693 83.5669 35.91C83.2402 35.518 82.6849 35.322 81.9009 35.322C80.5616 35.322 78.9119 36.694 76.9519 39.438C74.9919 42.2473 73.6852 44.8607 73.0319 47.278L70.6309 56H66.0249L69.8469 42.084C70.3369 40.1893 70.5819 38.752 70.5819 37.772C70.5819 36.89 70.4186 36.2693 70.0919 35.91C69.7979 35.518 69.2589 35.322 68.4749 35.322C67.1029 35.322 65.4696 36.6613 63.5749 39.34C61.6476 42.0187 60.3246 44.6647 59.6059 47.278L57.2539 56H52.6479L56.8619 40.271C57.3846 38.311 57.6459 36.988 57.6459 36.302C57.6459 35.518 57.3192 35.126 56.6659 35.126C56.0779 35.126 55.3429 35.714 54.4609 36.89C53.6116 38.0333 52.7949 39.5033 52.0109 41.3L50.9329 40.663C53.4156 35.469 55.9799 32.872 58.6259 32.872C59.7039 32.872 60.4552 33.1333 60.8799 33.656C61.3372 34.146 61.5659 34.9137 61.5659 35.959C61.5659 37.233 61.1249 39.5687 60.2429 42.966C61.5822 39.9607 63.2482 37.527 65.2409 35.665C67.2336 33.803 69.1772 32.872 71.0719 32.872C73.5546 32.872 74.7959 34.2277 74.7959 36.939C74.7959 38.311 74.4366 40.32 73.7179 42.966C75.0246 40.0913 76.6906 37.6903 78.7159 35.763C80.7412 33.8357 82.6686 32.872 84.4979 32.872C87.3726 32.872 88.8099 34.2767 88.8099 37.086C88.8099 38.36 88.5649 39.83 88.0749 41.496L85.9189 49.042C85.3962 50.806 85.1349 52.2107 85.1349 53.256C85.1349 54.04 85.4616 54.432 86.1149 54.432C86.6702 54.432 87.3726 53.8603 88.2219 52.717C89.1039 51.541 89.9532 50.0547 90.7699 48.258ZM116.868 48.307L117.897 48.944C116.655 51.6227 115.479 53.5827 114.369 54.824C113.291 56.0653 112.066 56.686 110.694 56.686C109.518 56.686 108.668 56.294 108.146 55.51C107.656 54.6933 107.394 53.7133 107.362 52.57C107.362 51.394 107.362 50.2343 107.362 49.091C107.362 47.915 107.166 46.9187 106.774 46.102C106.382 45.2853 105.663 44.877 104.618 44.877H102.021L99.1298 56H94.4748L98.2478 42.182C99.0971 38.948 99.5218 37.0043 99.5218 36.351C99.5218 35.5343 99.1788 35.126 98.4928 35.126C97.9701 35.126 97.2514 35.7303 96.3368 36.939C95.4874 38.0823 94.6544 39.536 93.8378 41.3L92.8088 40.663C95.2261 35.469 97.7904 32.872 100.502 32.872C101.612 32.872 102.445 33.2477 103.001 33.999C103.556 34.7177 103.834 35.6813 103.834 36.89C103.834 37.87 103.54 39.4543 102.952 41.643L102.462 43.505H105.843C107.378 39.781 108.815 37.086 110.155 35.42C111.494 33.7213 113.062 32.872 114.859 32.872C115.708 32.872 116.394 33.1333 116.917 33.656C117.439 34.146 117.701 34.832 117.701 35.714C117.701 36.5633 117.456 37.2983 116.966 37.919C116.508 38.5397 115.871 38.85 115.055 38.85C114.597 38.85 114.189 38.654 113.83 38.262C113.503 37.87 113.34 37.3963 113.34 36.841C113.34 36.2203 113.568 35.665 114.026 35.175C114.483 34.6523 115.055 34.391 115.741 34.391C115.741 34.097 115.447 33.95 114.859 33.95C113.585 33.95 112.311 34.6523 111.037 36.057C110.579 36.547 110.089 37.331 109.567 38.409C108.881 39.683 108.472 40.4833 108.342 40.81C108.276 40.9733 108.113 41.349 107.852 41.937C107.623 42.525 107.411 43.0477 107.215 43.505C108.75 43.701 109.861 44.387 110.547 45.563C111.265 46.7063 111.608 47.915 111.576 49.189C111.576 50.463 111.641 51.6227 111.772 52.668C111.902 53.7133 112.229 54.236 112.752 54.236C113.732 54.236 115.104 52.2597 116.868 48.307ZM144.407 40.369C144.407 42.9497 143.9 45.465 142.888 47.915C141.875 50.3977 140.438 52.4883 138.576 54.187C136.714 55.853 134.705 56.686 132.549 56.686C130.883 56.686 129.543 56.098 128.531 54.922C127.551 53.746 127.044 52.1943 127.012 50.267L123.925 61.88C123.794 62.2393 123.729 62.5987 123.729 62.958C123.729 63.546 124.153 63.84 125.003 63.84H127.747L127.404 65.212H115.105L115.448 63.84H117.212C117.832 63.84 118.29 63.693 118.584 63.399C118.878 63.1377 119.123 62.6313 119.319 61.88L125.15 40.271C125.672 38.3437 125.917 37.0043 125.885 36.253C125.885 35.5017 125.591 35.126 125.003 35.126C123.761 35.126 122.177 37.184 120.25 41.3L119.221 40.663C121.605 35.469 124.17 32.872 126.914 32.872C128.939 32.872 129.952 33.9173 129.952 36.008C129.952 36.8247 129.723 38.2783 129.266 40.369C130.409 38.017 131.797 36.1877 133.431 34.881C135.064 33.5417 136.763 32.872 138.527 32.872C140.389 32.872 141.826 33.558 142.839 34.93C143.884 36.2693 144.407 38.0823 144.407 40.369ZM139.948 39.634C139.948 38.066 139.654 36.8573 139.066 36.008C138.478 35.1587 137.645 34.734 136.567 34.734C134.541 34.734 132.598 36.4 130.736 39.732C128.874 42.9987 127.943 46.0367 127.943 48.846C127.943 50.7407 128.253 52.227 128.874 53.305C129.494 54.383 130.393 54.922 131.569 54.922C133.137 54.922 134.574 54.04 135.881 52.276C137.22 50.414 138.233 48.356 138.919 46.102C139.605 43.75 139.948 41.594 139.948 39.634ZM178.891 48.307L179.92 48.944C177.47 54.1053 174.922 56.686 172.276 56.686C169.891 56.686 168.699 55.6243 168.699 53.501C168.699 52.4557 169.025 50.659 169.679 48.111L172.423 37.723C170.691 39.879 168.143 41.2347 164.779 41.79C166.118 42.6393 166.788 44.24 166.788 46.592C166.788 49.1073 165.889 51.4103 164.093 53.501C162.263 55.6243 159.846 56.686 156.841 56.686C154.554 56.686 152.79 56.147 151.549 55.069C150.34 53.9583 149.736 52.5047 149.736 50.708C149.736 49.5973 149.915 48.405 150.275 47.131L152.529 39.487C153.019 37.821 153.264 36.7267 153.264 36.204C153.264 35.4853 152.97 35.126 152.382 35.126C151.728 35.126 150.928 35.714 149.981 36.89C149.066 38.0333 148.2 39.5033 147.384 41.3L146.355 40.663C148.805 35.5017 151.467 32.921 154.342 32.921C156.726 32.921 157.919 33.9173 157.919 35.91C157.919 36.792 157.755 37.7067 157.429 38.654L156.057 43.162C157.527 41.398 159.291 40.516 161.349 40.516C164.485 40.516 167.016 39.9933 168.944 38.948C170.904 37.87 172.455 36.0733 173.599 33.558H178.352L173.697 50.365C173.37 51.3777 173.207 52.3413 173.207 53.256C173.207 54.0727 173.533 54.481 174.187 54.481C174.775 54.481 175.493 53.9093 176.343 52.766C177.225 51.6227 178.074 50.1363 178.891 48.307ZM159.634 42.28C158.36 42.28 157.135 43.162 155.959 44.926C154.783 46.6573 154.195 48.699 154.195 51.051C154.195 53.9257 155.289 55.363 157.478 55.363C158.752 55.363 159.96 54.4483 161.104 52.619C162.214 50.8223 162.77 48.8623 162.77 46.739C162.77 43.7663 161.724 42.28 159.634 42.28ZM220.783 48.258L221.812 48.895C219.329 54.089 216.765 56.686 214.119 56.686C211.832 56.686 210.689 55.608 210.689 53.452C210.689 52.2107 211.081 50.2017 211.865 47.425L213.286 42.084C213.808 40.222 214.07 38.7847 214.07 37.772C214.07 36.89 213.906 36.2693 213.58 35.91C213.253 35.518 212.698 35.322 211.914 35.322C210.574 35.322 208.925 36.694 206.965 39.438C205.005 42.2473 203.698 44.8607 203.045 47.278L200.644 56H196.038L199.86 42.084C200.35 40.1893 200.595 38.752 200.595 37.772C200.595 36.89 200.431 36.2693 200.105 35.91C199.811 35.518 199.272 35.322 198.488 35.322C197.116 35.322 195.482 36.6613 193.588 39.34C191.66 42.0187 190.337 44.6647 189.619 47.278L187.267 56H182.661L186.875 40.271C187.397 38.311 187.659 36.988 187.659 36.302C187.659 35.518 187.332 35.126 186.679 35.126C186.091 35.126 185.356 35.714 184.474 36.89C183.624 38.0333 182.808 39.5033 182.024 41.3L180.946 40.663C183.428 35.469 185.993 32.872 188.639 32.872C189.717 32.872 190.468 33.1333 190.893 33.656C191.35 34.146 191.579 34.9137 191.579 35.959C191.579 37.233 191.138 39.5687 190.256 42.966C191.595 39.9607 193.261 37.527 195.254 35.665C197.246 33.803 199.19 32.872 201.085 32.872C203.567 32.872 204.809 34.2277 204.809 36.939C204.809 38.311 204.449 40.32 203.731 42.966C205.037 40.0913 206.703 37.6903 208.729 35.763C210.754 33.8357 212.681 32.872 214.511 32.872C217.385 32.872 218.823 34.2767 218.823 37.086C218.823 38.36 218.578 39.83 218.088 41.496L215.932 49.042C215.409 50.806 215.148 52.2107 215.148 53.256C215.148 54.04 215.474 54.432 216.128 54.432C216.683 54.432 217.385 53.8603 218.235 52.717C219.117 51.541 219.966 50.0547 220.783 48.258ZM255.357 48.307L256.386 48.944C253.936 54.1053 251.388 56.686 248.742 56.686C246.358 56.686 245.165 55.6243 245.165 53.501C245.165 52.4557 245.492 50.659 246.145 48.111L248.889 37.723C247.158 39.879 244.61 41.2347 241.245 41.79C242.585 42.6393 243.254 44.24 243.254 46.592C243.254 49.1073 242.356 51.4103 240.559 53.501C238.73 55.6243 236.313 56.686 233.307 56.686C231.021 56.686 229.257 56.147 228.015 55.069C226.807 53.9583 226.202 52.5047 226.202 50.708C226.202 49.5973 226.382 48.405 226.741 47.131L228.995 39.487C229.485 37.821 229.73 36.7267 229.73 36.204C229.73 35.4853 229.436 35.126 228.848 35.126C228.195 35.126 227.395 35.714 226.447 36.89C225.533 38.0333 224.667 39.5033 223.85 41.3L222.821 40.663C225.271 35.5017 227.934 32.921 230.808 32.921C233.193 32.921 234.385 33.9173 234.385 35.91C234.385 36.792 234.222 37.7067 233.895 38.654L232.523 43.162C233.993 41.398 235.757 40.516 237.815 40.516C240.951 40.516 243.483 39.9933 245.41 38.948C247.37 37.87 248.922 36.0733 250.065 33.558H254.818L250.163 50.365C249.837 51.3777 249.673 52.3413 249.673 53.256C249.673 54.0727 250 54.481 250.653 54.481C251.241 54.481 251.96 53.9093 252.809 52.766C253.691 51.6227 254.541 50.1363 255.357 48.307ZM236.1 42.28C234.826 42.28 233.601 43.162 232.425 44.926C231.249 46.6573 230.661 48.699 230.661 51.051C230.661 53.9257 231.756 55.363 233.944 55.363C235.218 55.363 236.427 54.4483 237.57 52.619C238.681 50.8223 239.236 48.8623 239.236 46.739C239.236 43.7663 238.191 42.28 236.1 42.28ZM281.422 23.17L282.402 23.562C281.847 25.522 280.753 27.2043 279.119 28.609C277.486 30.0463 275.706 30.765 273.778 30.765C272.112 30.765 270.822 30.3567 269.907 29.54C268.993 28.7233 268.535 27.58 268.535 26.11C268.535 25.2933 268.78 24.5747 269.27 23.954C269.76 23.3333 270.348 23.023 271.034 23.023C271.59 23.023 272.063 23.219 272.455 23.611C272.847 24.003 273.043 24.4767 273.043 25.032C273.043 25.7833 272.798 26.3713 272.308 26.796C271.818 27.188 271.165 27.384 270.348 27.384C270.512 27.9393 270.953 28.3803 271.671 28.707C272.423 29.001 273.256 29.148 274.17 29.148C275.738 29.148 277.159 28.6253 278.433 27.58C279.74 26.502 280.736 25.032 281.422 23.17ZM274.464 53.648C274.464 52.0147 274.905 49.679 275.787 46.641C274.481 49.5483 272.864 51.9657 270.936 53.893C269.074 55.755 267.163 56.686 265.203 56.686C262.198 56.686 260.695 55.2487 260.695 52.374C260.695 51.0673 260.924 49.63 261.381 48.062L263.537 40.565C264.027 38.801 264.289 37.38 264.321 36.302C264.321 35.518 263.995 35.126 263.341 35.126C262.133 35.126 260.597 37.184 258.735 41.3L257.657 40.663C260.107 35.469 262.672 32.872 265.35 32.872C267.67 32.872 268.829 33.9663 268.829 36.155C268.829 37.135 268.421 39.144 267.604 42.182L266.183 47.523C265.693 49.3197 265.448 50.7243 265.448 51.737C265.448 53.4357 266.102 54.285 267.408 54.285C268.976 54.285 270.708 52.8967 272.602 50.12C274.562 47.3433 275.902 44.5667 276.62 41.79L278.776 33.558H283.529L279.168 49.336C278.646 51.1 278.384 52.423 278.384 53.305C278.384 54.089 278.711 54.481 279.364 54.481C280.638 54.481 282.206 52.423 284.068 48.307L285.146 48.944C282.631 54.1053 280.067 56.686 277.453 56.686C275.461 56.686 274.464 55.6733 274.464 53.648Z" fill="#26734E"/>
<rect x="333.5" y="1.5" width="295" height="80" rx="10.5" fill="#FDFFDD"/>
<rect x="333.5" y="1.5" width="295" height="80" rx="10.5" stroke="#26734E" stroke-width="3"/>
<path d="M378.867 37.723C378.867 38.7683 378.557 39.7483 377.936 40.663C377.348 41.545 376.597 41.986 375.682 41.986C374.931 41.986 374.359 41.7573 373.967 41.3C373.608 40.8427 373.428 40.2873 373.428 39.634C373.428 38.9153 373.657 38.2783 374.114 37.723C374.571 37.135 375.094 36.841 375.682 36.841C376.368 36.841 376.94 37.0697 377.397 37.527C377.397 36.547 376.972 35.7467 376.123 35.126C375.306 34.4727 374.228 34.146 372.889 34.146C370.7 34.146 368.773 35.4037 367.107 37.919C365.441 40.4343 364.608 43.701 364.608 47.719C364.608 49.8423 365.049 51.5573 365.931 52.864C366.846 54.138 368.022 54.775 369.459 54.775C372.268 54.775 374.62 52.7987 376.515 48.846L377.544 49.336C376.433 51.688 375.094 53.501 373.526 54.775C371.958 56.049 370.259 56.686 368.43 56.686C365.915 56.686 363.857 55.853 362.256 54.187C360.688 52.521 359.904 50.3487 359.904 47.67C359.904 43.75 361.129 40.3037 363.579 37.331C366.029 34.3583 369.034 32.872 372.595 32.872C374.457 32.872 375.96 33.2967 377.103 34.146C378.279 34.9953 378.867 36.1877 378.867 37.723ZM406.926 48.258L408.004 48.895C405.489 54.089 402.925 56.686 400.311 56.686C397.992 56.686 396.832 55.608 396.832 53.452C396.832 52.2107 397.224 50.2017 398.008 47.425L399.429 42.084C399.919 40.1893 400.164 38.7683 400.164 37.821C400.164 36.939 400.001 36.302 399.674 35.91C399.38 35.518 398.841 35.322 398.057 35.322C396.489 35.322 394.758 36.6123 392.863 39.193C391.001 41.741 389.678 44.436 388.894 47.278L386.542 56H381.838L386.199 40.222C386.689 38.3927 386.934 37.0697 386.934 36.253C386.934 35.5017 386.608 35.126 385.954 35.126C384.746 35.126 383.178 37.184 381.25 41.3L380.221 40.663C382.639 35.469 385.203 32.872 387.914 32.872C388.992 32.872 389.744 33.1333 390.168 33.656C390.626 34.146 390.854 34.9137 390.854 35.959C390.854 36.9717 390.43 39.3073 389.58 42.966C390.887 40.0587 392.504 37.6413 394.431 35.714C396.326 33.8193 398.319 32.872 400.409 32.872C403.415 32.872 404.917 34.3257 404.917 37.233C404.917 38.311 404.689 39.732 404.231 41.496L402.124 49.042C401.569 51.002 401.291 52.3577 401.291 53.109C401.291 53.599 401.357 53.942 401.487 54.138C401.618 54.334 401.879 54.432 402.271 54.432C402.794 54.432 403.513 53.844 404.427 52.668C405.342 51.4267 406.175 49.9567 406.926 48.258ZM418.43 55.314C420.064 55.314 421.517 54.4973 422.791 52.864C425.209 49.7607 426.417 45.9387 426.417 41.398C426.417 36.6613 425.127 34.293 422.546 34.293C420.423 34.2603 418.545 35.714 416.911 38.654C415.278 41.594 414.494 44.583 414.559 47.621C414.559 50.267 414.853 52.2107 415.441 53.452C416.062 54.6933 417.058 55.314 418.43 55.314ZM430.925 42.035C430.925 45.857 429.7 49.2543 427.25 52.227C424.8 55.1997 421.795 56.686 418.234 56.686C415.686 56.686 413.694 55.8693 412.256 54.236C410.819 52.57 410.1 50.3813 410.1 47.67C410.1 43.554 411.309 40.0587 413.726 37.184C416.111 34.3093 419.149 32.872 422.84 32.872C425.356 32.872 427.332 33.7213 428.769 35.42C430.207 37.1187 430.925 39.3237 430.925 42.035ZM457.156 48.307L458.185 48.944C456.944 51.6227 455.768 53.5827 454.657 54.824C453.579 56.0653 452.354 56.686 450.982 56.686C449.806 56.686 448.957 56.294 448.434 55.51C447.944 54.6933 447.683 53.7133 447.65 52.57C447.65 51.394 447.65 50.2343 447.65 49.091C447.65 47.915 447.454 46.9187 447.062 46.102C446.67 45.2853 445.952 44.877 444.906 44.877H442.309L439.418 56H434.763L438.536 42.182C439.386 38.948 439.81 37.0043 439.81 36.351C439.81 35.5343 439.467 35.126 438.781 35.126C438.259 35.126 437.54 35.7303 436.625 36.939C435.776 38.0823 434.943 39.536 434.126 41.3L433.097 40.663C435.515 35.469 438.079 32.872 440.79 32.872C441.901 32.872 442.734 33.2477 443.289 33.999C443.845 34.7177 444.122 35.6813 444.122 36.89C444.122 37.87 443.828 39.4543 443.24 41.643L442.75 43.505H446.131C447.667 39.781 449.104 37.086 450.443 35.42C451.783 33.7213 453.351 32.872 455.147 32.872C455.997 32.872 456.683 33.1333 457.205 33.656C457.728 34.146 457.989 34.832 457.989 35.714C457.989 36.5633 457.744 37.2983 457.254 37.919C456.797 38.5397 456.16 38.85 455.343 38.85C454.886 38.85 454.478 38.654 454.118 38.262C453.792 37.87 453.628 37.3963 453.628 36.841C453.628 36.2203 453.857 35.665 454.314 35.175C454.772 34.6523 455.343 34.391 456.029 34.391C456.029 34.097 455.735 33.95 455.147 33.95C453.873 33.95 452.599 34.6523 451.325 36.057C450.868 36.547 450.378 37.331 449.855 38.409C449.169 39.683 448.761 40.4833 448.63 40.81C448.565 40.9733 448.402 41.349 448.14 41.937C447.912 42.525 447.699 43.0477 447.503 43.505C449.039 43.701 450.149 44.387 450.835 45.563C451.554 46.7063 451.897 47.915 451.864 49.189C451.864 50.463 451.93 51.6227 452.06 52.668C452.191 53.7133 452.518 54.236 453.04 54.236C454.02 54.236 455.392 52.2597 457.156 48.307ZM468.77 55.314C470.403 55.314 471.857 54.4973 473.131 52.864C475.548 49.7607 476.757 45.9387 476.757 41.398C476.757 36.6613 475.467 34.293 472.886 34.293C470.763 34.2603 468.884 35.714 467.251 38.654C465.618 41.594 464.834 44.583 464.899 47.621C464.899 50.267 465.193 52.2107 465.781 53.452C466.402 54.6933 467.398 55.314 468.77 55.314ZM481.265 42.035C481.265 45.857 480.04 49.2543 477.59 52.227C475.14 55.1997 472.135 56.686 468.574 56.686C466.026 56.686 464.033 55.8693 462.596 54.236C461.159 52.57 460.44 50.3813 460.44 47.67C460.44 43.554 461.649 40.0587 464.066 37.184C466.451 34.3093 469.489 32.872 473.18 32.872C475.695 32.872 477.672 33.7213 479.109 35.42C480.546 37.1187 481.265 39.3237 481.265 42.035ZM507.202 23.17L508.182 23.562C507.627 25.522 506.533 27.2043 504.899 28.609C503.266 30.0463 501.486 30.765 499.558 30.765C497.892 30.765 496.602 30.3567 495.687 29.54C494.773 28.7233 494.315 27.58 494.315 26.11C494.315 25.2933 494.56 24.5747 495.05 23.954C495.54 23.3333 496.128 23.023 496.814 23.023C497.37 23.023 497.843 23.219 498.235 23.611C498.627 24.003 498.823 24.4767 498.823 25.032C498.823 25.7833 498.578 26.3713 498.088 26.796C497.598 27.188 496.945 27.384 496.128 27.384C496.292 27.9393 496.733 28.3803 497.451 28.707C498.203 29.001 499.036 29.148 499.95 29.148C501.518 29.148 502.939 28.6253 504.213 27.58C505.52 26.502 506.516 25.032 507.202 23.17ZM500.244 53.648C500.244 52.0147 500.685 49.679 501.567 46.641C500.261 49.5483 498.644 51.9657 496.716 53.893C494.854 55.755 492.943 56.686 490.983 56.686C487.978 56.686 486.475 55.2487 486.475 52.374C486.475 51.0673 486.704 49.63 487.161 48.062L489.317 40.565C489.807 38.801 490.069 37.38 490.101 36.302C490.101 35.518 489.775 35.126 489.121 35.126C487.913 35.126 486.377 37.184 484.515 41.3L483.437 40.663C485.887 35.469 488.452 32.872 491.13 32.872C493.45 32.872 494.609 33.9663 494.609 36.155C494.609 37.135 494.201 39.144 493.384 42.182L491.963 47.523C491.473 49.3197 491.228 50.7243 491.228 51.737C491.228 53.4357 491.882 54.285 493.188 54.285C494.756 54.285 496.488 52.8967 498.382 50.12C500.342 47.3433 501.682 44.5667 502.4 41.79L504.556 33.558H509.309L504.948 49.336C504.426 51.1 504.164 52.423 504.164 53.305C504.164 54.089 504.491 54.481 505.144 54.481C506.418 54.481 507.986 52.423 509.848 48.307L510.926 48.944C508.411 54.1053 505.847 56.686 503.233 56.686C501.241 56.686 500.244 55.6733 500.244 53.648ZM538.803 48.258L539.832 48.895C537.349 54.089 534.801 56.686 532.188 56.686C529.836 56.686 528.66 55.608 528.66 53.452C528.66 52.3413 529.052 50.3323 529.836 47.425L530.473 45.024H521.457L518.517 56H513.813L518.174 40.271C518.207 40.1403 518.305 39.781 518.468 39.193C518.631 38.5723 518.762 38.0007 518.86 37.478C518.958 36.9553 518.991 36.5633 518.958 36.302C518.958 35.518 518.615 35.126 517.929 35.126C516.72 35.126 515.152 37.184 513.225 41.3L512.196 40.663C514.613 35.469 517.178 32.872 519.889 32.872C521.032 32.872 521.898 33.1497 522.486 33.705C523.074 34.2603 523.368 35.028 523.368 36.008C523.368 37.4127 523.041 39.291 522.388 41.643L521.898 43.309H530.963L533.609 33.558H538.313L533.952 49.14C533.397 51.0673 533.119 52.423 533.119 53.207C533.119 54.0237 533.462 54.432 534.148 54.432C535.324 54.432 536.876 52.374 538.803 48.258ZM573.634 48.307L574.663 48.944C572.213 54.1053 569.665 56.686 567.019 56.686C564.635 56.686 563.442 55.6243 563.442 53.501C563.442 52.4557 563.769 50.659 564.422 48.111L567.166 37.723C565.435 39.879 562.887 41.2347 559.522 41.79C560.862 42.6393 561.531 44.24 561.531 46.592C561.531 49.1073 560.633 51.4103 558.836 53.501C557.007 55.6243 554.59 56.686 551.584 56.686C549.298 56.686 547.534 56.147 546.292 55.069C545.084 53.9583 544.479 52.5047 544.479 50.708C544.479 49.5973 544.659 48.405 545.018 47.131L547.272 39.487C547.762 37.821 548.007 36.7267 548.007 36.204C548.007 35.4853 547.713 35.126 547.125 35.126C546.472 35.126 545.672 35.714 544.724 36.89C543.81 38.0333 542.944 39.5033 542.127 41.3L541.098 40.663C543.548 35.5017 546.211 32.921 549.085 32.921C551.47 32.921 552.662 33.9173 552.662 35.91C552.662 36.792 552.499 37.7067 552.172 38.654L550.8 43.162C552.27 41.398 554.034 40.516 556.092 40.516C559.228 40.516 561.76 39.9933 563.687 38.948C565.647 37.87 567.199 36.0733 568.342 33.558H573.095L568.44 50.365C568.114 51.3777 567.95 52.3413 567.95 53.256C567.95 54.0727 568.277 54.481 568.93 54.481C569.518 54.481 570.237 53.9093 571.086 52.766C571.968 51.6227 572.818 50.1363 573.634 48.307ZM554.377 42.28C553.103 42.28 551.878 43.162 550.702 44.926C549.526 46.6573 548.938 48.699 548.938 51.051C548.938 53.9257 550.033 55.363 552.221 55.363C553.495 55.363 554.704 54.4483 555.847 52.619C556.958 50.8223 557.513 48.8623 557.513 46.739C557.513 43.7663 556.468 42.28 554.377 42.28ZM599.699 23.17L600.679 23.562C600.124 25.522 599.03 27.2043 597.396 28.609C595.763 30.0463 593.983 30.765 592.055 30.765C590.389 30.765 589.099 30.3567 588.184 29.54C587.27 28.7233 586.812 27.58 586.812 26.11C586.812 25.2933 587.057 24.5747 587.547 23.954C588.037 23.3333 588.625 23.023 589.311 23.023C589.867 23.023 590.34 23.219 590.732 23.611C591.124 24.003 591.32 24.4767 591.32 25.032C591.32 25.7833 591.075 26.3713 590.585 26.796C590.095 27.188 589.442 27.384 588.625 27.384C588.789 27.9393 589.23 28.3803 589.948 28.707C590.7 29.001 591.533 29.148 592.447 29.148C594.015 29.148 595.436 28.6253 596.71 27.58C598.017 26.502 599.013 25.032 599.699 23.17ZM592.741 53.648C592.741 52.0147 593.182 49.679 594.064 46.641C592.758 49.5483 591.141 51.9657 589.213 53.893C587.351 55.755 585.44 56.686 583.48 56.686C580.475 56.686 578.972 55.2487 578.972 52.374C578.972 51.0673 579.201 49.63 579.658 48.062L581.814 40.565C582.304 38.801 582.566 37.38 582.598 36.302C582.598 35.518 582.272 35.126 581.618 35.126C580.41 35.126 578.874 37.184 577.012 41.3L575.934 40.663C578.384 35.469 580.949 32.872 583.627 32.872C585.947 32.872 587.106 33.9663 587.106 36.155C587.106 37.135 586.698 39.144 585.881 42.182L584.46 47.523C583.97 49.3197 583.725 50.7243 583.725 51.737C583.725 53.4357 584.379 54.285 585.685 54.285C587.253 54.285 588.985 52.8967 590.879 50.12C592.839 47.3433 594.179 44.5667 594.897 41.79L597.053 33.558H601.806L597.445 49.336C596.923 51.1 596.661 52.423 596.661 53.305C596.661 54.089 596.988 54.481 597.641 54.481C598.915 54.481 600.483 52.423 602.345 48.307L603.423 48.944C600.908 54.1053 598.344 56.686 595.73 56.686C593.738 56.686 592.741 55.6733 592.741 53.648Z" fill="#26734E"/>
<rect x="651.5" y="1.5" width="369" height="80" rx="10.5" fill="#FFFAB1"/>
<rect x="651.5" y="1.5" width="369" height="80" rx="10.5" stroke="#26734E" stroke-width="3"/>
<path d="M689.41 40.565L688.283 40.026C689.459 37.1187 690.929 35.1587 692.693 34.146C694.228 33.2967 695.927 32.872 697.789 32.872C700.304 32.872 702.264 33.656 703.669 35.224C705.073 36.792 705.776 38.9317 705.776 41.643C705.776 45.857 704.551 49.4177 702.101 52.325C699.683 55.2323 696.711 56.686 693.183 56.686C691.092 56.686 689.475 56.245 688.332 55.363C687.188 54.4483 686.617 53.1253 686.617 51.394C686.617 50.512 686.878 49.7607 687.401 49.14C687.923 48.5193 688.577 48.209 689.361 48.209C690.047 48.209 690.569 48.4377 690.929 48.895C691.321 49.3197 691.517 49.826 691.517 50.414C691.517 51.198 691.288 51.835 690.831 52.325C690.373 52.7823 689.802 53.011 689.116 53.011C688.724 53.011 688.397 52.9457 688.136 52.815C688.658 54.6117 690.39 55.51 693.33 55.51C695.094 55.51 696.662 54.5627 698.034 52.668C699.406 50.806 700.32 48.2907 700.778 45.122C699.961 45.122 697.282 45.1873 692.742 45.318L693.036 43.554C696.302 43.6847 698.932 43.75 700.925 43.75C701.088 42.378 701.17 41.4633 701.17 41.006C701.17 39.0133 700.794 37.478 700.043 36.4C699.291 35.322 698.213 34.783 696.809 34.783C695.11 34.783 693.673 35.2403 692.497 36.155C691.321 37.0697 690.292 38.5397 689.41 40.565ZM709.089 55.559C710.624 55.559 711.898 54.2197 712.911 51.541C714.022 48.6337 715.573 43.309 717.566 35.567C717.305 35.371 717.027 35.273 716.733 35.273C715.949 35.273 715.1 35.7957 714.185 36.841C713.27 37.8863 712.421 39.3563 711.637 41.251L710.51 40.761C713.058 35.5017 715.786 32.872 718.693 32.872C722.156 32.872 724.034 38.458 724.328 49.63L733.785 33.558H739.175L734.912 49.238C734.389 51.198 734.128 52.521 734.128 53.207C734.128 54.0563 734.471 54.481 735.157 54.481C735.745 54.481 736.447 53.9257 737.264 52.815C738.113 51.6717 738.963 50.169 739.812 48.307L740.841 48.944C738.391 54.1053 735.761 56.686 732.952 56.686C731.841 56.686 730.992 56.4083 730.404 55.853C729.816 55.265 729.522 54.481 729.522 53.501C729.522 52.423 729.849 50.708 730.502 48.356L733.785 36.155L721.486 56.343H720.212C720.081 46.249 719.559 39.83 718.644 37.086L717.664 40.565C717.337 41.9697 717.043 43.0967 716.782 43.946L715.9 46.935C715.704 47.621 715.394 48.552 714.969 49.728C714.283 51.7533 713.63 53.1907 713.009 54.04C711.768 55.7713 710.445 56.637 709.04 56.637C708.191 56.637 707.456 56.343 706.835 55.755C706.214 55.1343 705.904 54.383 705.904 53.501C705.904 52.717 706.116 52.0473 706.541 51.492C706.998 50.9367 707.554 50.659 708.207 50.659C708.664 50.659 709.056 50.855 709.383 51.247C709.742 51.639 709.922 52.1127 709.922 52.668C709.922 53.2887 709.742 53.795 709.383 54.187C709.056 54.579 708.566 54.775 707.913 54.775C707.913 55.2977 708.305 55.559 709.089 55.559ZM768.817 48.258L769.895 48.895C767.38 54.089 764.815 56.686 762.202 56.686C759.883 56.686 758.723 55.608 758.723 53.452C758.723 52.2107 759.115 50.2017 759.899 47.425L761.32 42.084C761.81 40.1893 762.055 38.7683 762.055 37.821C762.055 36.939 761.892 36.302 761.565 35.91C761.271 35.518 760.732 35.322 759.948 35.322C758.38 35.322 756.649 36.6123 754.754 39.193C752.892 41.741 751.569 44.436 750.785 47.278L748.433 56H743.729L748.09 40.222C748.58 38.3927 748.825 37.0697 748.825 36.253C748.825 35.5017 748.498 35.126 747.845 35.126C746.636 35.126 745.068 37.184 743.141 41.3L742.112 40.663C744.529 35.469 747.094 32.872 749.805 32.872C750.883 32.872 751.634 33.1333 752.059 33.656C752.516 34.146 752.745 34.9137 752.745 35.959C752.745 36.9717 752.32 39.3073 751.471 42.966C752.778 40.0587 754.395 37.6413 756.322 35.714C758.217 33.8193 760.209 32.872 762.3 32.872C765.305 32.872 766.808 34.3257 766.808 37.233C766.808 38.311 766.579 39.732 766.122 41.496L764.015 49.042C763.46 51.002 763.182 52.3577 763.182 53.109C763.182 53.599 763.247 53.942 763.378 54.138C763.509 54.334 763.77 54.432 764.162 54.432C764.685 54.432 765.403 53.844 766.318 52.668C767.233 51.4267 768.066 49.9567 768.817 48.258ZM795.903 48.258L796.981 48.895C794.466 54.089 791.869 56.686 789.19 56.686C787.263 56.686 786.299 55.3793 786.299 52.766C786.299 52.178 786.479 51.1327 786.838 49.63C785.891 51.8513 784.633 53.5827 783.065 54.824C781.497 56.0653 779.831 56.686 778.067 56.686C776.14 56.686 774.637 56.0163 773.559 54.677C772.481 53.3377 771.942 51.492 771.942 49.14C771.877 46.6247 772.399 44.093 773.51 41.545C774.653 38.997 776.172 36.9063 778.067 35.273C779.994 33.607 781.971 32.8067 783.996 32.872C785.499 32.872 786.724 33.3947 787.671 34.44C788.618 35.4527 789.174 36.89 789.337 38.752L790.709 33.558H795.315L791.444 47.67C790.693 50.414 790.317 52.2597 790.317 53.207C790.317 54.0237 790.676 54.432 791.395 54.432C791.95 54.432 792.636 53.844 793.453 52.668C794.368 51.394 795.184 49.924 795.903 48.258ZM779.782 54.873C781.317 54.873 782.755 54.0073 784.094 52.276C785.433 50.61 786.479 48.601 787.23 46.249C787.949 43.995 788.308 41.888 788.308 39.928C788.308 38.1967 787.998 36.89 787.377 36.008C786.756 35.126 785.94 34.685 784.927 34.685C783.392 34.685 781.938 35.5833 780.566 37.38C779.259 39.144 778.23 41.1857 777.479 43.505C776.76 45.759 776.401 47.8823 776.401 49.875C776.401 53.207 777.528 54.873 779.782 54.873ZM837.834 48.258L838.863 48.895C836.38 54.089 833.816 56.686 831.17 56.686C828.883 56.686 827.74 55.608 827.74 53.452C827.74 52.2107 828.132 50.2017 828.916 47.425L830.337 42.084C830.86 40.222 831.121 38.7847 831.121 37.772C831.121 36.89 830.958 36.2693 830.631 35.91C830.304 35.518 829.749 35.322 828.965 35.322C827.626 35.322 825.976 36.694 824.016 39.438C822.056 42.2473 820.749 44.8607 820.096 47.278L817.695 56H813.089L816.911 42.084C817.401 40.1893 817.646 38.752 817.646 37.772C817.646 36.89 817.483 36.2693 817.156 35.91C816.862 35.518 816.323 35.322 815.539 35.322C814.167 35.322 812.534 36.6613 810.639 39.34C808.712 42.0187 807.389 44.6647 806.67 47.278L804.318 56H799.712L803.926 40.271C804.449 38.311 804.71 36.988 804.71 36.302C804.71 35.518 804.383 35.126 803.73 35.126C803.142 35.126 802.407 35.714 801.525 36.89C800.676 38.0333 799.859 39.5033 799.075 41.3L797.997 40.663C800.48 35.469 803.044 32.872 805.69 32.872C806.768 32.872 807.519 33.1333 807.944 33.656C808.401 34.146 808.63 34.9137 808.63 35.959C808.63 37.233 808.189 39.5687 807.307 42.966C808.646 39.9607 810.312 37.527 812.305 35.665C814.298 33.803 816.241 32.872 818.136 32.872C820.619 32.872 821.86 34.2277 821.86 36.939C821.86 38.311 821.501 40.32 820.782 42.966C822.089 40.0913 823.755 37.6903 825.78 35.763C827.805 33.8357 829.733 32.872 831.562 32.872C834.437 32.872 835.874 34.2767 835.874 37.086C835.874 38.36 835.629 39.83 835.139 41.496L832.983 49.042C832.46 50.806 832.199 52.2107 832.199 53.256C832.199 54.04 832.526 54.432 833.179 54.432C833.734 54.432 834.437 53.8603 835.286 52.717C836.168 51.541 837.017 50.0547 837.834 48.258ZM856.68 53.648C856.68 52.0147 857.121 49.679 858.003 46.641C856.696 49.5483 855.079 51.9657 853.152 53.893C851.29 55.755 849.379 56.686 847.419 56.686C844.413 56.686 842.911 55.2487 842.911 52.374C842.911 51.0673 843.139 49.63 843.597 48.062L845.753 40.565C846.243 38.801 846.504 37.38 846.537 36.302C846.537 35.518 846.21 35.126 845.557 35.126C844.348 35.126 842.813 37.184 840.951 41.3L839.873 40.663C842.323 35.469 844.887 32.872 847.566 32.872C849.885 32.872 851.045 33.9663 851.045 36.155C851.045 37.135 850.636 39.144 849.82 42.182L848.399 47.523C847.909 49.3197 847.664 50.7243 847.664 51.737C847.664 53.4357 848.317 54.285 849.624 54.285C851.192 54.285 852.923 52.8967 854.818 50.12C856.778 47.3433 858.117 44.5667 858.836 41.79L860.992 33.558H865.745L861.384 49.336C860.861 51.1 860.6 52.423 860.6 53.305C860.6 54.089 860.926 54.481 861.58 54.481C862.854 54.481 864.422 52.423 866.284 48.307L867.362 48.944C864.846 54.1053 862.282 56.686 859.669 56.686C857.676 56.686 856.68 55.6733 856.68 53.648ZM892.892 48.307L893.921 48.944C891.406 54.1053 888.776 56.686 886.032 56.686C883.746 56.686 882.602 55.6407 882.602 53.55C882.602 51.8513 883.207 49.091 884.415 45.269C881.998 47.5557 879.597 48.699 877.212 48.699C875.579 48.699 874.452 48.3397 873.831 47.621C873.211 46.9023 872.9 45.8243 872.9 44.387C872.9 43.505 873.194 42.0513 873.782 40.026C874.37 37.968 874.664 36.7267 874.664 36.302C874.664 35.518 874.37 35.126 873.782 35.126C873.194 35.126 872.443 35.714 871.528 36.89C870.646 38.0333 869.813 39.5033 869.029 41.3L867.951 40.663C870.401 35.469 872.966 32.872 875.644 32.872C877.964 32.872 879.123 33.95 879.123 36.106C879.123 36.7593 878.895 38.0823 878.437 40.075C877.98 42.0677 877.751 43.309 877.751 43.799C877.751 45.4977 878.535 46.347 880.103 46.347C881.116 46.347 882.161 45.906 883.239 45.024C884.35 44.0767 885.02 43.1293 885.248 42.182L887.551 33.558H892.304L887.894 49.434C887.404 51.296 887.159 52.57 887.159 53.256C887.159 54.0727 887.502 54.481 888.188 54.481C889.364 54.481 890.932 52.423 892.892 48.307ZM921.796 48.258L922.825 48.895C920.342 54.089 917.794 56.686 915.181 56.686C912.829 56.686 911.653 55.608 911.653 53.452C911.653 52.3413 912.045 50.3323 912.829 47.425L913.466 45.024H904.45L901.51 56H896.806L901.167 40.271C901.2 40.1403 901.298 39.781 901.461 39.193C901.624 38.5723 901.755 38.0007 901.853 37.478C901.951 36.9553 901.984 36.5633 901.951 36.302C901.951 35.518 901.608 35.126 900.922 35.126C899.713 35.126 898.145 37.184 896.218 41.3L895.189 40.663C897.606 35.469 900.171 32.872 902.882 32.872C904.025 32.872 904.891 33.1497 905.479 33.705C906.067 34.2603 906.361 35.028 906.361 36.008C906.361 37.4127 906.034 39.291 905.381 41.643L904.891 43.309H913.956L916.602 33.558H921.306L916.945 49.14C916.39 51.0673 916.112 52.423 916.112 53.207C916.112 54.0237 916.455 54.432 917.141 54.432C918.317 54.432 919.869 52.374 921.796 48.258ZM956.627 48.307L957.656 48.944C955.206 54.1053 952.658 56.686 950.012 56.686C947.628 56.686 946.435 55.6243 946.435 53.501C946.435 52.4557 946.762 50.659 947.415 48.111L950.159 37.723C948.428 39.879 945.88 41.2347 942.515 41.79C943.855 42.6393 944.524 44.24 944.524 46.592C944.524 49.1073 943.626 51.4103 941.829 53.501C940 55.6243 937.583 56.686 934.577 56.686C932.291 56.686 930.527 56.147 929.285 55.069C928.077 53.9583 927.472 52.5047 927.472 50.708C927.472 49.5973 927.652 48.405 928.011 47.131L930.265 39.487C930.755 37.821 931 36.7267 931 36.204C931 35.4853 930.706 35.126 930.118 35.126C929.465 35.126 928.665 35.714 927.717 36.89C926.803 38.0333 925.937 39.5033 925.12 41.3L924.091 40.663C926.541 35.5017 929.204 32.921 932.078 32.921C934.463 32.921 935.655 33.9173 935.655 35.91C935.655 36.792 935.492 37.7067 935.165 38.654L933.793 43.162C935.263 41.398 937.027 40.516 939.085 40.516C942.221 40.516 944.753 39.9933 946.68 38.948C948.64 37.87 950.192 36.0733 951.335 33.558H956.088L951.433 50.365C951.107 51.3777 950.943 52.3413 950.943 53.256C950.943 54.0727 951.27 54.481 951.923 54.481C952.511 54.481 953.23 53.9093 954.079 52.766C954.961 51.6227 955.811 50.1363 956.627 48.307ZM937.37 42.28C936.096 42.28 934.871 43.162 933.695 44.926C932.519 46.6573 931.931 48.699 931.931 51.051C931.931 53.9257 933.026 55.363 935.214 55.363C936.488 55.363 937.697 54.4483 938.84 52.619C939.951 50.8223 940.506 48.8623 940.506 46.739C940.506 43.7663 939.461 42.28 937.37 42.28ZM982.692 23.17L983.672 23.562C983.117 25.522 982.023 27.2043 980.389 28.609C978.756 30.0463 976.976 30.765 975.048 30.765C973.382 30.765 972.092 30.3567 971.177 29.54C970.263 28.7233 969.805 27.58 969.805 26.11C969.805 25.2933 970.05 24.5747 970.54 23.954C971.03 23.3333 971.618 23.023 972.304 23.023C972.86 23.023 973.333 23.219 973.725 23.611C974.117 24.003 974.313 24.4767 974.313 25.032C974.313 25.7833 974.068 26.3713 973.578 26.796C973.088 27.188 972.435 27.384 971.618 27.384C971.782 27.9393 972.223 28.3803 972.941 28.707C973.693 29.001 974.526 29.148 975.44 29.148C977.008 29.148 978.429 28.6253 979.703 27.58C981.01 26.502 982.006 25.032 982.692 23.17ZM975.734 53.648C975.734 52.0147 976.175 49.679 977.057 46.641C975.751 49.5483 974.134 51.9657 972.206 53.893C970.344 55.755 968.433 56.686 966.473 56.686C963.468 56.686 961.965 55.2487 961.965 52.374C961.965 51.0673 962.194 49.63 962.651 48.062L964.807 40.565C965.297 38.801 965.559 37.38 965.591 36.302C965.591 35.518 965.265 35.126 964.611 35.126C963.403 35.126 961.867 37.184 960.005 41.3L958.927 40.663C961.377 35.469 963.942 32.872 966.62 32.872C968.94 32.872 970.099 33.9663 970.099 36.155C970.099 37.135 969.691 39.144 968.874 42.182L967.453 47.523C966.963 49.3197 966.718 50.7243 966.718 51.737C966.718 53.4357 967.372 54.285 968.678 54.285C970.246 54.285 971.978 52.8967 973.872 50.12C975.832 47.3433 977.172 44.5667 977.89 41.79L980.046 33.558H984.799L980.438 49.336C979.916 51.1 979.654 52.423 979.654 53.305C979.654 54.089 979.981 54.481 980.634 54.481C981.908 54.481 983.476 52.423 985.338 48.307L986.416 48.944C983.901 54.1053 981.337 56.686 978.723 56.686C976.731 56.686 975.734 55.6733 975.734 53.648Z" fill="#26734E"/>
<rect x="1.5" y="104.5" width="393" height="80" rx="10.5" fill="#FFFAB1"/>
<rect x="1.5" y="104.5" width="393" height="80" rx="10.5" stroke="#26734E" stroke-width="3"/>
<path d="M61.2188 151.258L62.2968 151.895C59.7815 157.089 57.1845 159.686 54.5058 159.686C52.5785 159.686 51.6148 158.379 51.6148 155.766C51.6148 155.178 51.7945 154.133 52.1538 152.63C51.2065 154.851 49.9488 156.583 48.3808 157.824C46.8128 159.065 45.1468 159.686 43.3828 159.686C41.4555 159.686 39.9528 159.016 38.8748 157.677C37.7968 156.338 37.2578 154.492 37.2578 152.14C37.1925 149.625 37.7151 147.093 38.8258 144.545C39.9691 141.997 41.4881 139.906 43.3828 138.273C45.3101 136.607 47.2865 135.807 49.3118 135.872C50.8145 135.872 52.0395 136.395 52.9868 137.44C53.9341 138.453 54.4895 139.89 54.6528 141.752L56.0248 136.558H60.6308L56.7598 150.67C56.0085 153.414 55.6328 155.26 55.6328 156.207C55.6328 157.024 55.9921 157.432 56.7108 157.432C57.2661 157.432 57.9521 156.844 58.7688 155.668C59.6835 154.394 60.5001 152.924 61.2188 151.258ZM45.0978 157.873C46.6331 157.873 48.0705 157.007 49.4098 155.276C50.7491 153.61 51.7945 151.601 52.5458 149.249C53.2645 146.995 53.6238 144.888 53.6238 142.928C53.6238 141.197 53.3135 139.89 52.6928 139.008C52.0721 138.126 51.2555 137.685 50.2428 137.685C48.7075 137.685 47.2538 138.583 45.8818 140.38C44.5751 142.144 43.5461 144.186 42.7948 146.505C42.0761 148.759 41.7168 150.882 41.7168 152.875C41.7168 156.207 42.8438 157.873 45.0978 157.873ZM103.15 151.258L104.179 151.895C101.696 157.089 99.1318 159.686 96.4858 159.686C94.1991 159.686 93.0558 158.608 93.0558 156.452C93.0558 155.211 93.4478 153.202 94.2318 150.425L95.6528 145.084C96.1754 143.222 96.4368 141.785 96.4368 140.772C96.4368 139.89 96.2734 139.269 95.9468 138.91C95.6201 138.518 95.0648 138.322 94.2808 138.322C92.9414 138.322 91.2918 139.694 89.3318 142.438C87.3718 145.247 86.0651 147.861 85.4118 150.278L83.0108 159H78.4048L82.2268 145.084C82.7168 143.189 82.9618 141.752 82.9618 140.772C82.9618 139.89 82.7984 139.269 82.4718 138.91C82.1778 138.518 81.6388 138.322 80.8548 138.322C79.4828 138.322 77.8494 139.661 75.9548 142.34C74.0274 145.019 72.7044 147.665 71.9858 150.278L69.6338 159H65.0278L69.2418 143.271C69.7644 141.311 70.0258 139.988 70.0258 139.302C70.0258 138.518 69.6991 138.126 69.0458 138.126C68.4578 138.126 67.7228 138.714 66.8408 139.89C65.9914 141.033 65.1748 142.503 64.3908 144.3L63.3128 143.663C65.7954 138.469 68.3598 135.872 71.0058 135.872C72.0838 135.872 72.8351 136.133 73.2598 136.656C73.7171 137.146 73.9458 137.914 73.9458 138.959C73.9458 140.233 73.5048 142.569 72.6228 145.966C73.9621 142.961 75.6281 140.527 77.6208 138.665C79.6134 136.803 81.5571 135.872 83.4518 135.872C85.9344 135.872 87.1758 137.228 87.1758 139.939C87.1758 141.311 86.8164 143.32 86.0978 145.966C87.4044 143.091 89.0704 140.69 91.0958 138.763C93.1211 136.836 95.0484 135.872 96.8778 135.872C99.7524 135.872 101.19 137.277 101.19 140.086C101.19 141.36 100.945 142.83 100.455 144.496L98.2988 152.042C97.7761 153.806 97.5148 155.211 97.5148 156.256C97.5148 157.04 97.8414 157.432 98.4948 157.432C99.0501 157.432 99.7524 156.86 100.602 155.717C101.484 154.541 102.333 153.055 103.15 151.258ZM107.002 158.559C108.537 158.559 109.811 157.22 110.824 154.541C111.934 151.634 113.486 146.309 115.479 138.567C115.217 138.371 114.94 138.273 114.646 138.273C113.862 138.273 113.012 138.796 112.098 139.841C111.183 140.886 110.334 142.356 109.55 144.251L108.423 143.761C110.971 138.502 113.698 135.872 116.606 135.872C120.068 135.872 121.947 141.458 122.241 152.63L131.698 136.558H137.088L132.825 152.238C132.302 154.198 132.041 155.521 132.041 156.207C132.041 157.056 132.384 157.481 133.07 157.481C133.658 157.481 134.36 156.926 135.177 155.815C136.026 154.672 136.875 153.169 137.725 151.307L138.754 151.944C136.304 157.105 133.674 159.686 130.865 159.686C129.754 159.686 128.905 159.408 128.317 158.853C127.729 158.265 127.435 157.481 127.435 156.501C127.435 155.423 127.761 153.708 128.415 151.356L131.698 139.155L119.399 159.343H118.125C117.994 149.249 117.471 142.83 116.557 140.086L115.577 143.565C115.25 144.97 114.956 146.097 114.695 146.946L113.813 149.935C113.617 150.621 113.306 151.552 112.882 152.728C112.196 154.753 111.542 156.191 110.922 157.04C109.68 158.771 108.357 159.637 106.953 159.637C106.103 159.637 105.368 159.343 104.748 158.755C104.127 158.134 103.817 157.383 103.817 156.501C103.817 155.717 104.029 155.047 104.454 154.492C104.911 153.937 105.466 153.659 106.12 153.659C106.577 153.659 106.969 153.855 107.296 154.247C107.655 154.639 107.835 155.113 107.835 155.668C107.835 156.289 107.655 156.795 107.296 157.187C106.969 157.579 106.479 157.775 105.826 157.775C105.826 158.298 106.218 158.559 107.002 158.559ZM149.188 158.314C150.821 158.314 152.275 157.497 153.549 155.864C155.966 152.761 157.175 148.939 157.175 144.398C157.175 139.661 155.884 137.293 153.304 137.293C151.18 137.26 149.302 138.714 147.669 141.654C146.035 144.594 145.251 147.583 145.317 150.621C145.317 153.267 145.611 155.211 146.199 156.452C146.819 157.693 147.816 158.314 149.188 158.314ZM161.683 145.035C161.683 148.857 160.458 152.254 158.008 155.227C155.558 158.2 152.552 159.686 148.992 159.686C146.444 159.686 144.451 158.869 143.014 157.236C141.576 155.57 140.858 153.381 140.858 150.67C140.858 146.554 142.066 143.059 144.484 140.184C146.868 137.309 149.906 135.872 153.598 135.872C156.113 135.872 158.089 136.721 159.527 138.42C160.964 140.119 161.683 142.324 161.683 145.035ZM183.651 140.723C183.651 141.768 183.34 142.748 182.72 143.663C182.132 144.545 181.38 144.986 180.466 144.986C179.714 144.986 179.143 144.757 178.751 144.3C178.391 143.843 178.212 143.287 178.212 142.634C178.212 141.915 178.44 141.278 178.898 140.723C179.355 140.135 179.878 139.841 180.466 139.841C181.152 139.841 181.723 140.07 182.181 140.527C182.181 139.547 181.756 138.747 180.907 138.126C180.09 137.473 179.012 137.146 177.673 137.146C175.484 137.146 173.557 138.404 171.891 140.919C170.225 143.434 169.392 146.701 169.392 150.719C169.392 152.842 169.833 154.557 170.715 155.864C171.629 157.138 172.805 157.775 174.243 157.775C177.052 157.775 179.404 155.799 181.299 151.846L182.328 152.336C181.217 154.688 179.878 156.501 178.31 157.775C176.742 159.049 175.043 159.686 173.214 159.686C170.698 159.686 168.64 158.853 167.04 157.187C165.472 155.521 164.688 153.349 164.688 150.67C164.688 146.75 165.913 143.304 168.363 140.331C170.813 137.358 173.818 135.872 177.379 135.872C179.241 135.872 180.743 136.297 181.887 137.146C183.063 137.995 183.651 139.188 183.651 140.723ZM191.669 167.673C192.747 167.673 193.678 166.905 194.462 165.37C195.279 163.835 196.079 161.385 196.863 158.02L197.598 154.786C195.573 158.085 193.335 159.735 190.885 159.735C189.154 159.735 187.847 159.163 186.965 158.02C186.116 156.844 185.691 155.211 185.691 153.12C185.691 150.67 186.165 148.122 187.112 145.476C188.092 142.863 189.497 140.641 191.326 138.812C193.188 136.95 195.197 136.019 197.353 136.019C198.66 136.019 199.656 136.427 200.342 137.244C201.028 138.028 201.42 139.302 201.518 141.066L202.351 137.832C204.115 130.841 207.382 127.346 212.151 127.346C212.804 127.313 213.441 127.509 214.062 127.934C214.683 128.326 215.026 129.012 215.091 129.992C215.091 130.711 214.879 131.331 214.454 131.854C214.029 132.377 213.49 132.638 212.837 132.638C211.726 132.638 211.171 132.05 211.171 130.874C211.171 130.384 211.334 129.943 211.661 129.551C211.988 129.126 212.347 128.914 212.739 128.914C213.425 128.914 213.882 129.224 214.111 129.845C214.111 128.832 213.49 128.326 212.249 128.326C211.106 128.326 210.126 129.045 209.309 130.482C208.525 131.919 207.692 134.369 206.81 137.832L206.026 140.87C208.051 137.571 210.289 135.921 212.739 135.921C214.438 135.921 215.728 136.509 216.61 137.685C217.492 138.861 217.933 140.462 217.933 142.487C217.933 145.002 217.443 147.567 216.463 150.18C215.548 152.761 214.144 154.998 212.249 156.893C210.42 158.722 208.411 159.637 206.222 159.637C204.85 159.637 203.837 159.278 203.184 158.559C202.563 157.808 202.188 156.55 202.057 154.786L201.175 158.02C200.358 161.091 199.297 163.541 197.99 165.37C196.52 167.624 194.397 168.751 191.62 168.751C190.542 168.751 189.644 168.473 188.925 167.918C188.206 167.363 187.847 166.579 187.847 165.566C187.847 164.847 188.059 164.227 188.484 163.704C188.909 163.181 189.448 162.92 190.101 162.92C191.212 162.92 191.767 163.508 191.767 164.684C191.767 165.174 191.604 165.599 191.277 165.958C190.95 166.35 190.591 166.546 190.199 166.546C189.48 166.546 189.023 166.268 188.827 165.713C188.827 167.02 189.774 167.673 191.669 167.673ZM200.44 142.389C200.44 140.919 200.211 139.776 199.754 138.959C199.297 138.142 198.692 137.734 197.941 137.734C196.83 137.734 195.638 138.502 194.364 140.037C193.09 141.54 191.996 143.581 191.081 146.162C190.166 148.677 189.709 151.258 189.709 153.904C189.709 156.55 190.64 157.873 192.502 157.873C193.188 157.873 193.988 157.448 194.903 156.599C195.818 155.75 196.683 154.639 197.5 153.267C199.46 149.935 200.44 146.309 200.44 142.389ZM213.915 141.752C213.915 139.139 213.017 137.832 211.22 137.832C209.881 137.832 208.558 138.698 207.251 140.429C205.977 142.128 204.899 144.578 204.017 147.779C203.429 149.968 203.135 151.781 203.135 153.218C203.135 154.688 203.364 155.848 203.821 156.697C204.278 157.514 204.899 157.922 205.683 157.922C206.924 157.922 208.215 157.04 209.554 155.276C210.861 153.512 211.906 151.356 212.69 148.808C213.507 146.358 213.915 144.006 213.915 141.752ZM240.028 140.674C240.028 142.503 238.738 144.365 236.157 146.26C233.674 148.122 230.081 149.429 225.377 150.18C225.279 150.768 225.23 151.34 225.23 151.895C225.295 155.782 226.798 157.726 229.738 157.726C231.143 157.726 232.531 157.22 233.903 156.207C235.275 155.162 236.484 153.692 237.529 151.797L238.509 152.434C237.398 154.655 235.896 156.436 234.001 157.775C232.172 159.049 230.359 159.686 228.562 159.686C226.112 159.686 224.185 158.869 222.78 157.236C221.408 155.603 220.722 153.479 220.722 150.866C220.722 148.547 221.228 146.276 222.241 144.055C223.254 141.801 224.789 139.874 226.847 138.273C228.872 136.672 231.143 135.872 233.658 135.872C237.905 135.872 240.028 137.473 240.028 140.674ZM236.108 140.478C236.108 138.355 235.144 137.293 233.217 137.293C231.322 137.293 229.656 138.518 228.219 140.968C226.814 143.353 225.932 145.966 225.573 148.808C229.558 148.122 232.302 146.995 233.805 145.427C235.34 143.794 236.108 142.144 236.108 140.478ZM266.845 143.369C266.845 145.95 266.339 148.465 265.326 150.915C264.313 153.398 262.876 155.488 261.014 157.187C259.152 158.853 257.143 159.686 254.987 159.686C253.321 159.686 251.982 159.098 250.969 157.922C249.989 156.746 249.483 155.194 249.45 153.267L246.363 164.88C246.232 165.239 246.167 165.599 246.167 165.958C246.167 166.546 246.592 166.84 247.441 166.84H250.185L249.842 168.212H237.543L237.886 166.84H239.65C240.271 166.84 240.728 166.693 241.022 166.399C241.316 166.138 241.561 165.631 241.757 164.88L247.588 143.271C248.111 141.344 248.356 140.004 248.323 139.253C248.323 138.502 248.029 138.126 247.441 138.126C246.2 138.126 244.615 140.184 242.688 144.3L241.659 143.663C244.044 138.469 246.608 135.872 249.352 135.872C251.377 135.872 252.39 136.917 252.39 139.008C252.39 139.825 252.161 141.278 251.704 143.369C252.847 141.017 254.236 139.188 255.869 137.881C257.502 136.542 259.201 135.872 260.965 135.872C262.827 135.872 264.264 136.558 265.277 137.93C266.322 139.269 266.845 141.082 266.845 143.369ZM262.386 142.634C262.386 141.066 262.092 139.857 261.504 139.008C260.916 138.159 260.083 137.734 259.005 137.734C256.98 137.734 255.036 139.4 253.174 142.732C251.312 145.999 250.381 149.037 250.381 151.846C250.381 153.741 250.691 155.227 251.312 156.305C251.933 157.383 252.831 157.922 254.007 157.922C255.575 157.922 257.012 157.04 258.319 155.276C259.658 153.414 260.671 151.356 261.357 149.102C262.043 146.75 262.386 144.594 262.386 142.634ZM295.4 151.258L296.429 151.895C293.946 157.089 291.398 159.686 288.785 159.686C286.433 159.686 285.257 158.608 285.257 156.452C285.257 155.341 285.649 153.332 286.433 150.425L287.07 148.024H278.054L275.114 159H270.41L274.771 143.271C274.804 143.14 274.902 142.781 275.065 142.193C275.228 141.572 275.359 141.001 275.457 140.478C275.555 139.955 275.588 139.563 275.555 139.302C275.555 138.518 275.212 138.126 274.526 138.126C273.317 138.126 271.749 140.184 269.822 144.3L268.793 143.663C271.21 138.469 273.775 135.872 276.486 135.872C277.629 135.872 278.495 136.15 279.083 136.705C279.671 137.26 279.965 138.028 279.965 139.008C279.965 140.413 279.638 142.291 278.985 144.643L278.495 146.309H287.56L290.206 136.558H294.91L290.549 152.14C289.994 154.067 289.716 155.423 289.716 156.207C289.716 157.024 290.059 157.432 290.745 157.432C291.921 157.432 293.473 155.374 295.4 151.258ZM330.231 151.307L331.26 151.944C328.81 157.105 326.262 159.686 323.616 159.686C321.232 159.686 320.039 158.624 320.039 156.501C320.039 155.456 320.366 153.659 321.019 151.111L323.763 140.723C322.032 142.879 319.484 144.235 316.119 144.79C317.459 145.639 318.128 147.24 318.128 149.592C318.128 152.107 317.23 154.41 315.433 156.501C313.604 158.624 311.187 159.686 308.181 159.686C305.895 159.686 304.131 159.147 302.889 158.069C301.681 156.958 301.076 155.505 301.076 153.708C301.076 152.597 301.256 151.405 301.615 150.131L303.869 142.487C304.359 140.821 304.604 139.727 304.604 139.204C304.604 138.485 304.31 138.126 303.722 138.126C303.069 138.126 302.269 138.714 301.321 139.89C300.407 141.033 299.541 142.503 298.724 144.3L297.695 143.663C300.145 138.502 302.808 135.921 305.682 135.921C308.067 135.921 309.259 136.917 309.259 138.91C309.259 139.792 309.096 140.707 308.769 141.654L307.397 146.162C308.867 144.398 310.631 143.516 312.689 143.516C315.825 143.516 318.357 142.993 320.284 141.948C322.244 140.87 323.796 139.073 324.939 136.558H329.692L325.037 153.365C324.711 154.378 324.547 155.341 324.547 156.256C324.547 157.073 324.874 157.481 325.527 157.481C326.115 157.481 326.834 156.909 327.683 155.766C328.565 154.623 329.415 153.136 330.231 151.307ZM310.974 145.28C309.7 145.28 308.475 146.162 307.299 147.926C306.123 149.657 305.535 151.699 305.535 154.051C305.535 156.926 306.63 158.363 308.818 158.363C310.092 158.363 311.301 157.448 312.444 155.619C313.555 153.822 314.11 151.862 314.11 149.739C314.11 146.766 313.065 145.28 310.974 145.28ZM356.296 126.17L357.276 126.562C356.721 128.522 355.627 130.204 353.993 131.609C352.36 133.046 350.58 133.765 348.652 133.765C346.986 133.765 345.696 133.357 344.781 132.54C343.867 131.723 343.409 130.58 343.409 129.11C343.409 128.293 343.654 127.575 344.144 126.954C344.634 126.333 345.222 126.023 345.908 126.023C346.464 126.023 346.937 126.219 347.329 126.611C347.721 127.003 347.917 127.477 347.917 128.032C347.917 128.783 347.672 129.371 347.182 129.796C346.692 130.188 346.039 130.384 345.222 130.384C345.386 130.939 345.827 131.38 346.545 131.707C347.297 132.001 348.13 132.148 349.044 132.148C350.612 132.148 352.033 131.625 353.307 130.58C354.614 129.502 355.61 128.032 356.296 126.17ZM349.338 156.648C349.338 155.015 349.779 152.679 350.661 149.641C349.355 152.548 347.738 154.966 345.81 156.893C343.948 158.755 342.037 159.686 340.077 159.686C337.072 159.686 335.569 158.249 335.569 155.374C335.569 154.067 335.798 152.63 336.255 151.062L338.411 143.565C338.901 141.801 339.163 140.38 339.195 139.302C339.195 138.518 338.869 138.126 338.215 138.126C337.007 138.126 335.471 140.184 333.609 144.3L332.531 143.663C334.981 138.469 337.546 135.872 340.224 135.872C342.544 135.872 343.703 136.966 343.703 139.155C343.703 140.135 343.295 142.144 342.478 145.182L341.057 150.523C340.567 152.32 340.322 153.724 340.322 154.737C340.322 156.436 340.976 157.285 342.282 157.285C343.85 157.285 345.582 155.897 347.476 153.12C349.436 150.343 350.776 147.567 351.494 144.79L353.65 136.558H358.403L354.042 152.336C353.52 154.1 353.258 155.423 353.258 156.305C353.258 157.089 353.585 157.481 354.238 157.481C355.512 157.481 357.08 155.423 358.942 151.307L360.02 151.944C357.505 157.105 354.941 159.686 352.327 159.686C350.335 159.686 349.338 158.673 349.338 156.648Z" fill="#26734E"/>
<rect x="417.5" y="104.5" width="373" height="80" rx="10.5" fill="#A7EF9B"/>
<rect x="417.5" y="104.5" width="373" height="80" rx="10.5" stroke="#26734E" stroke-width="3"/>
<path d="M476.653 151.307L477.682 151.944C476.441 154.623 475.265 156.583 474.154 157.824C473.076 159.065 471.851 159.686 470.479 159.686C469.303 159.686 468.454 159.294 467.931 158.51C467.441 157.693 467.18 156.713 467.147 155.57C467.147 154.394 467.147 153.234 467.147 152.091C467.147 150.915 466.951 149.919 466.559 149.102C466.167 148.285 465.449 147.877 464.403 147.877H461.806L458.915 159H454.26L458.033 145.182C458.883 141.948 459.307 140.004 459.307 139.351C459.307 138.534 458.964 138.126 458.278 138.126C457.756 138.126 457.037 138.73 456.122 139.939C455.273 141.082 454.44 142.536 453.623 144.3L452.594 143.663C455.012 138.469 457.576 135.872 460.287 135.872C461.398 135.872 462.231 136.248 462.786 136.999C463.342 137.718 463.619 138.681 463.619 139.89C463.619 140.87 463.325 142.454 462.737 144.643L462.247 146.505H465.628C467.164 142.781 468.601 140.086 469.94 138.42C471.28 136.721 472.848 135.872 474.644 135.872C475.494 135.872 476.18 136.133 476.702 136.656C477.225 137.146 477.486 137.832 477.486 138.714C477.486 139.563 477.241 140.298 476.751 140.919C476.294 141.54 475.657 141.85 474.84 141.85C474.383 141.85 473.975 141.654 473.615 141.262C473.289 140.87 473.125 140.396 473.125 139.841C473.125 139.22 473.354 138.665 473.811 138.175C474.269 137.652 474.84 137.391 475.526 137.391C475.526 137.097 475.232 136.95 474.644 136.95C473.37 136.95 472.096 137.652 470.822 139.057C470.365 139.547 469.875 140.331 469.352 141.409C468.666 142.683 468.258 143.483 468.127 143.81C468.062 143.973 467.899 144.349 467.637 144.937C467.409 145.525 467.196 146.048 467 146.505C468.536 146.701 469.646 147.387 470.332 148.563C471.051 149.706 471.394 150.915 471.361 152.189C471.361 153.463 471.427 154.623 471.557 155.668C471.688 156.713 472.015 157.236 472.537 157.236C473.517 157.236 474.889 155.26 476.653 151.307ZM488.267 158.314C489.901 158.314 491.354 157.497 492.628 155.864C495.046 152.761 496.254 148.939 496.254 144.398C496.254 139.661 494.964 137.293 492.383 137.293C490.26 137.26 488.382 138.714 486.748 141.654C485.115 144.594 484.331 147.583 484.396 150.621C484.396 153.267 484.69 155.211 485.278 156.452C485.899 157.693 486.895 158.314 488.267 158.314ZM500.762 145.035C500.762 148.857 499.537 152.254 497.087 155.227C494.637 158.2 491.632 159.686 488.071 159.686C485.523 159.686 483.531 158.869 482.093 157.236C480.656 155.57 479.937 153.381 479.937 150.67C479.937 146.554 481.146 143.059 483.563 140.184C485.948 137.309 488.986 135.872 492.677 135.872C495.193 135.872 497.169 136.721 498.606 138.42C500.044 140.119 500.762 142.324 500.762 145.035ZM504.269 158.559C505.804 158.559 507.078 157.22 508.091 154.541C509.201 151.634 510.753 146.309 512.746 138.567C512.484 138.371 512.207 138.273 511.913 138.273C511.129 138.273 510.279 138.796 509.365 139.841C508.45 140.886 507.601 142.356 506.817 144.251L505.69 143.761C508.238 138.502 510.965 135.872 513.873 135.872C517.335 135.872 519.214 141.458 519.508 152.63L528.965 136.558H534.355L530.092 152.238C529.569 154.198 529.308 155.521 529.308 156.207C529.308 157.056 529.651 157.481 530.337 157.481C530.925 157.481 531.627 156.926 532.444 155.815C533.293 154.672 534.142 153.169 534.992 151.307L536.021 151.944C533.571 157.105 530.941 159.686 528.132 159.686C527.021 159.686 526.172 159.408 525.584 158.853C524.996 158.265 524.702 157.481 524.702 156.501C524.702 155.423 525.028 153.708 525.682 151.356L528.965 139.155L516.666 159.343H515.392C515.261 149.249 514.738 142.83 513.824 140.086L512.844 143.565C512.517 144.97 512.223 146.097 511.962 146.946L511.08 149.935C510.884 150.621 510.573 151.552 510.149 152.728C509.463 154.753 508.809 156.191 508.189 157.04C506.947 158.771 505.624 159.637 504.22 159.637C503.37 159.637 502.635 159.343 502.015 158.755C501.394 158.134 501.084 157.383 501.084 156.501C501.084 155.717 501.296 155.047 501.721 154.492C502.178 153.937 502.733 153.659 503.387 153.659C503.844 153.659 504.236 153.855 504.563 154.247C504.922 154.639 505.102 155.113 505.102 155.668C505.102 156.289 504.922 156.795 504.563 157.187C504.236 157.579 503.746 157.775 503.093 157.775C503.093 158.298 503.485 158.559 504.269 158.559ZM543.956 167.673C545.034 167.673 545.965 166.905 546.749 165.37C547.565 163.835 548.366 161.385 549.15 158.02L549.885 154.786C547.859 158.085 545.622 159.735 543.172 159.735C541.44 159.735 540.134 159.163 539.252 158.02C538.402 156.844 537.978 155.211 537.978 153.12C537.978 150.67 538.451 148.122 539.399 145.476C540.379 142.863 541.783 140.641 543.613 138.812C545.475 136.95 547.484 136.019 549.64 136.019C550.946 136.019 551.943 136.427 552.629 137.244C553.315 138.028 553.707 139.302 553.805 141.066L554.638 137.832C556.402 130.841 559.668 127.346 564.438 127.346C565.091 127.313 565.728 127.509 566.349 127.934C566.969 128.326 567.312 129.012 567.378 129.992C567.378 130.711 567.165 131.331 566.741 131.854C566.316 132.377 565.777 132.638 565.124 132.638C564.013 132.638 563.458 132.05 563.458 130.874C563.458 130.384 563.621 129.943 563.948 129.551C564.274 129.126 564.634 128.914 565.026 128.914C565.712 128.914 566.169 129.224 566.398 129.845C566.398 128.832 565.777 128.326 564.536 128.326C563.392 128.326 562.412 129.045 561.596 130.482C560.812 131.919 559.979 134.369 559.097 137.832L558.313 140.87C560.338 137.571 562.576 135.921 565.026 135.921C566.724 135.921 568.015 136.509 568.897 137.685C569.779 138.861 570.22 140.462 570.22 142.487C570.22 145.002 569.73 147.567 568.75 150.18C567.835 152.761 566.43 154.998 564.536 156.893C562.706 158.722 560.697 159.637 558.509 159.637C557.137 159.637 556.124 159.278 555.471 158.559C554.85 157.808 554.474 156.55 554.344 154.786L553.462 158.02C552.645 161.091 551.583 163.541 550.277 165.37C548.807 167.624 546.683 168.751 543.907 168.751C542.829 168.751 541.93 168.473 541.212 167.918C540.493 167.363 540.134 166.579 540.134 165.566C540.134 164.847 540.346 164.227 540.771 163.704C541.195 163.181 541.734 162.92 542.388 162.92C543.498 162.92 544.054 163.508 544.054 164.684C544.054 165.174 543.89 165.599 543.564 165.958C543.237 166.35 542.878 166.546 542.486 166.546C541.767 166.546 541.31 166.268 541.114 165.713C541.114 167.02 542.061 167.673 543.956 167.673ZM552.727 142.389C552.727 140.919 552.498 139.776 552.041 138.959C551.583 138.142 550.979 137.734 550.228 137.734C549.117 137.734 547.925 138.502 546.651 140.037C545.377 141.54 544.282 143.581 543.368 146.162C542.453 148.677 541.996 151.258 541.996 153.904C541.996 156.55 542.927 157.873 544.789 157.873C545.475 157.873 546.275 157.448 547.19 156.599C548.104 155.75 548.97 154.639 549.787 153.267C551.747 149.935 552.727 146.309 552.727 142.389ZM566.202 141.752C566.202 139.139 565.303 137.832 563.507 137.832C562.167 137.832 560.844 138.698 559.538 140.429C558.264 142.128 557.186 144.578 556.304 147.779C555.716 149.968 555.422 151.781 555.422 153.218C555.422 154.688 555.65 155.848 556.108 156.697C556.565 157.514 557.186 157.922 557.97 157.922C559.211 157.922 560.501 157.04 561.841 155.276C563.147 153.512 564.193 151.356 564.977 148.808C565.793 146.358 566.202 144.006 566.202 141.752ZM581.338 158.314C582.972 158.314 584.425 157.497 585.699 155.864C588.117 152.761 589.325 148.939 589.325 144.398C589.325 139.661 588.035 137.293 585.454 137.293C583.331 137.26 581.453 138.714 579.819 141.654C578.186 144.594 577.402 147.583 577.467 150.621C577.467 153.267 577.761 155.211 578.349 156.452C578.97 157.693 579.966 158.314 581.338 158.314ZM593.833 145.035C593.833 148.857 592.608 152.254 590.158 155.227C587.708 158.2 584.703 159.686 581.142 159.686C578.594 159.686 576.602 158.869 575.164 157.236C573.727 155.57 573.008 153.381 573.008 150.67C573.008 146.554 574.217 143.059 576.634 140.184C579.019 137.309 582.057 135.872 585.748 135.872C588.264 135.872 590.24 136.721 591.677 138.42C593.115 140.119 593.833 142.324 593.833 145.035ZM621.094 143.369C621.094 145.95 620.587 148.465 619.575 150.915C618.562 153.398 617.125 155.488 615.263 157.187C613.401 158.853 611.392 159.686 609.236 159.686C607.57 159.686 606.23 159.098 605.218 157.922C604.238 156.746 603.731 155.194 603.699 153.267L600.612 164.88C600.481 165.239 600.416 165.599 600.416 165.958C600.416 166.546 600.84 166.84 601.69 166.84H604.434L604.091 168.212H591.792L592.135 166.84H593.899C594.519 166.84 594.977 166.693 595.271 166.399C595.565 166.138 595.81 165.631 596.006 164.88L601.837 143.271C602.359 141.344 602.604 140.004 602.572 139.253C602.572 138.502 602.278 138.126 601.69 138.126C600.448 138.126 598.864 140.184 596.937 144.3L595.908 143.663C598.292 138.469 600.857 135.872 603.601 135.872C605.626 135.872 606.639 136.917 606.639 139.008C606.639 139.825 606.41 141.278 605.953 143.369C607.096 141.017 608.484 139.188 610.118 137.881C611.751 136.542 613.45 135.872 615.214 135.872C617.076 135.872 618.513 136.558 619.526 137.93C620.571 139.269 621.094 141.082 621.094 143.369ZM616.635 142.634C616.635 141.066 616.341 139.857 615.753 139.008C615.165 138.159 614.332 137.734 613.254 137.734C611.228 137.734 609.285 139.4 607.423 142.732C605.561 145.999 604.63 149.037 604.63 151.846C604.63 153.741 604.94 155.227 605.561 156.305C606.181 157.383 607.08 157.922 608.256 157.922C609.824 157.922 611.261 157.04 612.568 155.276C613.907 153.414 614.92 151.356 615.606 149.102C616.292 146.75 616.635 144.594 616.635 142.634ZM662.634 151.258L663.663 151.895C661.18 157.089 658.616 159.686 655.97 159.686C653.683 159.686 652.54 158.608 652.54 156.452C652.54 155.211 652.932 153.202 653.716 150.425L655.137 145.084C655.659 143.222 655.921 141.785 655.921 140.772C655.921 139.89 655.757 139.269 655.431 138.91C655.104 138.518 654.549 138.322 653.765 138.322C652.425 138.322 650.776 139.694 648.816 142.438C646.856 145.247 645.549 147.861 644.896 150.278L642.495 159H637.889L641.711 145.084C642.201 143.189 642.446 141.752 642.446 140.772C642.446 139.89 642.282 139.269 641.956 138.91C641.662 138.518 641.123 138.322 640.339 138.322C638.967 138.322 637.333 139.661 635.439 142.34C633.511 145.019 632.188 147.665 631.47 150.278L629.118 159H624.512L628.726 143.271C629.248 141.311 629.51 139.988 629.51 139.302C629.51 138.518 629.183 138.126 628.53 138.126C627.942 138.126 627.207 138.714 626.325 139.89C625.475 141.033 624.659 142.503 623.875 144.3L622.797 143.663C625.279 138.469 627.844 135.872 630.49 135.872C631.568 135.872 632.319 136.133 632.744 136.656C633.201 137.146 633.43 137.914 633.43 138.959C633.43 140.233 632.989 142.569 632.107 145.966C633.446 142.961 635.112 140.527 637.105 138.665C639.097 136.803 641.041 135.872 642.936 135.872C645.418 135.872 646.66 137.228 646.66 139.939C646.66 141.311 646.3 143.32 645.582 145.966C646.888 143.091 648.554 140.69 650.58 138.763C652.605 136.836 654.532 135.872 656.362 135.872C659.236 135.872 660.674 137.277 660.674 140.086C660.674 141.36 660.429 142.83 659.939 144.496L657.783 152.042C657.26 153.806 656.999 155.211 656.999 156.256C656.999 157.04 657.325 157.432 657.979 157.432C658.534 157.432 659.236 156.86 660.086 155.717C660.968 154.541 661.817 153.055 662.634 151.258ZM691.28 151.258L692.309 151.895C689.826 157.089 687.278 159.686 684.665 159.686C682.313 159.686 681.137 158.608 681.137 156.452C681.137 155.341 681.529 153.332 682.313 150.425L682.95 148.024H673.934L670.994 159H666.29L670.651 143.271C670.683 143.14 670.781 142.781 670.945 142.193C671.108 141.572 671.239 141.001 671.337 140.478C671.435 139.955 671.467 139.563 671.435 139.302C671.435 138.518 671.092 138.126 670.406 138.126C669.197 138.126 667.629 140.184 665.702 144.3L664.673 143.663C667.09 138.469 669.654 135.872 672.366 135.872C673.509 135.872 674.375 136.15 674.963 136.705C675.551 137.26 675.845 138.028 675.845 139.008C675.845 140.413 675.518 142.291 674.865 144.643L674.375 146.309H683.44L686.086 136.558H690.79L686.429 152.14C685.873 154.067 685.596 155.423 685.596 156.207C685.596 157.024 685.939 157.432 686.625 157.432C687.801 157.432 689.352 155.374 691.28 151.258ZM726.111 151.307L727.14 151.944C724.69 157.105 722.142 159.686 719.496 159.686C717.111 159.686 715.919 158.624 715.919 156.501C715.919 155.456 716.246 153.659 716.899 151.111L719.643 140.723C717.912 142.879 715.364 144.235 711.999 144.79C713.338 145.639 714.008 147.24 714.008 149.592C714.008 152.107 713.11 154.41 711.313 156.501C709.484 158.624 707.066 159.686 704.061 159.686C701.774 159.686 700.01 159.147 698.769 158.069C697.56 156.958 696.956 155.505 696.956 153.708C696.956 152.597 697.136 151.405 697.495 150.131L699.749 142.487C700.239 140.821 700.484 139.727 700.484 139.204C700.484 138.485 700.19 138.126 699.602 138.126C698.949 138.126 698.148 138.714 697.201 139.89C696.286 141.033 695.421 142.503 694.604 144.3L693.575 143.663C696.025 138.502 698.687 135.921 701.562 135.921C703.947 135.921 705.139 136.917 705.139 138.91C705.139 139.792 704.976 140.707 704.649 141.654L703.277 146.162C704.747 144.398 706.511 143.516 708.569 143.516C711.705 143.516 714.237 142.993 716.164 141.948C718.124 140.87 719.676 139.073 720.819 136.558H725.572L720.917 153.365C720.59 154.378 720.427 155.341 720.427 156.256C720.427 157.073 720.754 157.481 721.407 157.481C721.995 157.481 722.714 156.909 723.563 155.766C724.445 154.623 725.294 153.136 726.111 151.307ZM706.854 145.28C705.58 145.28 704.355 146.162 703.179 147.926C702.003 149.657 701.415 151.699 701.415 154.051C701.415 156.926 702.509 158.363 704.698 158.363C705.972 158.363 707.181 157.448 708.324 155.619C709.435 153.822 709.99 151.862 709.99 149.739C709.99 146.766 708.945 145.28 706.854 145.28ZM752.176 126.17L753.156 126.562C752.6 128.522 751.506 130.204 749.873 131.609C748.239 133.046 746.459 133.765 744.532 133.765C742.866 133.765 741.575 133.357 740.661 132.54C739.746 131.723 739.289 130.58 739.289 129.11C739.289 128.293 739.534 127.575 740.024 126.954C740.514 126.333 741.102 126.023 741.788 126.023C742.343 126.023 742.817 126.219 743.209 126.611C743.601 127.003 743.797 127.477 743.797 128.032C743.797 128.783 743.552 129.371 743.062 129.796C742.572 130.188 741.918 130.384 741.102 130.384C741.265 130.939 741.706 131.38 742.425 131.707C743.176 132.001 744.009 132.148 744.924 132.148C746.492 132.148 747.913 131.625 749.187 130.58C750.493 129.502 751.49 128.032 752.176 126.17ZM745.218 156.648C745.218 155.015 745.659 152.679 746.541 149.641C745.234 152.548 743.617 154.966 741.69 156.893C739.828 158.755 737.917 159.686 735.957 159.686C732.951 159.686 731.449 158.249 731.449 155.374C731.449 154.067 731.677 152.63 732.135 151.062L734.291 143.565C734.781 141.801 735.042 140.38 735.075 139.302C735.075 138.518 734.748 138.126 734.095 138.126C732.886 138.126 731.351 140.184 729.489 144.3L728.411 143.663C730.861 138.469 733.425 135.872 736.104 135.872C738.423 135.872 739.583 136.966 739.583 139.155C739.583 140.135 739.174 142.144 738.358 145.182L736.937 150.523C736.447 152.32 736.202 153.724 736.202 154.737C736.202 156.436 736.855 157.285 738.162 157.285C739.73 157.285 741.461 155.897 743.356 153.12C745.316 150.343 746.655 147.567 747.374 144.79L749.53 136.558H754.283L749.922 152.336C749.399 154.1 749.138 155.423 749.138 156.305C749.138 157.089 749.464 157.481 750.118 157.481C751.392 157.481 752.96 155.423 754.822 151.307L755.9 151.944C753.384 157.105 750.82 159.686 748.207 159.686C746.214 159.686 745.218 158.673 745.218 156.648Z" fill="#26734E"/>
<rect x="813.5" y="104.5" width="470" height="80" rx="10.5" fill="#FDFFDD"/>
<rect x="813.5" y="104.5" width="470" height="80" rx="10.5" stroke="#26734E" stroke-width="3"/>
<path d="M880.061 151.258L881.09 151.895C878.607 157.089 876.059 159.686 873.446 159.686C871.094 159.686 869.918 158.608 869.918 156.452C869.918 155.341 870.31 153.332 871.094 150.425L871.731 148.024H862.715L859.775 159H855.071L859.432 143.271C859.464 143.14 859.562 142.781 859.726 142.193C859.889 141.572 860.02 141.001 860.118 140.478C860.216 139.955 860.248 139.563 860.216 139.302C860.216 138.518 859.873 138.126 859.187 138.126C857.978 138.126 856.41 140.184 854.483 144.3L853.454 143.663C855.871 138.469 858.435 135.872 861.147 135.872C862.29 135.872 863.156 136.15 863.744 136.705C864.332 137.26 864.626 138.028 864.626 139.008C864.626 140.413 864.299 142.291 863.646 144.643L863.156 146.309H872.221L874.867 136.558H879.571L875.21 152.14C874.654 154.067 874.377 155.423 874.377 156.207C874.377 157.024 874.72 157.432 875.406 157.432C876.582 157.432 878.133 155.374 880.061 151.258ZM891.519 158.314C893.152 158.314 894.606 157.497 895.88 155.864C898.297 152.761 899.506 148.939 899.506 144.398C899.506 139.661 898.216 137.293 895.635 137.293C893.512 137.26 891.633 138.714 890 141.654C888.367 144.594 887.583 147.583 887.648 150.621C887.648 153.267 887.942 155.211 888.53 156.452C889.151 157.693 890.147 158.314 891.519 158.314ZM904.014 145.035C904.014 148.857 902.789 152.254 900.339 155.227C897.889 158.2 894.884 159.686 891.323 159.686C888.775 159.686 886.782 158.869 885.345 157.236C883.908 155.57 883.189 153.381 883.189 150.67C883.189 146.554 884.398 143.059 886.815 140.184C889.2 137.309 892.238 135.872 895.929 135.872C898.444 135.872 900.421 136.721 901.858 138.42C903.295 140.119 904.014 142.324 904.014 145.035ZM925.982 140.723C925.982 141.768 925.672 142.748 925.051 143.663C924.463 144.545 923.712 144.986 922.797 144.986C922.046 144.986 921.474 144.757 921.082 144.3C920.723 143.843 920.543 143.287 920.543 142.634C920.543 141.915 920.772 141.278 921.229 140.723C921.687 140.135 922.209 139.841 922.797 139.841C923.483 139.841 924.055 140.07 924.512 140.527C924.512 139.547 924.088 138.747 923.238 138.126C922.422 137.473 921.344 137.146 920.004 137.146C917.816 137.146 915.888 138.404 914.222 140.919C912.556 143.434 911.723 146.701 911.723 150.719C911.723 152.842 912.164 154.557 913.046 155.864C913.961 157.138 915.137 157.775 916.574 157.775C919.384 157.775 921.736 155.799 923.63 151.846L924.659 152.336C923.549 154.688 922.209 156.501 920.641 157.775C919.073 159.049 917.375 159.686 915.545 159.686C913.03 159.686 910.972 158.853 909.371 157.187C907.803 155.521 907.019 153.349 907.019 150.67C907.019 146.75 908.244 143.304 910.694 140.331C913.144 137.358 916.15 135.872 919.71 135.872C921.572 135.872 923.075 136.297 924.218 137.146C925.394 137.995 925.982 139.188 925.982 140.723ZM966.929 151.258L967.958 151.895C965.475 157.089 962.911 159.686 960.265 159.686C957.978 159.686 956.835 158.608 956.835 156.452C956.835 155.211 957.227 153.202 958.011 150.425L959.432 145.084C959.954 143.222 960.216 141.785 960.216 140.772C960.216 139.89 960.052 139.269 959.726 138.91C959.399 138.518 958.844 138.322 958.06 138.322C956.72 138.322 955.071 139.694 953.111 142.438C951.151 145.247 949.844 147.861 949.191 150.278L946.79 159H942.184L946.006 145.084C946.496 143.189 946.741 141.752 946.741 140.772C946.741 139.89 946.577 139.269 946.251 138.91C945.957 138.518 945.418 138.322 944.634 138.322C943.262 138.322 941.628 139.661 939.734 142.34C937.806 145.019 936.483 147.665 935.765 150.278L933.413 159H928.807L933.021 143.271C933.543 141.311 933.805 139.988 933.805 139.302C933.805 138.518 933.478 138.126 932.825 138.126C932.237 138.126 931.502 138.714 930.62 139.89C929.77 141.033 928.954 142.503 928.17 144.3L927.092 143.663C929.574 138.469 932.139 135.872 934.785 135.872C935.863 135.872 936.614 136.133 937.039 136.656C937.496 137.146 937.725 137.914 937.725 138.959C937.725 140.233 937.284 142.569 936.402 145.966C937.741 142.961 939.407 140.527 941.4 138.665C943.392 136.803 945.336 135.872 947.231 135.872C949.713 135.872 950.955 137.228 950.955 139.939C950.955 141.311 950.595 143.32 949.877 145.966C951.183 143.091 952.849 140.69 954.875 138.763C956.9 136.836 958.827 135.872 960.657 135.872C963.531 135.872 964.969 137.277 964.969 140.086C964.969 141.36 964.724 142.83 964.234 144.496L962.078 152.042C961.555 153.806 961.294 155.211 961.294 156.256C961.294 157.04 961.62 157.432 962.274 157.432C962.829 157.432 963.531 156.86 964.381 155.717C965.263 154.541 966.112 153.055 966.929 151.258ZM993.712 151.258L994.79 151.895C992.275 157.089 989.678 159.686 986.999 159.686C985.072 159.686 984.108 158.379 984.108 155.766C984.108 155.178 984.288 154.133 984.647 152.63C983.7 154.851 982.442 156.583 980.874 157.824C979.306 159.065 977.64 159.686 975.876 159.686C973.949 159.686 972.446 159.016 971.368 157.677C970.29 156.338 969.751 154.492 969.751 152.14C969.686 149.625 970.209 147.093 971.319 144.545C972.463 141.997 973.982 139.906 975.876 138.273C977.804 136.607 979.78 135.807 981.805 135.872C983.308 135.872 984.533 136.395 985.48 137.44C986.428 138.453 986.983 139.89 987.146 141.752L988.518 136.558H993.124L989.253 150.67C988.502 153.414 988.126 155.26 988.126 156.207C988.126 157.024 988.486 157.432 989.204 157.432C989.76 157.432 990.446 156.844 991.262 155.668C992.177 154.394 992.994 152.924 993.712 151.258ZM977.591 157.873C979.127 157.873 980.564 157.007 981.903 155.276C983.243 153.61 984.288 151.601 985.039 149.249C985.758 146.995 986.117 144.888 986.117 142.928C986.117 141.197 985.807 139.89 985.186 139.008C984.566 138.126 983.749 137.685 982.736 137.685C981.201 137.685 979.747 138.583 978.375 140.38C977.069 142.144 976.04 144.186 975.288 146.505C974.57 148.759 974.21 150.882 974.21 152.875C974.21 156.207 975.337 157.873 977.591 157.873ZM997.337 159.539C996.488 159.539 995.753 159.245 995.132 158.657C994.511 158.036 994.201 157.285 994.201 156.403C994.201 155.619 994.413 154.949 994.838 154.394C995.295 153.839 995.851 153.561 996.504 153.561C996.961 153.561 997.353 153.757 997.68 154.149C998.039 154.541 998.219 155.015 998.219 155.57C998.219 156.191 998.039 156.697 997.68 157.089C997.353 157.481 996.863 157.677 996.21 157.677C996.21 158.2 996.553 158.461 997.239 158.461C998.644 158.461 999.869 157.203 1000.91 154.688C1001.99 152.107 1003.46 147.191 1005.32 139.939C1005.45 139.384 1005.52 139.024 1005.52 138.861C1005.52 138.24 1005.1 137.93 1004.25 137.93H1002.29L1002.68 136.558H1013.41C1016.32 136.558 1017.77 137.832 1017.77 140.38C1017.77 141.36 1017.62 142.373 1017.33 143.418L1014.93 151.993C1014.37 154.018 1014.09 155.407 1014.09 156.158C1014.09 157.04 1014.42 157.481 1015.07 157.481C1016.25 157.481 1017.8 155.423 1019.73 151.307L1020.81 151.944C1018.29 157.105 1015.66 159.686 1012.92 159.686C1011.84 159.686 1010.98 159.425 1010.32 158.902C1009.7 158.379 1009.39 157.677 1009.39 156.795C1009.39 155.39 1009.62 153.904 1010.08 152.336L1012.72 142.879C1012.98 141.899 1013.11 141.131 1013.11 140.576C1013.11 138.812 1012.33 137.93 1010.76 137.93H1008.85C1007.77 137.93 1007.06 138.6 1006.7 139.939L1005.47 144.251L1004.34 148.416C1004.12 149.461 1003.77 150.637 1003.31 151.944C1002.66 154.002 1001.83 155.831 1000.82 157.432C999.901 158.837 998.742 159.539 997.337 159.539ZM1042.52 149.739C1042.52 152.189 1041.57 154.459 1039.67 156.55C1037.81 158.641 1035.36 159.686 1032.32 159.686C1030.14 159.686 1028.4 159.098 1027.13 157.922C1025.89 156.746 1025.27 155.178 1025.27 153.218C1025.27 152.238 1025.43 151.209 1025.76 150.131L1027.86 143.222C1028.49 141.36 1028.8 140.07 1028.8 139.351C1028.8 138.534 1028.47 138.126 1027.82 138.126C1027.2 138.126 1026.43 138.714 1025.51 139.89C1024.6 141.066 1023.73 142.536 1022.92 144.3L1021.89 143.663C1024.34 138.502 1026.97 135.921 1029.78 135.921C1030.92 135.921 1031.78 136.215 1032.37 136.803C1032.99 137.358 1033.3 138.142 1033.3 139.155C1033.3 139.906 1032.98 141.409 1032.32 143.663L1031.54 146.162C1033.08 144.398 1034.84 143.516 1036.83 143.516C1038.96 143.516 1040.43 144.153 1041.24 145.427C1042.09 146.668 1042.52 148.106 1042.52 149.739ZM1038.3 149.739C1038.3 146.766 1037.22 145.28 1035.07 145.28C1033.89 145.28 1032.68 146.146 1031.44 147.877C1030.27 149.608 1029.68 151.666 1029.68 154.051C1029.68 156.991 1030.79 158.461 1033.01 158.461C1034.38 158.461 1035.61 157.546 1036.68 155.717C1037.76 153.92 1038.3 151.928 1038.3 149.739ZM1062.26 141.36C1062.26 143.124 1061.82 144.61 1060.94 145.819C1060.06 146.995 1058.9 147.861 1057.46 148.416C1057 148.579 1056.22 148.857 1055.11 149.249C1054.03 149.608 1053.21 149.919 1052.66 150.18C1052.1 150.409 1051.47 150.752 1050.75 151.209C1050.03 151.634 1049.51 152.14 1049.18 152.728C1048.85 153.316 1048.69 153.986 1048.69 154.737C1048.69 155.75 1049.05 156.534 1049.77 157.089C1050.52 157.644 1051.52 157.922 1052.76 157.922C1054.03 157.922 1055.35 157.465 1056.73 156.55C1058.1 155.603 1059.23 154.394 1060.11 152.924L1060.99 153.414C1060.01 155.374 1058.67 156.909 1056.97 158.02C1055.31 159.131 1053.62 159.686 1051.92 159.686C1049.64 159.686 1047.84 159.18 1046.53 158.167C1045.26 157.154 1044.62 155.815 1044.62 154.149C1044.62 150.784 1046.21 148.498 1049.38 147.289C1049.8 147.126 1050.45 146.913 1051.34 146.652C1052.22 146.358 1052.9 146.129 1053.39 145.966C1053.88 145.77 1054.47 145.509 1055.16 145.182C1055.84 144.823 1056.37 144.48 1056.73 144.153C1057.12 143.794 1057.44 143.336 1057.71 142.781C1058 142.226 1058.15 141.605 1058.15 140.919C1058.15 139.939 1057.77 139.171 1057.02 138.616C1056.3 138.028 1055.4 137.734 1054.33 137.734C1051.03 137.734 1048.36 139.433 1046.34 142.83L1045.51 142.193C1046.52 140.07 1047.89 138.485 1049.62 137.44C1051.39 136.395 1053.31 135.872 1055.4 135.872C1057.56 135.872 1059.24 136.362 1060.45 137.342C1061.66 138.322 1062.26 139.661 1062.26 141.36ZM1080.47 156.648C1080.47 155.015 1080.91 152.679 1081.8 149.641C1080.49 152.548 1078.87 154.966 1076.94 156.893C1075.08 158.755 1073.17 159.686 1071.21 159.686C1068.21 159.686 1066.7 158.249 1066.7 155.374C1066.7 154.067 1066.93 152.63 1067.39 151.062L1069.55 143.565C1070.04 141.801 1070.3 140.38 1070.33 139.302C1070.33 138.518 1070 138.126 1069.35 138.126C1068.14 138.126 1066.61 140.184 1064.74 144.3L1063.67 143.663C1066.12 138.469 1068.68 135.872 1071.36 135.872C1073.68 135.872 1074.84 136.966 1074.84 139.155C1074.84 140.135 1074.43 142.144 1073.61 145.182L1072.19 150.523C1071.7 152.32 1071.46 153.724 1071.46 154.737C1071.46 156.436 1072.11 157.285 1073.42 157.285C1074.98 157.285 1076.72 155.897 1078.61 153.12C1080.57 150.343 1081.91 147.567 1082.63 144.79L1084.78 136.558H1089.54L1085.18 152.336C1084.65 154.1 1084.39 155.423 1084.39 156.305C1084.39 157.089 1084.72 157.481 1085.37 157.481C1086.65 157.481 1088.21 155.423 1090.08 151.307L1091.15 151.944C1088.64 157.105 1086.08 159.686 1083.46 159.686C1081.47 159.686 1080.47 158.673 1080.47 156.648ZM1116.69 151.307L1117.71 151.944C1115.2 157.105 1112.57 159.686 1109.83 159.686C1107.54 159.686 1106.4 158.641 1106.4 156.55C1106.4 154.851 1107 152.091 1108.21 148.269C1105.79 150.556 1103.39 151.699 1101.01 151.699C1099.37 151.699 1098.24 151.34 1097.62 150.621C1097 149.902 1096.69 148.824 1096.69 147.387C1096.69 146.505 1096.99 145.051 1097.58 143.026C1098.16 140.968 1098.46 139.727 1098.46 139.302C1098.46 138.518 1098.16 138.126 1097.58 138.126C1096.99 138.126 1096.24 138.714 1095.32 139.89C1094.44 141.033 1093.61 142.503 1092.82 144.3L1091.74 143.663C1094.19 138.469 1096.76 135.872 1099.44 135.872C1101.76 135.872 1102.92 136.95 1102.92 139.106C1102.92 139.759 1102.69 141.082 1102.23 143.075C1101.77 145.068 1101.54 146.309 1101.54 146.799C1101.54 148.498 1102.33 149.347 1103.9 149.347C1104.91 149.347 1105.95 148.906 1107.03 148.024C1108.14 147.077 1108.81 146.129 1109.04 145.182L1111.34 136.558H1116.1L1111.69 152.434C1111.2 154.296 1110.95 155.57 1110.95 156.256C1110.95 157.073 1111.3 157.481 1111.98 157.481C1113.16 157.481 1114.73 155.423 1116.69 151.307ZM1139.12 140.674C1139.12 142.503 1137.83 144.365 1135.25 146.26C1132.77 148.122 1129.17 149.429 1124.47 150.18C1124.37 150.768 1124.32 151.34 1124.32 151.895C1124.39 155.782 1125.89 157.726 1128.83 157.726C1130.24 157.726 1131.62 157.22 1133 156.207C1134.37 155.162 1135.58 153.692 1136.62 151.797L1137.6 152.434C1136.49 154.655 1134.99 156.436 1133.09 157.775C1131.26 159.049 1129.45 159.686 1127.66 159.686C1125.21 159.686 1123.28 158.869 1121.87 157.236C1120.5 155.603 1119.82 153.479 1119.82 150.866C1119.82 148.547 1120.32 146.276 1121.33 144.055C1122.35 141.801 1123.88 139.874 1125.94 138.273C1127.97 136.672 1130.24 135.872 1132.75 135.872C1137 135.872 1139.12 137.473 1139.12 140.674ZM1135.2 140.478C1135.2 138.355 1134.24 137.293 1132.31 137.293C1130.42 137.293 1128.75 138.518 1127.31 140.968C1125.91 143.353 1125.03 145.966 1124.67 148.808C1128.65 148.122 1131.4 146.995 1132.9 145.427C1134.43 143.794 1135.2 142.144 1135.2 140.478ZM1160.17 140.723C1160.17 141.768 1159.86 142.748 1159.24 143.663C1158.65 144.545 1157.9 144.986 1156.98 144.986C1156.23 144.986 1155.66 144.757 1155.27 144.3C1154.91 143.843 1154.73 143.287 1154.73 142.634C1154.73 141.915 1154.96 141.278 1155.41 140.723C1155.87 140.135 1156.39 139.841 1156.98 139.841C1157.67 139.841 1158.24 140.07 1158.7 140.527C1158.7 139.547 1158.27 138.747 1157.42 138.126C1156.61 137.473 1155.53 137.146 1154.19 137.146C1152 137.146 1150.07 138.404 1148.41 140.919C1146.74 143.434 1145.91 146.701 1145.91 150.719C1145.91 152.842 1146.35 154.557 1147.23 155.864C1148.15 157.138 1149.32 157.775 1150.76 157.775C1153.57 157.775 1155.92 155.799 1157.82 151.846L1158.84 152.336C1157.73 154.688 1156.39 156.501 1154.83 157.775C1153.26 159.049 1151.56 159.686 1149.73 159.686C1147.22 159.686 1145.16 158.853 1143.56 157.187C1141.99 155.521 1141.2 153.349 1141.2 150.67C1141.2 146.75 1142.43 143.304 1144.88 140.331C1147.33 137.358 1150.34 135.872 1153.9 135.872C1155.76 135.872 1157.26 136.297 1158.4 137.146C1159.58 137.995 1160.17 139.188 1160.17 140.723ZM1185.58 151.307L1186.61 151.944C1185.37 154.623 1184.19 156.583 1183.08 157.824C1182 159.065 1180.78 159.686 1179.41 159.686C1178.23 159.686 1177.38 159.294 1176.86 158.51C1176.37 157.693 1176.11 156.713 1176.08 155.57C1176.08 154.394 1176.08 153.234 1176.08 152.091C1176.08 150.915 1175.88 149.919 1175.49 149.102C1175.1 148.285 1174.38 147.877 1173.33 147.877H1170.73L1167.84 159H1163.19L1166.96 145.182C1167.81 141.948 1168.24 140.004 1168.24 139.351C1168.24 138.534 1167.89 138.126 1167.21 138.126C1166.68 138.126 1165.96 138.73 1165.05 139.939C1164.2 141.082 1163.37 142.536 1162.55 144.3L1161.52 143.663C1163.94 138.469 1166.5 135.872 1169.22 135.872C1170.33 135.872 1171.16 136.248 1171.71 136.999C1172.27 137.718 1172.55 138.681 1172.55 139.89C1172.55 140.87 1172.25 142.454 1171.67 144.643L1171.18 146.505H1174.56C1176.09 142.781 1177.53 140.086 1178.87 138.42C1180.21 136.721 1181.78 135.872 1183.57 135.872C1184.42 135.872 1185.11 136.133 1185.63 136.656C1186.15 137.146 1186.41 137.832 1186.41 138.714C1186.41 139.563 1186.17 140.298 1185.68 140.919C1185.22 141.54 1184.58 141.85 1183.77 141.85C1183.31 141.85 1182.9 141.654 1182.54 141.262C1182.22 140.87 1182.05 140.396 1182.05 139.841C1182.05 139.22 1182.28 138.665 1182.74 138.175C1183.2 137.652 1183.77 137.391 1184.45 137.391C1184.45 137.097 1184.16 136.95 1183.57 136.95C1182.3 136.95 1181.02 137.652 1179.75 139.057C1179.29 139.547 1178.8 140.331 1178.28 141.409C1177.59 142.683 1177.19 143.483 1177.06 143.81C1176.99 143.973 1176.83 144.349 1176.57 144.937C1176.34 145.525 1176.12 146.048 1175.93 146.505C1177.46 146.701 1178.57 147.387 1179.26 148.563C1179.98 149.706 1180.32 150.915 1180.29 152.189C1180.29 153.463 1180.35 154.623 1180.49 155.668C1180.62 156.713 1180.94 157.236 1181.47 157.236C1182.45 157.236 1183.82 155.26 1185.58 151.307ZM1204.84 156.648C1204.84 155.015 1205.28 152.679 1206.16 149.641C1204.86 152.548 1203.24 154.966 1201.31 156.893C1199.45 158.755 1197.54 159.686 1195.58 159.686C1192.57 159.686 1191.07 158.249 1191.07 155.374C1191.07 154.067 1191.3 152.63 1191.76 151.062L1193.91 143.565C1194.4 141.801 1194.66 140.38 1194.7 139.302C1194.7 138.518 1194.37 138.126 1193.72 138.126C1192.51 138.126 1190.97 140.184 1189.11 144.3L1188.03 143.663C1190.48 138.469 1193.05 135.872 1195.72 135.872C1198.04 135.872 1199.2 136.966 1199.2 139.155C1199.2 140.135 1198.8 142.144 1197.98 145.182L1196.56 150.523C1196.07 152.32 1195.82 153.724 1195.82 154.737C1195.82 156.436 1196.48 157.285 1197.78 157.285C1199.35 157.285 1201.08 155.897 1202.98 153.12C1204.94 150.343 1206.28 147.567 1206.99 144.79L1209.15 136.558H1213.9L1209.54 152.336C1209.02 154.1 1208.76 155.423 1208.76 156.305C1208.76 157.089 1209.09 157.481 1209.74 157.481C1211.01 157.481 1212.58 155.423 1214.44 151.307L1215.52 151.944C1213.01 157.105 1210.44 159.686 1207.83 159.686C1205.84 159.686 1204.84 158.673 1204.84 156.648ZM1240.32 126.17L1241.3 126.562C1240.74 128.522 1239.65 130.204 1238.01 131.609C1236.38 133.046 1234.6 133.765 1232.67 133.765C1231.01 133.765 1229.72 133.357 1228.8 132.54C1227.89 131.723 1227.43 130.58 1227.43 129.11C1227.43 128.293 1227.67 127.575 1228.16 126.954C1228.65 126.333 1229.24 126.023 1229.93 126.023C1230.48 126.023 1230.96 126.219 1231.35 126.611C1231.74 127.003 1231.94 127.477 1231.94 128.032C1231.94 128.783 1231.69 129.371 1231.2 129.796C1230.71 130.188 1230.06 130.384 1229.24 130.384C1229.41 130.939 1229.85 131.38 1230.57 131.707C1231.32 132.001 1232.15 132.148 1233.06 132.148C1234.63 132.148 1236.05 131.625 1237.33 130.58C1238.63 129.502 1239.63 128.032 1240.32 126.17ZM1233.36 156.648C1233.36 155.015 1233.8 152.679 1234.68 149.641C1233.37 152.548 1231.76 154.966 1229.83 156.893C1227.97 158.755 1226.06 159.686 1224.1 159.686C1221.09 159.686 1219.59 158.249 1219.59 155.374C1219.59 154.067 1219.82 152.63 1220.28 151.062L1222.43 143.565C1222.92 141.801 1223.18 140.38 1223.22 139.302C1223.22 138.518 1222.89 138.126 1222.24 138.126C1221.03 138.126 1219.49 140.184 1217.63 144.3L1216.55 143.663C1219 138.469 1221.57 135.872 1224.24 135.872C1226.56 135.872 1227.72 136.966 1227.72 139.155C1227.72 140.135 1227.32 142.144 1226.5 145.182L1225.08 150.523C1224.59 152.32 1224.34 153.724 1224.34 154.737C1224.34 156.436 1225 157.285 1226.3 157.285C1227.87 157.285 1229.6 155.897 1231.5 153.12C1233.46 150.343 1234.8 147.567 1235.51 144.79L1237.67 136.558H1242.42L1238.06 152.336C1237.54 154.1 1237.28 155.423 1237.28 156.305C1237.28 157.089 1237.61 157.481 1238.26 157.481C1239.53 157.481 1241.1 155.423 1242.96 151.307L1244.04 151.944C1241.53 157.105 1238.96 159.686 1236.35 159.686C1234.35 159.686 1233.36 158.673 1233.36 156.648Z" fill="#26734E"/>
</svg>
