<svg width="65" height="65" viewBox="0 0 65 65" fill="none" xmlns="http://www.w3.org/2000/svg">
<rect x="11.8203" y="10.9863" width="39.7937" height="39.7937" fill="#FDFFDD"/>
<path d="M32.5 0C14.5519 0 0 14.5519 0 32.5C0 50.4481 14.5519 65 32.5 65C50.4481 65 65 50.4481 65 32.5C65 14.5519 50.4481 0 32.5 0ZM49.7277 43.244L44.6685 43.3144C44.6685 43.3144 43.5771 43.5283 42.1498 42.5425C40.2567 41.2425 38.4719 37.8598 37.0798 38.2985C35.6687 38.7481 35.7121 41.7923 35.7121 41.7923C35.7121 41.7923 35.7229 42.3285 35.4006 42.6779C35.0512 43.0544 34.366 43.0165 34.366 43.0165H32.0992C32.0992 43.0165 27.0996 43.4308 22.6931 38.8375C17.894 33.8298 13.6527 23.9471 13.6527 23.9471C13.6527 23.9471 13.4035 23.3242 13.669 23.0046C13.9696 22.6525 14.7794 22.6417 14.7794 22.6417L20.196 22.6146C20.196 22.6146 20.7052 22.704 21.0735 22.9748C21.3742 23.1969 21.5448 23.614 21.5448 23.614C21.5448 23.614 22.4196 25.8321 23.5815 27.8417C25.8456 31.7579 26.8965 32.6165 27.6656 32.1967C28.7869 31.5846 28.451 26.6608 28.451 26.6608C28.451 26.6608 28.4727 24.8733 27.8877 24.0771C27.4327 23.4569 26.5769 23.2727 26.2031 23.2267C25.8971 23.186 26.3954 22.4765 27.0454 22.1569C28.0204 21.6802 29.7429 21.6531 31.7769 21.6721C33.3612 21.6883 33.819 21.7858 34.4365 21.9375C36.3052 22.3898 35.6715 24.134 35.6715 28.3183C35.6715 29.659 35.4304 31.544 36.3946 32.1642C36.8117 32.4323 37.8273 32.2048 40.3596 27.8877C41.5648 25.8402 42.4667 23.4352 42.4667 23.4352C42.4667 23.4352 42.6644 23.0073 42.9704 22.8231C43.2846 22.6335 43.7071 22.6931 43.7071 22.6931L49.4081 22.6579C49.4081 22.6579 51.1198 22.4521 51.3988 23.2294C51.6913 24.0419 50.7596 25.9404 48.4304 29.0469C44.6063 34.1494 44.181 33.6754 47.3579 36.6275C50.3913 39.4469 51.0169 40.8173 51.1225 40.9906C52.3765 43.0788 49.7277 43.244 49.7277 43.244Z" fill="#0A7A44"/>
</svg>
