<svg width="236" height="49" viewBox="0 0 236 49" fill="none" xmlns="http://www.w3.org/2000/svg">
<path d="M12.4961 47.2408L0 12.8128H5.738L15.397 40.0046L25.0241 12.8128H30.794L18.2979 47.2408H12.4961Z" fill="#26734E"/>
<path d="M49.5959 48.1972C46.2168 48.1972 43.2628 47.4534 40.7338 45.9657C38.2261 44.4568 36.271 42.3635 34.8683 39.6858C33.4657 36.9868 32.7644 33.8415 32.7644 30.25C32.7644 26.4884 33.4551 23.2369 34.8365 20.4954C36.2178 17.7326 38.1411 15.6074 40.6063 14.1198C43.0928 12.6109 46.0043 11.8565 49.3409 11.8565C52.8049 11.8565 55.7483 12.6534 58.171 14.2473C60.615 15.8412 62.4426 18.1152 63.654 21.0692C64.8866 24.0232 65.4179 27.5404 65.2479 31.6207H59.5099V29.5805C59.4461 25.3514 58.5854 22.1955 56.9278 20.1128C55.2701 18.0089 52.8049 16.9569 49.5321 16.9569C46.0256 16.9569 43.3585 18.0833 41.5308 20.336C39.7031 22.5887 38.7893 25.819 38.7893 30.0268C38.7893 34.0859 39.7031 37.2312 41.5308 39.4627C43.3585 41.6941 45.9618 42.8098 49.3409 42.8098C51.6148 42.8098 53.5912 42.2892 55.2701 41.2478C56.949 40.2065 58.2666 38.7082 59.223 36.753L64.6741 38.6338C63.3352 41.6729 61.3163 44.0318 58.6173 45.7107C55.9396 47.3684 52.9324 48.1972 49.5959 48.1972ZM36.8766 31.6207V27.0622H62.3151V31.6207H36.8766Z" fill="#26734E"/>
<path d="M71.7076 47.2408V12.8128H76.7762V21.1329L75.9474 20.0491C76.3511 18.9865 76.8718 18.0089 77.5094 17.1163C78.1682 16.2237 78.9014 15.4906 79.7089 14.9168C80.6015 14.1942 81.611 13.6416 82.7373 13.2591C83.8637 12.8766 85.0113 12.6534 86.1801 12.5897C87.349 12.5047 88.4435 12.579 89.4635 12.8128V18.1364C88.2734 17.8176 86.9665 17.7326 85.5426 17.8814C84.1187 18.0302 82.8011 18.5508 81.5897 19.4434C80.4846 20.2297 79.6239 21.1861 79.0076 22.3124C78.4126 23.4388 77.9982 24.6607 77.7644 25.9783C77.5306 27.2747 77.4137 28.603 77.4137 29.9631V47.2408H71.7076Z" fill="#26734E"/>
<path d="M126.799 35.2787L128.465 36.2629C124.579 44.2882 120.566 48.3008 116.427 48.3008C113.449 48.3008 111.96 46.2819 111.96 42.244C111.96 41.3355 112.238 39.7203 112.793 37.3986C111.329 40.8307 109.386 43.5058 106.963 45.4238C104.541 47.3418 101.967 48.3008 99.2411 48.3008C96.2631 48.3008 93.9414 47.2661 92.2758 45.1967C90.6101 43.1273 89.7773 40.2755 89.7773 36.6415C89.6764 32.755 90.484 28.8434 92.2001 24.9065C93.9666 20.9695 96.3136 17.7393 99.2411 15.2156C102.219 12.6415 105.273 11.4049 108.402 11.5058C110.724 11.5058 112.616 12.3134 114.08 13.9285C115.544 15.4932 116.402 17.714 116.654 20.591L118.774 12.5658H125.891L119.91 34.3702C118.749 38.6099 118.169 41.4617 118.169 42.9254C118.169 44.1872 118.724 44.8181 119.834 44.8181C120.692 44.8181 121.752 43.9096 123.014 42.0926C124.427 40.1241 125.689 37.8528 126.799 35.2787ZM101.891 45.4995C104.263 45.4995 106.484 44.162 108.553 41.4869C110.623 38.9128 112.238 35.8087 113.399 32.1746C114.509 28.6919 115.064 25.4364 115.064 22.408C115.064 19.733 114.585 17.714 113.626 16.3513C112.667 14.9885 111.405 14.3071 109.84 14.3071C107.468 14.3071 105.222 15.6951 103.102 18.4711C101.083 21.1967 99.4934 24.3513 98.3325 27.9348C97.2221 31.4175 96.6669 34.6983 96.6669 37.7771C96.6669 42.9254 98.4083 45.4995 101.891 45.4995ZM123.695 0.300781L122.787 4.38911H102.724L103.632 0.300781H123.695Z" fill="#26734E"/>
<path d="M157.27 47.2408V29.995C157.27 28.3586 157.122 26.7859 156.824 25.277C156.548 23.7682 156.048 22.4187 155.326 21.2286C154.625 20.0172 153.668 19.0609 152.457 18.3596C151.267 17.6582 149.758 17.3076 147.93 17.3076C146.506 17.3076 145.21 17.552 144.041 18.0408C142.894 18.5083 141.905 19.2309 141.076 20.2085C140.248 21.1861 139.599 22.4187 139.132 23.9063C138.686 25.3727 138.463 27.1047 138.463 29.1024L134.733 27.9548C134.733 24.6182 135.328 21.7599 136.518 19.3796C137.729 16.9782 139.419 15.1399 141.587 13.8648C143.775 12.5684 146.347 11.9202 149.301 11.9202C151.532 11.9202 153.434 12.2709 155.007 12.9722C156.58 13.6735 157.887 14.6086 158.928 15.7775C159.969 16.9251 160.788 18.2214 161.383 19.6665C161.978 21.0904 162.392 22.5462 162.626 24.0338C162.881 25.5002 163.008 26.8922 163.008 28.2098V47.2408H157.27ZM132.725 47.2408V12.8128H137.825V22.0255H138.463V47.2408H132.725Z" fill="#26734E"/>
<path d="M183.863 48.1972C180.654 48.1972 177.902 47.4002 175.607 45.8063C173.312 44.1912 171.537 42.0129 170.284 39.2714C169.051 36.5299 168.435 33.4378 168.435 29.995C168.435 26.5522 169.051 23.46 170.284 20.7185C171.537 17.977 173.312 15.82 175.607 14.2473C177.902 12.6534 180.644 11.8565 183.832 11.8565C187.083 11.8565 189.814 12.6428 192.024 14.2154C194.234 15.7881 195.903 17.9451 197.029 20.6866C198.177 23.4281 198.75 26.5309 198.75 29.995C198.75 33.4165 198.177 36.5086 197.029 39.2714C195.903 42.0129 194.234 44.1912 192.024 45.8063C189.814 47.4002 187.094 48.1972 183.863 48.1972ZM184.565 43.0011C186.881 43.0011 188.783 42.4485 190.271 41.3434C191.759 40.2171 192.853 38.6763 193.554 36.7212C194.277 34.7447 194.638 32.5027 194.638 29.995C194.638 27.4447 194.277 25.2027 193.554 23.2687C192.853 21.3136 191.769 19.7941 190.303 18.7102C188.836 17.6051 186.977 17.0526 184.724 17.0526C182.386 17.0526 180.453 17.6264 178.922 18.774C177.414 19.9216 176.287 21.473 175.543 23.4281C174.821 25.3833 174.46 27.5722 174.46 29.995C174.46 32.4389 174.831 34.6491 175.575 36.6255C176.319 38.5807 177.435 40.1321 178.922 41.2797C180.431 42.4273 182.312 43.0011 184.565 43.0011ZM194.638 47.2408V21.898H194.001V1.33681H199.707V47.2408H194.638Z" fill="#26734E"/>
<path d="M217.787 48.1972C215.215 48.1972 213.058 47.7296 211.316 46.7946C209.594 45.8382 208.287 44.5844 207.395 43.033C206.523 41.4816 206.088 39.7814 206.088 37.9325C206.088 36.1261 206.428 34.5641 207.108 33.2465C207.809 31.9076 208.787 30.8025 210.041 29.9312C211.294 29.0386 212.793 28.3373 214.535 27.8273C216.172 27.381 217.999 26.9984 220.018 26.6797C222.059 26.3396 224.12 26.0315 226.203 25.7552C228.285 25.4789 230.23 25.2133 232.036 24.9583L229.996 26.1377C230.06 23.0775 229.444 20.8141 228.147 19.3478C226.872 17.8814 224.662 17.1482 221.517 17.1482C219.434 17.1482 217.606 17.6264 216.034 18.5827C214.482 19.5178 213.388 21.0479 212.75 23.1731L207.363 21.5473C208.192 18.5296 209.796 16.16 212.176 14.4386C214.557 12.7172 217.691 11.8565 221.58 11.8565C224.704 11.8565 227.382 12.4197 229.614 13.546C231.866 14.6511 233.481 16.33 234.459 18.5827C234.948 19.6453 235.256 20.8035 235.383 22.0574C235.511 23.29 235.575 24.5864 235.575 25.9465V47.2408H230.538V38.9845L231.718 39.7496C230.421 42.5336 228.604 44.6375 226.266 46.0614C223.95 47.4852 221.123 48.1972 217.787 48.1972ZM218.648 43.4474C220.688 43.4474 222.452 43.0861 223.939 42.3635C225.448 41.6197 226.66 40.6528 227.573 39.4627C228.487 38.2513 229.082 36.9337 229.359 35.5098C229.677 34.4472 229.847 33.2677 229.869 31.9714C229.911 30.6538 229.932 29.6443 229.932 28.943L231.909 29.8037C230.06 30.0587 228.243 30.3031 226.458 30.5369C224.673 30.7706 222.983 31.0257 221.389 31.3019C219.795 31.557 218.361 31.8651 217.086 32.2264C216.151 32.5239 215.269 32.9065 214.44 33.374C213.632 33.8415 212.973 34.4472 212.463 35.191C211.975 35.9136 211.73 36.8168 211.73 37.9006C211.73 38.8357 211.964 39.7283 212.431 40.5784C212.92 41.4285 213.664 42.1191 214.663 42.6504C215.683 43.1817 217.011 43.4474 218.648 43.4474Z" fill="#26734E"/>
</svg>
