<svg width="61" height="61" viewBox="0 0 61 61" fill="none" xmlns="http://www.w3.org/2000/svg">
<path d="M30.5 0.5C47.0688 0.5 60.5 13.9312 60.5 30.5C60.5 47.0688 47.0688 60.5 30.5 60.5C13.9312 60.5 0.5 47.0688 0.5 30.5C0.5 13.9312 13.9312 0.5 30.5 0.5ZM40.8482 42.7294C41.3988 41.0371 43.9859 24.1629 44.3035 20.8382C44.4006 19.8306 44.0812 19.1618 43.46 18.8635C42.7065 18.5018 41.5894 18.6818 40.2941 19.1494C38.5171 19.79 15.8071 29.4324 14.4941 29.9918C13.2518 30.5212 12.0729 31.0965 12.0729 31.9329C12.0729 32.5206 12.4224 32.8506 13.3824 33.1929C14.3812 33.5494 16.8976 34.3118 18.3835 34.7212C19.8147 35.1165 21.4435 34.7741 22.3559 34.2059C23.3229 33.6041 34.4935 26.1306 35.2947 25.4759C36.0959 24.8212 36.7347 25.6594 36.08 26.3159C35.4253 26.9706 27.7594 34.4124 26.7465 35.4429C25.5182 36.6941 26.39 37.9894 27.2141 38.51C28.1547 39.1029 34.9171 43.6382 35.9371 44.3671C36.9571 45.0941 37.9876 45.4241 38.9353 45.4241C39.8812 45.4224 40.3771 44.1747 40.8482 42.7294Z" fill="#26734E"/>
</svg>
