<svg width="35" height="35" viewBox="0 0 35 35" fill="none" xmlns="http://www.w3.org/2000/svg">
<path d="M20.0831 33.3917C18.9808 35.5361 15.9152 35.5361 14.8129 33.3917L5.33125 14.947C4.31763 12.9752 5.7493 10.6295 7.96638 10.6295L26.9296 10.6295C29.1467 10.6295 30.5784 12.9752 29.5648 14.947L20.0831 33.3917Z" fill="#26AB69"/>
<path d="M20.0415 6.36666C20.0415 2.85048 18.9116 4.3869e-05 17.5178 4.3869e-05C16.124 4.3869e-05 14.9941 2.85048 14.9941 6.36666C14.9941 9.88285 16.124 12.7333 17.5178 12.7333C18.9116 12.7333 20.0415 9.88285 20.0415 6.36666Z" fill="#26AB69"/>
<path d="M14.8113 6.06469C12.325 3.57837 9.51048 2.36177 8.52491 3.34734C7.53935 4.3329 8.75595 7.14742 11.2423 9.63374C13.7286 12.1201 16.5431 13.3367 17.5287 12.3511C18.5142 11.3655 17.2976 8.55101 14.8113 6.06469Z" fill="#26AB69"/>
<path d="M20.2238 6.06432C22.7102 3.578 25.5247 2.3614 26.5102 3.34697C27.4958 4.33254 26.2792 7.14706 23.7929 9.63338C21.3066 12.1197 18.4921 13.3363 17.5065 12.3507C16.5209 11.3652 17.7375 8.55064 20.2238 6.06432Z" fill="#26AB69"/>
</svg>
