<svg width="68" height="79" viewBox="0 0 68 79" fill="none" xmlns="http://www.w3.org/2000/svg">
<path d="M27.905 43.0645C31.6973 41.2337 36.1179 41.2337 39.9102 43.0645L59.9905 52.7582C73.2053 59.1377 68.6619 78.9998 53.9878 78.9998H13.8273C-0.846807 78.9998 -5.39013 59.1377 7.82471 52.7582L27.905 43.0645Z" fill="#57F0A0"/>
<path d="M27.905 17.9595C31.6973 16.1287 36.1179 16.1287 39.9102 17.9595L59.9905 27.6533C73.2053 34.0327 68.6619 53.8948 53.9878 53.8948H13.8273C-0.846807 53.8948 -5.39013 34.0327 7.82471 27.6533L27.905 17.9595Z" fill="#57F0A0"/>
<path d="M53.6759 19.6127C53.6759 30.4445 44.8247 39.2253 33.9063 39.2253C22.9879 39.2253 14.1367 30.4445 14.1367 19.6127C14.1367 8.78089 22.9879 0 33.9063 0C44.8247 0 53.6759 8.78089 53.6759 19.6127Z" fill="#57F0A0"/>
<path d="M59.8723 6.96153C59.8723 10.8063 56.7555 13.9231 52.9107 13.9231C49.066 13.9231 45.9492 10.8063 45.9492 6.96153C45.9492 3.11678 49.066 0 52.9107 0C56.7555 0 59.8723 3.11678 59.8723 6.96153Z" fill="#57F0A0"/>
<path d="M21.7863 6.96153C21.7863 10.8063 18.6696 13.9231 14.8248 13.9231C10.9801 13.9231 7.86328 10.8063 7.86328 6.96153C7.86328 3.11678 10.9801 0 14.8248 0C18.6696 0 21.7863 3.11678 21.7863 6.96153Z" fill="#57F0A0"/>
</svg>
