<svg width="65" height="65" viewBox="0 0 65 65" fill="none" xmlns="http://www.w3.org/2000/svg">
<rect x="12.3477" y="12.3486" width="39.7937" height="39.7937" fill="#FDFFDD"/>
<path d="M32.5 0C50.4496 0 65 14.5504 65 32.5C65 50.4496 50.4496 65 32.5 65C14.5504 65 0 50.4496 0 32.5C0 14.5504 14.5504 0 32.5 0ZM43.7106 45.7485C44.3071 43.9151 47.1097 25.6349 47.4538 22.0331C47.559 20.9415 47.2129 20.2169 46.54 19.8938C45.7237 19.5019 44.5135 19.6969 43.1103 20.2035C41.1851 20.8975 16.5826 31.3434 15.1603 31.9494C13.8144 32.5229 12.5374 33.1462 12.5374 34.0524C12.5374 34.689 12.9159 35.0465 13.9559 35.4174C15.0379 35.8035 17.7641 36.6294 19.3738 37.0729C20.9243 37.5012 22.6888 37.1303 23.6772 36.5147C24.7249 35.8628 36.8263 27.7665 37.6943 27.0572C38.5622 26.3479 39.2543 27.256 38.545 27.9672C37.8357 28.6765 29.531 36.7384 28.4337 37.8549C27.1031 39.2103 28.0475 40.6135 28.9403 41.1775C29.9593 41.8199 37.2851 46.7331 38.3901 47.5227C39.4951 48.3103 40.6116 48.6678 41.6382 48.6678C42.6629 48.6659 43.2001 47.3143 43.7106 45.7485Z" fill="#0A7A44"/>
</svg>
