<svg width="35" height="35" viewBox="0 0 35 35" fill="none" xmlns="http://www.w3.org/2000/svg">
<path d="M12.7726 17.1109C12.7726 26.0086 9.91333 33.2217 6.38628 33.2217C2.85924 33.2217 0 26.0086 0 17.1109C0 8.21307 2.85924 1 6.38628 1C9.91333 1 12.7726 8.21307 12.7726 17.1109Z" fill="#26AB69"/>
<path d="M23.5128 17.1109C23.5128 26.0086 20.6536 33.2217 17.1265 33.2217C13.5995 33.2217 10.7402 26.0086 10.7402 17.1109C10.7402 8.21307 13.5995 1 17.1265 1C20.6536 1 23.5128 8.21307 23.5128 17.1109Z" fill="#26AB69"/>
<path d="M34.2511 17.1109C34.2511 26.0086 31.3918 33.2217 27.8648 33.2217C24.3378 33.2217 21.4785 26.0086 21.4785 17.1109C21.4785 8.21307 24.3378 1 27.8648 1C31.3918 1 34.2511 8.21307 34.2511 17.1109Z" fill="#26AB69"/>
</svg>
