<svg width="64" height="64" viewBox="0 0 64 64" fill="none" xmlns="http://www.w3.org/2000/svg">
<path d="M32 0C14.328 0 0 14.328 0 32C0 49.672 14.328 64 32 64C49.672 64 64 49.672 64 32C64 14.328 49.672 0 32 0ZM48.9627 42.5787L43.9813 42.648C43.9813 42.648 42.9067 42.8587 41.5013 41.888C39.6373 40.608 37.88 37.2773 36.5093 37.7093C35.12 38.152 35.1627 41.1493 35.1627 41.1493C35.1627 41.1493 35.1733 41.6773 34.856 42.0213C34.512 42.392 33.8373 42.3547 33.8373 42.3547H31.6053C31.6053 42.3547 26.6827 42.7627 22.344 38.24C17.6187 33.3093 13.4427 23.5787 13.4427 23.5787C13.4427 23.5787 13.1973 22.9653 13.4587 22.6507C13.7547 22.304 14.552 22.2933 14.552 22.2933L19.8853 22.2667C19.8853 22.2667 20.3867 22.3547 20.7493 22.6213C21.0453 22.84 21.2133 23.2507 21.2133 23.2507C21.2133 23.2507 22.0747 25.4347 23.2187 27.4133C25.448 31.2693 26.4827 32.1147 27.24 31.7013C28.344 31.0987 28.0133 26.2507 28.0133 26.2507C28.0133 26.2507 28.0347 24.4907 27.4587 23.7067C27.0107 23.096 26.168 22.9147 25.8 22.8693C25.4987 22.8293 25.9893 22.1307 26.6293 21.816C27.5893 21.3467 29.2853 21.32 31.288 21.3387C32.848 21.3547 33.2987 21.4507 33.9067 21.6C35.7467 22.0453 35.1227 23.7627 35.1227 27.8827C35.1227 29.2027 34.8853 31.0587 35.8347 31.6693C36.2453 31.9333 37.2453 31.7093 39.7387 27.4587C40.9253 25.4427 41.8133 23.0747 41.8133 23.0747C41.8133 23.0747 42.008 22.6533 42.3093 22.472C42.6187 22.2853 43.0347 22.344 43.0347 22.344L48.648 22.3093C48.648 22.3093 50.3333 22.1067 50.608 22.872C50.896 23.672 49.9787 25.5413 47.6853 28.6C43.92 33.624 43.5013 33.1573 46.6293 36.064C49.616 38.84 50.232 40.1893 50.336 40.36C51.5707 42.416 48.9627 42.5787 48.9627 42.5787Z" fill="#155335"/>
</svg>
