<svg width="160" height="42" viewBox="0 0 160 42" fill="none" xmlns="http://www.w3.org/2000/svg">
<path d="M9.26578 41L0.857943 17.8355H4.71869L11.2176 36.1312L17.6951 17.8355H21.5773L13.1694 41H9.26578ZM34.2279 41.6435C31.9544 41.6435 29.9668 41.143 28.2652 40.1421C26.5779 39.1268 25.2624 37.7184 24.3187 35.9167C23.3749 34.1007 22.9031 31.9844 22.9031 29.5679C22.9031 27.037 23.3678 24.8492 24.2972 23.0046C25.2266 21.1458 26.5207 19.7159 28.1794 18.7149C29.8524 17.6997 31.8114 17.1921 34.0563 17.1921C36.3871 17.1921 38.3675 17.7283 39.9976 18.8007C41.642 19.8732 42.8717 21.4032 43.6867 23.3907C44.5161 25.3783 44.8735 27.7448 44.7592 30.4902H40.8984V29.1175C40.8555 26.272 40.2764 24.1486 39.1611 22.7473C38.0457 21.3317 36.3871 20.6239 34.185 20.6239C31.8257 20.6239 30.0311 21.3817 28.8014 22.8974C27.5717 24.4131 26.9568 26.5866 26.9568 29.4178C26.9568 32.1489 27.5717 34.2651 28.8014 35.7665C30.0311 37.2679 31.7828 38.0186 34.0563 38.0186C35.5863 38.0186 36.9161 37.6683 38.0457 36.9677C39.1754 36.267 40.0619 35.2589 40.7054 33.9434L44.3731 35.2089C43.4722 37.2536 42.1138 38.8408 40.2978 39.9705C38.4962 41.0858 36.4729 41.6435 34.2279 41.6435ZM25.6699 30.4902V27.4231H42.7859V30.4902H25.6699ZM49.1055 41V17.8355H52.5158V23.4336L51.9582 22.7044C52.2298 21.9894 52.5802 21.3317 53.0091 20.7311C53.4524 20.1305 53.9457 19.6372 54.4891 19.2511C55.0897 18.765 55.7689 18.3932 56.5267 18.1358C57.2846 17.8784 58.0567 17.7283 58.8432 17.6854C59.6296 17.6282 60.366 17.6782 61.0524 17.8355V21.4175C60.2516 21.203 59.3722 21.1458 58.4142 21.2459C57.4561 21.346 56.5696 21.6963 55.7546 22.2968C55.011 22.8259 54.4319 23.4694 54.0172 24.2272C53.6169 24.9851 53.338 25.8073 53.1807 26.6938C53.0234 27.566 52.9448 28.4597 52.9448 29.3749V41H49.1055ZM85.7767 33.3304L86.8446 33.9615C84.3528 39.1069 81.7801 41.6796 79.1265 41.6796C77.2172 41.6796 76.2625 40.3851 76.2625 37.7963C76.2625 37.2138 76.4405 36.1782 76.7965 34.6896C75.858 36.8902 74.6121 38.6053 73.0588 39.835C71.5055 41.0647 69.8551 41.6796 68.1076 41.6796C66.1983 41.6796 64.7097 41.0162 63.6417 39.6894C62.5738 38.3626 62.0399 36.5342 62.0399 34.2042C61.9752 31.7124 62.4929 29.2044 63.5932 26.6803C64.7258 24.1561 66.2306 22.085 68.1076 20.4669C70.0169 18.8165 71.9747 18.0237 73.9811 18.0884C75.4697 18.0884 76.6832 18.6062 77.6217 19.6417C78.5602 20.6449 79.1103 22.0688 79.2721 23.9134L80.6313 18.768H85.1942L81.3594 32.7479C80.6151 35.4663 80.2429 37.2947 80.2429 38.2331C80.2429 39.0422 80.5989 39.4467 81.3109 39.4467C81.861 39.4467 82.5406 38.8642 83.3496 37.6992C84.2557 36.4371 85.0647 34.9809 85.7767 33.3304ZM69.8065 39.8835C71.3275 39.8835 72.7514 39.026 74.0782 37.3108C75.405 35.6604 76.4405 33.6702 77.1848 31.3402C77.8968 29.1073 78.2527 27.02 78.2527 25.0784C78.2527 23.3633 77.9453 22.0688 77.3305 21.1951C76.7156 20.3213 75.9066 19.8844 74.9034 19.8844C73.3824 19.8844 71.9423 20.7744 70.5832 22.5542C69.2887 24.3017 68.2694 26.3243 67.5251 28.6219C66.8131 30.8548 66.4572 32.9583 66.4572 34.9323C66.4572 38.2331 67.5736 39.8835 69.8065 39.8835ZM83.7865 10.9043L83.204 13.5255H70.3405L70.923 10.9043H83.7865ZM106.231 41V29.3963C106.231 28.2953 106.131 27.2372 105.931 26.2219C105.745 25.2067 105.409 24.2987 104.923 23.498C104.451 22.6829 103.808 22.0395 102.993 21.5676C102.192 21.0957 101.177 20.8598 99.9469 20.8598C98.9889 20.8598 98.1167 21.0242 97.3302 21.3531C96.5581 21.6677 95.8932 22.1539 95.3355 22.8116C94.7778 23.4694 94.3417 24.2987 94.0271 25.2996C93.7268 26.2863 93.5767 27.4516 93.5767 28.7958L91.0672 28.0236C91.0672 25.7787 91.4676 23.8554 92.2683 22.2539C93.0834 20.6382 94.2202 19.4013 95.6787 18.5433C97.1515 17.6711 98.8817 17.235 100.869 17.235C102.371 17.235 103.65 17.4709 104.709 17.9428C105.767 18.4147 106.646 19.0438 107.347 19.8303C108.047 20.6024 108.598 21.4746 108.998 22.447C109.399 23.405 109.677 24.3845 109.835 25.3854C110.006 26.3721 110.092 27.3087 110.092 28.1952V41H106.231ZM89.716 41V17.8355H93.1477V24.0342H93.5767V41H89.716ZM124.124 41.6435C121.965 41.6435 120.113 41.1072 118.569 40.0348C117.025 38.9481 115.831 37.4824 114.987 35.6379C114.158 33.7933 113.743 31.7128 113.743 29.3963C113.743 27.0799 114.158 24.9994 114.987 23.1548C115.831 21.3102 117.025 19.8589 118.569 18.8007C120.113 17.7283 121.958 17.1921 124.103 17.1921C126.29 17.1921 128.128 17.7211 129.615 18.7793C131.102 19.8374 132.225 21.2888 132.982 23.1333C133.755 24.9779 134.141 27.0656 134.141 29.3963C134.141 31.6985 133.755 33.779 132.982 35.6379C132.225 37.4824 131.102 38.9481 129.615 40.0348C128.128 41.1072 126.298 41.6435 124.124 41.6435ZM124.596 38.1473C126.155 38.1473 127.434 37.7756 128.435 37.032C129.436 36.2742 130.173 35.2375 130.645 33.922C131.131 32.5922 131.374 31.0836 131.374 29.3963C131.374 27.6804 131.131 26.1719 130.645 24.8707C130.173 23.5552 129.443 22.5328 128.457 21.8035C127.47 21.06 126.219 20.6882 124.703 20.6882C123.13 20.6882 121.829 21.0743 120.8 21.8464C119.784 22.6186 119.027 23.6624 118.526 24.9779C118.04 26.2934 117.797 27.7662 117.797 29.3963C117.797 31.0407 118.047 32.5278 118.548 33.8576C119.048 35.1731 119.799 36.217 120.8 36.9891C121.815 37.7613 123.08 38.1473 124.596 38.1473ZM131.374 41V23.9484H130.945V10.1141H134.784V41H131.374ZM146.949 41.6435C145.219 41.6435 143.768 41.3289 142.595 40.6997C141.437 40.0563 140.557 39.2126 139.957 38.1688C139.371 37.125 139.078 35.981 139.078 34.737C139.078 33.5216 139.306 32.4706 139.764 31.5841C140.236 30.6832 140.893 29.9397 141.737 29.3534C142.581 28.7529 143.589 28.281 144.761 27.9378C145.862 27.6375 147.092 27.3802 148.451 27.1657C149.823 26.9369 151.21 26.7295 152.612 26.5437C154.013 26.3578 155.321 26.179 156.537 26.0074L155.164 26.801C155.207 24.742 154.792 23.2191 153.92 22.2325C153.062 21.2459 151.575 20.7525 149.459 20.7525C148.057 20.7525 146.828 21.0743 145.769 21.7177C144.726 22.3469 143.989 23.3764 143.56 24.8063L139.935 23.7124C140.493 21.682 141.573 20.0876 143.174 18.9294C144.776 17.7712 146.885 17.1921 149.502 17.1921C151.603 17.1921 153.405 17.571 154.907 18.3289C156.422 19.0724 157.509 20.202 158.167 21.7177C158.496 22.4327 158.703 23.212 158.789 24.0556C158.875 24.885 158.917 25.7572 158.917 26.6724V41H155.529V35.4448L156.322 35.9596C155.45 37.8328 154.227 39.2484 152.654 40.2064C151.096 41.1644 149.194 41.6435 146.949 41.6435ZM147.528 38.4476C148.901 38.4476 150.088 38.2045 151.089 37.7184C152.104 37.2179 152.919 36.5673 153.534 35.7665C154.149 34.9515 154.549 34.065 154.735 33.1069C154.949 32.392 155.064 31.5984 155.078 30.7261C155.107 29.8396 155.121 29.1604 155.121 28.6885L156.451 29.2676C155.207 29.4392 153.984 29.6037 152.783 29.7609C151.582 29.9182 150.445 30.0898 149.373 30.2757C148.3 30.4473 147.335 30.6546 146.477 30.8977C145.848 31.0979 145.255 31.3553 144.697 31.6699C144.154 31.9844 143.71 32.392 143.367 32.8924C143.038 33.3786 142.874 33.9863 142.874 34.7156C142.874 35.3447 143.031 35.9453 143.346 36.5172C143.675 37.0892 144.175 37.5539 144.847 37.9114C145.534 38.2689 146.427 38.4476 147.528 38.4476Z" fill="#26734E"/>
</svg>
