<svg width="83" height="82" viewBox="0 0 83 82" fill="none" xmlns="http://www.w3.org/2000/svg">
<path d="M41.8145 0C19.1722 0 0.814453 18.3578 0.814453 41C0.814453 63.6422 19.1722 82 41.8145 82C64.4567 82 82.8145 63.6422 82.8145 41C82.8145 18.3578 64.4567 0 41.8145 0ZM63.5479 54.5539L57.1655 54.6427C57.1655 54.6427 55.7886 54.9127 53.988 53.669C51.5998 52.029 49.3482 47.7616 47.592 48.3151C45.812 48.8823 45.8666 52.7226 45.8666 52.7226C45.8666 52.7226 45.8803 53.3991 45.4737 53.8398C45.0329 54.3147 44.1685 54.2669 44.1685 54.2669H41.3088C41.3088 54.2669 35.0016 54.7897 29.4427 48.995C23.3884 42.6776 18.0379 30.2102 18.0379 30.2102C18.0379 30.2102 17.7235 29.4243 18.0584 29.0212C18.4376 28.577 19.4592 28.5633 19.4592 28.5633L26.2925 28.5292C26.2925 28.5292 26.9349 28.6419 27.3995 28.9836C27.7788 29.2637 27.994 29.7899 27.994 29.7899C27.994 29.7899 29.0976 32.5882 30.5634 35.1233C33.4197 40.0638 34.7454 41.1469 35.7157 40.6173C37.1302 39.8452 36.7065 33.6337 36.7065 33.6337C36.7065 33.6337 36.7339 31.3787 35.9959 30.3742C35.4219 29.5917 34.3422 29.3594 33.8707 29.3013C33.4846 29.2501 34.1133 28.3549 34.9333 27.9517C36.1633 27.3504 38.3363 27.3162 40.9022 27.3402C42.9009 27.3607 43.4784 27.4837 44.2574 27.675C46.6149 28.2456 45.8154 30.4459 45.8154 35.7247C45.8154 37.4159 45.5113 39.7939 46.7276 40.5763C47.2538 40.9146 48.535 40.6276 51.7296 35.1814C53.25 32.5984 54.3878 29.5644 54.3878 29.5644C54.3878 29.5644 54.6372 29.0246 55.0233 28.7922C55.4196 28.5531 55.9526 28.6282 55.9526 28.6282L63.1447 28.5838C63.1447 28.5838 65.304 28.3242 65.656 29.3047C66.025 30.3297 64.8496 32.7248 61.9113 36.6437C57.087 43.0807 56.5505 42.4828 60.5583 46.207C64.385 49.7637 65.1742 51.4926 65.3074 51.7112C66.8894 54.3455 63.5479 54.5539 63.5479 54.5539Z" fill="#57F0A0"/>
</svg>
