<svg width="569" height="678" viewBox="0 0 569 678" fill="none" xmlns="http://www.w3.org/2000/svg">
<g clip-path="url(#clip0_736_192)">
<path d="M256.332 410.197C272.724 396.784 296.298 396.784 312.691 410.197L546.268 601.308C578.635 627.79 559.909 680.249 518.089 680.249H50.9334C9.11313 680.249 -9.61282 627.79 22.7541 601.308L256.332 410.197Z" fill="#26AB69" stroke="#155335" stroke-width="3"/>
<path d="M256.332 217.595C272.724 204.183 296.298 204.183 312.691 217.595L546.268 408.707C578.635 435.189 559.909 487.648 518.089 487.648H50.9334C9.11313 487.648 -9.61282 435.189 22.7541 408.707L256.332 217.595Z" fill="#26AB69" stroke="#155335" stroke-width="3"/>
<path d="M256.332 24.9942C272.724 11.5821 296.298 11.5821 312.691 24.9942L546.268 216.106C578.635 242.588 559.909 295.047 518.089 295.047H50.9334C9.11313 295.047 -9.61282 242.588 22.7541 216.106L256.332 24.9942Z" fill="#26AB69" stroke="#155335" stroke-width="3"/>
<path d="M348.961 578.778C348.961 572.293 354.218 567.035 360.704 567.035H363.452C369.937 567.035 375.195 572.293 375.195 578.778V680.75C375.195 687.235 369.937 692.493 363.452 692.493H360.704C354.218 692.493 348.961 687.235 348.961 680.75V578.778Z" fill="#57F0A0" stroke="#155335" stroke-width="3"/>
<path d="M430.998 650.415C430.998 645.941 434.625 642.313 439.099 642.313C443.573 642.313 447.201 645.941 447.201 650.415V678.887C447.201 683.362 443.573 686.989 439.099 686.989C434.625 686.989 430.998 683.362 430.998 678.887V650.415Z" fill="#57F0A0" stroke="#155335" stroke-width="3"/>
<path d="M354.348 535.154C358.673 531.615 364.894 531.615 369.22 535.154L432.735 587.122C441.276 594.11 436.334 607.953 425.298 607.953H298.269C287.233 607.953 282.292 594.11 290.833 587.122L354.348 535.154Z" fill="#57F0A0" stroke="#155335" stroke-width="3"/>
<path d="M431.387 628.311C435.713 624.771 441.933 624.771 446.259 628.311L464.258 643.037C472.799 650.026 467.858 663.869 456.822 663.869H420.824C409.788 663.869 404.847 650.026 413.388 643.037L431.387 628.311Z" fill="#57F0A0" stroke="#155335" stroke-width="3"/>
</g>
<defs>
<clipPath id="clip0_736_192">
<rect width="569" height="678" fill="white"/>
</clipPath>
</defs>
</svg>
