<svg width="67" height="79" viewBox="0 0 67 79" fill="none" xmlns="http://www.w3.org/2000/svg">
<circle cx="38.1658" cy="31.3845" r="23.0938" transform="rotate(7 38.1658 31.3845)" fill="#A7EF9B"/>
<mask id="path-2-outside-1_1605_130" maskUnits="userSpaceOnUse" x="-0.28778" y="40.0098" width="40.5208" height="39.6695" fill="black">
<rect fill="white" x="-0.28778" y="40.0098" width="40.5208" height="39.6695"/>
<path fill-rule="evenodd" clip-rule="evenodd" d="M20.0951 47.2045L6.86465 64.7616C5.34943 66.7724 5.75115 69.6307 7.76192 71.1459L9.64813 72.5673L11.3589 73.8564C13.4666 75.4446 16.4627 75.0235 18.0509 72.9159L31.8 54.6705C27.2955 53.2524 23.2561 50.6599 20.0951 47.2045Z"/>
</mask>
<path fill-rule="evenodd" clip-rule="evenodd" d="M20.0951 47.2045L6.86465 64.7616C5.34943 66.7724 5.75115 69.6307 7.76192 71.1459L9.64813 72.5673L11.3589 73.8564C13.4666 75.4446 16.4627 75.0235 18.0509 72.9159L31.8 54.6705C27.2955 53.2524 23.2561 50.6599 20.0951 47.2045Z" fill="#FDFFDD"/>
<path d="M6.86465 64.7616L4.46874 62.9561L4.46874 62.9561L6.86465 64.7616ZM20.0951 47.2045L22.3086 45.1795L19.8718 42.5158L17.6992 45.399L20.0951 47.2045ZM7.76192 71.1459L9.56735 68.75L9.56735 68.75L7.76192 71.1459ZM9.64813 72.5673L11.4536 70.1713L11.4536 70.1713L9.64813 72.5673ZM11.3589 73.8564L9.55345 76.2523L9.55345 76.2523L11.3589 73.8564ZM18.0509 72.9159L15.655 71.1104L15.655 71.1104L18.0509 72.9159ZM31.8 54.6705L34.1959 56.4759L36.7517 53.0842L32.7008 51.8089L31.8 54.6705ZM9.26055 66.5671L22.491 49.0099L17.6992 45.399L4.46874 62.9561L9.26055 66.5671ZM9.56735 68.75C8.87982 68.2319 8.74246 67.2546 9.26055 66.5671L4.46874 62.9561C1.95639 66.2901 2.62248 71.0295 5.9565 73.5418L9.56735 68.75ZM11.4536 70.1713L9.56735 68.75L5.95649 73.5418L7.8427 74.9632L11.4536 70.1713ZM13.1643 71.4605L11.4536 70.1713L7.8427 74.9632L9.55345 76.2523L13.1643 71.4605ZM15.655 71.1104C15.0639 71.8949 13.9488 72.0516 13.1643 71.4605L9.55345 76.2523C12.9843 78.8376 17.8615 78.1522 20.4468 74.7214L15.655 71.1104ZM29.4041 52.865L15.655 71.1104L20.4468 74.7214L34.1959 56.4759L29.4041 52.865ZM32.7008 51.8089C28.7041 50.5507 25.1163 48.2488 22.3086 45.1795L17.8815 49.2294C21.3959 53.071 25.8868 55.954 30.8991 57.532L32.7008 51.8089Z" fill="#26734E" mask="url(#path-2-outside-1_1605_130)"/>
<path d="M63.7333 27.7143C65.6682 41.482 56.0758 54.2114 42.3079 56.1463C28.5401 58.0812 15.8104 48.4889 13.8755 34.7212C11.9405 20.9535 21.5329 8.22403 35.3008 6.28913C49.0687 4.35422 61.7983 13.9466 63.7333 27.7143Z" fill="#A7EF9B" stroke="#26734E" stroke-width="3"/>
<path d="M12.4926 24.3129C17.7905 28.305 25.3216 27.2466 29.3138 21.9488C33.3061 16.651 32.2476 9.12001 26.9498 5.12783C21.6519 1.13565 14.1208 2.19404 10.1286 7.49185C6.13633 12.7897 7.19478 20.3207 12.4926 24.3129Z" fill="#FDFFDD" stroke="#26734E" stroke-width="3"/>
</svg>
