<svg width="83" height="82" viewBox="0 0 83 82" fill="none" xmlns="http://www.w3.org/2000/svg">
<mask id="mask0_747_140" style="mask-type:alpha" maskUnits="userSpaceOnUse" x="0" y="0" width="83" height="82">
<circle cx="41.8145" cy="41" r="41" fill="#60757E"/>
</mask>
<g mask="url(#mask0_747_140)">
<path d="M94.8243 9.12452C93.5633 4.40952 89.8461 0.692347 85.1311 -0.568641C76.5783 -2.86035 42.2904 -2.86035 42.2904 -2.86035C42.2904 -2.86035 8.00251 -2.86035 -0.550284 -0.568641C-5.26528 0.692347 -8.98246 4.40952 -10.2434 9.12452C-12.5352 17.6773 -12.5352 41.0001 -12.5352 41.0001C-12.5352 41.0001 -12.5352 64.3229 -10.2434 72.8757C-8.98246 77.5907 -5.26528 81.3079 -0.550284 82.5689C8.00251 84.8606 42.2904 84.8606 42.2904 84.8606C42.2904 84.8606 76.5783 84.8606 85.1311 82.5689C89.8516 81.3079 93.5633 77.5907 94.8243 72.8757C97.116 64.3229 97.116 41.0001 97.116 41.0001C97.116 41.0001 97.116 17.6773 94.8243 9.12452ZM31.3253 55.2438V26.7564C31.3253 24.6456 33.6115 23.3298 35.4372 24.3825L60.1087 38.6262C61.9344 39.6788 61.9344 42.3214 60.1087 43.3741L35.4372 57.6177C33.6115 58.6759 31.3253 57.3546 31.3253 55.2438Z" fill="#57F0A0"/>
</g>
</svg>
