<svg width="32" height="32" viewBox="0 0 32 32" fill="none" xmlns="http://www.w3.org/2000/svg">
<mask id="path-1-inside-1_793_219" fill="white">
<path fill-rule="evenodd" clip-rule="evenodd" d="M3.15108 3.02746C3.14857 0.817977 5.43172 -0.64894 7.41604 0.28724L27.2859 9.66164C29.4166 10.6669 29.6015 13.6471 27.6124 14.925L21.2782 18.9947C21.232 19.0244 21.2184 19.0858 21.2477 19.1323L25.3098 25.5636C26.5389 27.5096 25.9655 30.0957 24.029 31.3399C22.0926 32.584 19.5264 32.015 18.2973 30.069L14.2361 23.639C14.2064 23.5921 14.1442 23.5783 14.0975 23.6083L7.76771 27.6751C5.77871 28.9531 3.17892 27.5244 3.17623 25.152L3.15108 3.02746Z"/>
</mask>
<path fill-rule="evenodd" clip-rule="evenodd" d="M3.15108 3.02746C3.14857 0.817977 5.43172 -0.64894 7.41604 0.28724L27.2859 9.66164C29.4166 10.6669 29.6015 13.6471 27.6124 14.925L21.2782 18.9947C21.232 19.0244 21.2184 19.0858 21.2477 19.1323L25.3098 25.5636C26.5389 27.5096 25.9655 30.0957 24.029 31.3399C22.0926 32.584 19.5264 32.015 18.2973 30.069L14.2361 23.639C14.2064 23.5921 14.1442 23.5783 14.0975 23.6083L7.76771 27.6751C5.77871 28.9531 3.17892 27.5244 3.17623 25.152L3.15108 3.02746Z" fill="white"/>
<path d="M7.41604 0.28724L8.26941 -1.52156L8.26941 -1.52156L7.41604 0.28724ZM3.15108 3.02746L5.15108 3.02518L5.15108 3.02518L3.15108 3.02746ZM27.2859 9.66164L28.1393 7.85284L27.2859 9.66164ZM27.6124 14.925L28.6935 16.6076L27.6124 14.925ZM25.3098 25.5636L27.0007 24.4955L27.0007 24.4955L25.3098 25.5636ZM24.029 31.3399L25.1101 33.0225L25.1101 33.0225L24.029 31.3399ZM18.2973 30.069L19.9883 29.001L19.9883 29.001L18.2973 30.069ZM7.76771 27.6751L6.68663 25.9925L6.68663 25.9925L7.76771 27.6751ZM3.17623 25.152L1.17623 25.1543L1.17623 25.1543L3.17623 25.152ZM14.2361 23.639L15.927 22.571L14.2361 23.639ZM14.0975 23.6083L15.1785 25.2909L14.0975 23.6083ZM21.2782 18.9947L22.3593 20.6774L21.2782 18.9947ZM21.2477 19.1323L22.9386 18.0642L21.2477 19.1323ZM6.56266 2.09604C5.93077 1.79792 5.1502 2.25597 5.15108 3.02518L1.15108 3.02973C1.14693 -0.620013 4.93267 -3.0958 8.26941 -1.52156L6.56266 2.09604ZM26.4325 11.4704L6.56266 2.09604L8.26941 -1.52156L28.1393 7.85284L26.4325 11.4704ZM26.5314 13.2424C27.2132 12.8043 27.1265 11.7978 26.4325 11.4704L28.1393 7.85284C31.7066 9.53587 31.9897 14.4899 28.6935 16.6076L26.5314 13.2424ZM20.1971 17.3121L26.5314 13.2424L28.6935 16.6076L22.3593 20.6774L20.1971 17.3121ZM23.6188 26.6316L19.5567 20.2003L22.9386 18.0642L27.0007 24.4955L23.6188 26.6316ZM22.948 29.6572C23.9602 29.0069 24.2613 27.6488 23.6188 26.6316L27.0007 24.4955C28.8165 27.3703 27.9708 31.1845 25.1101 33.0225L22.948 29.6572ZM19.9883 29.001C20.6243 30.008 21.9459 30.301 22.948 29.6572L25.1101 33.0225C22.2393 34.867 18.4286 34.0221 16.6063 31.1371L19.9883 29.001ZM15.927 22.571L19.9883 29.001L16.6063 31.1371L12.5451 24.7071L15.927 22.571ZM6.68663 25.9925L13.0164 21.9257L15.1785 25.2909L8.8488 29.3578L6.68663 25.9925ZM5.17622 25.1497C5.17714 25.9588 6.04271 26.4062 6.68663 25.9925L8.8488 29.3578C5.51471 31.4999 1.1807 29.09 1.17623 25.1543L5.17622 25.1497ZM5.15108 3.02518L5.17622 25.1497L1.17623 25.1543L1.15108 3.02973L5.15108 3.02518ZM12.5451 24.7071C13.1085 25.5991 14.2909 25.8613 15.1785 25.2909L13.0164 21.9257C13.9975 21.2953 15.3043 21.5851 15.927 22.571L12.5451 24.7071ZM22.3593 20.6774C23.2373 20.1132 23.4959 18.9466 22.9386 18.0642L19.5567 20.2003C18.9408 19.2251 19.2267 17.9356 20.1971 17.3121L22.3593 20.6774Z" fill="#155335" mask="url(#path-1-inside-1_793_219)"/>
</svg>
