<svg width="42" height="36" viewBox="0 0 42 36" fill="none" xmlns="http://www.w3.org/2000/svg">
<path d="M27.1927 24.7975C27.1927 30.9536 24.8686 35.9441 22.0016 35.9441C19.1347 35.9441 16.8105 30.9536 16.8105 24.7975C16.8105 18.6414 19.1347 13.6509 22.0016 13.6509C24.8686 13.6509 27.1927 18.6414 27.1927 24.7975Z" fill="#26AB69"/>
<path d="M16.4328 25.3263C11.3186 29.6793 5.52939 31.8093 3.50215 30.0838C1.47491 28.3583 3.97736 23.4307 9.09153 19.0776C14.2057 14.7246 19.995 12.5946 22.0222 14.3201C24.0494 16.0457 21.547 20.9733 16.4328 25.3263Z" fill="#26AB69"/>
<path d="M27.5672 25.3263C32.6814 29.6793 38.4706 31.8093 40.4979 30.0838C42.5251 28.3583 40.0226 23.4307 34.9085 19.0776C29.7943 14.7246 24.005 12.5946 21.9778 14.3201C19.9506 16.0457 22.453 20.9733 27.5672 25.3263Z" fill="#26AB69"/>
<path d="M27.1927 11.1467C27.1927 4.99064 24.8686 0.000136194 22.0016 0.000136194C19.1347 0.000136194 16.8105 4.99064 16.8105 11.1467C16.8105 17.3028 19.1347 22.2933 22.0016 22.2933C24.8686 22.2933 27.1927 17.3028 27.1927 11.1467Z" fill="#26AB69"/>
<path d="M16.4328 10.6175C11.3186 6.26453 5.52939 4.13453 3.50215 5.86005C1.47491 7.58557 3.97736 12.5132 9.09153 16.8662C14.2057 21.2192 19.995 23.3492 22.0222 21.6237C24.0494 19.8982 21.547 14.9706 16.4328 10.6175Z" fill="#26AB69"/>
<path d="M27.5672 10.6175C32.6814 6.26453 38.4706 4.13453 40.4979 5.86005C42.5251 7.58557 40.0226 12.5132 34.9085 16.8662C29.7943 21.2192 24.005 23.3492 21.9778 21.6237C19.9506 19.8982 22.453 14.9706 27.5672 10.6175Z" fill="#26AB69"/>
</svg>
