<svg width="64" height="64" viewBox="0 0 64 64" fill="none" xmlns="http://www.w3.org/2000/svg">
<path d="M32 0C49.6734 0 64 14.3266 64 32C64 49.6734 49.6734 64 32 64C14.3266 64 0 49.6734 0 32C0 14.3266 14.3266 0 32 0ZM43.0381 45.0447C43.6254 43.2395 46.3849 25.2405 46.7238 21.6941C46.8273 20.6193 46.4866 19.9059 45.824 19.5878C45.0202 19.2019 43.8287 19.3939 42.4471 19.8927C40.5515 20.576 16.3275 30.8612 14.9271 31.4579C13.6019 32.0226 12.3445 32.6362 12.3445 33.5285C12.3445 34.1553 12.7172 34.5073 13.7412 34.8725C14.8066 35.2527 17.4908 36.0659 19.0758 36.5026C20.6024 36.9242 22.3398 36.5591 23.3129 35.9529C24.3445 35.3111 36.2598 27.3393 37.1144 26.6409C37.9689 25.9426 38.6504 26.8367 37.952 27.5369C37.2536 28.2353 29.0767 36.1732 27.9962 37.2725C26.6861 38.6071 27.616 39.9887 28.4951 40.544C29.4984 41.1765 36.7115 46.0141 37.7995 46.7915C38.8875 47.5671 39.9868 47.9191 40.9976 47.9191C42.0066 47.9172 42.5355 46.5864 43.0381 45.0447Z" fill="#155335"/>
</svg>
